<?xml version="1.0" encoding="UTF-8" standalone="no"?>
<!DOCTYPE svg PUBLIC "-//W3C//DTD SVG 1.1//EN"
 "http://www.w3.org/Graphics/SVG/1.1/DTD/svg11.dtd">
<!-- Generated by graphviz version 2.38.0 (20140413.2041)
 -->
<!-- Title: G Pages: 1 -->
<svg width="457pt" height="720pt"
 viewBox="0.00 0.00 720.00 456.81" xmlns="http://www.w3.org/2000/svg" xmlns:xlink="http://www.w3.org/1999/xlink">
<g id="graph0" class="graph" transform="scale(0.383387 0.383387) rotate(-90) translate(-1874 1187.5)">
<title>G</title>
<polygon fill="white" stroke="none" points="-4,4 -4,-1187.5 1874,-1187.5 1874,4 -4,4"/>
<!-- Ketrew_artifact -->
<g id="node1" class="node"><title>Ketrew_artifact</title>
<ellipse fill="darkturquoise" stroke="darkturquoise" cx="430" cy="-453" rx="65.6803" ry="18"/>
<text text-anchor="middle" x="430" y="-448.8" font-family="Times,serif" font-size="14.00">Ketrew_artifact</text>
</g>
<!-- Ketrew_pervasives -->
<g id="node2" class="node"><title>Ketrew_pervasives</title>
<ellipse fill="darkturquoise" stroke="darkturquoise" cx="876" cy="-35" rx="77.7589" ry="18"/>
<text text-anchor="middle" x="876" y="-30.8" font-family="Times,serif" font-size="14.00">Ketrew_pervasives</text>
</g>
<!-- Ketrew_artifact&#45;&gt;Ketrew_pervasives -->
<g id="edge1" class="edge"><title>Ketrew_artifact&#45;&gt;Ketrew_pervasives</title>
<path fill="none" stroke="black" d="M427.612,-434.697C421.732,-384.619 411.936,-237.913 485,-156 561.801,-69.8979 698.629,-44.7529 788.343,-37.8715"/>
<polygon fill="black" stroke="black" points="788.771,-41.3501 798.5,-37.1548 788.278,-34.3675 788.771,-41.3501"/>
</g>
<!-- Ketrew_path -->
<g id="node3" class="node"><title>Ketrew_path</title>
<ellipse fill="darkturquoise" stroke="darkturquoise" cx="735" cy="-174" rx="55.5596" ry="18"/>
<text text-anchor="middle" x="735" y="-169.8" font-family="Times,serif" font-size="14.00">Ketrew_path</text>
</g>
<!-- Ketrew_artifact&#45;&gt;Ketrew_path -->
<g id="edge2" class="edge"><title>Ketrew_artifact&#45;&gt;Ketrew_path</title>
<path fill="none" stroke="black" d="M435.953,-434.914C447.523,-403.764 475.678,-337.08 518,-295 567.696,-245.589 641.933,-210.495 689.406,-191.49"/>
<polygon fill="black" stroke="black" points="690.793,-194.706 698.82,-187.792 688.233,-188.191 690.793,-194.706"/>
</g>
<!-- Ketrew_host -->
<g id="node4" class="node"><title>Ketrew_host</title>
<ellipse fill="darkturquoise" stroke="darkturquoise" cx="818" cy="-313" rx="55.0922" ry="18"/>
<text text-anchor="middle" x="818" y="-308.8" font-family="Times,serif" font-size="14.00">Ketrew_host</text>
</g>
<!-- Ketrew_artifact&#45;&gt;Ketrew_host -->
<g id="edge3" class="edge"><title>Ketrew_artifact&#45;&gt;Ketrew_host</title>
<path fill="none" stroke="black" d="M468.621,-438.264C540.77,-412.602 695.662,-357.512 772.645,-330.131"/>
<polygon fill="black" stroke="black" points="773.833,-333.424 782.082,-326.775 771.488,-326.828 773.833,-333.424"/>
</g>
<!-- Ketrew_path&#45;&gt;Ketrew_pervasives -->
<g id="edge48" class="edge"><title>Ketrew_path&#45;&gt;Ketrew_pervasives</title>
<path fill="none" stroke="black" d="M751.728,-156.746C776.505,-132.672 823.097,-87.4021 851.658,-59.6519"/>
<polygon fill="black" stroke="black" points="854.121,-62.1387 858.854,-52.6598 849.243,-57.1182 854.121,-62.1387"/>
</g>
<!-- Ketrew_host&#45;&gt;Ketrew_pervasives -->
<g id="edge36" class="edge"><title>Ketrew_host&#45;&gt;Ketrew_pervasives</title>
<path fill="none" stroke="black" d="M819.179,-294.977C821.4,-266.118 827.002,-205.862 838,-156 845.208,-123.323 857.388,-86.804 866.014,-62.7301"/>
<polygon fill="black" stroke="black" points="869.343,-63.8163 869.468,-53.2222 862.764,-61.4259 869.343,-63.8163"/>
</g>
<!-- Ketrew_host&#45;&gt;Ketrew_path -->
<g id="edge37" class="edge"><title>Ketrew_host&#45;&gt;Ketrew_path</title>
<path fill="none" stroke="black" d="M807.823,-295.201C793.511,-271.578 767.316,-228.341 750.553,-200.672"/>
<polygon fill="black" stroke="black" points="753.436,-198.676 745.261,-191.936 747.449,-202.303 753.436,-198.676"/>
</g>
<!-- Ketrew_unix_process -->
<g id="node18" class="node"><title>Ketrew_unix_process</title>
<ellipse fill="darkturquoise" stroke="darkturquoise" cx="934" cy="-174" rx="87.4394" ry="18"/>
<text text-anchor="middle" x="934" y="-169.8" font-family="Times,serif" font-size="14.00">Ketrew_unix_process</text>
</g>
<!-- Ketrew_host&#45;&gt;Ketrew_unix_process -->
<g id="edge35" class="edge"><title>Ketrew_host&#45;&gt;Ketrew_unix_process</title>
<path fill="none" stroke="black" d="M831.992,-295.475C852.175,-271.638 889.605,-227.431 913.08,-199.707"/>
<polygon fill="black" stroke="black" points="915.803,-201.907 919.594,-192.014 910.461,-197.384 915.803,-201.907"/>
</g>
<!-- Ketrew_command_line -->
<g id="node5" class="node"><title>Ketrew_command_line</title>
<ellipse fill="darkturquoise" stroke="darkturquoise" cx="514" cy="-1009" rx="93.2188" ry="18"/>
<text text-anchor="middle" x="514" y="-1004.8" font-family="Times,serif" font-size="14.00">Ketrew_command_line</text>
</g>
<!-- Ketrew_command_line&#45;&gt;Ketrew_artifact -->
<g id="edge4" class="edge"><title>Ketrew_command_line&#45;&gt;Ketrew_artifact</title>
<path fill="none" stroke="black" d="M471.253,-992.804C425.623,-974.547 354.091,-939.756 311,-888 226.791,-786.857 232.022,-739.58 209,-610 206.201,-594.247 200.819,-587.751 209,-574 243.811,-515.486 318.222,-483.731 371.068,-467.848"/>
<polygon fill="black" stroke="black" points="372.369,-471.115 381.001,-464.971 370.422,-464.391 372.369,-471.115"/>
</g>
<!-- Ketrew_command_line&#45;&gt;Ketrew_pervasives -->
<g id="edge9" class="edge"><title>Ketrew_command_line&#45;&gt;Ketrew_pervasives</title>
<path fill="none" stroke="black" d="M452.377,-995.459C340.173,-968.633 114,-894.415 114,-732 114,-732 114,-732 114,-312 114,-196.8 216.257,-203.958 321,-156 478.54,-83.8676 681.372,-54.2176 793.042,-42.7174"/>
<polygon fill="black" stroke="black" points="793.63,-46.176 803.23,-41.6927 792.93,-39.2111 793.63,-46.176"/>
</g>
<!-- Ketrew_error -->
<g id="node6" class="node"><title>Ketrew_error</title>
<ellipse fill="darkturquoise" stroke="darkturquoise" cx="914" cy="-453" rx="57.9719" ry="18"/>
<text text-anchor="middle" x="914" y="-448.8" font-family="Times,serif" font-size="14.00">Ketrew_error</text>
</g>
<!-- Ketrew_command_line&#45;&gt;Ketrew_error -->
<g id="edge5" class="edge"><title>Ketrew_command_line&#45;&gt;Ketrew_error</title>
<path fill="none" stroke="black" d="M532.811,-991.224C558.363,-968.304 605.293,-925.737 644,-888 705.663,-827.882 730.374,-820.078 779,-749 841.014,-658.352 886.883,-534.637 905.221,-480.826"/>
<polygon fill="black" stroke="black" points="908.646,-481.62 908.518,-471.026 902.012,-479.388 908.646,-481.62"/>
</g>
<!-- Ketrew_state -->
<g id="node7" class="node"><title>Ketrew_state</title>
<ellipse fill="darkturquoise" stroke="darkturquoise" cx="713" cy="-731" rx="56.5201" ry="18"/>
<text text-anchor="middle" x="713" y="-726.8" font-family="Times,serif" font-size="14.00">Ketrew_state</text>
</g>
<!-- Ketrew_command_line&#45;&gt;Ketrew_state -->
<g id="edge6" class="edge"><title>Ketrew_command_line&#45;&gt;Ketrew_state</title>
<path fill="none" stroke="black" d="M530.104,-991.265C551.401,-968.735 589.556,-926.968 618,-888 649.853,-844.363 681.386,-789.712 698.916,-758.036"/>
<polygon fill="black" stroke="black" points="702.144,-759.431 703.892,-748.981 696.009,-756.059 702.144,-759.431"/>
</g>
<!-- Ketrew_target -->
<g id="node8" class="node"><title>Ketrew_target</title>
<ellipse fill="darkturquoise" stroke="darkturquoise" cx="511" cy="-592" rx="60.5585" ry="18"/>
<text text-anchor="middle" x="511" y="-587.8" font-family="Times,serif" font-size="14.00">Ketrew_target</text>
</g>
<!-- Ketrew_command_line&#45;&gt;Ketrew_target -->
<g id="edge7" class="edge"><title>Ketrew_command_line&#45;&gt;Ketrew_target</title>
<path fill="none" stroke="black" d="M492.221,-991.338C466.867,-970.42 426.38,-931.911 410,-888 372.977,-788.752 451.564,-668.87 490.654,-617.886"/>
<polygon fill="black" stroke="black" points="493.614,-619.782 497.011,-609.746 488.097,-615.473 493.614,-619.782"/>
</g>
<!-- Ketrew_user_command -->
<g id="node9" class="node"><title>Ketrew_user_command</title>
<ellipse fill="darkturquoise" stroke="darkturquoise" cx="514" cy="-870" rx="94.6636" ry="18"/>
<text text-anchor="middle" x="514" y="-865.8" font-family="Times,serif" font-size="14.00">Ketrew_user_command</text>
</g>
<!-- Ketrew_command_line&#45;&gt;Ketrew_user_command -->
<g id="edge8" class="edge"><title>Ketrew_command_line&#45;&gt;Ketrew_user_command</title>
<path fill="none" stroke="black" d="M514,-990.926C514,-967.75 514,-926.064 514,-898.461"/>
<polygon fill="black" stroke="black" points="517.5,-898.289 514,-888.289 510.5,-898.289 517.5,-898.289"/>
</g>
<!-- Ketrew_long_running -->
<g id="node10" class="node"><title>Ketrew_long_running</title>
<ellipse fill="darkturquoise" stroke="darkturquoise" cx="1192" cy="-453" rx="88.417" ry="18"/>
<text text-anchor="middle" x="1192" y="-448.8" font-family="Times,serif" font-size="14.00">Ketrew_long_running</text>
</g>
<!-- Ketrew_command_line&#45;&gt;Ketrew_long_running -->
<g id="edge10" class="edge"><title>Ketrew_command_line&#45;&gt;Ketrew_long_running</title>
<path fill="none" stroke="black" d="M557.488,-992.989C671.804,-951.284 983.063,-822.862 1145,-610 1174.36,-571.405 1185.48,-514.537 1189.61,-481.182"/>
<polygon fill="black" stroke="black" points="1193.09,-481.558 1190.73,-471.231 1186.14,-480.78 1193.09,-481.558"/>
</g>
<!-- Ketrew_configuration -->
<g id="node11" class="node"><title>Ketrew_configuration</title>
<ellipse fill="darkturquoise" stroke="darkturquoise" cx="306" cy="-592" rx="87.9239" ry="18"/>
<text text-anchor="middle" x="306" y="-587.8" font-family="Times,serif" font-size="14.00">Ketrew_configuration</text>
</g>
<!-- Ketrew_command_line&#45;&gt;Ketrew_configuration -->
<g id="edge11" class="edge"><title>Ketrew_command_line&#45;&gt;Ketrew_configuration</title>
<path fill="none" stroke="black" d="M471.51,-992.807C428.349,-974.932 363.509,-940.817 332,-888 280.512,-801.694 292.493,-675.198 301.038,-620.204"/>
<polygon fill="black" stroke="black" points="304.515,-620.626 302.681,-610.191 297.607,-619.492 304.515,-620.626"/>
</g>
<!-- Ketrew_error&#45;&gt;Ketrew_pervasives -->
<g id="edge84" class="edge"><title>Ketrew_error&#45;&gt;Ketrew_pervasives</title>
<path fill="none" stroke="black" d="M930.02,-435.563C972.319,-390.088 1080.39,-259.153 1030,-156 1007.23,-109.395 956.654,-75.628 919.651,-56.0045"/>
<polygon fill="black" stroke="black" points="921.053,-52.7899 910.561,-51.321 917.847,-59.0125 921.053,-52.7899"/>
</g>
<!-- Ketrew_error&#45;&gt;Ketrew_host -->
<g id="edge85" class="edge"><title>Ketrew_error&#45;&gt;Ketrew_host</title>
<path fill="none" stroke="black" d="M902.42,-435.354C885.77,-411.42 854.938,-367.099 835.499,-339.155"/>
<polygon fill="black" stroke="black" points="838.205,-336.915 829.621,-330.705 832.458,-340.913 838.205,-336.915"/>
</g>
<!-- Ketrew_database -->
<g id="node15" class="node"><title>Ketrew_database</title>
<ellipse fill="darkturquoise" stroke="darkturquoise" cx="598" cy="-313" rx="70.9927" ry="18"/>
<text text-anchor="middle" x="598" y="-308.8" font-family="Times,serif" font-size="14.00">Ketrew_database</text>
</g>
<!-- Ketrew_error&#45;&gt;Ketrew_database -->
<g id="edge86" class="edge"><title>Ketrew_error&#45;&gt;Ketrew_database</title>
<path fill="none" stroke="black" d="M881.961,-438.008C824.949,-413.111 705.847,-361.098 641.493,-332.994"/>
<polygon fill="black" stroke="black" points="642.596,-329.656 632.031,-328.862 639.794,-336.071 642.596,-329.656"/>
</g>
<!-- Ketrew_error&#45;&gt;Ketrew_unix_process -->
<g id="edge83" class="edge"><title>Ketrew_error&#45;&gt;Ketrew_unix_process</title>
<path fill="none" stroke="black" d="M915.251,-434.672C918.625,-387.939 927.934,-259.017 932.026,-202.338"/>
<polygon fill="black" stroke="black" points="935.52,-202.547 932.749,-192.321 928.538,-202.043 935.52,-202.547"/>
</g>
<!-- Ketrew_state&#45;&gt;Ketrew_artifact -->
<g id="edge50" class="edge"><title>Ketrew_state&#45;&gt;Ketrew_artifact</title>
<path fill="none" stroke="black" d="M700.5,-713.129C678.145,-683.463 629.137,-620.679 581,-574 542.437,-536.605 492.911,-498.956 461.304,-476.055"/>
<polygon fill="black" stroke="black" points="463.049,-472.999 452.888,-469.999 458.961,-478.681 463.049,-472.999"/>
</g>
<!-- Ketrew_state&#45;&gt;Ketrew_pervasives -->
<g id="edge56" class="edge"><title>Ketrew_state&#45;&gt;Ketrew_pervasives</title>
<path fill="none" stroke="black" d="M701.551,-713.095C655.183,-643.739 485.35,-380.646 518,-295 568.914,-161.445 735.352,-85.1011 822.185,-53.4358"/>
<polygon fill="black" stroke="black" points="823.623,-56.6385 831.859,-49.973 821.264,-50.048 823.623,-56.6385"/>
</g>
<!-- Ketrew_state&#45;&gt;Ketrew_path -->
<g id="edge54" class="edge"><title>Ketrew_state&#45;&gt;Ketrew_path</title>
<path fill="none" stroke="black" d="M713.683,-712.781C716.839,-633.15 730.033,-300.306 733.919,-202.277"/>
<polygon fill="black" stroke="black" points="737.426,-202.149 734.325,-192.018 730.432,-201.871 737.426,-202.149"/>
</g>
<!-- Ketrew_state&#45;&gt;Ketrew_host -->
<g id="edge58" class="edge"><title>Ketrew_state&#45;&gt;Ketrew_host</title>
<path fill="none" stroke="black" d="M715.894,-712.86C723.762,-667.229 746.92,-539.161 776,-435 785.208,-402.017 798.537,-364.93 807.696,-340.612"/>
<polygon fill="black" stroke="black" points="811.06,-341.612 811.342,-331.021 804.517,-339.124 811.06,-341.612"/>
</g>
<!-- Ketrew_state&#45;&gt;Ketrew_error -->
<g id="edge52" class="edge"><title>Ketrew_state&#45;&gt;Ketrew_error</title>
<path fill="none" stroke="black" d="M725.271,-713.15C759.413,-666.268 855.652,-534.12 895.925,-478.82"/>
<polygon fill="black" stroke="black" points="898.832,-480.773 901.89,-470.629 893.173,-476.652 898.832,-480.773"/>
</g>
<!-- Ketrew_state&#45;&gt;Ketrew_target -->
<g id="edge55" class="edge"><title>Ketrew_state&#45;&gt;Ketrew_target</title>
<path fill="none" stroke="black" d="M689.828,-714.284C653.623,-689.73 583.564,-642.214 542.709,-614.505"/>
<polygon fill="black" stroke="black" points="544.453,-611.459 534.212,-608.743 540.524,-617.252 544.453,-611.459"/>
</g>
<!-- Ketrew_state&#45;&gt;Ketrew_long_running -->
<g id="edge57" class="edge"><title>Ketrew_state&#45;&gt;Ketrew_long_running</title>
<path fill="none" stroke="black" d="M768.614,-727.182C852.82,-720.159 1013.58,-695.635 1115,-610 1155.15,-576.097 1176.3,-516.213 1185.72,-481.328"/>
<polygon fill="black" stroke="black" points="1189.18,-481.917 1188.28,-471.361 1182.4,-480.177 1189.18,-481.917"/>
</g>
<!-- Ketrew_state&#45;&gt;Ketrew_configuration -->
<g id="edge60" class="edge"><title>Ketrew_state&#45;&gt;Ketrew_configuration</title>
<path fill="none" stroke="black" d="M675.44,-717.357C602.751,-692.889 442.661,-639.001 359.11,-610.877"/>
<polygon fill="black" stroke="black" points="360.15,-607.535 349.556,-607.661 357.917,-614.169 360.15,-607.535"/>
</g>
<!-- Ketrew_daemonize -->
<g id="node12" class="node"><title>Ketrew_daemonize</title>
<ellipse fill="darkturquoise" stroke="darkturquoise" cx="1384" cy="-592" rx="78.7108" ry="18"/>
<text text-anchor="middle" x="1384" y="-587.8" font-family="Times,serif" font-size="14.00">Ketrew_daemonize</text>
</g>
<!-- Ketrew_state&#45;&gt;Ketrew_daemonize -->
<g id="edge51" class="edge"><title>Ketrew_state&#45;&gt;Ketrew_daemonize</title>
<path fill="none" stroke="black" d="M759.385,-720.529C876.015,-696.717 1181.84,-634.276 1317.52,-606.573"/>
<polygon fill="black" stroke="black" points="1318.28,-609.99 1327.38,-604.56 1316.88,-603.131 1318.28,-609.99"/>
</g>
<!-- Ketrew_state&#45;&gt;Ketrew_database -->
<g id="edge59" class="edge"><title>Ketrew_state&#45;&gt;Ketrew_database</title>
<path fill="none" stroke="black" d="M708.277,-712.917C690.439,-648.389 627.076,-419.18 605.363,-340.636"/>
<polygon fill="black" stroke="black" points="608.736,-339.702 602.698,-330.996 601.99,-341.567 608.736,-339.702"/>
</g>
<!-- Ketrew_lsf -->
<g id="node17" class="node"><title>Ketrew_lsf</title>
<ellipse fill="darkturquoise" stroke="darkturquoise" cx="1057" cy="-592" rx="49.2946" ry="18"/>
<text text-anchor="middle" x="1057" y="-587.8" font-family="Times,serif" font-size="14.00">Ketrew_lsf</text>
</g>
<!-- Ketrew_state&#45;&gt;Ketrew_lsf -->
<g id="edge53" class="edge"><title>Ketrew_state&#45;&gt;Ketrew_lsf</title>
<path fill="none" stroke="black" d="M746.925,-716.489C810.256,-691.267 946.277,-637.096 1015.17,-609.657"/>
<polygon fill="black" stroke="black" points="1016.84,-612.761 1024.84,-605.81 1014.25,-606.258 1016.84,-612.761"/>
</g>
<!-- Ketrew_target&#45;&gt;Ketrew_artifact -->
<g id="edge65" class="edge"><title>Ketrew_target&#45;&gt;Ketrew_artifact</title>
<path fill="none" stroke="black" d="M501.068,-574.201C487.101,-550.578 461.537,-507.341 445.178,-479.672"/>
<polygon fill="black" stroke="black" points="448.116,-477.763 440.013,-470.936 442.09,-481.326 448.116,-477.763"/>
</g>
<!-- Ketrew_target&#45;&gt;Ketrew_pervasives -->
<g id="edge63" class="edge"><title>Ketrew_target&#45;&gt;Ketrew_pervasives</title>
<path fill="none" stroke="black" d="M478.033,-576.792C440.324,-558.509 380.509,-522.806 355,-471 304.519,-368.48 183.839,-410.565 458,-156 548.925,-71.5738 695.369,-46.0904 788.581,-38.6652"/>
<polygon fill="black" stroke="black" points="789.121,-42.1349 798.834,-37.9041 788.602,-35.1541 789.121,-42.1349"/>
</g>
<!-- Ketrew_target&#45;&gt;Ketrew_path -->
<g id="edge61" class="edge"><title>Ketrew_target&#45;&gt;Ketrew_path</title>
<path fill="none" stroke="black" d="M523.727,-574.133C553.7,-533.834 629.828,-428.074 678,-331 699.534,-287.605 717.354,-233.979 727.059,-202.241"/>
<polygon fill="black" stroke="black" points="730.502,-202.947 730.033,-192.363 723.799,-200.929 730.502,-202.947"/>
</g>
<!-- Ketrew_target&#45;&gt;Ketrew_host -->
<g id="edge64" class="edge"><title>Ketrew_target&#45;&gt;Ketrew_host</title>
<path fill="none" stroke="black" d="M529.285,-574.502C581.665,-527.24 732.367,-391.265 792.641,-336.881"/>
<polygon fill="black" stroke="black" points="795.116,-339.362 800.196,-330.065 790.426,-334.165 795.116,-339.362"/>
</g>
<!-- Ketrew_program -->
<g id="node14" class="node"><title>Ketrew_program</title>
<ellipse fill="darkturquoise" stroke="darkturquoise" cx="1726" cy="-313" rx="70.5254" ry="18"/>
<text text-anchor="middle" x="1726" y="-308.8" font-family="Times,serif" font-size="14.00">Ketrew_program</text>
</g>
<!-- Ketrew_target&#45;&gt;Ketrew_program -->
<g id="edge62" class="edge"><title>Ketrew_target&#45;&gt;Ketrew_program</title>
<path fill="none" stroke="black" d="M536.944,-575.652C591.996,-543.841 725.438,-470.711 847,-435 1133.43,-350.856 1489.93,-324.767 1646.26,-317.056"/>
<polygon fill="black" stroke="black" points="1646.9,-320.53 1656.72,-316.553 1646.56,-313.538 1646.9,-320.53"/>
</g>
<!-- Ketrew_user_command&#45;&gt;Ketrew_pervasives -->
<g id="edge69" class="edge"><title>Ketrew_user_command&#45;&gt;Ketrew_pervasives</title>
<path fill="none" stroke="black" d="M480.504,-853.092C413.831,-819.304 266.033,-733.253 209,-610 174.594,-535.645 105.613,-721.564 281,-295 308.19,-228.87 304.49,-198.486 362,-156 489.044,-62.1463 678.031,-40.2765 787.95,-36.0037"/>
<polygon fill="black" stroke="black" points="788.137,-39.4994 798.009,-35.6533 787.893,-32.5036 788.137,-39.4994"/>
</g>
<!-- Ketrew_user_command&#45;&gt;Ketrew_state -->
<g id="edge68" class="edge"><title>Ketrew_user_command&#45;&gt;Ketrew_state</title>
<path fill="none" stroke="black" d="M538.004,-852.475C574.12,-827.611 642.427,-780.585 682.179,-753.219"/>
<polygon fill="black" stroke="black" points="684.192,-756.082 690.444,-747.529 680.222,-750.316 684.192,-756.082"/>
</g>
<!-- Ketrew_user_command&#45;&gt;Ketrew_target -->
<g id="edge67" class="edge"><title>Ketrew_user_command&#45;&gt;Ketrew_target</title>
<path fill="none" stroke="black" d="M513.812,-851.735C513.307,-805.267 511.916,-677.248 511.3,-620.593"/>
<polygon fill="black" stroke="black" points="514.796,-620.22 511.188,-610.259 507.797,-620.296 514.796,-620.22"/>
</g>
<!-- Ketrew_user_command&#45;&gt;Ketrew_database -->
<g id="edge70" class="edge"><title>Ketrew_user_command&#45;&gt;Ketrew_database</title>
<path fill="none" stroke="black" d="M508.067,-851.861C492.16,-806.231 446.794,-678.167 403,-574 377.67,-513.751 320.594,-490.568 355,-435 393.463,-372.88 474.458,-341.623 532.365,-326.63"/>
<polygon fill="black" stroke="black" points="533.313,-330.001 542.171,-324.189 531.622,-323.209 533.313,-330.001"/>
</g>
<!-- Ketrew_long_running&#45;&gt;Ketrew_pervasives -->
<g id="edge87" class="edge"><title>Ketrew_long_running&#45;&gt;Ketrew_pervasives</title>
<path fill="none" stroke="black" d="M1196.14,-434.878C1206.93,-385.904 1230.82,-243.176 1167,-156 1117.33,-88.1611 1022.26,-58.5206 954.297,-45.6674"/>
<polygon fill="black" stroke="black" points="954.517,-42.1506 944.054,-43.8178 953.273,-49.0392 954.517,-42.1506"/>
</g>
<!-- Ketrew_configuration&#45;&gt;Ketrew_pervasives -->
<g id="edge13" class="edge"><title>Ketrew_configuration&#45;&gt;Ketrew_pervasives</title>
<path fill="none" stroke="black" d="M300.851,-573.881C287.749,-527.218 256.791,-394.63 295,-295 324.75,-217.425 349.076,-199.275 420,-156 537.824,-84.1093 698.249,-54.8623 794.05,-43.2717"/>
<polygon fill="black" stroke="black" points="794.735,-46.7154 804.259,-42.0739 793.92,-39.7631 794.735,-46.7154"/>
</g>
<!-- Ketrew_configuration&#45;&gt;Ketrew_host -->
<g id="edge12" class="edge"><title>Ketrew_configuration&#45;&gt;Ketrew_host</title>
<path fill="none" stroke="black" d="M335.74,-574.91C424.142,-527.083 685.139,-385.88 781.615,-333.685"/>
<polygon fill="black" stroke="black" points="783.563,-336.61 790.693,-328.773 780.232,-330.453 783.563,-336.61"/>
</g>
<!-- Ketrew_daemonize&#45;&gt;Ketrew_pervasives -->
<g id="edge17" class="edge"><title>Ketrew_daemonize&#45;&gt;Ketrew_pervasives</title>
<path fill="none" stroke="black" d="M1442.05,-579.675C1525.36,-560.417 1664.49,-515.346 1623,-435 1488.33,-174.23 1109.49,-77.5342 949.147,-47.5902"/>
<polygon fill="black" stroke="black" points="949.373,-44.0735 938.906,-45.7133 948.111,-50.9588 949.373,-44.0735"/>
</g>
<!-- Ketrew_daemonize&#45;&gt;Ketrew_path -->
<g id="edge16" class="edge"><title>Ketrew_daemonize&#45;&gt;Ketrew_path</title>
<path fill="none" stroke="black" d="M1386.49,-573.824C1390.02,-542.55 1392.8,-475.786 1360,-435 1279.67,-335.111 1199.35,-399.483 1091,-331 1071.33,-318.57 1072.72,-307.35 1053,-295 967.263,-241.294 853.734,-205.701 788.095,-188.048"/>
<polygon fill="black" stroke="black" points="788.938,-184.651 778.375,-185.471 787.144,-191.417 788.938,-184.651"/>
</g>
<!-- Ketrew_daemonize&#45;&gt;Ketrew_host -->
<g id="edge20" class="edge"><title>Ketrew_daemonize&#45;&gt;Ketrew_host</title>
<path fill="none" stroke="black" d="M1378.51,-573.926C1367.2,-541.598 1338.17,-471.432 1289,-435 1165.83,-343.744 980.434,-321.067 883.049,-315.595"/>
<polygon fill="black" stroke="black" points="883.215,-312.099 873.047,-315.077 882.852,-319.09 883.215,-312.099"/>
</g>
<!-- Ketrew_daemonize&#45;&gt;Ketrew_error -->
<g id="edge14" class="edge"><title>Ketrew_daemonize&#45;&gt;Ketrew_error</title>
<path fill="none" stroke="black" d="M1337.22,-577.363C1248.48,-551.497 1056.42,-495.512 964.718,-468.784"/>
<polygon fill="black" stroke="black" points="965.419,-465.343 954.839,-465.904 963.46,-472.063 965.419,-465.343"/>
</g>
<!-- Ketrew_daemonize&#45;&gt;Ketrew_long_running -->
<g id="edge19" class="edge"><title>Ketrew_daemonize&#45;&gt;Ketrew_long_running</title>
<path fill="none" stroke="black" d="M1361.22,-574.746C1326.96,-550.299 1262.06,-503.993 1223.36,-476.374"/>
<polygon fill="black" stroke="black" points="1225.22,-473.405 1215.05,-470.446 1221.16,-479.103 1225.22,-473.405"/>
</g>
<!-- Ketrew_monitored_script -->
<g id="node13" class="node"><title>Ketrew_monitored_script</title>
<ellipse fill="darkturquoise" stroke="darkturquoise" cx="1513" cy="-453" rx="100.945" ry="18"/>
<text text-anchor="middle" x="1513" y="-448.8" font-family="Times,serif" font-size="14.00">Ketrew_monitored_script</text>
</g>
<!-- Ketrew_daemonize&#45;&gt;Ketrew_monitored_script -->
<g id="edge15" class="edge"><title>Ketrew_daemonize&#45;&gt;Ketrew_monitored_script</title>
<path fill="none" stroke="black" d="M1399.82,-574.201C1422.45,-550.167 1464.2,-505.831 1490.17,-478.243"/>
<polygon fill="black" stroke="black" points="1492.75,-480.616 1497.05,-470.936 1487.65,-475.817 1492.75,-480.616"/>
</g>
<!-- Ketrew_daemonize&#45;&gt;Ketrew_program -->
<g id="edge18" class="edge"><title>Ketrew_daemonize&#45;&gt;Ketrew_program</title>
<path fill="none" stroke="black" d="M1453.31,-583.398C1524.56,-571.779 1633.4,-542.761 1694,-471 1724.93,-434.371 1728.72,-375.902 1727.89,-341.603"/>
<polygon fill="black" stroke="black" points="1731.38,-341.228 1727.49,-331.374 1724.38,-341.504 1731.38,-341.228"/>
</g>
<!-- Ketrew_monitored_script&#45;&gt;Ketrew_pervasives -->
<g id="edge46" class="edge"><title>Ketrew_monitored_script&#45;&gt;Ketrew_pervasives</title>
<path fill="none" stroke="black" d="M1498.68,-434.885C1456.42,-385.314 1326.64,-239.846 1191,-156 1108.97,-105.292 1002.02,-70.143 936.227,-51.5334"/>
<polygon fill="black" stroke="black" points="937.001,-48.1158 926.428,-48.7984 935.119,-54.8581 937.001,-48.1158"/>
</g>
<!-- Ketrew_monitored_script&#45;&gt;Ketrew_path -->
<g id="edge47" class="edge"><title>Ketrew_monitored_script&#45;&gt;Ketrew_path</title>
<path fill="none" stroke="black" d="M1472.42,-436.423C1397.37,-407.726 1231.73,-344.882 1091,-295 980.992,-256.006 850.827,-212.892 782.439,-190.471"/>
<polygon fill="black" stroke="black" points="783.4,-187.103 772.807,-187.316 781.221,-193.755 783.4,-187.103"/>
</g>
<!-- Ketrew_monitored_script&#45;&gt;Ketrew_program -->
<g id="edge45" class="edge"><title>Ketrew_monitored_script&#45;&gt;Ketrew_program</title>
<path fill="none" stroke="black" d="M1538.69,-435.354C1577.22,-410.39 1649.99,-363.247 1692.59,-335.643"/>
<polygon fill="black" stroke="black" points="1694.72,-338.439 1701.21,-330.064 1690.91,-332.564 1694.72,-338.439"/>
</g>
<!-- Ketrew_program&#45;&gt;Ketrew_pervasives -->
<g id="edge49" class="edge"><title>Ketrew_program&#45;&gt;Ketrew_pervasives</title>
<path fill="none" stroke="black" d="M1722,-294.791C1713.39,-261.91 1689.79,-190.372 1641,-156 1532.65,-79.668 1137.39,-49.7327 961.46,-40.0055"/>
<polygon fill="black" stroke="black" points="961.641,-36.5103 951.465,-39.4617 961.26,-43.4999 961.641,-36.5103"/>
</g>
<!-- Ketrew_database&#45;&gt;Ketrew_pervasives -->
<g id="edge21" class="edge"><title>Ketrew_database&#45;&gt;Ketrew_pervasives</title>
<path fill="none" stroke="black" d="M602.287,-294.601C610.681,-263.554 631.874,-197.934 670,-156 713.67,-107.968 781.155,-73.7476 826.881,-54.4446"/>
<polygon fill="black" stroke="black" points="828.388,-57.6086 836.291,-50.5524 825.713,-51.1401 828.388,-57.6086"/>
</g>
<!-- Ketrew_edsl -->
<g id="node16" class="node"><title>Ketrew_edsl</title>
<ellipse fill="darkturquoise" stroke="darkturquoise" cx="1025" cy="-1009" rx="54.599" ry="18"/>
<text text-anchor="middle" x="1025" y="-1004.8" font-family="Times,serif" font-size="14.00">Ketrew_edsl</text>
</g>
<!-- Ketrew_edsl&#45;&gt;Ketrew_artifact -->
<g id="edge34" class="edge"><title>Ketrew_edsl&#45;&gt;Ketrew_artifact</title>
<path fill="none" stroke="black" d="M996.791,-993.439C960.932,-973.724 899.011,-935.485 860,-888 805.594,-821.777 831.313,-780.888 779,-713 719.848,-636.236 688.828,-631.745 611,-574 561.455,-537.24 501.297,-498.445 464.336,-475.236"/>
<polygon fill="black" stroke="black" points="465.793,-472.019 455.459,-469.682 462.08,-477.953 465.793,-472.019"/>
</g>
<!-- Ketrew_edsl&#45;&gt;Ketrew_pervasives -->
<g id="edge30" class="edge"><title>Ketrew_edsl&#45;&gt;Ketrew_pervasives</title>
<path fill="none" stroke="black" d="M1079.31,-1006.11C1186.48,-1000.45 1430.4,-977.871 1611,-888 1804.79,-791.565 1832,-670.457 1832,-454 1832,-454 1832,-454 1832,-312 1832,-212.364 1760.29,-200.208 1671,-156 1546.76,-94.4869 1136.66,-56.184 959.128,-42.1085"/>
<polygon fill="black" stroke="black" points="959.3,-38.6112 949.056,-41.3161 958.751,-45.5897 959.3,-38.6112"/>
</g>
<!-- Ketrew_edsl&#45;&gt;Ketrew_path -->
<g id="edge25" class="edge"><title>Ketrew_edsl&#45;&gt;Ketrew_path</title>
<path fill="none" stroke="black" d="M1038.58,-991.267C1056.46,-968.739 1088.15,-926.973 1110,-888 1162.92,-793.58 1348.12,-525.666 1289,-435 1226.39,-338.989 1156.92,-379.362 1053,-331 950.863,-283.467 832.056,-224.075 772.744,-194.14"/>
<polygon fill="black" stroke="black" points="774.252,-190.98 763.748,-189.595 771.095,-197.228 774.252,-190.98"/>
</g>
<!-- Ketrew_edsl&#45;&gt;Ketrew_host -->
<g id="edge32" class="edge"><title>Ketrew_edsl&#45;&gt;Ketrew_host</title>
<path fill="none" stroke="black" d="M1018.45,-991.098C993.151,-925.332 900.622,-679.812 847,-471 835.468,-426.091 826.624,-372.838 821.88,-341.32"/>
<polygon fill="black" stroke="black" points="825.298,-340.508 820.375,-331.127 818.373,-341.531 825.298,-340.508"/>
</g>
<!-- Ketrew_edsl&#45;&gt;Ketrew_error -->
<g id="edge23" class="edge"><title>Ketrew_edsl&#45;&gt;Ketrew_error</title>
<path fill="none" stroke="black" d="M1023.39,-990.82C1017.62,-931.982 996.225,-733.416 956,-574 947.731,-541.229 934.327,-504.728 924.89,-480.684"/>
<polygon fill="black" stroke="black" points="928.062,-479.189 921.115,-471.19 921.557,-481.775 928.062,-479.189"/>
</g>
<!-- Ketrew_edsl&#45;&gt;Ketrew_state -->
<g id="edge26" class="edge"><title>Ketrew_edsl&#45;&gt;Ketrew_state</title>
<path fill="none" stroke="black" d="M993.038,-994.353C950.548,-975.112 874.699,-936.839 822,-888 780.094,-849.163 745.066,-791.611 726.746,-758.35"/>
<polygon fill="black" stroke="black" points="729.658,-756.378 721.818,-749.252 723.503,-759.712 729.658,-756.378"/>
</g>
<!-- Ketrew_edsl&#45;&gt;Ketrew_target -->
<g id="edge28" class="edge"><title>Ketrew_edsl&#45;&gt;Ketrew_target</title>
<path fill="none" stroke="black" d="M990.791,-994.779C942.786,-975.359 853.826,-936.154 787,-888 715.863,-836.74 706.959,-812.976 647,-749 604.597,-703.756 557.559,-648.618 531.405,-617.487"/>
<polygon fill="black" stroke="black" points="534.018,-615.156 524.912,-609.741 528.653,-619.653 534.018,-615.156"/>
</g>
<!-- Ketrew_edsl&#45;&gt;Ketrew_user_command -->
<g id="edge27" class="edge"><title>Ketrew_edsl&#45;&gt;Ketrew_user_command</title>
<path fill="none" stroke="black" d="M984.047,-997.02C894.798,-973.092 682.289,-916.119 576.313,-887.706"/>
<polygon fill="black" stroke="black" points="576.963,-884.257 566.398,-885.048 575.151,-891.018 576.963,-884.257"/>
</g>
<!-- Ketrew_edsl&#45;&gt;Ketrew_long_running -->
<g id="edge31" class="edge"><title>Ketrew_edsl&#45;&gt;Ketrew_long_running</title>
<path fill="none" stroke="black" d="M1034.28,-991.224C1063.35,-937.673 1152.68,-765.228 1186,-610 1195.51,-565.672 1195.16,-512.667 1193.77,-481.252"/>
<polygon fill="black" stroke="black" points="1197.25,-480.897 1193.25,-471.09 1190.26,-481.256 1197.25,-480.897"/>
</g>
<!-- Ketrew_edsl&#45;&gt;Ketrew_configuration -->
<g id="edge33" class="edge"><title>Ketrew_edsl&#45;&gt;Ketrew_configuration</title>
<path fill="none" stroke="black" d="M972.037,-1004.32C838.833,-994.067 494.497,-960.964 410,-888 328.526,-817.647 310.87,-679.374 307.051,-620.544"/>
<polygon fill="black" stroke="black" points="310.525,-619.988 306.472,-610.199 303.536,-620.379 310.525,-619.988"/>
</g>
<!-- Ketrew_edsl&#45;&gt;Ketrew_daemonize -->
<g id="edge22" class="edge"><title>Ketrew_edsl&#45;&gt;Ketrew_daemonize</title>
<path fill="none" stroke="black" d="M1071.37,-999.239C1130.61,-985.662 1232.46,-953.912 1291,-888 1309.36,-867.329 1358.36,-689.027 1376.83,-620.069"/>
<polygon fill="black" stroke="black" points="1380.22,-620.915 1379.42,-610.35 1373.46,-619.109 1380.22,-620.915"/>
</g>
<!-- Ketrew_edsl&#45;&gt;Ketrew_program -->
<g id="edge29" class="edge"><title>Ketrew_edsl&#45;&gt;Ketrew_program</title>
<path fill="none" stroke="black" d="M1073.53,-1000.53C1236.79,-974.05 1756,-878.337 1756,-732 1756,-732 1756,-732 1756,-591 1756,-498.842 1739.38,-390.436 1730.88,-341.008"/>
<polygon fill="black" stroke="black" points="1734.32,-340.358 1729.15,-331.11 1727.43,-341.564 1734.32,-340.358"/>
</g>
<!-- Ketrew_edsl&#45;&gt;Ketrew_lsf -->
<g id="edge24" class="edge"><title>Ketrew_edsl&#45;&gt;Ketrew_lsf</title>
<path fill="none" stroke="black" d="M1026.31,-990.958C1031.26,-926.862 1048.76,-699.892 1054.87,-620.592"/>
<polygon fill="black" stroke="black" points="1058.38,-620.654 1055.66,-610.415 1051.4,-620.116 1058.38,-620.654"/>
</g>
<!-- Ketrew_lsf&#45;&gt;Ketrew_pervasives -->
<g id="edge41" class="edge"><title>Ketrew_lsf&#45;&gt;Ketrew_pervasives</title>
<path fill="none" stroke="black" d="M1061.95,-573.849C1078.6,-512.582 1127.36,-300.494 1050,-156 1023.57,-106.629 966.812,-73.476 925.282,-54.7503"/>
<polygon fill="black" stroke="black" points="926.44,-51.4368 915.876,-50.6361 923.635,-57.8502 926.44,-51.4368"/>
</g>
<!-- Ketrew_lsf&#45;&gt;Ketrew_path -->
<g id="edge40" class="edge"><title>Ketrew_lsf&#45;&gt;Ketrew_path</title>
<path fill="none" stroke="black" d="M1054.06,-573.638C1048.48,-543.757 1034.45,-481.353 1008,-435 946.132,-326.589 824.937,-235.41 767.142,-195.954"/>
<polygon fill="black" stroke="black" points="769.005,-192.989 758.759,-190.291 765.086,-198.789 769.005,-192.989"/>
</g>
<!-- Ketrew_lsf&#45;&gt;Ketrew_host -->
<g id="edge44" class="edge"><title>Ketrew_lsf&#45;&gt;Ketrew_host</title>
<path fill="none" stroke="black" d="M1051.74,-574.022C1041.71,-543.642 1017.56,-479.045 981,-435 944.894,-391.5 890.039,-355.007 854.107,-333.819"/>
<polygon fill="black" stroke="black" points="855.808,-330.759 845.402,-328.767 852.294,-336.813 855.808,-330.759"/>
</g>
<!-- Ketrew_lsf&#45;&gt;Ketrew_error -->
<g id="edge38" class="edge"><title>Ketrew_lsf&#45;&gt;Ketrew_error</title>
<path fill="none" stroke="black" d="M1040.32,-575.016C1015.16,-550.913 967.368,-505.129 938.327,-477.307"/>
<polygon fill="black" stroke="black" points="940.663,-474.697 931.021,-470.307 935.82,-479.752 940.663,-474.697"/>
</g>
<!-- Ketrew_lsf&#45;&gt;Ketrew_long_running -->
<g id="edge43" class="edge"><title>Ketrew_lsf&#45;&gt;Ketrew_long_running</title>
<path fill="none" stroke="black" d="M1073.02,-574.746C1096.51,-550.905 1140.49,-506.273 1167.9,-478.459"/>
<polygon fill="black" stroke="black" points="1170.63,-480.671 1175.16,-471.091 1165.65,-475.758 1170.63,-480.671"/>
</g>
<!-- Ketrew_lsf&#45;&gt;Ketrew_monitored_script -->
<g id="edge39" class="edge"><title>Ketrew_lsf&#45;&gt;Ketrew_monitored_script</title>
<path fill="none" stroke="black" d="M1093.93,-579.905C1172.87,-556.187 1358.61,-500.384 1454.08,-471.703"/>
<polygon fill="black" stroke="black" points="1455.29,-474.992 1463.86,-468.762 1453.28,-468.288 1455.29,-474.992"/>
</g>
<!-- Ketrew_lsf&#45;&gt;Ketrew_program -->
<g id="edge42" class="edge"><title>Ketrew_lsf&#45;&gt;Ketrew_program</title>
<path fill="none" stroke="black" d="M1103.56,-585.736C1223.14,-571.507 1537.58,-529.38 1623,-471 1670.4,-438.604 1701.33,-376.477 1716.02,-340.859"/>
<polygon fill="black" stroke="black" points="1719.44,-341.725 1719.89,-331.14 1712.94,-339.132 1719.44,-341.725"/>
</g>
<!-- Ketrew_unix_process&#45;&gt;Ketrew_pervasives -->
<g id="edge66" class="edge"><title>Ketrew_unix_process&#45;&gt;Ketrew_pervasives</title>
<path fill="none" stroke="black" d="M926.772,-155.926C916.873,-132.544 898.999,-90.325 887.317,-62.7316"/>
<polygon fill="black" stroke="black" points="890.441,-61.1335 883.32,-53.2893 883.995,-63.8626 890.441,-61.1335"/>
</g>
<!-- Ketrew -->
<g id="node19" class="node"><title>Ketrew</title>
<ellipse fill="darkturquoise" stroke="darkturquoise" cx="613" cy="-1149" rx="36.2645" ry="18"/>
<text text-anchor="middle" x="613" y="-1144.8" font-family="Times,serif" font-size="14.00">Ketrew</text>
</g>
<!-- Ketrew&#45;&gt;Ketrew_artifact -->
<g id="edge82" class="edge"><title>Ketrew&#45;&gt;Ketrew_artifact</title>
<path fill="none" stroke="black" d="M576.932,-1146.37C456.53,-1138.82 76,-1097.06 76,-871 76,-871 76,-871 76,-730 76,-580.294 275.339,-499.851 374.848,-469.02"/>
<polygon fill="black" stroke="black" points="375.894,-472.36 384.445,-466.105 373.86,-465.663 375.894,-472.36"/>
</g>
<!-- Ketrew&#45;&gt;Ketrew_pervasives -->
<g id="edge74" class="edge"><title>Ketrew&#45;&gt;Ketrew_pervasives</title>
<path fill="none" stroke="black" d="M649.264,-1147.96C855.362,-1146.79 1870,-1127.98 1870,-871 1870,-871 1870,-871 1870,-312 1870,-216.429 1806.93,-199.819 1722,-156 1590.12,-87.9604 1147.66,-52.9766 960.617,-40.9379"/>
<polygon fill="black" stroke="black" points="960.759,-37.4398 950.556,-40.2966 960.313,-44.4257 960.759,-37.4398"/>
</g>
<!-- Ketrew&#45;&gt;Ketrew_path -->
<g id="edge75" class="edge"><title>Ketrew&#45;&gt;Ketrew_path</title>
<path fill="none" stroke="black" d="M578.199,-1144.15C472.004,-1131.79 154.514,-1090.25 75,-1027 14.7933,-979.111 0,-947.93 0,-871 0,-871 0,-871 0,-452 0,-307.936 500.691,-212.984 675.576,-184.213"/>
<polygon fill="black" stroke="black" points="676.327,-187.637 685.633,-182.572 675.2,-180.728 676.327,-187.637"/>
</g>
<!-- Ketrew&#45;&gt;Ketrew_host -->
<g id="edge76" class="edge"><title>Ketrew&#45;&gt;Ketrew_host</title>
<path fill="none" stroke="black" d="M576.586,-1148.9C488.181,-1149.19 259.124,-1138.43 118,-1027 56.8457,-978.715 38,-948.919 38,-871 38,-871 38,-871 38,-730 38,-537.543 177.635,-509.708 355,-435 494.709,-376.153 670.478,-339.722 759.926,-323.649"/>
<polygon fill="black" stroke="black" points="760.643,-327.076 769.876,-321.881 759.418,-320.184 760.643,-327.076"/>
</g>
<!-- Ketrew&#45;&gt;Ketrew_command_line -->
<g id="edge81" class="edge"><title>Ketrew&#45;&gt;Ketrew_command_line</title>
<path fill="none" stroke="black" d="M601.45,-1131.9C584.347,-1108.06 552.138,-1063.16 531.945,-1035.01"/>
<polygon fill="black" stroke="black" points="534.767,-1032.94 526.094,-1026.86 529.079,-1037.02 534.767,-1032.94"/>
</g>
<!-- Ketrew&#45;&gt;Ketrew_error -->
<g id="edge77" class="edge"><title>Ketrew&#45;&gt;Ketrew_error</title>
<path fill="none" stroke="black" d="M643.069,-1138.91C724.286,-1112.31 942,-1026.49 942,-871 942,-871 942,-871 942,-730 942,-638.433 926.557,-530.646 918.608,-481.234"/>
<polygon fill="black" stroke="black" points="922.012,-480.361 916.944,-471.057 915.104,-481.491 922.012,-480.361"/>
</g>
<!-- Ketrew&#45;&gt;Ketrew_state -->
<g id="edge72" class="edge"><title>Ketrew&#45;&gt;Ketrew_state</title>
<path fill="none" stroke="black" d="M617.107,-1130.92C632.586,-1066.52 687.492,-838.115 706.481,-759.119"/>
<polygon fill="black" stroke="black" points="709.98,-759.537 708.914,-748.996 703.174,-757.901 709.98,-759.537"/>
</g>
<!-- Ketrew&#45;&gt;Ketrew_target -->
<g id="edge71" class="edge"><title>Ketrew&#45;&gt;Ketrew_target</title>
<path fill="none" stroke="black" d="M582.268,-1139.21C536.525,-1124.36 451.669,-1089.62 412,-1027 337.32,-909.104 360.013,-841.693 414,-713 430.107,-674.604 462.412,-638.597 485.309,-616.232"/>
<polygon fill="black" stroke="black" points="487.868,-618.627 492.676,-609.186 483.03,-613.568 487.868,-618.627"/>
</g>
<!-- Ketrew&#45;&gt;Ketrew_configuration -->
<g id="edge80" class="edge"><title>Ketrew&#45;&gt;Ketrew_configuration</title>
<path fill="none" stroke="black" d="M582.373,-1139.32C534.497,-1124.24 441.939,-1088.74 389,-1027 293.75,-915.918 280.309,-859.006 290,-713 292.134,-680.848 297.45,-644.168 301.372,-619.914"/>
<polygon fill="black" stroke="black" points="304.83,-620.455 303.007,-610.019 297.924,-619.314 304.83,-620.455"/>
</g>
<!-- Ketrew&#45;&gt;Ketrew_daemonize -->
<g id="edge79" class="edge"><title>Ketrew&#45;&gt;Ketrew_daemonize</title>
<path fill="none" stroke="black" d="M649.291,-1147.09C767.557,-1141.99 1143.93,-1108.37 1313,-888 1375.83,-806.109 1384.07,-676.76 1384.48,-620.573"/>
<polygon fill="black" stroke="black" points="1387.98,-620.343 1384.48,-610.346 1380.98,-620.349 1387.98,-620.343"/>
</g>
<!-- Ketrew&#45;&gt;Ketrew_program -->
<g id="edge73" class="edge"><title>Ketrew&#45;&gt;Ketrew_program</title>
<path fill="none" stroke="black" d="M648.659,-1145.46C783.42,-1134.53 1271.21,-1082.8 1611,-888 1692.14,-841.482 1730.16,-834.083 1769,-749 1834.03,-606.543 1766.29,-411.11 1737.56,-340.664"/>
<polygon fill="black" stroke="black" points="1740.7,-339.089 1733.63,-331.198 1734.23,-341.775 1740.7,-339.089"/>
</g>
<!-- Ketrew&#45;&gt;Ketrew_edsl -->
<g id="edge78" class="edge"><title>Ketrew&#45;&gt;Ketrew_edsl</title>
<path fill="none" stroke="black" d="M642.3,-1138.19C712.857,-1114.55 892.682,-1054.32 978.308,-1025.64"/>
<polygon fill="black" stroke="black" points="979.653,-1028.88 988.023,-1022.39 977.429,-1022.24 979.653,-1028.88"/>
</g>
</g>
</svg>
