<?xml version="1.0" encoding="UTF-8" standalone="no"?>
<!DOCTYPE svg PUBLIC "-//W3C//DTD SVG 1.1//EN"
 "http://www.w3.org/Graphics/SVG/1.1/DTD/svg11.dtd">
<!-- Generated by graphviz version 2.38.0 (20140413.2041)
 -->
<!-- Title: G Pages: 1 -->
<svg width="431pt" height="720pt"
 viewBox="0.00 0.00 720.00 431.21" xmlns="http://www.w3.org/2000/svg" xmlns:xlink="http://www.w3.org/1999/xlink">
<g id="graph0" class="graph" transform="scale(0.606061 0.606061) rotate(-90) translate(-1184 707.5)">
<title>G</title>
<polygon fill="white" stroke="none" points="-4,4 -4,-707.5 1184,-707.5 1184,4 -4,4"/>
<!-- Ketrew_artifact -->
<g id="node1" class="node"><title>Ketrew_artifact</title>
<ellipse fill="darkturquoise" stroke="darkturquoise" cx="858" cy="-269" rx="65.6803" ry="18"/>
<text text-anchor="middle" x="858" y="-264.8" font-family="Times,serif" font-size="14.00">Ketrew_artifact</text>
</g>
<!-- Ketrew_pervasives -->
<g id="node2" class="node"><title>Ketrew_pervasives</title>
<ellipse fill="darkturquoise" stroke="darkturquoise" cx="730" cy="-21" rx="77.7589" ry="18"/>
<text text-anchor="middle" x="730" y="-16.8" font-family="Times,serif" font-size="14.00">Ketrew_pervasives</text>
</g>
<!-- Ketrew_artifact&#45;&gt;Ketrew_pervasives -->
<g id="edge1" class="edge"><title>Ketrew_artifact&#45;&gt;Ketrew_pervasives</title>
<path fill="none" stroke="black" d="M901.192,-255.402C928.876,-245.396 963.836,-228.889 987,-204 1024.47,-163.735 1055.54,-127.812 1021,-85 995.22,-53.0416 889.369,-36.4863 812.755,-28.524"/>
<polygon fill="black" stroke="black" points="812.923,-25.0233 802.622,-27.5029 812.221,-31.988 812.923,-25.0233"/>
</g>
<!-- Ketrew_path -->
<g id="node3" class="node"><title>Ketrew_path</title>
<ellipse fill="darkturquoise" stroke="darkturquoise" cx="688" cy="-103" rx="55.5596" ry="18"/>
<text text-anchor="middle" x="688" y="-98.8" font-family="Times,serif" font-size="14.00">Ketrew_path</text>
</g>
<!-- Ketrew_artifact&#45;&gt;Ketrew_path -->
<g id="edge2" class="edge"><title>Ketrew_artifact&#45;&gt;Ketrew_path</title>
<path fill="none" stroke="black" d="M839.665,-251.644C825.422,-238.842 805.257,-220.501 788,-204 761.251,-178.421 731.33,-148.293 711.248,-127.842"/>
<polygon fill="black" stroke="black" points="713.56,-125.2 704.061,-120.508 708.56,-130.1 713.56,-125.2"/>
</g>
<!-- Ketrew_host -->
<g id="node4" class="node"><title>Ketrew_host</title>
<ellipse fill="darkturquoise" stroke="darkturquoise" cx="923" cy="-186" rx="55.0922" ry="18"/>
<text text-anchor="middle" x="923" y="-181.8" font-family="Times,serif" font-size="14.00">Ketrew_host</text>
</g>
<!-- Ketrew_artifact&#45;&gt;Ketrew_host -->
<g id="edge3" class="edge"><title>Ketrew_artifact&#45;&gt;Ketrew_host</title>
<path fill="none" stroke="black" d="M871.468,-251.217C880.68,-239.737 893.042,-224.332 903.349,-211.488"/>
<polygon fill="black" stroke="black" points="906.243,-213.474 909.772,-203.485 900.783,-209.093 906.243,-213.474"/>
</g>
<!-- Ketrew_path&#45;&gt;Ketrew_pervasives -->
<g id="edge31" class="edge"><title>Ketrew_path&#45;&gt;Ketrew_pervasives</title>
<path fill="none" stroke="black" d="M696.907,-85.0341C702.531,-74.3215 709.911,-60.2654 716.274,-48.1455"/>
<polygon fill="black" stroke="black" points="719.556,-49.4224 721.106,-38.9415 713.358,-46.1685 719.556,-49.4224"/>
</g>
<!-- Ketrew_host&#45;&gt;Ketrew_pervasives -->
<g id="edge17" class="edge"><title>Ketrew_host&#45;&gt;Ketrew_pervasives</title>
<path fill="none" stroke="black" d="M898.146,-169.888C878.654,-157.614 851.202,-139.383 829,-121 800.612,-97.4949 771.121,-67.1028 751.793,-46.2281"/>
<polygon fill="black" stroke="black" points="754.248,-43.7267 744.907,-38.7279 749.092,-48.461 754.248,-43.7267"/>
</g>
<!-- Ketrew_host&#45;&gt;Ketrew_path -->
<g id="edge18" class="edge"><title>Ketrew_host&#45;&gt;Ketrew_path</title>
<path fill="none" stroke="black" d="M886.539,-172.433C845.668,-158.345 779.293,-135.467 734.666,-120.085"/>
<polygon fill="black" stroke="black" points="735.529,-116.68 724.934,-116.731 733.248,-123.298 735.529,-116.68"/>
</g>
<!-- Ketrew_unix_process -->
<g id="node12" class="node"><title>Ketrew_unix_process</title>
<ellipse fill="darkturquoise" stroke="darkturquoise" cx="925" cy="-103" rx="87.4394" ry="18"/>
<text text-anchor="middle" x="925" y="-98.8" font-family="Times,serif" font-size="14.00">Ketrew_unix_process</text>
</g>
<!-- Ketrew_host&#45;&gt;Ketrew_unix_process -->
<g id="edge16" class="edge"><title>Ketrew_host&#45;&gt;Ketrew_unix_process</title>
<path fill="none" stroke="black" d="M923.424,-167.822C923.687,-157.19 924.029,-143.306 924.328,-131.204"/>
<polygon fill="black" stroke="black" points="927.828,-131.237 924.576,-121.153 920.831,-131.064 927.828,-131.237"/>
</g>
<!-- Ketrew_command_line -->
<g id="node5" class="node"><title>Ketrew_command_line</title>
<ellipse fill="darkturquoise" stroke="darkturquoise" cx="692" cy="-517" rx="93.2188" ry="18"/>
<text text-anchor="middle" x="692" y="-512.8" font-family="Times,serif" font-size="14.00">Ketrew_command_line</text>
</g>
<!-- Ketrew_command_line&#45;&gt;Ketrew_pervasives -->
<g id="edge6" class="edge"><title>Ketrew_command_line&#45;&gt;Ketrew_pervasives</title>
<path fill="none" stroke="black" d="M695.627,-498.784C706.971,-443.955 741.688,-268.366 753,-121 754.225,-105.047 755.786,-100.756 753,-85 750.811,-72.6224 746.379,-59.481 741.984,-48.4209"/>
<polygon fill="black" stroke="black" points="745.104,-46.8114 738.023,-38.9305 738.644,-49.5071 745.104,-46.8114"/>
</g>
<!-- Ketrew_target -->
<g id="node6" class="node"><title>Ketrew_target</title>
<ellipse fill="darkturquoise" stroke="darkturquoise" cx="940" cy="-352" rx="60.5585" ry="18"/>
<text text-anchor="middle" x="940" y="-347.8" font-family="Times,serif" font-size="14.00">Ketrew_target</text>
</g>
<!-- Ketrew_command_line&#45;&gt;Ketrew_target -->
<g id="edge4" class="edge"><title>Ketrew_command_line&#45;&gt;Ketrew_target</title>
<path fill="none" stroke="black" d="M717.144,-499.474C762.45,-469.696 857.716,-407.082 907.748,-374.198"/>
<polygon fill="black" stroke="black" points="909.816,-377.027 916.251,-368.609 905.972,-371.177 909.816,-377.027"/>
</g>
<!-- Ketrew_state -->
<g id="node7" class="node"><title>Ketrew_state</title>
<ellipse fill="darkturquoise" stroke="darkturquoise" cx="533" cy="-435" rx="56.5201" ry="18"/>
<text text-anchor="middle" x="533" y="-430.8" font-family="Times,serif" font-size="14.00">Ketrew_state</text>
</g>
<!-- Ketrew_command_line&#45;&gt;Ketrew_state -->
<g id="edge5" class="edge"><title>Ketrew_command_line&#45;&gt;Ketrew_state</title>
<path fill="none" stroke="black" d="M660.206,-500.003C634.589,-487.114 598.484,-468.948 571.281,-455.261"/>
<polygon fill="black" stroke="black" points="572.568,-451.99 562.062,-450.622 569.422,-458.244 572.568,-451.99"/>
</g>
<!-- Ketrew_long_running -->
<g id="node8" class="node"><title>Ketrew_long_running</title>
<ellipse fill="darkturquoise" stroke="darkturquoise" cx="162" cy="-186" rx="88.417" ry="18"/>
<text text-anchor="middle" x="162" y="-181.8" font-family="Times,serif" font-size="14.00">Ketrew_long_running</text>
</g>
<!-- Ketrew_command_line&#45;&gt;Ketrew_long_running -->
<g id="edge7" class="edge"><title>Ketrew_command_line&#45;&gt;Ketrew_long_running</title>
<path fill="none" stroke="black" d="M610.288,-508.264C462.039,-492.358 158.204,-450.523 95,-370 56.935,-321.504 107.004,-249.33 139.027,-211.755"/>
<polygon fill="black" stroke="black" points="141.991,-213.682 145.937,-203.849 136.721,-209.075 141.991,-213.682"/>
</g>
<!-- Ketrew_target&#45;&gt;Ketrew_artifact -->
<g id="edge44" class="edge"><title>Ketrew_target&#45;&gt;Ketrew_artifact</title>
<path fill="none" stroke="black" d="M923.406,-334.608C911.592,-322.938 895.526,-307.069 882.275,-293.979"/>
<polygon fill="black" stroke="black" points="884.425,-291.183 874.851,-286.645 879.505,-296.163 884.425,-291.183"/>
</g>
<!-- Ketrew_target&#45;&gt;Ketrew_pervasives -->
<g id="edge42" class="edge"><title>Ketrew_target&#45;&gt;Ketrew_pervasives</title>
<path fill="none" stroke="black" d="M956.7,-334.536C999.997,-289.884 1108.1,-164.507 1043,-85 1014.6,-50.3136 897.129,-34.3086 814.484,-27.2254"/>
<polygon fill="black" stroke="black" points="814.588,-23.7221 804.333,-26.3849 814.011,-30.6983 814.588,-23.7221"/>
</g>
<!-- Ketrew_target&#45;&gt;Ketrew_path -->
<g id="edge41" class="edge"><title>Ketrew_target&#45;&gt;Ketrew_path</title>
<path fill="none" stroke="black" d="M943.288,-334.008C946.43,-312.888 948.65,-276.518 933,-251 929.842,-245.851 789.577,-163.391 722.733,-124.282"/>
<polygon fill="black" stroke="black" points="724.209,-121.091 713.81,-119.064 720.675,-127.134 724.209,-121.091"/>
</g>
<!-- Ketrew_target&#45;&gt;Ketrew_host -->
<g id="edge43" class="edge"><title>Ketrew_target&#45;&gt;Ketrew_host</title>
<path fill="none" stroke="black" d="M950.219,-333.894C960.842,-313.885 974.785,-279.828 966,-251 961.647,-236.715 952.921,-222.726 944.461,-211.488"/>
<polygon fill="black" stroke="black" points="947.069,-209.143 938.12,-203.471 941.579,-213.485 947.069,-209.143"/>
</g>
<!-- Ketrew_state&#45;&gt;Ketrew_artifact -->
<g id="edge32" class="edge"><title>Ketrew_state&#45;&gt;Ketrew_artifact</title>
<path fill="none" stroke="black" d="M561.842,-419.446C620.181,-390.007 752.263,-323.356 818.529,-289.917"/>
<polygon fill="black" stroke="black" points="820.461,-292.863 827.812,-285.233 817.308,-286.614 820.461,-292.863"/>
</g>
<!-- Ketrew_state&#45;&gt;Ketrew_pervasives -->
<g id="edge39" class="edge"><title>Ketrew_state&#45;&gt;Ketrew_pervasives</title>
<path fill="none" stroke="black" d="M476.32,-433.012C371.149,-430.031 151.352,-418.061 95,-370 25.1611,-310.436 26.6475,-256.219 52,-168 64.0233,-126.163 67.0196,-107.964 104,-85 191.704,-30.5367 491.207,-22.1551 641.903,-21.497"/>
<polygon fill="black" stroke="black" points="642.062,-24.9966 652.05,-21.4634 642.039,-17.9966 642.062,-24.9966"/>
</g>
<!-- Ketrew_state&#45;&gt;Ketrew_path -->
<g id="edge37" class="edge"><title>Ketrew_state&#45;&gt;Ketrew_path</title>
<path fill="none" stroke="black" d="M541.115,-416.722C566.592,-362.481 645.098,-195.34 675.652,-130.289"/>
<polygon fill="black" stroke="black" points="678.882,-131.646 679.965,-121.107 672.546,-128.67 678.882,-131.646"/>
</g>
<!-- Ketrew_state&#45;&gt;Ketrew_host -->
<g id="edge34" class="edge"><title>Ketrew_state&#45;&gt;Ketrew_host</title>
<path fill="none" stroke="black" d="M551.731,-417.924C591.996,-383.915 690.649,-303.503 783,-251 814.382,-233.159 851.623,-216.328 879.804,-204.407"/>
<polygon fill="black" stroke="black" points="881.497,-207.493 889.369,-200.402 878.793,-201.036 881.497,-207.493"/>
</g>
<!-- Ketrew_state&#45;&gt;Ketrew_target -->
<g id="edge38" class="edge"><title>Ketrew_state&#45;&gt;Ketrew_target</title>
<path fill="none" stroke="black" d="M579.688,-424.708C654.076,-409.904 799.395,-380.983 880.918,-364.758"/>
<polygon fill="black" stroke="black" points="881.892,-368.133 891.017,-362.748 880.526,-361.268 881.892,-368.133"/>
</g>
<!-- Ketrew_state&#45;&gt;Ketrew_long_running -->
<g id="edge40" class="edge"><title>Ketrew_state&#45;&gt;Ketrew_long_running</title>
<path fill="none" stroke="black" d="M504.876,-419.238C457.821,-394.138 360.74,-340.631 284,-287 249.513,-262.898 212.48,-231.709 188.378,-210.62"/>
<polygon fill="black" stroke="black" points="190.541,-207.861 180.722,-203.88 185.915,-213.115 190.541,-207.861"/>
</g>
<!-- Ketrew_database -->
<g id="node9" class="node"><title>Ketrew_database</title>
<ellipse fill="darkturquoise" stroke="darkturquoise" cx="175" cy="-352" rx="70.9927" ry="18"/>
<text text-anchor="middle" x="175" y="-347.8" font-family="Times,serif" font-size="14.00">Ketrew_database</text>
</g>
<!-- Ketrew_state&#45;&gt;Ketrew_database -->
<g id="edge33" class="edge"><title>Ketrew_state&#45;&gt;Ketrew_database</title>
<path fill="none" stroke="black" d="M488.022,-423.823C424.259,-409.397 307.409,-382.959 235.922,-366.784"/>
<polygon fill="black" stroke="black" points="236.672,-363.365 226.146,-364.572 235.127,-370.193 236.672,-363.365"/>
</g>
<!-- Ketrew_nohup_setsid -->
<g id="node11" class="node"><title>Ketrew_nohup_setsid</title>
<ellipse fill="darkturquoise" stroke="darkturquoise" cx="380" cy="-269" rx="87.4567" ry="18"/>
<text text-anchor="middle" x="380" y="-264.8" font-family="Times,serif" font-size="14.00">Ketrew_nohup_setsid</text>
</g>
<!-- Ketrew_state&#45;&gt;Ketrew_nohup_setsid -->
<g id="edge36" class="edge"><title>Ketrew_state&#45;&gt;Ketrew_nohup_setsid</title>
<path fill="none" stroke="black" d="M517.488,-417.372C490.48,-388.423 434.694,-328.626 403.114,-294.776"/>
<polygon fill="black" stroke="black" points="405.393,-292.088 396.013,-287.164 400.275,-296.863 405.393,-292.088"/>
</g>
<!-- Ketrew_lsf -->
<g id="node13" class="node"><title>Ketrew_lsf</title>
<ellipse fill="darkturquoise" stroke="darkturquoise" cx="535" cy="-269" rx="49.2946" ry="18"/>
<text text-anchor="middle" x="535" y="-264.8" font-family="Times,serif" font-size="14.00">Ketrew_lsf</text>
</g>
<!-- Ketrew_state&#45;&gt;Ketrew_lsf -->
<g id="edge35" class="edge"><title>Ketrew_state&#45;&gt;Ketrew_lsf</title>
<path fill="none" stroke="black" d="M533.21,-416.759C533.558,-388.263 534.255,-331.121 534.669,-297.157"/>
<polygon fill="black" stroke="black" points="538.17,-297.052 534.793,-287.01 531.171,-296.966 538.17,-297.052"/>
</g>
<!-- Ketrew_long_running&#45;&gt;Ketrew_pervasives -->
<g id="edge55" class="edge"><title>Ketrew_long_running&#45;&gt;Ketrew_pervasives</title>
<path fill="none" stroke="black" d="M173.881,-167.819C190.904,-144.708 224.57,-104.287 264,-85 329.314,-53.0511 529.343,-35.0617 644.999,-27.0734"/>
<polygon fill="black" stroke="black" points="645.494,-30.5478 655.234,-26.3773 645.019,-23.564 645.494,-30.5478"/>
</g>
<!-- Ketrew_database&#45;&gt;Ketrew_pervasives -->
<g id="edge8" class="edge"><title>Ketrew_database&#45;&gt;Ketrew_pervasives</title>
<path fill="none" stroke="black" d="M152.374,-334.917C110.566,-303.15 28.655,-230.053 65,-168 103.115,-102.925 141.323,-108.45 213,-85 358.338,-37.4515 537.278,-25.2316 641.995,-22.4138"/>
<polygon fill="black" stroke="black" points="642.295,-25.9076 652.206,-22.1626 642.122,-18.9097 642.295,-25.9076"/>
</g>
<!-- Ketrew_edsl -->
<g id="node10" class="node"><title>Ketrew_edsl</title>
<ellipse fill="darkturquoise" stroke="darkturquoise" cx="896" cy="-600" rx="54.599" ry="18"/>
<text text-anchor="middle" x="896" y="-595.8" font-family="Times,serif" font-size="14.00">Ketrew_edsl</text>
</g>
<!-- Ketrew_edsl&#45;&gt;Ketrew_artifact -->
<g id="edge15" class="edge"><title>Ketrew_edsl&#45;&gt;Ketrew_artifact</title>
<path fill="none" stroke="black" d="M894.01,-581.775C887.79,-527.92 868.676,-362.429 861.12,-297.013"/>
<polygon fill="black" stroke="black" points="864.594,-296.587 859.97,-287.055 857.64,-297.39 864.594,-296.587"/>
</g>
<!-- Ketrew_edsl&#45;&gt;Ketrew_pervasives -->
<g id="edge12" class="edge"><title>Ketrew_edsl&#45;&gt;Ketrew_pervasives</title>
<path fill="none" stroke="black" d="M916.008,-583.201C930.383,-571.117 949.523,-553.443 963,-535 986.924,-502.261 988.425,-490.839 1003,-453 1062.64,-298.154 1175.02,-210.1 1066,-85 1033.9,-48.1631 904.095,-32.6499 815.548,-26.2691"/>
<polygon fill="black" stroke="black" points="815.721,-22.7727 805.502,-25.5713 815.236,-29.7559 815.721,-22.7727"/>
</g>
<!-- Ketrew_edsl&#45;&gt;Ketrew_path -->
<g id="edge10" class="edge"><title>Ketrew_edsl&#45;&gt;Ketrew_path</title>
<path fill="none" stroke="black" d="M888.84,-581.961C858.025,-508.627 736.568,-219.582 699.08,-130.368"/>
<polygon fill="black" stroke="black" points="702.23,-128.831 695.13,-120.967 695.777,-131.542 702.23,-128.831"/>
</g>
<!-- Ketrew_edsl&#45;&gt;Ketrew_host -->
<g id="edge13" class="edge"><title>Ketrew_edsl&#45;&gt;Ketrew_host</title>
<path fill="none" stroke="black" d="M907.804,-582.244C932.684,-545.776 989.872,-455.599 1010,-370 1022.44,-317.109 1009.7,-297.739 982,-251 973.087,-235.964 960.184,-221.45 948.716,-210.056"/>
<polygon fill="black" stroke="black" points="951.072,-207.466 941.444,-203.045 946.214,-212.505 951.072,-207.466"/>
</g>
<!-- Ketrew_edsl&#45;&gt;Ketrew_command_line -->
<g id="edge14" class="edge"><title>Ketrew_edsl&#45;&gt;Ketrew_command_line</title>
<path fill="none" stroke="black" d="M862.314,-585.624C829.175,-572.466 778.231,-552.239 740.689,-537.332"/>
<polygon fill="black" stroke="black" points="741.553,-533.91 730.968,-533.472 738.97,-540.416 741.553,-533.91"/>
</g>
<!-- Ketrew_edsl&#45;&gt;Ketrew_target -->
<g id="edge11" class="edge"><title>Ketrew_edsl&#45;&gt;Ketrew_target</title>
<path fill="none" stroke="black" d="M899.094,-581.702C906.636,-539.533 926.017,-431.175 935.129,-380.234"/>
<polygon fill="black" stroke="black" points="938.594,-380.739 936.909,-370.279 931.703,-379.507 938.594,-380.739"/>
</g>
<!-- Ketrew_edsl&#45;&gt;Ketrew_nohup_setsid -->
<g id="edge9" class="edge"><title>Ketrew_edsl&#45;&gt;Ketrew_nohup_setsid</title>
<path fill="none" stroke="black" d="M845.701,-592.669C684.424,-571.218 185.489,-495.547 95,-370 43.593,-298.677 181.777,-277.884 283.258,-272.026"/>
<polygon fill="black" stroke="black" points="283.468,-275.52 293.266,-271.49 283.093,-268.53 283.468,-275.52"/>
</g>
<!-- Ketrew_nohup_setsid&#45;&gt;Ketrew_pervasives -->
<g id="edge28" class="edge"><title>Ketrew_nohup_setsid&#45;&gt;Ketrew_pervasives</title>
<path fill="none" stroke="black" d="M350.15,-252.039C318.84,-233.106 276.774,-200.057 297,-168 336.499,-105.396 548.509,-56.4802 660.527,-34.5642"/>
<polygon fill="black" stroke="black" points="661.237,-37.9918 670.389,-32.654 659.906,-31.1196 661.237,-37.9918"/>
</g>
<!-- Ketrew_nohup_setsid&#45;&gt;Ketrew_path -->
<g id="edge27" class="edge"><title>Ketrew_nohup_setsid&#45;&gt;Ketrew_path</title>
<path fill="none" stroke="black" d="M415.633,-252.439C443.544,-239.991 483.174,-221.743 517,-204 565.925,-178.336 620.784,-145.504 654.863,-124.605"/>
<polygon fill="black" stroke="black" points="656.8,-127.523 663.483,-119.302 653.131,-121.561 656.8,-127.523"/>
</g>
<!-- Ketrew_nohup_setsid&#45;&gt;Ketrew_host -->
<g id="edge30" class="edge"><title>Ketrew_nohup_setsid&#45;&gt;Ketrew_host</title>
<path fill="none" stroke="black" d="M443.349,-256.607C454.55,-254.675 466.11,-252.735 477,-251 614.7,-229.059 776.876,-206.644 862.68,-195.052"/>
<polygon fill="black" stroke="black" points="863.317,-198.498 872.759,-193.693 862.381,-191.561 863.317,-198.498"/>
</g>
<!-- Ketrew_nohup_setsid&#45;&gt;Ketrew_long_running -->
<g id="edge29" class="edge"><title>Ketrew_nohup_setsid&#45;&gt;Ketrew_long_running</title>
<path fill="none" stroke="black" d="M339.507,-252.954C303.523,-239.584 250.788,-219.99 212.147,-205.633"/>
<polygon fill="black" stroke="black" points="213.239,-202.304 202.646,-202.102 210.8,-208.866 213.239,-202.304"/>
</g>
<!-- Ketrew_monitored_script -->
<g id="node14" class="node"><title>Ketrew_monitored_script</title>
<ellipse fill="darkturquoise" stroke="darkturquoise" cx="407" cy="-186" rx="100.945" ry="18"/>
<text text-anchor="middle" x="407" y="-181.8" font-family="Times,serif" font-size="14.00">Ketrew_monitored_script</text>
</g>
<!-- Ketrew_nohup_setsid&#45;&gt;Ketrew_monitored_script -->
<g id="edge26" class="edge"><title>Ketrew_nohup_setsid&#45;&gt;Ketrew_monitored_script</title>
<path fill="none" stroke="black" d="M385.726,-250.822C389.306,-240.083 393.992,-226.025 398.054,-213.837"/>
<polygon fill="black" stroke="black" points="401.44,-214.747 401.282,-204.153 394.8,-212.533 401.44,-214.747"/>
</g>
<!-- Ketrew_unix_process&#45;&gt;Ketrew_pervasives -->
<g id="edge45" class="edge"><title>Ketrew_unix_process&#45;&gt;Ketrew_pervasives</title>
<path fill="none" stroke="black" d="M887.402,-86.5752C855.672,-73.5578 810.123,-54.871 776.18,-40.9457"/>
<polygon fill="black" stroke="black" points="777.072,-37.5287 766.492,-36.9711 774.415,-44.0048 777.072,-37.5287"/>
</g>
<!-- Ketrew_lsf&#45;&gt;Ketrew_pervasives -->
<g id="edge21" class="edge"><title>Ketrew_lsf&#45;&gt;Ketrew_pervasives</title>
<path fill="none" stroke="black" d="M539.529,-250.937C549.494,-216.114 576.233,-135.865 623,-85 639.967,-66.5457 663.599,-51.8573 684.34,-41.3214"/>
<polygon fill="black" stroke="black" points="685.886,-44.4612 693.326,-36.9182 682.806,-38.1752 685.886,-44.4612"/>
</g>
<!-- Ketrew_lsf&#45;&gt;Ketrew_path -->
<g id="edge20" class="edge"><title>Ketrew_lsf&#45;&gt;Ketrew_path</title>
<path fill="none" stroke="black" d="M550.23,-251.675C577.24,-222.723 633.66,-162.247 665.278,-128.355"/>
<polygon fill="black" stroke="black" points="668.114,-130.446 672.376,-120.747 662.996,-125.671 668.114,-130.446"/>
</g>
<!-- Ketrew_lsf&#45;&gt;Ketrew_host -->
<g id="edge23" class="edge"><title>Ketrew_lsf&#45;&gt;Ketrew_host</title>
<path fill="none" stroke="black" d="M576.891,-259.255C647.217,-244.573 789.007,-214.973 867.522,-198.582"/>
<polygon fill="black" stroke="black" points="868.629,-201.926 877.703,-196.456 867.199,-195.074 868.629,-201.926"/>
</g>
<!-- Ketrew_lsf&#45;&gt;Ketrew_long_running -->
<g id="edge22" class="edge"><title>Ketrew_lsf&#45;&gt;Ketrew_long_running</title>
<path fill="none" stroke="black" d="M498.298,-256.936C490.941,-254.857 483.247,-252.78 476,-251 394.327,-230.944 299.625,-212.259 235.758,-200.318"/>
<polygon fill="black" stroke="black" points="236.251,-196.85 225.779,-198.46 234.969,-203.732 236.251,-196.85"/>
</g>
<!-- Ketrew_lsf&#45;&gt;Ketrew_monitored_script -->
<g id="edge19" class="edge"><title>Ketrew_lsf&#45;&gt;Ketrew_monitored_script</title>
<path fill="none" stroke="black" d="M511.523,-253.143C491.899,-240.725 463.639,-222.842 441.451,-208.801"/>
<polygon fill="black" stroke="black" points="443.292,-205.824 432.97,-203.434 439.549,-211.739 443.292,-205.824"/>
</g>
<!-- Ketrew_monitored_script&#45;&gt;Ketrew_pervasives -->
<g id="edge24" class="edge"><title>Ketrew_monitored_script&#45;&gt;Ketrew_pervasives</title>
<path fill="none" stroke="black" d="M422.083,-168.028C442.617,-145.904 481.477,-107.398 522,-85 565.412,-61.0057 619.088,-45.0412 661.039,-35.187"/>
<polygon fill="black" stroke="black" points="661.923,-38.5753 670.891,-32.9338 660.363,-31.7514 661.923,-38.5753"/>
</g>
<!-- Ketrew_monitored_script&#45;&gt;Ketrew_path -->
<g id="edge25" class="edge"><title>Ketrew_monitored_script&#45;&gt;Ketrew_path</title>
<path fill="none" stroke="black" d="M457.887,-170.332C509.041,-155.586 587.395,-133 638.17,-118.364"/>
<polygon fill="black" stroke="black" points="639.302,-121.68 647.941,-115.547 637.363,-114.954 639.302,-121.68"/>
</g>
<!-- Ketrew -->
<g id="node15" class="node"><title>Ketrew</title>
<ellipse fill="darkturquoise" stroke="darkturquoise" cx="813" cy="-683" rx="36.2645" ry="18"/>
<text text-anchor="middle" x="813" y="-678.8" font-family="Times,serif" font-size="14.00">Ketrew</text>
</g>
<!-- Ketrew&#45;&gt;Ketrew_artifact -->
<g id="edge54" class="edge"><title>Ketrew&#45;&gt;Ketrew_artifact</title>
<path fill="none" stroke="black" d="M813,-664.764C813,-634.883 813,-571.528 813,-518 813,-518 813,-518 813,-434 813,-384.181 832.551,-328.786 845.879,-296.809"/>
<polygon fill="black" stroke="black" points="849.237,-297.858 849.955,-287.287 842.802,-295.103 849.237,-297.858"/>
</g>
<!-- Ketrew&#45;&gt;Ketrew_pervasives -->
<g id="edge48" class="edge"><title>Ketrew&#45;&gt;Ketrew_pervasives</title>
<path fill="none" stroke="black" d="M849.194,-682.134C941.782,-680.396 1180,-661.937 1180,-518 1180,-518 1180,-518 1180,-185 1180,-126.09 1144.32,-113.929 1093,-85 1045.94,-58.471 902.94,-39.5224 811.098,-29.7009"/>
<polygon fill="black" stroke="black" points="811.305,-26.2034 800.993,-28.6349 810.571,-33.1647 811.305,-26.2034"/>
</g>
<!-- Ketrew&#45;&gt;Ketrew_path -->
<g id="edge49" class="edge"><title>Ketrew&#45;&gt;Ketrew_path</title>
<path fill="none" stroke="black" d="M782.906,-672.641C732.224,-655.053 631.334,-611.754 590,-535 582.414,-520.913 588.039,-514.879 590,-499 594.142,-465.462 655.946,-236.819 664,-204 670.088,-179.194 676.867,-150.883 681.663,-130.731"/>
<polygon fill="black" stroke="black" points="685.069,-131.537 683.976,-120.999 678.259,-129.918 685.069,-131.537"/>
</g>
<!-- Ketrew&#45;&gt;Ketrew_host -->
<g id="edge51" class="edge"><title>Ketrew&#45;&gt;Ketrew_host</title>
<path fill="none" stroke="black" d="M848.481,-678.793C887.584,-673.277 949.384,-658.337 983,-618 1087.65,-492.43 1096.32,-387.899 1007,-251 995.227,-232.956 976.562,-217.992 959.813,-207.082"/>
<polygon fill="black" stroke="black" points="961.612,-204.079 951.276,-201.752 957.905,-210.017 961.612,-204.079"/>
</g>
<!-- Ketrew&#45;&gt;Ketrew_command_line -->
<g id="edge53" class="edge"><title>Ketrew&#45;&gt;Ketrew_command_line</title>
<path fill="none" stroke="black" d="M801.178,-665.976C780.127,-637.444 735.994,-577.628 710.76,-543.427"/>
<polygon fill="black" stroke="black" points="713.531,-541.287 704.777,-535.318 707.898,-545.443 713.531,-541.287"/>
</g>
<!-- Ketrew&#45;&gt;Ketrew_target -->
<g id="edge46" class="edge"><title>Ketrew&#45;&gt;Ketrew_target</title>
<path fill="none" stroke="black" d="M847.583,-677.764C882.661,-671.423 935.209,-655.832 960,-618 1008.96,-543.291 972.431,-430.029 951.714,-379.247"/>
<polygon fill="black" stroke="black" points="954.91,-377.818 947.811,-369.954 948.456,-380.529 954.91,-377.818"/>
</g>
<!-- Ketrew&#45;&gt;Ketrew_state -->
<g id="edge47" class="edge"><title>Ketrew&#45;&gt;Ketrew_state</title>
<path fill="none" stroke="black" d="M777.997,-678.093C714.966,-670.307 586.202,-650.732 557,-618 518.713,-575.084 522.478,-502.238 528.034,-462.981"/>
<polygon fill="black" stroke="black" points="531.495,-463.499 529.576,-453.08 524.579,-462.422 531.495,-463.499"/>
</g>
<!-- Ketrew&#45;&gt;Ketrew_edsl -->
<g id="edge52" class="edge"><title>Ketrew&#45;&gt;Ketrew_edsl</title>
<path fill="none" stroke="black" d="M828.612,-666.765C840.815,-654.855 857.991,-638.093 871.948,-624.472"/>
<polygon fill="black" stroke="black" points="874.607,-626.768 879.319,-617.279 869.718,-621.758 874.607,-626.768"/>
</g>
<!-- Ketrew&#45;&gt;Ketrew_nohup_setsid -->
<g id="edge50" class="edge"><title>Ketrew&#45;&gt;Ketrew_nohup_setsid</title>
<path fill="none" stroke="black" d="M776.753,-682.524C618.984,-683.852 0,-678.818 0,-518 0,-518 0,-518 0,-434 0,-310.893 170.203,-279.11 282.79,-271.553"/>
<polygon fill="black" stroke="black" points="283.055,-275.043 292.82,-270.933 282.623,-268.057 283.055,-275.043"/>
</g>
</g>
</svg>
