<?xml version="1.0" encoding="UTF-8" standalone="no"?>
<!DOCTYPE svg PUBLIC "-//W3C//DTD SVG 1.1//EN"
 "http://www.w3.org/Graphics/SVG/1.1/DTD/svg11.dtd">
<!-- Generated by graphviz version 2.38.0 (20140413.2041)
 -->
<!-- Title: G Pages: 1 -->
<svg width="490pt" height="720pt"
 viewBox="0.00 0.00 720.00 489.85" xmlns="http://www.w3.org/2000/svg" xmlns:xlink="http://www.w3.org/1999/xlink">
<g id="graph0" class="graph" transform="scale(0.381356 0.381356) rotate(-90) translate(-1884 1280.5)">
<title>G</title>
<polygon fill="white" stroke="none" points="-4,4 -4,-1280.5 1884,-1280.5 1884,4 -4,4"/>
<!-- Ketrew_artifact -->
<g id="node1" class="node"><title>Ketrew_artifact</title>
<ellipse fill="darkturquoise" stroke="darkturquoise" cx="554" cy="-488" rx="65.6803" ry="18"/>
<text text-anchor="middle" x="554" y="-483.8" font-family="Times,serif" font-size="14.00">Ketrew_artifact</text>
</g>
<!-- Ketrew_pervasives -->
<g id="node2" class="node"><title>Ketrew_pervasives</title>
<ellipse fill="darkturquoise" stroke="darkturquoise" cx="804" cy="-38" rx="77.7589" ry="18"/>
<text text-anchor="middle" x="804" y="-33.8" font-family="Times,serif" font-size="14.00">Ketrew_pervasives</text>
</g>
<!-- Ketrew_artifact&#45;&gt;Ketrew_pervasives -->
<g id="edge1" class="edge"><title>Ketrew_artifact&#45;&gt;Ketrew_pervasives</title>
<path fill="none" stroke="black" d="M545.895,-469.719C532.51,-438.613 509.228,-371.631 530,-320 578.6,-199.197 707.327,-102.164 769.471,-60.7299"/>
<polygon fill="black" stroke="black" points="771.711,-63.4457 778.139,-55.0239 767.862,-57.5988 771.711,-63.4457"/>
</g>
<!-- Ketrew_path -->
<g id="node3" class="node"><title>Ketrew_path</title>
<ellipse fill="darkturquoise" stroke="darkturquoise" cx="762" cy="-188" rx="55.5596" ry="18"/>
<text text-anchor="middle" x="762" y="-183.8" font-family="Times,serif" font-size="14.00">Ketrew_path</text>
</g>
<!-- Ketrew_artifact&#45;&gt;Ketrew_path -->
<g id="edge2" class="edge"><title>Ketrew_artifact&#45;&gt;Ketrew_path</title>
<path fill="none" stroke="black" d="M547.456,-470.009C536.362,-438.212 517.599,-368.549 545,-320 580.256,-257.535 658.586,-221.507 710.847,-203.574"/>
<polygon fill="black" stroke="black" points="712.222,-206.805 720.608,-200.33 710.015,-200.162 712.222,-206.805"/>
</g>
<!-- Ketrew_host -->
<g id="node4" class="node"><title>Ketrew_host</title>
<ellipse fill="darkturquoise" stroke="darkturquoise" cx="876" cy="-338" rx="55.0922" ry="18"/>
<text text-anchor="middle" x="876" y="-333.8" font-family="Times,serif" font-size="14.00">Ketrew_host</text>
</g>
<!-- Ketrew_artifact&#45;&gt;Ketrew_host -->
<g id="edge3" class="edge"><title>Ketrew_artifact&#45;&gt;Ketrew_host</title>
<path fill="none" stroke="black" d="M586.052,-472.268C645.213,-445.076 771.413,-387.071 836.045,-357.365"/>
<polygon fill="black" stroke="black" points="837.869,-360.378 845.494,-353.021 834.946,-354.018 837.869,-360.378"/>
</g>
<!-- Ketrew_path&#45;&gt;Ketrew_pervasives -->
<g id="edge47" class="edge"><title>Ketrew_path&#45;&gt;Ketrew_pervasives</title>
<path fill="none" stroke="black" d="M766.818,-170.023C774.027,-144.621 787.69,-96.473 796.295,-66.1508"/>
<polygon fill="black" stroke="black" points="799.746,-66.811 799.109,-56.2354 793.012,-64.9 799.746,-66.811"/>
</g>
<!-- Ketrew_host&#45;&gt;Ketrew_pervasives -->
<g id="edge35" class="edge"><title>Ketrew_host&#45;&gt;Ketrew_pervasives</title>
<path fill="none" stroke="black" d="M871.818,-319.69C859.785,-269.887 825.012,-125.966 810.491,-65.8666"/>
<polygon fill="black" stroke="black" points="813.855,-64.8845 808.104,-55.9862 807.051,-66.5286 813.855,-64.8845"/>
</g>
<!-- Ketrew_host&#45;&gt;Ketrew_path -->
<g id="edge36" class="edge"><title>Ketrew_host&#45;&gt;Ketrew_path</title>
<path fill="none" stroke="black" d="M863.144,-320.31C843.131,-294.328 804.411,-244.06 781.116,-213.818"/>
<polygon fill="black" stroke="black" points="783.859,-211.642 774.984,-205.856 778.313,-215.914 783.859,-211.642"/>
</g>
<!-- Ketrew_unix_process -->
<g id="node18" class="node"><title>Ketrew_unix_process</title>
<ellipse fill="darkturquoise" stroke="darkturquoise" cx="961" cy="-188" rx="87.4394" ry="18"/>
<text text-anchor="middle" x="961" y="-183.8" font-family="Times,serif" font-size="14.00">Ketrew_unix_process</text>
</g>
<!-- Ketrew_host&#45;&gt;Ketrew_unix_process -->
<g id="edge34" class="edge"><title>Ketrew_host&#45;&gt;Ketrew_unix_process</title>
<path fill="none" stroke="black" d="M885.751,-320.023C900.531,-294.288 928.719,-245.208 946.086,-214.968"/>
<polygon fill="black" stroke="black" points="949.156,-216.65 951.101,-206.235 943.086,-213.164 949.156,-216.65"/>
</g>
<!-- Ketrew_command_line -->
<g id="node5" class="node"><title>Ketrew_command_line</title>
<ellipse fill="darkturquoise" stroke="darkturquoise" cx="515" cy="-1089" rx="93.2188" ry="18"/>
<text text-anchor="middle" x="515" y="-1084.8" font-family="Times,serif" font-size="14.00">Ketrew_command_line</text>
</g>
<!-- Ketrew_command_line&#45;&gt;Ketrew_artifact -->
<g id="edge4" class="edge"><title>Ketrew_command_line&#45;&gt;Ketrew_artifact</title>
<path fill="none" stroke="black" d="M493.815,-1071.23C467.145,-1048.62 422.682,-1005.55 405,-957 399.525,-941.966 403.076,-936.884 405,-921 421.565,-784.238 427.835,-747.908 479,-620 494.498,-581.257 519.731,-540.03 536.594,-514.397"/>
<polygon fill="black" stroke="black" points="539.55,-516.274 542.18,-506.011 533.724,-512.394 539.55,-516.274"/>
</g>
<!-- Ketrew_command_line&#45;&gt;Ketrew_pervasives -->
<g id="edge9" class="edge"><title>Ketrew_command_line&#45;&gt;Ketrew_pervasives</title>
<path fill="none" stroke="black" d="M473.918,-1072.69C358.216,-1026.61 38,-877.547 38,-639 38,-639 38,-639 38,-337 38,-188.752 542.621,-84.8401 732.713,-50.9554"/>
<polygon fill="black" stroke="black" points="733.373,-54.3931 742.61,-49.2039 732.153,-47.5002 733.373,-54.3931"/>
</g>
<!-- Ketrew_error -->
<g id="node6" class="node"><title>Ketrew_error</title>
<ellipse fill="darkturquoise" stroke="darkturquoise" cx="1000" cy="-488" rx="57.9719" ry="18"/>
<text text-anchor="middle" x="1000" y="-483.8" font-family="Times,serif" font-size="14.00">Ketrew_error</text>
</g>
<!-- Ketrew_command_line&#45;&gt;Ketrew_error -->
<g id="edge5" class="edge"><title>Ketrew_command_line&#45;&gt;Ketrew_error</title>
<path fill="none" stroke="black" d="M536.061,-1071.17C587.019,-1029.76 719.365,-918.156 809,-806 888.278,-706.803 958.985,-571.837 987.105,-515.451"/>
<polygon fill="black" stroke="black" points="990.4,-516.684 991.702,-506.169 984.127,-513.577 990.4,-516.684"/>
</g>
<!-- Ketrew_state -->
<g id="node7" class="node"><title>Ketrew_state</title>
<ellipse fill="darkturquoise" stroke="darkturquoise" cx="743" cy="-788" rx="56.5201" ry="18"/>
<text text-anchor="middle" x="743" y="-783.8" font-family="Times,serif" font-size="14.00">Ketrew_state</text>
</g>
<!-- Ketrew_command_line&#45;&gt;Ketrew_state -->
<g id="edge6" class="edge"><title>Ketrew_command_line&#45;&gt;Ketrew_state</title>
<path fill="none" stroke="black" d="M528.654,-1071.19C548.717,-1046.41 587.225,-998.503 619,-957 657.436,-906.797 701.057,-847.02 724.956,-814.017"/>
<polygon fill="black" stroke="black" points="727.848,-815.991 730.873,-805.837 722.176,-811.888 727.848,-815.991"/>
</g>
<!-- Ketrew_target -->
<g id="node8" class="node"><title>Ketrew_target</title>
<ellipse fill="darkturquoise" stroke="darkturquoise" cx="549" cy="-638" rx="60.5585" ry="18"/>
<text text-anchor="middle" x="549" y="-633.8" font-family="Times,serif" font-size="14.00">Ketrew_target</text>
</g>
<!-- Ketrew_command_line&#45;&gt;Ketrew_target -->
<g id="edge7" class="edge"><title>Ketrew_command_line&#45;&gt;Ketrew_target</title>
<path fill="none" stroke="black" d="M492.989,-1071.48C458.394,-1043.33 396.63,-983.058 411,-921 434.565,-819.233 500.188,-711.792 531.691,-664.207"/>
<polygon fill="black" stroke="black" points="534.684,-666.028 537.336,-655.77 528.866,-662.135 534.684,-666.028"/>
</g>
<!-- Ketrew_user_command -->
<g id="node9" class="node"><title>Ketrew_user_command</title>
<ellipse fill="darkturquoise" stroke="darkturquoise" cx="515" cy="-939" rx="94.6636" ry="18"/>
<text text-anchor="middle" x="515" y="-934.8" font-family="Times,serif" font-size="14.00">Ketrew_user_command</text>
</g>
<!-- Ketrew_command_line&#45;&gt;Ketrew_user_command -->
<g id="edge8" class="edge"><title>Ketrew_command_line&#45;&gt;Ketrew_user_command</title>
<path fill="none" stroke="black" d="M515,-1070.73C515,-1045.33 515,-997.651 515,-967.428"/>
<polygon fill="black" stroke="black" points="518.5,-967.157 515,-957.157 511.5,-967.157 518.5,-967.157"/>
</g>
<!-- Ketrew_long_running -->
<g id="node10" class="node"><title>Ketrew_long_running</title>
<ellipse fill="darkturquoise" stroke="darkturquoise" cx="1278" cy="-488" rx="88.417" ry="18"/>
<text text-anchor="middle" x="1278" y="-483.8" font-family="Times,serif" font-size="14.00">Ketrew_long_running</text>
</g>
<!-- Ketrew_command_line&#45;&gt;Ketrew_long_running -->
<g id="edge10" class="edge"><title>Ketrew_command_line&#45;&gt;Ketrew_long_running</title>
<path fill="none" stroke="black" d="M559.554,-1073.05C683.184,-1029.34 1033.71,-889.848 1221,-656 1254.41,-614.286 1268.75,-551.872 1274.5,-516.342"/>
<polygon fill="black" stroke="black" points="1278,-516.641 1276.02,-506.232 1271.08,-515.6 1278,-516.641"/>
</g>
<!-- Ketrew_configuration -->
<g id="node11" class="node"><title>Ketrew_configuration</title>
<ellipse fill="darkturquoise" stroke="darkturquoise" cx="230" cy="-638" rx="87.9239" ry="18"/>
<text text-anchor="middle" x="230" y="-633.8" font-family="Times,serif" font-size="14.00">Ketrew_configuration</text>
</g>
<!-- Ketrew_command_line&#45;&gt;Ketrew_configuration -->
<g id="edge11" class="edge"><title>Ketrew_command_line&#45;&gt;Ketrew_configuration</title>
<path fill="none" stroke="black" d="M471.403,-1073.06C422.441,-1053.97 344.312,-1016.14 302,-957 236.71,-865.745 229.361,-725.149 229.37,-666.336"/>
<polygon fill="black" stroke="black" points="232.872,-666.046 229.45,-656.019 225.872,-665.992 232.872,-666.046"/>
</g>
<!-- Ketrew_error&#45;&gt;Ketrew_pervasives -->
<g id="edge83" class="edge"><title>Ketrew_error&#45;&gt;Ketrew_pervasives</title>
<path fill="none" stroke="black" d="M1010.56,-470.048C1040.21,-420.077 1118.17,-270.561 1057,-170 1016.76,-103.851 931.137,-69.6183 870.676,-53.0026"/>
<polygon fill="black" stroke="black" points="871.387,-49.5704 860.824,-50.3889 869.592,-56.3363 871.387,-49.5704"/>
</g>
<!-- Ketrew_error&#45;&gt;Ketrew_host -->
<g id="edge84" class="edge"><title>Ketrew_error&#45;&gt;Ketrew_host</title>
<path fill="none" stroke="black" d="M986.017,-470.31C964.248,-444.328 922.131,-394.06 896.793,-363.818"/>
<polygon fill="black" stroke="black" points="899.228,-361.273 890.122,-355.856 893.862,-365.769 899.228,-361.273"/>
</g>
<!-- Ketrew_database -->
<g id="node15" class="node"><title>Ketrew_database</title>
<ellipse fill="darkturquoise" stroke="darkturquoise" cx="625" cy="-338" rx="70.9927" ry="18"/>
<text text-anchor="middle" x="625" y="-333.8" font-family="Times,serif" font-size="14.00">Ketrew_database</text>
</g>
<!-- Ketrew_error&#45;&gt;Ketrew_database -->
<g id="edge85" class="edge"><title>Ketrew_error&#45;&gt;Ketrew_database</title>
<path fill="none" stroke="black" d="M965.727,-473.474C898.105,-446.785 747.465,-387.333 671.175,-357.224"/>
<polygon fill="black" stroke="black" points="672.394,-353.942 661.807,-353.526 669.824,-360.453 672.394,-353.942"/>
</g>
<!-- Ketrew_error&#45;&gt;Ketrew_unix_process -->
<g id="edge82" class="edge"><title>Ketrew_error&#45;&gt;Ketrew_unix_process</title>
<path fill="none" stroke="black" d="M997.735,-469.69C991.232,-420.004 972.47,-276.643 964.572,-216.292"/>
<polygon fill="black" stroke="black" points="968.04,-215.819 963.272,-206.358 961.099,-216.727 968.04,-215.819"/>
</g>
<!-- Ketrew_state&#45;&gt;Ketrew_artifact -->
<g id="edge49" class="edge"><title>Ketrew_state&#45;&gt;Ketrew_artifact</title>
<path fill="none" stroke="black" d="M732.297,-770.124C700.794,-720.454 608.244,-574.527 570.405,-514.866"/>
<polygon fill="black" stroke="black" points="573.131,-512.63 564.82,-506.06 567.22,-516.379 573.131,-512.63"/>
</g>
<!-- Ketrew_state&#45;&gt;Ketrew_pervasives -->
<g id="edge55" class="edge"><title>Ketrew_state&#45;&gt;Ketrew_pervasives</title>
<path fill="none" stroke="black" d="M695.32,-778.115C633.983,-763.938 529.362,-729.88 479,-656 432.324,-587.527 457.045,-552.383 466,-470 481.203,-330.137 471.542,-273.347 567,-170 618.351,-114.405 698.836,-76.9287 751.509,-56.7676"/>
<polygon fill="black" stroke="black" points="752.874,-59.9938 761.007,-53.2042 750.415,-53.4399 752.874,-59.9938"/>
</g>
<!-- Ketrew_state&#45;&gt;Ketrew_path -->
<g id="edge53" class="edge"><title>Ketrew_state&#45;&gt;Ketrew_path</title>
<path fill="none" stroke="black" d="M742.586,-769.593C741.252,-708.083 737.722,-495.239 748,-320 750.107,-284.078 754.912,-242.833 758.303,-216.374"/>
<polygon fill="black" stroke="black" points="761.789,-216.701 759.613,-206.332 754.848,-215.795 761.789,-216.701"/>
</g>
<!-- Ketrew_state&#45;&gt;Ketrew_host -->
<g id="edge57" class="edge"><title>Ketrew_state&#45;&gt;Ketrew_host</title>
<path fill="none" stroke="black" d="M748.051,-769.985C768.255,-701.931 843.343,-449.002 868.057,-365.755"/>
<polygon fill="black" stroke="black" points="871.453,-366.615 870.944,-356.032 864.742,-364.622 871.453,-366.615"/>
</g>
<!-- Ketrew_state&#45;&gt;Ketrew_error -->
<g id="edge51" class="edge"><title>Ketrew_state&#45;&gt;Ketrew_error</title>
<path fill="none" stroke="black" d="M757.184,-770.554C799.997,-720.91 928.1,-572.371 978.905,-513.461"/>
<polygon fill="black" stroke="black" points="981.663,-515.621 985.544,-505.763 976.362,-511.05 981.663,-515.621"/>
</g>
<!-- Ketrew_state&#45;&gt;Ketrew_target -->
<g id="edge54" class="edge"><title>Ketrew_state&#45;&gt;Ketrew_target</title>
<path fill="none" stroke="black" d="M722.239,-771.161C687.47,-744.637 617.398,-691.18 577.856,-661.014"/>
<polygon fill="black" stroke="black" points="579.979,-658.231 569.905,-654.948 575.733,-663.797 579.979,-658.231"/>
</g>
<!-- Ketrew_state&#45;&gt;Ketrew_long_running -->
<g id="edge56" class="edge"><title>Ketrew_state&#45;&gt;Ketrew_long_running</title>
<path fill="none" stroke="black" d="M798.673,-784.455C890.307,-777.532 1074.36,-751.78 1191,-656 1235.84,-619.179 1260.32,-553.146 1271.12,-516.103"/>
<polygon fill="black" stroke="black" points="1274.61,-516.609 1273.93,-506.036 1267.87,-514.73 1274.61,-516.609"/>
</g>
<!-- Ketrew_state&#45;&gt;Ketrew_configuration -->
<g id="edge59" class="edge"><title>Ketrew_state&#45;&gt;Ketrew_configuration</title>
<path fill="none" stroke="black" d="M702.317,-775.263C611.863,-749.167 393.785,-686.252 288.635,-655.916"/>
<polygon fill="black" stroke="black" points="289.399,-652.494 278.82,-653.085 287.458,-659.219 289.399,-652.494"/>
</g>
<!-- Ketrew_daemonize -->
<g id="node12" class="node"><title>Ketrew_daemonize</title>
<ellipse fill="darkturquoise" stroke="darkturquoise" cx="1393" cy="-638" rx="78.7108" ry="18"/>
<text text-anchor="middle" x="1393" y="-633.8" font-family="Times,serif" font-size="14.00">Ketrew_daemonize</text>
</g>
<!-- Ketrew_state&#45;&gt;Ketrew_daemonize -->
<g id="edge50" class="edge"><title>Ketrew_state&#45;&gt;Ketrew_daemonize</title>
<path fill="none" stroke="black" d="M787.677,-776.827C900.612,-751.113 1197.84,-683.437 1329.11,-653.546"/>
<polygon fill="black" stroke="black" points="1330.06,-656.922 1339.03,-651.289 1328.5,-650.096 1330.06,-656.922"/>
</g>
<!-- Ketrew_state&#45;&gt;Ketrew_database -->
<g id="edge58" class="edge"><title>Ketrew_state&#45;&gt;Ketrew_database</title>
<path fill="none" stroke="black" d="M736.825,-769.768C728.016,-744.855 711.624,-697.24 700,-656 670.081,-549.856 642.226,-421.487 630.649,-366.338"/>
<polygon fill="black" stroke="black" points="634.026,-365.386 628.556,-356.313 627.174,-366.818 634.026,-365.386"/>
</g>
<!-- Ketrew_lsf -->
<g id="node17" class="node"><title>Ketrew_lsf</title>
<ellipse fill="darkturquoise" stroke="darkturquoise" cx="1133" cy="-638" rx="49.2946" ry="18"/>
<text text-anchor="middle" x="1133" y="-633.8" font-family="Times,serif" font-size="14.00">Ketrew_lsf</text>
</g>
<!-- Ketrew_state&#45;&gt;Ketrew_lsf -->
<g id="edge52" class="edge"><title>Ketrew_state&#45;&gt;Ketrew_lsf</title>
<path fill="none" stroke="black" d="M777.953,-773.736C849.582,-746.554 1012.81,-684.611 1090.45,-655.148"/>
<polygon fill="black" stroke="black" points="1091.82,-658.371 1099.93,-651.551 1089.34,-651.827 1091.82,-658.371"/>
</g>
<!-- Ketrew_target&#45;&gt;Ketrew_artifact -->
<g id="edge64" class="edge"><title>Ketrew_target&#45;&gt;Ketrew_artifact</title>
<path fill="none" stroke="black" d="M549.583,-619.733C550.441,-594.334 552.052,-546.651 553.073,-516.428"/>
<polygon fill="black" stroke="black" points="556.581,-516.27 553.42,-506.157 549.585,-516.033 556.581,-516.27"/>
</g>
<!-- Ketrew_target&#45;&gt;Ketrew_pervasives -->
<g id="edge62" class="edge"><title>Ketrew_target&#45;&gt;Ketrew_pervasives</title>
<path fill="none" stroke="black" d="M535.209,-620.113C516.795,-596.36 485.092,-550.941 473,-506 455.886,-442.398 510.439,-340.606 519,-320 547.988,-250.226 547.716,-225.485 599,-170 645.436,-119.759 715.18,-80.6508 760.146,-58.7008"/>
<polygon fill="black" stroke="black" points="761.851,-61.7651 769.348,-54.2795 758.819,-55.4556 761.851,-61.7651"/>
</g>
<!-- Ketrew_target&#45;&gt;Ketrew_path -->
<g id="edge60" class="edge"><title>Ketrew_target&#45;&gt;Ketrew_path</title>
<path fill="none" stroke="black" d="M536.57,-620.327C519.637,-596.466 490.15,-550.525 479,-506 461.772,-437.204 527.332,-323.218 530,-320 578.815,-261.125 661.353,-223.655 713.689,-204.499"/>
<polygon fill="black" stroke="black" points="715.176,-207.685 723.414,-201.023 712.82,-201.093 715.176,-207.685"/>
</g>
<!-- Ketrew_target&#45;&gt;Ketrew_host -->
<g id="edge63" class="edge"><title>Ketrew_target&#45;&gt;Ketrew_host</title>
<path fill="none" stroke="black" d="M567.047,-620.554C621.873,-570.59 786.622,-420.452 850.397,-362.333"/>
<polygon fill="black" stroke="black" points="852.975,-364.718 858.009,-355.395 848.26,-359.544 852.975,-364.718"/>
</g>
<!-- Ketrew_program -->
<g id="node14" class="node"><title>Ketrew_program</title>
<ellipse fill="darkturquoise" stroke="darkturquoise" cx="1774" cy="-338" rx="70.5254" ry="18"/>
<text text-anchor="middle" x="1774" y="-333.8" font-family="Times,serif" font-size="14.00">Ketrew_program</text>
</g>
<!-- Ketrew_target&#45;&gt;Ketrew_program -->
<g id="edge61" class="edge"><title>Ketrew_target&#45;&gt;Ketrew_program</title>
<path fill="none" stroke="black" d="M576.97,-621.845C639.091,-588.863 794.06,-510.31 933,-470 1207.33,-390.408 1546.89,-356.323 1696.75,-344.401"/>
<polygon fill="black" stroke="black" points="1697.08,-347.886 1706.78,-343.614 1696.54,-340.908 1697.08,-347.886"/>
</g>
<!-- Ketrew_user_command&#45;&gt;Ketrew_pervasives -->
<g id="edge68" class="edge"><title>Ketrew_user_command&#45;&gt;Ketrew_pervasives</title>
<path fill="none" stroke="black" d="M505.76,-920.684C493.143,-896.028 471.059,-849.013 462,-806 417.473,-594.572 421.93,-529.698 474,-320 491.304,-250.314 485.068,-222.547 534,-170 591.009,-108.779 682.717,-72.8212 743.172,-54.5193"/>
<polygon fill="black" stroke="black" points="744.368,-57.8156 752.967,-51.6256 742.385,-51.1024 744.368,-57.8156"/>
</g>
<!-- Ketrew_user_command&#45;&gt;Ketrew_state -->
<g id="edge67" class="edge"><title>Ketrew_user_command&#45;&gt;Ketrew_state</title>
<path fill="none" stroke="black" d="M540.271,-921.485C581.902,-894.279 664.847,-840.074 710.684,-810.119"/>
<polygon fill="black" stroke="black" points="712.877,-812.867 719.334,-804.466 709.048,-807.007 712.877,-812.867"/>
</g>
<!-- Ketrew_user_command&#45;&gt;Ketrew_target -->
<g id="edge66" class="edge"><title>Ketrew_user_command&#45;&gt;Ketrew_target</title>
<path fill="none" stroke="black" d="M516.975,-920.632C522.645,-870.765 539.01,-726.856 545.892,-666.332"/>
<polygon fill="black" stroke="black" points="549.41,-666.375 547.062,-656.043 542.454,-665.584 549.41,-666.375"/>
</g>
<!-- Ketrew_user_command&#45;&gt;Ketrew_database -->
<g id="edge69" class="edge"><title>Ketrew_user_command&#45;&gt;Ketrew_database</title>
<path fill="none" stroke="black" d="M508.07,-920.849C483.613,-857.535 406.603,-632.227 479,-470 501.07,-420.546 552.058,-381.983 587.521,-359.863"/>
<polygon fill="black" stroke="black" points="589.452,-362.785 596.176,-354.597 585.813,-356.805 589.452,-362.785"/>
</g>
<!-- Ketrew_long_running&#45;&gt;Ketrew_pervasives -->
<g id="edge86" class="edge"><title>Ketrew_long_running&#45;&gt;Ketrew_pervasives</title>
<path fill="none" stroke="black" d="M1277.57,-469.91C1275.33,-417.591 1261.48,-257.841 1176,-170 1098.34,-90.1897 969.21,-58.9139 885.354,-46.7166"/>
<polygon fill="black" stroke="black" points="885.747,-43.2376 875.359,-45.3218 884.779,-50.1704 885.747,-43.2376"/>
</g>
<!-- Ketrew_configuration&#45;&gt;Ketrew_pervasives -->
<g id="edge12" class="edge"><title>Ketrew_configuration&#45;&gt;Ketrew_pervasives</title>
<path fill="none" stroke="black" d="M226.336,-619.867C213.051,-552.698 174.238,-304.424 294,-170 350.988,-106.036 597.895,-65.5143 726.087,-48.3947"/>
<polygon fill="black" stroke="black" points="726.778,-51.8339 736.234,-47.0553 725.862,-44.8941 726.778,-51.8339"/>
</g>
<!-- Ketrew_daemonize&#45;&gt;Ketrew_pervasives -->
<g id="edge16" class="edge"><title>Ketrew_daemonize&#45;&gt;Ketrew_pervasives</title>
<path fill="none" stroke="black" d="M1455.96,-627.004C1551.95,-608.636 1718.99,-562.607 1671,-470 1514.74,-168.437 1065.04,-74.4123 882.455,-48.1768"/>
<polygon fill="black" stroke="black" points="882.779,-44.6881 872.389,-46.7606 881.804,-51.6199 882.779,-44.6881"/>
</g>
<!-- Ketrew_daemonize&#45;&gt;Ketrew_path -->
<g id="edge15" class="edge"><title>Ketrew_daemonize&#45;&gt;Ketrew_path</title>
<path fill="none" stroke="black" d="M1399.66,-619.645C1410.88,-587.242 1429.5,-516.609 1399,-470 1329.68,-364.083 1253.84,-407.024 1138,-356 1015.95,-302.241 871.915,-238.062 802.893,-207.262"/>
<polygon fill="black" stroke="black" points="804.22,-204.021 793.662,-203.142 801.367,-210.413 804.22,-204.021"/>
</g>
<!-- Ketrew_daemonize&#45;&gt;Ketrew_host -->
<g id="edge19" class="edge"><title>Ketrew_daemonize&#45;&gt;Ketrew_host</title>
<path fill="none" stroke="black" d="M1396.84,-619.903C1403.21,-586.673 1411.91,-512.876 1375,-470 1317.94,-403.71 1057.5,-362.32 937.221,-346.42"/>
<polygon fill="black" stroke="black" points="937.439,-342.919 927.07,-345.095 936.532,-349.86 937.439,-342.919"/>
</g>
<!-- Ketrew_daemonize&#45;&gt;Ketrew_error -->
<g id="edge13" class="edge"><title>Ketrew_daemonize&#45;&gt;Ketrew_error</title>
<path fill="none" stroke="black" d="M1353.88,-622.268C1280.43,-594.607 1122.31,-535.062 1044.75,-505.854"/>
<polygon fill="black" stroke="black" points="1045.85,-502.526 1035.26,-502.278 1043.38,-509.077 1045.85,-502.526"/>
</g>
<!-- Ketrew_daemonize&#45;&gt;Ketrew_long_running -->
<g id="edge18" class="edge"><title>Ketrew_daemonize&#45;&gt;Ketrew_long_running</title>
<path fill="none" stroke="black" d="M1379.81,-620.023C1359.64,-594.066 1321.02,-544.36 1297.57,-514.191"/>
<polygon fill="black" stroke="black" points="1300.29,-511.984 1291.39,-506.235 1294.76,-516.279 1300.29,-511.984"/>
</g>
<!-- Ketrew_monitored_script -->
<g id="node13" class="node"><title>Ketrew_monitored_script</title>
<ellipse fill="darkturquoise" stroke="darkturquoise" cx="1561" cy="-488" rx="100.945" ry="18"/>
<text text-anchor="middle" x="1561" y="-483.8" font-family="Times,serif" font-size="14.00">Ketrew_monitored_script</text>
</g>
<!-- Ketrew_daemonize&#45;&gt;Ketrew_monitored_script -->
<g id="edge14" class="edge"><title>Ketrew_daemonize&#45;&gt;Ketrew_monitored_script</title>
<path fill="none" stroke="black" d="M1411.95,-620.31C1441.82,-593.995 1499.97,-542.767 1534.14,-512.665"/>
<polygon fill="black" stroke="black" points="1536.68,-515.092 1541.87,-505.856 1532.05,-509.84 1536.68,-515.092"/>
</g>
<!-- Ketrew_daemonize&#45;&gt;Ketrew_program -->
<g id="edge17" class="edge"><title>Ketrew_daemonize&#45;&gt;Ketrew_program</title>
<path fill="none" stroke="black" d="M1464.95,-630.469C1545.04,-619.199 1672.33,-588.628 1742,-506 1775.37,-466.424 1778.04,-402.707 1776.41,-366.492"/>
<polygon fill="black" stroke="black" points="1779.88,-365.966 1775.79,-356.193 1772.9,-366.383 1779.88,-365.966"/>
</g>
<!-- Ketrew_monitored_script&#45;&gt;Ketrew_pervasives -->
<g id="edge45" class="edge"><title>Ketrew_monitored_script&#45;&gt;Ketrew_pervasives</title>
<path fill="none" stroke="black" d="M1546.49,-469.881C1501.21,-417.478 1356.38,-257.511 1204,-170 1095.87,-107.904 954.18,-70.3869 871.703,-52.2708"/>
<polygon fill="black" stroke="black" points="872.213,-48.8002 861.699,-50.1049 870.732,-55.6417 872.213,-48.8002"/>
</g>
<!-- Ketrew_monitored_script&#45;&gt;Ketrew_path -->
<g id="edge46" class="edge"><title>Ketrew_monitored_script&#45;&gt;Ketrew_path</title>
<path fill="none" stroke="black" d="M1522.71,-471.276C1448.73,-441.032 1280.85,-373.056 1138,-320 1020.25,-276.266 880.232,-228.619 808.874,-204.646"/>
<polygon fill="black" stroke="black" points="809.865,-201.287 799.271,-201.424 807.638,-207.923 809.865,-201.287"/>
</g>
<!-- Ketrew_monitored_script&#45;&gt;Ketrew_program -->
<g id="edge44" class="edge"><title>Ketrew_monitored_script&#45;&gt;Ketrew_program</title>
<path fill="none" stroke="black" d="M1585.02,-470.31C1623.6,-443.506 1699.38,-390.852 1742.33,-361.006"/>
<polygon fill="black" stroke="black" points="1744.5,-363.759 1750.72,-355.178 1740.51,-358.01 1744.5,-363.759"/>
</g>
<!-- Ketrew_program&#45;&gt;Ketrew_pervasives -->
<g id="edge48" class="edge"><title>Ketrew_program&#45;&gt;Ketrew_pervasives</title>
<path fill="none" stroke="black" d="M1770.71,-319.915C1763.09,-285.343 1740.77,-207.229 1689,-170 1562.11,-78.7481 1087.79,-50.0097 890.71,-41.8912"/>
<polygon fill="black" stroke="black" points="890.818,-38.3928 880.685,-41.4862 890.535,-45.3871 890.818,-38.3928"/>
</g>
<!-- Ketrew_database&#45;&gt;Ketrew_pervasives -->
<g id="edge20" class="edge"><title>Ketrew_database&#45;&gt;Ketrew_pervasives</title>
<path fill="none" stroke="black" d="M630.678,-319.646C641.278,-288.425 665.851,-221.267 697,-170 721.491,-129.691 757.37,-88.3952 780.707,-63.2183"/>
<polygon fill="black" stroke="black" points="783.531,-65.3231 787.812,-55.632 778.422,-60.5378 783.531,-65.3231"/>
</g>
<!-- Ketrew_edsl -->
<g id="node16" class="node"><title>Ketrew_edsl</title>
<ellipse fill="darkturquoise" stroke="darkturquoise" cx="957" cy="-1089" rx="54.599" ry="18"/>
<text text-anchor="middle" x="957" y="-1084.8" font-family="Times,serif" font-size="14.00">Ketrew_edsl</text>
</g>
<!-- Ketrew_edsl&#45;&gt;Ketrew_artifact -->
<g id="edge33" class="edge"><title>Ketrew_edsl&#45;&gt;Ketrew_artifact</title>
<path fill="none" stroke="black" d="M951.111,-1070.85C933.758,-1021.57 879.581,-876.271 809,-770 738.597,-663.996 629.255,-557.976 579.821,-512.317"/>
<polygon fill="black" stroke="black" points="582.149,-509.703 572.417,-505.517 577.414,-514.859 582.149,-509.703"/>
</g>
<!-- Ketrew_edsl&#45;&gt;Ketrew_pervasives -->
<g id="edge29" class="edge"><title>Ketrew_edsl&#45;&gt;Ketrew_pervasives</title>
<path fill="none" stroke="black" d="M1011.8,-1087.2C1132.45,-1083.44 1427.58,-1063.19 1645,-957 1802.91,-879.878 1880,-814.738 1880,-639 1880,-639 1880,-639 1880,-337 1880,-233.593 1810.12,-216.967 1718,-170 1573.5,-96.3326 1086.36,-57.2754 888.545,-44.1416"/>
<polygon fill="black" stroke="black" points="888.701,-40.6444 878.493,-43.48 888.241,-47.6293 888.701,-40.6444"/>
</g>
<!-- Ketrew_edsl&#45;&gt;Ketrew_path -->
<g id="edge24" class="edge"><title>Ketrew_edsl&#45;&gt;Ketrew_path</title>
<path fill="none" stroke="black" d="M953.279,-1070.84C929.363,-960.588 797.35,-351.972 767.848,-215.963"/>
<polygon fill="black" stroke="black" points="771.222,-215.003 765.681,-205.972 764.381,-216.487 771.222,-215.003"/>
</g>
<!-- Ketrew_edsl&#45;&gt;Ketrew_host -->
<g id="edge31" class="edge"><title>Ketrew_edsl&#45;&gt;Ketrew_host</title>
<path fill="none" stroke="black" d="M958.647,-1070.88C964.201,-1009.46 980.559,-794.594 956,-620 942.511,-524.103 904.646,-414.953 886.267,-365.655"/>
<polygon fill="black" stroke="black" points="889.456,-364.194 882.656,-356.07 882.906,-366.662 889.456,-364.194"/>
</g>
<!-- Ketrew_edsl&#45;&gt;Ketrew_error -->
<g id="edge22" class="edge"><title>Ketrew_edsl&#45;&gt;Ketrew_error</title>
<path fill="none" stroke="black" d="M963.38,-1070.94C972.257,-1046.23 987.928,-998.865 994,-957 1018.08,-791.02 1007.23,-588.457 1002.12,-516.201"/>
<polygon fill="black" stroke="black" points="1005.61,-515.844 1001.39,-506.126 998.624,-516.354 1005.61,-515.844"/>
</g>
<!-- Ketrew_edsl&#45;&gt;Ketrew_state -->
<g id="edge25" class="edge"><title>Ketrew_edsl&#45;&gt;Ketrew_state</title>
<path fill="none" stroke="black" d="M944.881,-1071.07C909.054,-1021.01 803.492,-873.519 761.011,-814.165"/>
<polygon fill="black" stroke="black" points="763.652,-811.841 754.986,-805.747 757.96,-815.915 763.652,-811.841"/>
</g>
<!-- Ketrew_edsl&#45;&gt;Ketrew_target -->
<g id="edge27" class="edge"><title>Ketrew_edsl&#45;&gt;Ketrew_target</title>
<path fill="none" stroke="black" d="M939.499,-1071.87C894.222,-1029.85 770.263,-912.787 677,-806 634.869,-757.759 590.406,-697.262 566.569,-663.926"/>
<polygon fill="black" stroke="black" points="569.34,-661.784 560.689,-655.668 563.638,-665.844 569.34,-661.784"/>
</g>
<!-- Ketrew_edsl&#45;&gt;Ketrew_user_command -->
<g id="edge26" class="edge"><title>Ketrew_edsl&#45;&gt;Ketrew_user_command</title>
<path fill="none" stroke="black" d="M920.076,-1075.64C842.103,-1049.53 660.358,-988.672 569.186,-958.144"/>
<polygon fill="black" stroke="black" points="570.184,-954.787 559.59,-954.931 567.962,-961.425 570.184,-954.787"/>
</g>
<!-- Ketrew_edsl&#45;&gt;Ketrew_long_running -->
<g id="edge30" class="edge"><title>Ketrew_edsl&#45;&gt;Ketrew_long_running</title>
<path fill="none" stroke="black" d="M978.109,-1072.16C1028.79,-1032.97 1158.01,-925.907 1224,-806 1277.1,-709.508 1280.43,-573.474 1279.16,-516.149"/>
<polygon fill="black" stroke="black" points="1282.66,-515.973 1278.87,-506.078 1275.66,-516.175 1282.66,-515.973"/>
</g>
<!-- Ketrew_edsl&#45;&gt;Ketrew_configuration -->
<g id="edge32" class="edge"><title>Ketrew_edsl&#45;&gt;Ketrew_configuration</title>
<path fill="none" stroke="black" d="M901.813,-1088.64C795.968,-1087.13 561.604,-1070.17 411,-957 308.743,-880.162 255.371,-727.471 237.243,-665.782"/>
<polygon fill="black" stroke="black" points="240.566,-664.672 234.449,-656.022 233.837,-666.599 240.566,-664.672"/>
</g>
<!-- Ketrew_edsl&#45;&gt;Ketrew_daemonize -->
<g id="edge21" class="edge"><title>Ketrew_edsl&#45;&gt;Ketrew_daemonize</title>
<path fill="none" stroke="black" d="M1008.54,-1082.6C1083.46,-1072 1221.97,-1041.56 1300,-957 1340.08,-913.563 1375.74,-734.939 1388.25,-666.165"/>
<polygon fill="black" stroke="black" points="1391.73,-666.569 1390.06,-656.108 1384.84,-665.332 1391.73,-666.569"/>
</g>
<!-- Ketrew_edsl&#45;&gt;Ketrew_program -->
<g id="edge28" class="edge"><title>Ketrew_edsl&#45;&gt;Ketrew_program</title>
<path fill="none" stroke="black" d="M1007.13,-1081.47C1189.09,-1056.4 1804,-959.074 1804,-789 1804,-789 1804,-789 1804,-637 1804,-536.755 1786.99,-418.492 1778.58,-366.2"/>
<polygon fill="black" stroke="black" points="1782,-365.378 1776.93,-356.073 1775.09,-366.506 1782,-365.378"/>
</g>
<!-- Ketrew_edsl&#45;&gt;Ketrew_lsf -->
<g id="edge23" class="edge"><title>Ketrew_edsl&#45;&gt;Ketrew_lsf</title>
<path fill="none" stroke="black" d="M968.155,-1071.23C983.987,-1046.88 1013.14,-999.952 1032,-957 1077.73,-852.862 1112.72,-721.403 1126.55,-665.791"/>
<polygon fill="black" stroke="black" points="1129.97,-666.558 1128.96,-656.011 1123.17,-664.885 1129.97,-666.558"/>
</g>
<!-- Ketrew_lsf&#45;&gt;Ketrew_pervasives -->
<g id="edge40" class="edge"><title>Ketrew_lsf&#45;&gt;Ketrew_pervasives</title>
<path fill="none" stroke="black" d="M1136.46,-619.663C1148.59,-553.778 1183.03,-315.349 1079,-170 1030.5,-102.238 937.522,-68.263 873.192,-52.154"/>
<polygon fill="black" stroke="black" points="873.667,-48.6681 863.124,-49.7196 872.021,-55.472 873.667,-48.6681"/>
</g>
<!-- Ketrew_lsf&#45;&gt;Ketrew_path -->
<g id="edge39" class="edge"><title>Ketrew_lsf&#45;&gt;Ketrew_path</title>
<path fill="none" stroke="black" d="M1131.86,-619.759C1129.12,-588.142 1120.15,-519.586 1092,-470 1020.35,-343.811 869.392,-248.284 799.264,-208.829"/>
<polygon fill="black" stroke="black" points="800.763,-205.658 790.322,-203.856 797.361,-211.775 800.763,-205.658"/>
</g>
<!-- Ketrew_lsf&#45;&gt;Ketrew_host -->
<g id="edge43" class="edge"><title>Ketrew_lsf&#45;&gt;Ketrew_host</title>
<path fill="none" stroke="black" d="M1129.68,-619.682C1122.78,-587.34 1104.31,-516.805 1067,-470 1025.79,-418.298 958.715,-378.967 916.008,-357.446"/>
<polygon fill="black" stroke="black" points="917.535,-354.297 907.02,-352.998 914.431,-360.57 917.535,-354.297"/>
</g>
<!-- Ketrew_lsf&#45;&gt;Ketrew_error -->
<g id="edge37" class="edge"><title>Ketrew_lsf&#45;&gt;Ketrew_error</title>
<path fill="none" stroke="black" d="M1118.26,-620.596C1094.79,-594.481 1048.82,-543.321 1021.62,-513.057"/>
<polygon fill="black" stroke="black" points="1024.09,-510.576 1014.81,-505.478 1018.89,-515.255 1024.09,-510.576"/>
</g>
<!-- Ketrew_lsf&#45;&gt;Ketrew_long_running -->
<g id="edge42" class="edge"><title>Ketrew_lsf&#45;&gt;Ketrew_long_running</title>
<path fill="none" stroke="black" d="M1148.79,-620.88C1174.24,-594.911 1224.45,-543.659 1254.23,-513.26"/>
<polygon fill="black" stroke="black" points="1256.84,-515.602 1261.34,-506.009 1251.84,-510.703 1256.84,-515.602"/>
</g>
<!-- Ketrew_lsf&#45;&gt;Ketrew_monitored_script -->
<g id="edge38" class="edge"><title>Ketrew_lsf&#45;&gt;Ketrew_monitored_script</title>
<path fill="none" stroke="black" d="M1167.66,-625.014C1242.18,-599.245 1418.1,-538.415 1507.23,-507.593"/>
<polygon fill="black" stroke="black" points="1508.57,-510.833 1516.88,-504.257 1506.28,-504.217 1508.57,-510.833"/>
</g>
<!-- Ketrew_lsf&#45;&gt;Ketrew_program -->
<g id="edge41" class="edge"><title>Ketrew_lsf&#45;&gt;Ketrew_program</title>
<path fill="none" stroke="black" d="M1178.22,-630.498C1292.8,-613.326 1591.1,-564.073 1671,-506 1720.24,-470.212 1750.93,-403.014 1764.97,-365.695"/>
<polygon fill="black" stroke="black" points="1768.36,-366.607 1768.49,-356.013 1761.78,-364.215 1768.36,-366.607"/>
</g>
<!-- Ketrew_unix_process&#45;&gt;Ketrew_pervasives -->
<g id="edge65" class="edge"><title>Ketrew_unix_process&#45;&gt;Ketrew_pervasives</title>
<path fill="none" stroke="black" d="M943.295,-170.31C915.498,-144.106 861.495,-93.199 829.509,-63.0468"/>
<polygon fill="black" stroke="black" points="831.558,-60.1685 821.881,-55.8559 826.757,-65.2621 831.558,-60.1685"/>
</g>
<!-- Ketrew -->
<g id="node19" class="node"><title>Ketrew</title>
<ellipse fill="darkturquoise" stroke="darkturquoise" cx="633" cy="-1239" rx="36.2645" ry="18"/>
<text text-anchor="middle" x="633" y="-1234.8" font-family="Times,serif" font-size="14.00">Ketrew</text>
</g>
<!-- Ketrew&#45;&gt;Ketrew_artifact -->
<g id="edge81" class="edge"><title>Ketrew&#45;&gt;Ketrew_artifact</title>
<path fill="none" stroke="black" d="M603.797,-1228.14C554.934,-1210.44 455.703,-1169.23 392,-1107 226.654,-945.478 192.568,-879.339 133,-656 128.877,-640.54 123.515,-632.885 133,-620 175.532,-562.222 381.506,-518.82 488.76,-499.719"/>
<polygon fill="black" stroke="black" points="489.581,-503.129 498.823,-497.947 488.367,-496.235 489.581,-503.129"/>
</g>
<!-- Ketrew&#45;&gt;Ketrew_pervasives -->
<g id="edge73" class="edge"><title>Ketrew&#45;&gt;Ketrew_pervasives</title>
<path fill="none" stroke="black" d="M596.694,-1237.78C462.189,-1234.91 0,-1205.7 0,-940 0,-940 0,-940 0,-337 0,-227.546 83.7243,-220.177 181,-170 357.274,-79.0748 592.553,-51.2532 717.492,-42.7447"/>
<polygon fill="black" stroke="black" points="718.014,-46.2181 727.763,-42.0719 717.556,-39.2331 718.014,-46.2181"/>
</g>
<!-- Ketrew&#45;&gt;Ketrew_path -->
<g id="edge74" class="edge"><title>Ketrew&#45;&gt;Ketrew_path</title>
<path fill="none" stroke="black" d="M597.31,-1235.86C474.374,-1226.41 76,-1177.44 76,-940 76,-940 76,-940 76,-787 76,-448.423 556.693,-257.655 713.313,-204.484"/>
<polygon fill="black" stroke="black" points="714.786,-207.682 723.152,-201.181 712.558,-201.046 714.786,-207.682"/>
</g>
<!-- Ketrew&#45;&gt;Ketrew_host -->
<g id="edge75" class="edge"><title>Ketrew&#45;&gt;Ketrew_host</title>
<path fill="none" stroke="black" d="M641.592,-1221.24C670.27,-1164.54 763.449,-974.055 809,-806 853.227,-642.829 869.691,-439.196 874.41,-366.419"/>
<polygon fill="black" stroke="black" points="877.914,-366.468 875.046,-356.269 870.928,-366.03 877.914,-366.468"/>
</g>
<!-- Ketrew&#45;&gt;Ketrew_command_line -->
<g id="edge80" class="edge"><title>Ketrew&#45;&gt;Ketrew_command_line</title>
<path fill="none" stroke="black" d="M620.147,-1221.88C599.618,-1196.13 559.271,-1145.53 534.962,-1115.04"/>
<polygon fill="black" stroke="black" points="537.532,-1112.65 528.561,-1107.01 532.059,-1117.01 537.532,-1112.65"/>
</g>
<!-- Ketrew&#45;&gt;Ketrew_error -->
<g id="edge76" class="edge"><title>Ketrew&#45;&gt;Ketrew_error</title>
<path fill="none" stroke="black" d="M669.043,-1237.1C746.097,-1233.12 927.438,-1212.42 1021,-1107 1071.34,-1050.28 1056,-1015.83 1056,-940 1056,-940 1056,-940 1056,-787 1056,-685.301 1024.11,-567.386 1008.46,-515.648"/>
<polygon fill="black" stroke="black" points="1011.75,-514.455 1005.47,-505.923 1005.06,-516.51 1011.75,-514.455"/>
</g>
<!-- Ketrew&#45;&gt;Ketrew_state -->
<g id="edge71" class="edge"><title>Ketrew&#45;&gt;Ketrew_state</title>
<path fill="none" stroke="black" d="M637.178,-1220.95C653.887,-1152.74 715.991,-899.248 736.431,-815.814"/>
<polygon fill="black" stroke="black" points="739.838,-816.616 738.818,-806.07 733.039,-814.95 739.838,-816.616"/>
</g>
<!-- Ketrew&#45;&gt;Ketrew_target -->
<g id="edge70" class="edge"><title>Ketrew&#45;&gt;Ketrew_target</title>
<path fill="none" stroke="black" d="M601.837,-1229.72C552,-1214.66 455.643,-1177.58 413,-1107 335.103,-978.076 381.082,-904.449 449,-770 469.721,-728.981 503.806,-687.866 526.328,-662.922"/>
<polygon fill="black" stroke="black" points="529.032,-665.152 533.202,-655.413 523.868,-660.426 529.032,-665.152"/>
</g>
<!-- Ketrew&#45;&gt;Ketrew_configuration -->
<g id="edge79" class="edge"><title>Ketrew&#45;&gt;Ketrew_configuration</title>
<path fill="none" stroke="black" d="M603.556,-1228.39C554.336,-1211.05 454.594,-1170.34 392,-1107 285.657,-999.383 270.72,-952.518 233,-806 220.67,-758.108 223.437,-699.911 226.658,-666.394"/>
<polygon fill="black" stroke="black" points="230.141,-666.733 227.701,-656.423 223.179,-666.004 230.141,-666.733"/>
</g>
<!-- Ketrew&#45;&gt;Ketrew_daemonize -->
<g id="edge78" class="edge"><title>Ketrew&#45;&gt;Ketrew_daemonize</title>
<path fill="none" stroke="black" d="M668.492,-1235.43C784.222,-1224.99 1153.05,-1175.2 1325,-957 1394.41,-868.918 1397.05,-726.071 1394.74,-666.477"/>
<polygon fill="black" stroke="black" points="1398.23,-666.176 1394.27,-656.35 1391.24,-666.502 1398.23,-666.176"/>
</g>
<!-- Ketrew&#45;&gt;Ketrew_program -->
<g id="edge72" class="edge"><title>Ketrew&#45;&gt;Ketrew_program</title>
<path fill="none" stroke="black" d="M668.098,-1234.52C802.949,-1219.9 1297.57,-1154.79 1645,-957 1733.4,-906.674 1774.73,-898.527 1817,-806 1887.44,-651.805 1814.86,-439.519 1785.3,-365.63"/>
<polygon fill="black" stroke="black" points="1788.45,-364.083 1781.44,-356.143 1781.97,-366.724 1788.45,-364.083"/>
</g>
<!-- Ketrew&#45;&gt;Ketrew_edsl -->
<g id="edge77" class="edge"><title>Ketrew&#45;&gt;Ketrew_edsl</title>
<path fill="none" stroke="black" d="M658.695,-1226.26C714.902,-1200.59 849.135,-1139.27 916.699,-1108.41"/>
<polygon fill="black" stroke="black" points="918.524,-1111.42 926.166,-1104.08 915.616,-1105.06 918.524,-1111.42"/>
</g>
</g>
</svg>
