<?xml version="1.0" encoding="UTF-8" standalone="no"?>
<!DOCTYPE svg PUBLIC "-//W3C//DTD SVG 1.1//EN"
 "http://www.w3.org/Graphics/SVG/1.1/DTD/svg11.dtd">
<!-- Generated by graphviz version 2.38.0 (20140413.2041)
 -->
<!-- Title: G Pages: 1 -->
<svg width="509pt" height="720pt"
 viewBox="0.00 0.00 720.00 509.25" xmlns="http://www.w3.org/2000/svg" xmlns:xlink="http://www.w3.org/1999/xlink">
<g id="graph0" class="graph" transform="scale(0.647484 0.647484) rotate(-90) translate(-1108 782.5)">
<title>G</title>
<polygon fill="white" stroke="none" points="-4,4 -4,-782.5 1108,-782.5 1108,4 -4,4"/>
<!-- Ketrew_artifact -->
<g id="node1" class="node"><title>Ketrew_artifact</title>
<ellipse fill="darkturquoise" stroke="darkturquoise" cx="215.996" cy="-337" rx="65.6803" ry="18"/>
<text text-anchor="middle" x="215.996" y="-332.8" font-family="Times,serif" font-size="14.00">Ketrew_artifact</text>
</g>
<!-- Ketrew_pervasives -->
<g id="node2" class="node"><title>Ketrew_pervasives</title>
<ellipse fill="darkturquoise" stroke="darkturquoise" cx="469.996" cy="-26" rx="77.7589" ry="18"/>
<text text-anchor="middle" x="469.996" y="-21.8" font-family="Times,serif" font-size="14.00">Ketrew_pervasives</text>
</g>
<!-- Ketrew_artifact&#45;&gt;Ketrew_pervasives -->
<g id="edge1" class="edge"><title>Ketrew_artifact&#45;&gt;Ketrew_pervasives</title>
<path fill="none" stroke="black" d="M205.551,-319.107C182.136,-278.851 131.119,-175.863 178.996,-112 205.132,-77.1385 319.18,-51.8163 396.495,-38.2763"/>
<polygon fill="black" stroke="black" points="397.414,-41.6696 406.676,-36.524 396.227,-34.7711 397.414,-41.6696"/>
</g>
<!-- Ketrew_path -->
<g id="node3" class="node"><title>Ketrew_path</title>
<ellipse fill="darkturquoise" stroke="darkturquoise" cx="511.996" cy="-130" rx="55.5596" ry="18"/>
<text text-anchor="middle" x="511.996" y="-125.8" font-family="Times,serif" font-size="14.00">Ketrew_path</text>
</g>
<!-- Ketrew_artifact&#45;&gt;Ketrew_path -->
<g id="edge2" class="edge"><title>Ketrew_artifact&#45;&gt;Ketrew_path</title>
<path fill="none" stroke="black" d="M220.351,-318.777C227.739,-292.936 245.125,-244.167 276.996,-216 326.522,-172.23 400.324,-150.453 451.971,-139.994"/>
<polygon fill="black" stroke="black" points="452.841,-143.39 461.992,-138.05 451.508,-136.518 452.841,-143.39"/>
</g>
<!-- Ketrew_host -->
<g id="node4" class="node"><title>Ketrew_host</title>
<ellipse fill="darkturquoise" stroke="darkturquoise" cx="340.996" cy="-234" rx="55.0922" ry="18"/>
<text text-anchor="middle" x="340.996" y="-229.8" font-family="Times,serif" font-size="14.00">Ketrew_host</text>
</g>
<!-- Ketrew_artifact&#45;&gt;Ketrew_host -->
<g id="edge3" class="edge"><title>Ketrew_artifact&#45;&gt;Ketrew_host</title>
<path fill="none" stroke="black" d="M236.08,-319.773C257.069,-302.813 290.144,-276.089 313.539,-257.186"/>
<polygon fill="black" stroke="black" points="315.796,-259.861 321.375,-250.854 311.397,-254.417 315.796,-259.861"/>
</g>
<!-- Ketrew_path&#45;&gt;Ketrew_pervasives -->
<g id="edge19" class="edge"><title>Ketrew_path&#45;&gt;Ketrew_pervasives</title>
<path fill="none" stroke="black" d="M504.872,-111.697C498.285,-95.7016 488.403,-71.7016 480.838,-53.3289"/>
<polygon fill="black" stroke="black" points="484.06,-51.9615 477.016,-44.0474 477.587,-54.6268 484.06,-51.9615"/>
</g>
<!-- Ketrew_host&#45;&gt;Ketrew_pervasives -->
<g id="edge10" class="edge"><title>Ketrew_host&#45;&gt;Ketrew_pervasives</title>
<path fill="none" stroke="black" d="M350.943,-216.037C364.801,-192.512 390.83,-148.73 413.996,-112 426.644,-91.9476 441.414,-69.5688 452.61,-52.8088"/>
<polygon fill="black" stroke="black" points="455.768,-54.3825 458.425,-44.1263 449.952,-50.487 455.768,-54.3825"/>
</g>
<!-- Ketrew_host&#45;&gt;Ketrew_path -->
<g id="edge11" class="edge"><title>Ketrew_host&#45;&gt;Ketrew_path</title>
<path fill="none" stroke="black" d="M366.228,-217.95C395.78,-200.322 444.876,-171.036 477.826,-151.383"/>
<polygon fill="black" stroke="black" points="479.866,-154.241 486.661,-146.112 476.28,-148.229 479.866,-154.241"/>
</g>
<!-- Ketrew_unix_process -->
<g id="node10" class="node"><title>Ketrew_unix_process</title>
<ellipse fill="darkturquoise" stroke="darkturquoise" cx="274.996" cy="-130" rx="87.4394" ry="18"/>
<text text-anchor="middle" x="274.996" y="-125.8" font-family="Times,serif" font-size="14.00">Ketrew_unix_process</text>
</g>
<!-- Ketrew_host&#45;&gt;Ketrew_unix_process -->
<g id="edge9" class="edge"><title>Ketrew_host&#45;&gt;Ketrew_unix_process</title>
<path fill="none" stroke="black" d="M330.098,-216.157C319.589,-199.915 303.545,-175.121 291.475,-156.468"/>
<polygon fill="black" stroke="black" points="294.282,-154.363 285.911,-147.868 288.405,-158.165 294.282,-154.363"/>
</g>
<!-- Ketrew_command_line -->
<g id="node5" class="node"><title>Ketrew_command_line</title>
<ellipse fill="darkturquoise" stroke="darkturquoise" cx="566.996" cy="-649" rx="93.2188" ry="18"/>
<text text-anchor="middle" x="566.996" y="-644.8" font-family="Times,serif" font-size="14.00">Ketrew_command_line</text>
</g>
<!-- Ketrew_command_line&#45;&gt;Ketrew_pervasives -->
<g id="edge6" class="edge"><title>Ketrew_command_line&#45;&gt;Ketrew_pervasives</title>
<path fill="none" stroke="black" d="M630.195,-635.78C764.469,-608.006 1066,-535.255 1066,-442 1066,-442 1066,-442 1066,-233 1066,-124.267 707.162,-60.2461 546.356,-37.0154"/>
<polygon fill="black" stroke="black" points="546.45,-33.4934 536.056,-35.5441 545.461,-40.4231 546.45,-33.4934"/>
</g>
<!-- Ketrew_target -->
<g id="node6" class="node"><title>Ketrew_target</title>
<ellipse fill="darkturquoise" stroke="darkturquoise" cx="258.996" cy="-441" rx="60.5585" ry="18"/>
<text text-anchor="middle" x="258.996" y="-436.8" font-family="Times,serif" font-size="14.00">Ketrew_target</text>
</g>
<!-- Ketrew_command_line&#45;&gt;Ketrew_target -->
<g id="edge4" class="edge"><title>Ketrew_command_line&#45;&gt;Ketrew_target</title>
<path fill="none" stroke="black" d="M531.993,-632.249C498.354,-616.515 446.629,-590.733 404.996,-563 359.667,-532.805 311.948,-491.101 283.861,-465.375"/>
<polygon fill="black" stroke="black" points="286.202,-462.772 276.478,-458.565 281.456,-467.918 286.202,-462.772"/>
</g>
<!-- Ketrew_state -->
<g id="node7" class="node"><title>Ketrew_state</title>
<ellipse fill="darkturquoise" stroke="darkturquoise" cx="470.996" cy="-545" rx="56.5201" ry="18"/>
<text text-anchor="middle" x="470.996" y="-540.8" font-family="Times,serif" font-size="14.00">Ketrew_state</text>
</g>
<!-- Ketrew_command_line&#45;&gt;Ketrew_state -->
<g id="edge5" class="edge"><title>Ketrew_command_line&#45;&gt;Ketrew_state</title>
<path fill="none" stroke="black" d="M551.144,-631.157C535.487,-614.521 511.384,-588.912 493.698,-570.12"/>
<polygon fill="black" stroke="black" points="495.956,-567.413 486.554,-562.53 490.859,-572.211 495.956,-567.413"/>
</g>
<!-- Ketrew_long_running -->
<g id="node8" class="node"><title>Ketrew_long_running</title>
<ellipse fill="darkturquoise" stroke="darkturquoise" cx="949.996" cy="-234" rx="88.417" ry="18"/>
<text text-anchor="middle" x="949.996" y="-229.8" font-family="Times,serif" font-size="14.00">Ketrew_long_running</text>
</g>
<!-- Ketrew_command_line&#45;&gt;Ketrew_long_running -->
<g id="edge7" class="edge"><title>Ketrew_command_line&#45;&gt;Ketrew_long_running</title>
<path fill="none" stroke="black" d="M582.724,-631.04C642.618,-566.454 856.615,-335.695 927.216,-259.564"/>
<polygon fill="black" stroke="black" points="930.115,-261.586 934.348,-251.874 924.982,-256.826 930.115,-261.586"/>
</g>
<!-- Ketrew_target&#45;&gt;Ketrew_artifact -->
<g id="edge31" class="edge"><title>Ketrew_target&#45;&gt;Ketrew_artifact</title>
<path fill="none" stroke="black" d="M251.702,-422.697C244.959,-406.702 234.841,-382.702 227.096,-364.329"/>
<polygon fill="black" stroke="black" points="230.293,-362.902 223.183,-355.047 223.843,-365.622 230.293,-362.902"/>
</g>
<!-- Ketrew_target&#45;&gt;Ketrew_pervasives -->
<g id="edge29" class="edge"><title>Ketrew_target&#45;&gt;Ketrew_pervasives</title>
<path fill="none" stroke="black" d="M224.777,-426.092C196.556,-412.564 158.431,-389.046 140.996,-355 125.917,-325.553 84.6558,-201.094 158.996,-112 189.032,-76.0037 312.921,-50.721 394.978,-37.5437"/>
<polygon fill="black" stroke="black" points="395.686,-40.9754 405.018,-35.9581 394.594,-34.0611 395.686,-40.9754"/>
</g>
<!-- Ketrew_target&#45;&gt;Ketrew_path -->
<g id="edge28" class="edge"><title>Ketrew_target&#45;&gt;Ketrew_path</title>
<path fill="none" stroke="black" d="M272.599,-423.387C314.554,-372.144 442.113,-216.351 491.843,-155.614"/>
<polygon fill="black" stroke="black" points="494.7,-157.65 498.327,-147.695 489.283,-153.215 494.7,-157.65"/>
</g>
<!-- Ketrew_target&#45;&gt;Ketrew_host -->
<g id="edge30" class="edge"><title>Ketrew_target&#45;&gt;Ketrew_host</title>
<path fill="none" stroke="black" d="M265.847,-422.874C280.172,-387.061 313.378,-304.047 330.447,-261.373"/>
<polygon fill="black" stroke="black" points="333.759,-262.517 334.223,-251.933 327.26,-259.918 333.759,-262.517"/>
</g>
<!-- Ketrew_state&#45;&gt;Ketrew_artifact -->
<g id="edge20" class="edge"><title>Ketrew_state&#45;&gt;Ketrew_artifact</title>
<path fill="none" stroke="black" d="M452.466,-527.582C425.642,-503.961 374.247,-459.244 328.996,-423 301.643,-401.091 269.656,-377.184 246.71,-360.32"/>
<polygon fill="black" stroke="black" points="248.521,-357.309 238.386,-354.221 244.384,-362.955 248.521,-357.309"/>
</g>
<!-- Ketrew_state&#45;&gt;Ketrew_pervasives -->
<g id="edge26" class="edge"><title>Ketrew_state&#45;&gt;Ketrew_pervasives</title>
<path fill="none" stroke="black" d="M469.568,-526.647C465.102,-471.403 451.436,-294.639 446.996,-148 446.512,-132.007 444.888,-127.861 446.996,-112 449.648,-92.0459 455.657,-70.1317 460.868,-53.5525"/>
<polygon fill="black" stroke="black" points="464.215,-54.5763 463.972,-43.9843 457.557,-52.4161 464.215,-54.5763"/>
</g>
<!-- Ketrew_state&#45;&gt;Ketrew_path -->
<g id="edge24" class="edge"><title>Ketrew_state&#45;&gt;Ketrew_path</title>
<path fill="none" stroke="black" d="M472.706,-526.78C479.075,-462.626 501.457,-237.161 509.276,-158.401"/>
<polygon fill="black" stroke="black" points="512.774,-158.591 510.28,-148.294 505.809,-157.899 512.774,-158.591"/>
</g>
<!-- Ketrew_state&#45;&gt;Ketrew_host -->
<g id="edge22" class="edge"><title>Ketrew_state&#45;&gt;Ketrew_host</title>
<path fill="none" stroke="black" d="M463.822,-526.947C442.292,-475.771 378.123,-323.247 352.122,-261.446"/>
<polygon fill="black" stroke="black" points="355.253,-259.861 348.149,-252.001 348.801,-262.575 355.253,-259.861"/>
</g>
<!-- Ketrew_state&#45;&gt;Ketrew_target -->
<g id="edge25" class="edge"><title>Ketrew_state&#45;&gt;Ketrew_target</title>
<path fill="none" stroke="black" d="M441.072,-529.602C403.799,-511.669 340.002,-480.975 298.68,-461.093"/>
<polygon fill="black" stroke="black" points="299.984,-457.837 289.455,-456.655 296.949,-464.144 299.984,-457.837"/>
</g>
<!-- Ketrew_state&#45;&gt;Ketrew_long_running -->
<g id="edge27" class="edge"><title>Ketrew_state&#45;&gt;Ketrew_long_running</title>
<path fill="none" stroke="black" d="M495.36,-528.607C544.424,-497.356 658.195,-423.606 748.996,-355 768.883,-339.975 771.325,-332.926 791.996,-319 828.813,-294.198 873.757,-270.912 906.284,-255.178"/>
<polygon fill="black" stroke="black" points="908.028,-258.223 915.533,-250.745 905.003,-251.91 908.028,-258.223"/>
</g>
<!-- Ketrew_database -->
<g id="node9" class="node"><title>Ketrew_database</title>
<ellipse fill="darkturquoise" stroke="darkturquoise" cx="70.9963" cy="-441" rx="70.9927" ry="18"/>
<text text-anchor="middle" x="70.9963" y="-436.8" font-family="Times,serif" font-size="14.00">Ketrew_database</text>
</g>
<!-- Ketrew_state&#45;&gt;Ketrew_database -->
<g id="edge21" class="edge"><title>Ketrew_state&#45;&gt;Ketrew_database</title>
<path fill="none" stroke="black" d="M428.189,-533.084C356.098,-514.701 210.395,-477.547 129.123,-456.822"/>
<polygon fill="black" stroke="black" points="129.614,-453.336 119.059,-454.256 127.884,-460.119 129.614,-453.336"/>
</g>
<!-- Ketrew_nohup_setsid -->
<g id="node12" class="node"><title>Ketrew_nohup_setsid</title>
<ellipse fill="darkturquoise" stroke="darkturquoise" cx="652.996" cy="-337" rx="87.4567" ry="18"/>
<text text-anchor="middle" x="652.996" y="-332.8" font-family="Times,serif" font-size="14.00">Ketrew_nohup_setsid</text>
</g>
<!-- Ketrew_state&#45;&gt;Ketrew_nohup_setsid -->
<g id="edge23" class="edge"><title>Ketrew_state&#45;&gt;Ketrew_nohup_setsid</title>
<path fill="none" stroke="black" d="M485.583,-527.49C517.518,-491.344 593.764,-405.043 631.328,-362.526"/>
<polygon fill="black" stroke="black" points="634.088,-364.688 638.086,-354.876 628.842,-360.053 634.088,-364.688"/>
</g>
<!-- Ketrew_long_running&#45;&gt;Ketrew_pervasives -->
<g id="edge41" class="edge"><title>Ketrew_long_running&#45;&gt;Ketrew_pervasives</title>
<path fill="none" stroke="black" d="M940.583,-215.897C924.995,-189.27 891.206,-138.242 847.996,-112 758.129,-57.4209 637.076,-37.803 556.427,-30.8006"/>
<polygon fill="black" stroke="black" points="556.56,-27.2998 546.307,-29.9696 555.987,-34.2763 556.56,-27.2998"/>
</g>
<!-- Ketrew_database&#45;&gt;Ketrew_pervasives -->
<g id="edge8" class="edge"><title>Ketrew_database&#45;&gt;Ketrew_pervasives</title>
<path fill="none" stroke="black" d="M68.4473,-422.909C61.4625,-369.082 47.8235,-201.347 132.996,-112 168.375,-74.8877 305.303,-49.5895 393.357,-36.7755"/>
<polygon fill="black" stroke="black" points="393.909,-40.2323 403.312,-35.3496 392.917,-33.303 393.909,-40.2323"/>
</g>
<!-- Ketrew_unix_process&#45;&gt;Ketrew_pervasives -->
<g id="edge32" class="edge"><title>Ketrew_unix_process&#45;&gt;Ketrew_pervasives</title>
<path fill="none" stroke="black" d="M305.465,-113.062C339.336,-95.3456 394.124,-66.6869 431.075,-47.3588"/>
<polygon fill="black" stroke="black" points="432.823,-50.3946 440.061,-42.6583 429.578,-44.1919 432.823,-50.3946"/>
</g>
<!-- Ketrew_monitored_script -->
<g id="node11" class="node"><title>Ketrew_monitored_script</title>
<ellipse fill="darkturquoise" stroke="darkturquoise" cx="704.996" cy="-234" rx="100.945" ry="18"/>
<text text-anchor="middle" x="704.996" y="-229.8" font-family="Times,serif" font-size="14.00">Ketrew_monitored_script</text>
</g>
<!-- Ketrew_monitored_script&#45;&gt;Ketrew_pervasives -->
<g id="edge12" class="edge"><title>Ketrew_monitored_script&#45;&gt;Ketrew_pervasives</title>
<path fill="none" stroke="black" d="M688.043,-216.077C663.94,-192.228 618.122,-147.658 576.996,-112 551.677,-90.0474 521.723,-66.4427 499.957,-49.6922"/>
<polygon fill="black" stroke="black" points="501.819,-46.7089 491.752,-43.4039 497.56,-52.2649 501.819,-46.7089"/>
</g>
<!-- Ketrew_monitored_script&#45;&gt;Ketrew_path -->
<g id="edge13" class="edge"><title>Ketrew_monitored_script&#45;&gt;Ketrew_path</title>
<path fill="none" stroke="black" d="M674.415,-216.838C640.46,-198.893 585.648,-169.925 549.224,-150.675"/>
<polygon fill="black" stroke="black" points="550.405,-147.34 539.928,-145.762 547.134,-153.529 550.405,-147.34"/>
</g>
<!-- Ketrew_nohup_setsid&#45;&gt;Ketrew_pervasives -->
<g id="edge16" class="edge"><title>Ketrew_nohup_setsid&#45;&gt;Ketrew_pervasives</title>
<path fill="none" stroke="black" d="M704.04,-322.369C762.246,-304.055 845.635,-267.72 814.996,-216 754.454,-113.802 616.926,-63.2304 534.968,-41.3088"/>
<polygon fill="black" stroke="black" points="535.817,-37.9133 525.258,-38.776 534.051,-44.6867 535.817,-37.9133"/>
</g>
<!-- Ketrew_nohup_setsid&#45;&gt;Ketrew_path -->
<g id="edge15" class="edge"><title>Ketrew_nohup_setsid&#45;&gt;Ketrew_path</title>
<path fill="none" stroke="black" d="M641.206,-318.957C629.476,-301.994 610.971,-275.212 594.996,-252 572.23,-218.919 546.029,-180.698 529.256,-156.211"/>
<polygon fill="black" stroke="black" points="532.066,-154.118 523.527,-147.845 526.29,-158.074 532.066,-154.118"/>
</g>
<!-- Ketrew_nohup_setsid&#45;&gt;Ketrew_host -->
<g id="edge18" class="edge"><title>Ketrew_nohup_setsid&#45;&gt;Ketrew_host</title>
<path fill="none" stroke="black" d="M608.294,-321.529C549.876,-302.618 448.01,-269.642 388.323,-250.321"/>
<polygon fill="black" stroke="black" points="389.354,-246.975 378.762,-247.225 387.198,-253.635 389.354,-246.975"/>
</g>
<!-- Ketrew_nohup_setsid&#45;&gt;Ketrew_long_running -->
<g id="edge17" class="edge"><title>Ketrew_nohup_setsid&#45;&gt;Ketrew_long_running</title>
<path fill="none" stroke="black" d="M696.183,-321.314C749.412,-303.212 839.836,-272.462 897.156,-252.969"/>
<polygon fill="black" stroke="black" points="898.417,-256.237 906.758,-249.704 896.163,-249.61 898.417,-256.237"/>
</g>
<!-- Ketrew_nohup_setsid&#45;&gt;Ketrew_monitored_script -->
<g id="edge14" class="edge"><title>Ketrew_nohup_setsid&#45;&gt;Ketrew_monitored_script</title>
<path fill="none" stroke="black" d="M661.817,-318.867C669.96,-303.051 682.172,-279.332 691.533,-261.15"/>
<polygon fill="black" stroke="black" points="694.666,-262.71 696.132,-252.217 688.443,-259.506 694.666,-262.71"/>
</g>
<!-- Ketrew -->
<g id="node13" class="node"><title>Ketrew</title>
<ellipse fill="darkturquoise" stroke="darkturquoise" cx="505.996" cy="-753" rx="36.2645" ry="18"/>
<text text-anchor="middle" x="505.996" y="-748.8" font-family="Times,serif" font-size="14.00">Ketrew</text>
</g>
<!-- Ketrew&#45;&gt;Ketrew_artifact -->
<g id="edge40" class="edge"><title>Ketrew&#45;&gt;Ketrew_artifact</title>
<path fill="none" stroke="black" d="M473.56,-745.012C431.013,-734.441 356.022,-710.805 306.996,-667 227.741,-596.184 216.116,-561.766 188.996,-459 180.453,-426.625 192.263,-388.915 202.845,-364.309"/>
<polygon fill="black" stroke="black" points="206.154,-365.486 207.092,-354.933 199.778,-362.598 206.154,-365.486"/>
</g>
<!-- Ketrew&#45;&gt;Ketrew_pervasives -->
<g id="edge35" class="edge"><title>Ketrew&#45;&gt;Ketrew_pervasives</title>
<path fill="none" stroke="black" d="M540.732,-747.757C668.36,-731.214 1104,-665.964 1104,-546 1104,-546 1104,-546 1104,-233 1104,-148.037 1033.25,-147.361 955.996,-112 825.541,-52.2884 657.744,-34.326 557.316,-29.043"/>
<polygon fill="black" stroke="black" points="557.372,-25.5416 547.211,-28.5424 557.026,-32.533 557.372,-25.5416"/>
</g>
<!-- Ketrew&#45;&gt;Ketrew_path -->
<g id="edge36" class="edge"><title>Ketrew&#45;&gt;Ketrew_path</title>
<path fill="none" stroke="black" d="M538.956,-745.46C577.848,-735.785 640.784,-713.53 668.996,-667 677.292,-653.318 672.061,-646.704 668.996,-631 643.638,-501.07 595.089,-481.783 556.996,-355 536.102,-285.457 522.079,-200.829 515.785,-158.252"/>
<polygon fill="black" stroke="black" points="519.216,-157.521 514.318,-148.126 512.288,-158.525 519.216,-157.521"/>
</g>
<!-- Ketrew&#45;&gt;Ketrew_host -->
<g id="edge38" class="edge"><title>Ketrew&#45;&gt;Ketrew_host</title>
<path fill="none" stroke="black" d="M484.688,-738.367C441.561,-708.916 347.996,-634.792 347.996,-546 347.996,-546 347.996,-546 347.996,-440 347.996,-376.201 344.568,-301.298 342.51,-262.079"/>
<polygon fill="black" stroke="black" points="346,-261.8 341.97,-252.002 339.01,-262.175 346,-261.8"/>
</g>
<!-- Ketrew&#45;&gt;Ketrew_command_line -->
<g id="edge39" class="edge"><title>Ketrew&#45;&gt;Ketrew_command_line</title>
<path fill="none" stroke="black" d="M515.797,-735.612C525.464,-719.448 540.383,-694.501 551.627,-675.699"/>
<polygon fill="black" stroke="black" points="554.684,-677.406 556.813,-667.028 548.677,-673.814 554.684,-677.406"/>
</g>
<!-- Ketrew&#45;&gt;Ketrew_target -->
<g id="edge33" class="edge"><title>Ketrew&#45;&gt;Ketrew_target</title>
<path fill="none" stroke="black" d="M474.078,-744.313C435.588,-733.441 371.415,-709.942 333.996,-667 283.284,-608.803 266.625,-515.181 261.34,-469.227"/>
<polygon fill="black" stroke="black" points="264.806,-468.715 260.277,-459.137 257.844,-469.448 264.806,-468.715"/>
</g>
<!-- Ketrew&#45;&gt;Ketrew_state -->
<g id="edge34" class="edge"><title>Ketrew&#45;&gt;Ketrew_state</title>
<path fill="none" stroke="black" d="M495.298,-735.576C485.211,-719.034 470.801,-692.396 464.996,-667 457.77,-635.386 461.425,-597.962 465.475,-573.193"/>
<polygon fill="black" stroke="black" points="468.967,-573.546 467.265,-563.089 462.074,-572.325 468.967,-573.546"/>
</g>
<!-- Ketrew&#45;&gt;Ketrew_nohup_setsid -->
<g id="edge37" class="edge"><title>Ketrew&#45;&gt;Ketrew_nohup_setsid</title>
<path fill="none" stroke="black" d="M540.962,-748.274C586.97,-741.285 666.179,-721.574 701.996,-667 761.499,-576.338 730.029,-527.759 701.996,-423 696.201,-401.342 683.411,-379.485 672.352,-363.358"/>
<polygon fill="black" stroke="black" points="675.082,-361.158 666.441,-355.027 669.373,-365.208 675.082,-361.158"/>
</g>
</g>
</svg>
