<?xml version="1.0" encoding="UTF-8" standalone="no"?>
<!DOCTYPE svg PUBLIC "-//W3C//DTD SVG 1.1//EN"
 "http://www.w3.org/Graphics/SVG/1.1/DTD/svg11.dtd">
<!-- Generated by graphviz version 2.38.0 (20140413.2041)
 -->
<!-- Title: G Pages: 1 -->
<svg width="439pt" height="720pt"
 viewBox="0.00 0.00 720.00 439.44" xmlns="http://www.w3.org/2000/svg" xmlns:xlink="http://www.w3.org/1999/xlink">
<g id="graph0" class="graph" transform="scale(0.649819 0.649819) rotate(-90) translate(-1104 672.25)">
<title>G</title>
<polygon fill="white" stroke="none" points="-4,4 -4,-672.25 1104,-672.25 1104,4 -4,4"/>
<!-- Ketrew_artifact -->
<g id="node1" class="node"><title>Ketrew_artifact</title>
<ellipse fill="darkturquoise" stroke="darkturquoise" cx="482" cy="-256" rx="65.6803" ry="18"/>
<text text-anchor="middle" x="482" y="-251.8" font-family="Times,serif" font-size="14.00">Ketrew_artifact</text>
</g>
<!-- Ketrew_pervasives -->
<g id="node2" class="node"><title>Ketrew_pervasives</title>
<ellipse fill="darkturquoise" stroke="darkturquoise" cx="460" cy="-20" rx="77.7589" ry="18"/>
<text text-anchor="middle" x="460" y="-15.8" font-family="Times,serif" font-size="14.00">Ketrew_pervasives</text>
</g>
<!-- Ketrew_artifact&#45;&gt;Ketrew_pervasives -->
<g id="edge1" class="edge"><title>Ketrew_artifact&#45;&gt;Ketrew_pervasives</title>
<path fill="none" stroke="black" d="M493.055,-238.236C500.701,-226.369 510.915,-209.967 519,-195 544.519,-147.761 582.204,-126.862 556,-80 546.081,-62.2612 528.402,-49.2031 510.895,-39.9482"/>
<polygon fill="black" stroke="black" points="512.314,-36.745 501.798,-35.4505 509.211,-43.02 512.314,-36.745"/>
</g>
<!-- Ketrew_path -->
<g id="node3" class="node"><title>Ketrew_path</title>
<ellipse fill="darkturquoise" stroke="darkturquoise" cx="659" cy="-98" rx="55.5596" ry="18"/>
<text text-anchor="middle" x="659" y="-93.8" font-family="Times,serif" font-size="14.00">Ketrew_path</text>
</g>
<!-- Ketrew_artifact&#45;&gt;Ketrew_path -->
<g id="edge2" class="edge"><title>Ketrew_artifact&#45;&gt;Ketrew_path</title>
<path fill="none" stroke="black" d="M501.414,-238.563C515.52,-226.571 535.032,-209.881 552,-195 580.243,-170.232 612.263,-141.403 633.856,-121.85"/>
<polygon fill="black" stroke="black" points="636.254,-124.4 641.313,-115.091 631.553,-119.213 636.254,-124.4"/>
</g>
<!-- Ketrew_host -->
<g id="node4" class="node"><title>Ketrew_host</title>
<ellipse fill="darkturquoise" stroke="darkturquoise" cx="455" cy="-177" rx="55.0922" ry="18"/>
<text text-anchor="middle" x="455" y="-172.8" font-family="Times,serif" font-size="14.00">Ketrew_host</text>
</g>
<!-- Ketrew_artifact&#45;&gt;Ketrew_host -->
<g id="edge3" class="edge"><title>Ketrew_artifact&#45;&gt;Ketrew_host</title>
<path fill="none" stroke="black" d="M476.008,-237.911C472.582,-228.142 468.211,-215.675 464.344,-204.646"/>
<polygon fill="black" stroke="black" points="467.587,-203.32 460.975,-195.041 460.982,-205.636 467.587,-203.32"/>
</g>
<!-- Ketrew_path&#45;&gt;Ketrew_pervasives -->
<g id="edge26" class="edge"><title>Ketrew_path&#45;&gt;Ketrew_pervasives</title>
<path fill="none" stroke="black" d="M624.337,-83.7618C592.274,-71.5166 544.301,-53.1954 508.453,-39.5045"/>
<polygon fill="black" stroke="black" points="509.277,-36.0729 498.686,-35.7747 506.78,-42.6122 509.277,-36.0729"/>
</g>
<!-- Ketrew_host&#45;&gt;Ketrew_pervasives -->
<g id="edge17" class="edge"><title>Ketrew_host&#45;&gt;Ketrew_pervasives</title>
<path fill="none" stroke="black" d="M419.968,-162.886C399.667,-153.258 375.843,-137.993 364,-116 356.414,-101.912 356.191,-93.965 364,-80 373.919,-62.2612 391.598,-49.2031 409.105,-39.9482"/>
<polygon fill="black" stroke="black" points="410.789,-43.02 418.202,-35.4505 407.686,-36.745 410.789,-43.02"/>
</g>
<!-- Ketrew_host&#45;&gt;Ketrew_path -->
<g id="edge18" class="edge"><title>Ketrew_host&#45;&gt;Ketrew_path</title>
<path fill="none" stroke="black" d="M489.606,-162.938C524.042,-149.94 577.027,-129.941 614.558,-115.775"/>
<polygon fill="black" stroke="black" points="616.105,-118.932 624.224,-112.126 613.633,-112.383 616.105,-118.932"/>
</g>
<!-- Ketrew_unix_process -->
<g id="node12" class="node"><title>Ketrew_unix_process</title>
<ellipse fill="darkturquoise" stroke="darkturquoise" cx="460" cy="-98" rx="87.4394" ry="18"/>
<text text-anchor="middle" x="460" y="-93.8" font-family="Times,serif" font-size="14.00">Ketrew_unix_process</text>
</g>
<!-- Ketrew_host&#45;&gt;Ketrew_unix_process -->
<g id="edge16" class="edge"><title>Ketrew_host&#45;&gt;Ketrew_unix_process</title>
<path fill="none" stroke="black" d="M456.11,-158.911C456.731,-149.341 457.521,-137.183 458.226,-126.323"/>
<polygon fill="black" stroke="black" points="461.738,-126.247 458.893,-116.041 454.753,-125.793 461.738,-126.247"/>
</g>
<!-- Ketrew_command_line -->
<g id="node5" class="node"><title>Ketrew_command_line</title>
<ellipse fill="darkturquoise" stroke="darkturquoise" cx="331" cy="-491" rx="93.2188" ry="18"/>
<text text-anchor="middle" x="331" y="-486.8" font-family="Times,serif" font-size="14.00">Ketrew_command_line</text>
</g>
<!-- Ketrew_command_line&#45;&gt;Ketrew_pervasives -->
<g id="edge6" class="edge"><title>Ketrew_command_line&#45;&gt;Ketrew_pervasives</title>
<path fill="none" stroke="black" d="M241.863,-485.573C143.825,-475.339 0,-442.078 0,-335 0,-335 0,-335 0,-176 0,-129.947 2.67706,-108.311 39,-80 89.4708,-40.6613 264.733,-27.5454 372.57,-23.1769"/>
<polygon fill="black" stroke="black" points="372.932,-26.6656 382.789,-22.7809 372.661,-19.6709 372.932,-26.6656"/>
</g>
<!-- Ketrew_target -->
<g id="node6" class="node"><title>Ketrew_target</title>
<ellipse fill="darkturquoise" stroke="darkturquoise" cx="477" cy="-334" rx="60.5585" ry="18"/>
<text text-anchor="middle" x="477" y="-329.8" font-family="Times,serif" font-size="14.00">Ketrew_target</text>
</g>
<!-- Ketrew_command_line&#45;&gt;Ketrew_target -->
<g id="edge4" class="edge"><title>Ketrew_command_line&#45;&gt;Ketrew_target</title>
<path fill="none" stroke="black" d="M362.383,-473.879C380.696,-463.4 403.387,-448.458 420,-431 439.61,-410.393 455.468,-381.863 465.432,-361.267"/>
<polygon fill="black" stroke="black" points="468.635,-362.681 469.714,-352.141 462.298,-359.707 468.635,-362.681"/>
</g>
<!-- Ketrew_state -->
<g id="node7" class="node"><title>Ketrew_state</title>
<ellipse fill="darkturquoise" stroke="darkturquoise" cx="354" cy="-413" rx="56.5201" ry="18"/>
<text text-anchor="middle" x="354" y="-408.8" font-family="Times,serif" font-size="14.00">Ketrew_state</text>
</g>
<!-- Ketrew_command_line&#45;&gt;Ketrew_state -->
<g id="edge5" class="edge"><title>Ketrew_command_line&#45;&gt;Ketrew_state</title>
<path fill="none" stroke="black" d="M336.219,-472.754C339.072,-463.329 342.668,-451.446 345.878,-440.837"/>
<polygon fill="black" stroke="black" points="349.255,-441.762 348.802,-431.177 342.555,-439.735 349.255,-441.762"/>
</g>
<!-- Ketrew_long_running -->
<g id="node8" class="node"><title>Ketrew_long_running</title>
<ellipse fill="darkturquoise" stroke="darkturquoise" cx="196" cy="-177" rx="88.417" ry="18"/>
<text text-anchor="middle" x="196" y="-172.8" font-family="Times,serif" font-size="14.00">Ketrew_long_running</text>
</g>
<!-- Ketrew_command_line&#45;&gt;Ketrew_long_running -->
<g id="edge7" class="edge"><title>Ketrew_command_line&#45;&gt;Ketrew_long_running</title>
<path fill="none" stroke="black" d="M278.283,-476.082C221.534,-457.964 134.146,-420.238 95,-352 63.8613,-297.72 125.773,-234.195 165.746,-200.949"/>
<polygon fill="black" stroke="black" points="168.103,-203.543 173.658,-194.522 163.689,-198.11 168.103,-203.543"/>
</g>
<!-- Ketrew_target&#45;&gt;Ketrew_artifact -->
<g id="edge38" class="edge"><title>Ketrew_target&#45;&gt;Ketrew_artifact</title>
<path fill="none" stroke="black" d="M478.135,-315.754C478.748,-306.426 479.52,-294.691 480.213,-284.165"/>
<polygon fill="black" stroke="black" points="483.706,-284.386 480.87,-274.177 476.721,-283.926 483.706,-284.386"/>
</g>
<!-- Ketrew_target&#45;&gt;Ketrew_pervasives -->
<g id="edge36" class="edge"><title>Ketrew_target&#45;&gt;Ketrew_pervasives</title>
<path fill="none" stroke="black" d="M449.103,-317.821C432.582,-307.494 412.501,-292.382 400,-274 358.94,-213.624 365.097,-188.313 355,-116 352.787,-100.154 346.919,-93.8095 355,-80 366.026,-61.1562 385.526,-47.8689 404.752,-38.7403"/>
<polygon fill="black" stroke="black" points="406.404,-41.8367 414.13,-34.587 403.569,-35.4363 406.404,-41.8367"/>
</g>
<!-- Ketrew_target&#45;&gt;Ketrew_path -->
<g id="edge35" class="edge"><title>Ketrew_target&#45;&gt;Ketrew_path</title>
<path fill="none" stroke="black" d="M503.291,-317.537C520.041,-306.796 541.437,-291.337 557,-274 598.657,-227.595 631.544,-161.511 647.824,-125.276"/>
<polygon fill="black" stroke="black" points="651.131,-126.45 651.969,-115.889 644.728,-123.623 651.131,-126.45"/>
</g>
<!-- Ketrew_target&#45;&gt;Ketrew_host -->
<g id="edge37" class="edge"><title>Ketrew_target&#45;&gt;Ketrew_host</title>
<path fill="none" stroke="black" d="M449.151,-317.807C433.626,-307.657 415.711,-292.736 407,-274 395.399,-249.051 413.149,-220.945 430.251,-201.624"/>
<polygon fill="black" stroke="black" points="432.943,-203.87 437.205,-194.17 427.824,-199.095 432.943,-203.87"/>
</g>
<!-- Ketrew_state&#45;&gt;Ketrew_artifact -->
<g id="edge27" class="edge"><title>Ketrew_state&#45;&gt;Ketrew_artifact</title>
<path fill="none" stroke="black" d="M360.83,-395.127C369.548,-374.904 386.043,-340.663 407,-316 418.904,-301.991 434.581,-289.041 448.522,-278.864"/>
<polygon fill="black" stroke="black" points="450.797,-281.541 456.929,-272.901 446.747,-275.832 450.797,-281.541"/>
</g>
<!-- Ketrew_state&#45;&gt;Ketrew_pervasives -->
<g id="edge33" class="edge"><title>Ketrew_state&#45;&gt;Ketrew_pervasives</title>
<path fill="none" stroke="black" d="M335.376,-395.882C321.922,-384.044 303.471,-367.407 288,-352 272.621,-336.684 270.966,-330.704 255,-316 190.457,-256.558 137.603,-273.797 99,-195 91.9608,-180.632 90.7898,-172.733 99,-159 155.193,-65.0078 286.466,-34.7721 374.246,-25.202"/>
<polygon fill="black" stroke="black" points="374.602,-28.6839 384.195,-24.1852 373.891,-21.7202 374.602,-28.6839"/>
</g>
<!-- Ketrew_state&#45;&gt;Ketrew_path -->
<g id="edge31" class="edge"><title>Ketrew_state&#45;&gt;Ketrew_path</title>
<path fill="none" stroke="black" d="M406.901,-406.302C448.768,-399.445 506.699,-384.473 547,-352 619.459,-293.615 646.39,-178.718 655.205,-126.269"/>
<polygon fill="black" stroke="black" points="658.713,-126.492 656.82,-116.068 651.799,-125.397 658.713,-126.492"/>
</g>
<!-- Ketrew_state&#45;&gt;Ketrew_host -->
<g id="edge29" class="edge"><title>Ketrew_state&#45;&gt;Ketrew_host</title>
<path fill="none" stroke="black" d="M355.793,-394.683C359.739,-362.196 371.227,-290.643 400,-238 407.417,-224.43 418.544,-211.497 428.853,-201.137"/>
<polygon fill="black" stroke="black" points="431.398,-203.544 436.15,-194.075 426.53,-198.514 431.398,-203.544"/>
</g>
<!-- Ketrew_state&#45;&gt;Ketrew_target -->
<g id="edge32" class="edge"><title>Ketrew_state&#45;&gt;Ketrew_target</title>
<path fill="none" stroke="black" d="M378.595,-396.603C397.16,-384.981 422.845,-368.902 443.319,-356.085"/>
<polygon fill="black" stroke="black" points="445.407,-358.907 452.026,-350.634 441.692,-352.974 445.407,-358.907"/>
</g>
<!-- Ketrew_state&#45;&gt;Ketrew_long_running -->
<g id="edge34" class="edge"><title>Ketrew_state&#45;&gt;Ketrew_long_running</title>
<path fill="none" stroke="black" d="M342.637,-395.171C315.26,-354.625 245.519,-251.338 213.077,-203.292"/>
<polygon fill="black" stroke="black" points="215.969,-201.32 207.472,-194.991 210.168,-205.237 215.969,-201.32"/>
</g>
<!-- Ketrew_database -->
<g id="node9" class="node"><title>Ketrew_database</title>
<ellipse fill="darkturquoise" stroke="darkturquoise" cx="175" cy="-334" rx="70.9927" ry="18"/>
<text text-anchor="middle" x="175" y="-329.8" font-family="Times,serif" font-size="14.00">Ketrew_database</text>
</g>
<!-- Ketrew_state&#45;&gt;Ketrew_database -->
<g id="edge28" class="edge"><title>Ketrew_state&#45;&gt;Ketrew_database</title>
<path fill="none" stroke="black" d="M321.584,-398.056C292.915,-385.723 250.834,-367.621 219.106,-353.973"/>
<polygon fill="black" stroke="black" points="220.187,-350.628 209.617,-349.891 217.42,-357.058 220.187,-350.628"/>
</g>
<!-- Ketrew_nohup_setsid -->
<g id="node11" class="node"><title>Ketrew_nohup_setsid</title>
<ellipse fill="darkturquoise" stroke="darkturquoise" cx="805" cy="-256" rx="87.4567" ry="18"/>
<text text-anchor="middle" x="805" y="-251.8" font-family="Times,serif" font-size="14.00">Ketrew_nohup_setsid</text>
</g>
<!-- Ketrew_state&#45;&gt;Ketrew_nohup_setsid -->
<g id="edge30" class="edge"><title>Ketrew_state&#45;&gt;Ketrew_nohup_setsid</title>
<path fill="none" stroke="black" d="M404.186,-404.39C458.084,-395.348 545.726,-378.117 618,-352 673.092,-332.092 732.787,-299.691 769.545,-278.359"/>
<polygon fill="black" stroke="black" points="771.517,-281.261 778.38,-273.189 767.981,-275.219 771.517,-281.261"/>
</g>
<!-- Ketrew_long_running&#45;&gt;Ketrew_pervasives -->
<g id="edge49" class="edge"><title>Ketrew_long_running&#45;&gt;Ketrew_pervasives</title>
<path fill="none" stroke="black" d="M209.025,-159.135C226.182,-137.958 258.27,-101.77 293,-80 324.875,-60.0197 364.426,-45.6616 397.035,-36.1152"/>
<polygon fill="black" stroke="black" points="398.254,-39.4074 406.916,-33.3062 396.34,-32.6742 398.254,-39.4074"/>
</g>
<!-- Ketrew_database&#45;&gt;Ketrew_pervasives -->
<g id="edge8" class="edge"><title>Ketrew_database&#45;&gt;Ketrew_pervasives</title>
<path fill="none" stroke="black" d="M128.559,-320.292C105.448,-311.363 79.6022,-296.83 66,-274 21.8673,-199.929 9.72703,-145.327 66,-80 104.662,-35.1172 267.989,-23.8828 371.839,-21.3622"/>
<polygon fill="black" stroke="black" points="372.088,-24.8576 382.009,-21.1384 371.934,-17.8593 372.088,-24.8576"/>
</g>
<!-- Ketrew_edsl -->
<g id="node10" class="node"><title>Ketrew_edsl</title>
<ellipse fill="darkturquoise" stroke="darkturquoise" cx="665" cy="-570" rx="54.599" ry="18"/>
<text text-anchor="middle" x="665" y="-565.8" font-family="Times,serif" font-size="14.00">Ketrew_edsl</text>
</g>
<!-- Ketrew_edsl&#45;&gt;Ketrew_artifact -->
<g id="edge15" class="edge"><title>Ketrew_edsl&#45;&gt;Ketrew_artifact</title>
<path fill="none" stroke="black" d="M663.304,-551.697C658.201,-507.749 639.47,-390.07 580,-316 566.173,-298.778 545.865,-285.385 527.316,-275.744"/>
<polygon fill="black" stroke="black" points="528.619,-272.483 518.105,-271.178 525.51,-278.755 528.619,-272.483"/>
</g>
<!-- Ketrew_edsl&#45;&gt;Ketrew_pervasives -->
<g id="edge12" class="edge"><title>Ketrew_edsl&#45;&gt;Ketrew_pervasives</title>
<path fill="none" stroke="black" d="M696.139,-555.008C799.204,-506.615 1117.47,-339.402 1023,-159 994.403,-104.391 966.509,-102.195 909,-80 789.874,-34.0243 641.182,-22.6376 548.386,-20.4567"/>
<polygon fill="black" stroke="black" points="548.259,-16.9535 538.19,-20.2489 548.116,-23.952 548.259,-16.9535"/>
</g>
<!-- Ketrew_edsl&#45;&gt;Ketrew_path -->
<g id="edge10" class="edge"><title>Ketrew_edsl&#45;&gt;Ketrew_path</title>
<path fill="none" stroke="black" d="M670.832,-551.911C674.569,-540.034 679.067,-523.751 681,-509 683.079,-493.136 681.47,-488.993 681,-473 677.179,-342.976 665.901,-187.853 661.15,-126.201"/>
<polygon fill="black" stroke="black" points="664.632,-125.831 660.367,-116.132 657.653,-126.373 664.632,-125.831"/>
</g>
<!-- Ketrew_edsl&#45;&gt;Ketrew_host -->
<g id="edge13" class="edge"><title>Ketrew_edsl&#45;&gt;Ketrew_host</title>
<path fill="none" stroke="black" d="M665.36,-551.932C665.595,-539.925 665.879,-523.481 666,-509 666.133,-493.001 668.003,-488.874 666,-473 661.52,-437.493 658.602,-428.496 646,-395 617.755,-319.928 614.538,-293.883 557,-238 539.442,-220.947 516.137,-206.772 496.235,-196.49"/>
<polygon fill="black" stroke="black" points="497.581,-193.249 487.072,-191.901 494.447,-199.508 497.581,-193.249"/>
</g>
<!-- Ketrew_edsl&#45;&gt;Ketrew_command_line -->
<g id="edge14" class="edge"><title>Ketrew_edsl&#45;&gt;Ketrew_command_line</title>
<path fill="none" stroke="black" d="M621.335,-558.934C564.571,-545.847 464.851,-522.858 398.357,-507.528"/>
<polygon fill="black" stroke="black" points="398.921,-504.067 388.39,-505.231 397.348,-510.888 398.921,-504.067"/>
</g>
<!-- Ketrew_edsl&#45;&gt;Ketrew_target -->
<g id="edge11" class="edge"><title>Ketrew_edsl&#45;&gt;Ketrew_target</title>
<path fill="none" stroke="black" d="M651.48,-552.171C618.757,-511.442 535.171,-407.404 496.8,-359.644"/>
<polygon fill="black" stroke="black" points="499.39,-357.28 490.398,-351.676 493.933,-361.664 499.39,-357.28"/>
</g>
<!-- Ketrew_edsl&#45;&gt;Ketrew_nohup_setsid -->
<g id="edge9" class="edge"><title>Ketrew_edsl&#45;&gt;Ketrew_nohup_setsid</title>
<path fill="none" stroke="black" d="M688.236,-553.419C702.763,-542.556 720.781,-526.846 732,-509 777.976,-435.865 795.896,-332.783 802.096,-284.266"/>
<polygon fill="black" stroke="black" points="805.584,-284.579 803.309,-274.231 798.634,-283.739 805.584,-284.579"/>
</g>
<!-- Ketrew_nohup_setsid&#45;&gt;Ketrew_pervasives -->
<g id="edge23" class="edge"><title>Ketrew_nohup_setsid&#45;&gt;Ketrew_pervasives</title>
<path fill="none" stroke="black" d="M879.122,-246.479C950.14,-235.12 1041.53,-210.174 1005,-159 951.3,-83.7765 678.783,-44.3264 540.594,-28.889"/>
<polygon fill="black" stroke="black" points="540.8,-25.3907 530.477,-27.775 540.034,-32.3486 540.8,-25.3907"/>
</g>
<!-- Ketrew_nohup_setsid&#45;&gt;Ketrew_path -->
<g id="edge22" class="edge"><title>Ketrew_nohup_setsid&#45;&gt;Ketrew_path</title>
<path fill="none" stroke="black" d="M789.098,-238.008C763.071,-210.199 711.301,-154.883 681.513,-123.055"/>
<polygon fill="black" stroke="black" points="683.831,-120.409 674.442,-115.5 678.72,-125.193 683.831,-120.409"/>
</g>
<!-- Ketrew_nohup_setsid&#45;&gt;Ketrew_host -->
<g id="edge25" class="edge"><title>Ketrew_nohup_setsid&#45;&gt;Ketrew_host</title>
<path fill="none" stroke="black" d="M747.597,-242.371C681.602,-227.852 574.08,-204.197 509.384,-189.964"/>
<polygon fill="black" stroke="black" points="509.9,-186.494 499.381,-187.764 508.396,-193.331 509.9,-186.494"/>
</g>
<!-- Ketrew_nohup_setsid&#45;&gt;Ketrew_long_running -->
<g id="edge24" class="edge"><title>Ketrew_nohup_setsid&#45;&gt;Ketrew_long_running</title>
<path fill="none" stroke="black" d="M732.748,-245.865C619.166,-231.504 399.44,-203.722 279.347,-188.538"/>
<polygon fill="black" stroke="black" points="279.465,-185.025 269.105,-187.243 278.587,-191.97 279.465,-185.025"/>
</g>
<!-- Ketrew_monitored_script -->
<g id="node13" class="node"><title>Ketrew_monitored_script</title>
<ellipse fill="darkturquoise" stroke="darkturquoise" cx="895" cy="-177" rx="100.945" ry="18"/>
<text text-anchor="middle" x="895" y="-172.8" font-family="Times,serif" font-size="14.00">Ketrew_monitored_script</text>
</g>
<!-- Ketrew_nohup_setsid&#45;&gt;Ketrew_monitored_script -->
<g id="edge21" class="edge"><title>Ketrew_nohup_setsid&#45;&gt;Ketrew_monitored_script</title>
<path fill="none" stroke="black" d="M824.529,-238.292C837.148,-227.496 853.752,-213.29 867.673,-201.38"/>
<polygon fill="black" stroke="black" points="870.186,-203.836 875.509,-194.675 865.636,-198.517 870.186,-203.836"/>
</g>
<!-- Ketrew_unix_process&#45;&gt;Ketrew_pervasives -->
<g id="edge39" class="edge"><title>Ketrew_unix_process&#45;&gt;Ketrew_pervasives</title>
<path fill="none" stroke="black" d="M460,-79.7544C460,-70.5232 460,-58.9348 460,-48.4946"/>
<polygon fill="black" stroke="black" points="463.5,-48.1773 460,-38.1773 456.5,-48.1774 463.5,-48.1773"/>
</g>
<!-- Ketrew_monitored_script&#45;&gt;Ketrew_pervasives -->
<g id="edge19" class="edge"><title>Ketrew_monitored_script&#45;&gt;Ketrew_pervasives</title>
<path fill="none" stroke="black" d="M870.911,-159.466C838.778,-138.133 779.481,-101.246 724,-80 662.299,-56.3722 588.685,-40.8955 534.886,-31.7467"/>
<polygon fill="black" stroke="black" points="535.178,-28.2473 524.739,-30.0562 534.028,-35.1521 535.178,-28.2473"/>
</g>
<!-- Ketrew_monitored_script&#45;&gt;Ketrew_path -->
<g id="edge20" class="edge"><title>Ketrew_monitored_script&#45;&gt;Ketrew_path</title>
<path fill="none" stroke="black" d="M848.937,-160.971C807.831,-147.559 747.893,-128.003 706.389,-114.462"/>
<polygon fill="black" stroke="black" points="707.374,-111.101 696.781,-111.327 705.203,-117.756 707.374,-111.101"/>
</g>
<!-- Ketrew -->
<g id="node14" class="node"><title>Ketrew</title>
<ellipse fill="darkturquoise" stroke="darkturquoise" cx="566" cy="-649" rx="36.2645" ry="18"/>
<text text-anchor="middle" x="566" y="-644.8" font-family="Times,serif" font-size="14.00">Ketrew</text>
</g>
<!-- Ketrew&#45;&gt;Ketrew_artifact -->
<g id="edge48" class="edge"><title>Ketrew&#45;&gt;Ketrew_artifact</title>
<path fill="none" stroke="black" d="M566,-630.687C566,-601.9 566,-542.375 566,-492 566,-492 566,-492 566,-412 566,-368.506 568.406,-353.862 547,-316 538.956,-301.771 526.243,-289.109 514.186,-279.199"/>
<polygon fill="black" stroke="black" points="516.038,-276.204 506.008,-272.792 511.721,-281.714 516.038,-276.204"/>
</g>
<!-- Ketrew&#45;&gt;Ketrew_pervasives -->
<g id="edge42" class="edge"><title>Ketrew&#45;&gt;Ketrew_pervasives</title>
<path fill="none" stroke="black" d="M601.451,-645.37C720.717,-635.564 1100,-596.189 1100,-492 1100,-492 1100,-492 1100,-176 1100,-63.4893 721.663,-32.3609 546.768,-23.9819"/>
<polygon fill="black" stroke="black" points="546.715,-20.4757 536.563,-23.5078 546.39,-27.4682 546.715,-20.4757"/>
</g>
<!-- Ketrew&#45;&gt;Ketrew_path -->
<g id="edge43" class="edge"><title>Ketrew&#45;&gt;Ketrew_path</title>
<path fill="none" stroke="black" d="M602.221,-648.291C692.443,-646.934 920,-629.848 920,-492 920,-492 920,-492 920,-333 920,-289.942 928.956,-270.749 901,-238 865.302,-196.181 831.869,-223.749 785,-195 764.892,-182.666 764.422,-173.733 746,-159 728.832,-145.27 708.677,-131.249 692.092,-120.218"/>
<polygon fill="black" stroke="black" points="693.563,-116.995 683.287,-114.417 689.712,-122.841 693.563,-116.995"/>
</g>
<!-- Ketrew&#45;&gt;Ketrew_host -->
<g id="edge45" class="edge"><title>Ketrew&#45;&gt;Ketrew_host</title>
<path fill="none" stroke="black" d="M530.76,-644.495C418.408,-632.356 76,-587.526 76,-492 76,-492 76,-492 76,-412 76,-368.506 66.978,-349.264 95,-316 170.37,-226.53 310.623,-194.903 392.036,-183.841"/>
<polygon fill="black" stroke="black" points="392.682,-187.286 402.15,-182.531 391.783,-180.344 392.682,-187.286"/>
</g>
<!-- Ketrew&#45;&gt;Ketrew_command_line -->
<g id="edge47" class="edge"><title>Ketrew&#45;&gt;Ketrew_command_line</title>
<path fill="none" stroke="black" d="M537.792,-637.564C510.992,-627.018 470.129,-609.271 438,-588 406.307,-567.018 374.454,-537.025 353.848,-516.168"/>
<polygon fill="black" stroke="black" points="356.275,-513.644 346.786,-508.931 351.265,-518.532 356.275,-513.644"/>
</g>
<!-- Ketrew&#45;&gt;Ketrew_target -->
<g id="edge40" class="edge"><title>Ketrew&#45;&gt;Ketrew_target</title>
<path fill="none" stroke="black" d="M561.088,-630.726C546.379,-578.995 502.599,-425.026 484.727,-362.176"/>
<polygon fill="black" stroke="black" points="487.998,-360.882 481.897,-352.221 481.265,-362.797 487.998,-360.882"/>
</g>
<!-- Ketrew&#45;&gt;Ketrew_state -->
<g id="edge41" class="edge"><title>Ketrew&#45;&gt;Ketrew_state</title>
<path fill="none" stroke="black" d="M539.864,-636.187C519.91,-625.979 493.032,-609.485 476,-588 442.101,-545.239 465.743,-516.651 433,-473 421.494,-457.661 404.932,-444.449 389.941,-434.44"/>
<polygon fill="black" stroke="black" points="391.653,-431.38 381.347,-428.925 387.873,-437.271 391.653,-431.38"/>
</g>
<!-- Ketrew&#45;&gt;Ketrew_edsl -->
<g id="edge46" class="edge"><title>Ketrew&#45;&gt;Ketrew_edsl</title>
<path fill="none" stroke="black" d="M584.621,-633.517C599.217,-622.165 619.775,-606.175 636.447,-593.208"/>
<polygon fill="black" stroke="black" points="639.014,-595.645 644.759,-586.743 634.716,-590.12 639.014,-595.645"/>
</g>
<!-- Ketrew&#45;&gt;Ketrew_nohup_setsid -->
<g id="edge44" class="edge"><title>Ketrew&#45;&gt;Ketrew_nohup_setsid</title>
<path fill="none" stroke="black" d="M600.725,-643.731C637.163,-637.512 693.923,-622.647 729,-588 807.794,-510.171 795.304,-461.901 809,-352 811.829,-329.3 810.423,-303.339 808.538,-284.299"/>
<polygon fill="black" stroke="black" points="812.004,-283.791 807.434,-274.232 805.045,-284.554 812.004,-283.791"/>
</g>
</g>
</svg>
