<?xml version="1.0" encoding="UTF-8" standalone="no"?>
<!DOCTYPE svg PUBLIC "-//W3C//DTD SVG 1.1//EN"
 "http://www.w3.org/Graphics/SVG/1.1/DTD/svg11.dtd">
<!-- Generated by graphviz version 2.38.0 (20140413.2041)
 -->
<!-- Title: G Pages: 1 -->
<svg width="421pt" height="720pt"
 viewBox="0.00 0.00 720.00 421.20" xmlns="http://www.w3.org/2000/svg" xmlns:xlink="http://www.w3.org/1999/xlink">
<g id="graph0" class="graph" transform="scale(0.560667 0.560667) rotate(-90) translate(-1280.19 747.25)">
<title>G</title>
<polygon fill="white" stroke="none" points="-4,4 -4,-747.25 1280.19,-747.25 1280.19,4 -4,4"/>
<!-- Ketrew_artifact -->
<g id="node1" class="node"><title>Ketrew_artifact</title>
<ellipse fill="darkturquoise" stroke="darkturquoise" cx="246.185" cy="-284" rx="65.6803" ry="18"/>
<text text-anchor="middle" x="246.185" y="-279.8" font-family="Times,serif" font-size="14.00">Ketrew_artifact</text>
</g>
<!-- Ketrew_pervasives -->
<g id="node2" class="node"><title>Ketrew_pervasives</title>
<ellipse fill="darkturquoise" stroke="darkturquoise" cx="557.185" cy="-22" rx="77.7589" ry="18"/>
<text text-anchor="middle" x="557.185" y="-17.8" font-family="Times,serif" font-size="14.00">Ketrew_pervasives</text>
</g>
<!-- Ketrew_artifact&#45;&gt;Ketrew_pervasives -->
<g id="edge1" class="edge"><title>Ketrew_artifact&#45;&gt;Ketrew_pervasives</title>
<path fill="none" stroke="black" d="M259.451,-266.191C288.125,-230.62 359.203,-146.452 432.185,-91 457.389,-71.8496 488.678,-54.8344 513.645,-42.6144"/>
<polygon fill="black" stroke="black" points="515.386,-45.6612 522.879,-38.1713 512.351,-39.3534 515.386,-45.6612"/>
</g>
<!-- Ketrew_path -->
<g id="node3" class="node"><title>Ketrew_path</title>
<ellipse fill="darkturquoise" stroke="darkturquoise" cx="641.185" cy="-109" rx="55.5596" ry="18"/>
<text text-anchor="middle" x="641.185" y="-104.8" font-family="Times,serif" font-size="14.00">Ketrew_path</text>
</g>
<!-- Ketrew_artifact&#45;&gt;Ketrew_path -->
<g id="edge2" class="edge"><title>Ketrew_artifact&#45;&gt;Ketrew_path</title>
<path fill="none" stroke="black" d="M279.522,-268.399C351.493,-236.878 521.251,-162.528 599.881,-128.09"/>
<polygon fill="black" stroke="black" points="601.699,-131.115 609.455,-123.897 598.891,-124.703 601.699,-131.115"/>
</g>
<!-- Ketrew_host -->
<g id="node4" class="node"><title>Ketrew_host</title>
<ellipse fill="darkturquoise" stroke="darkturquoise" cx="917.185" cy="-197" rx="55.0922" ry="18"/>
<text text-anchor="middle" x="917.185" y="-192.8" font-family="Times,serif" font-size="14.00">Ketrew_host</text>
</g>
<!-- Ketrew_artifact&#45;&gt;Ketrew_host -->
<g id="edge3" class="edge"><title>Ketrew_artifact&#45;&gt;Ketrew_host</title>
<path fill="none" stroke="black" d="M295.124,-271.833C305.353,-269.715 316.096,-267.649 326.185,-266 426.915,-249.54 724.388,-217.963 854.765,-204.423"/>
<polygon fill="black" stroke="black" points="855.397,-207.876 864.983,-203.363 854.675,-200.914 855.397,-207.876"/>
</g>
<!-- Ketrew_path&#45;&gt;Ketrew_pervasives -->
<g id="edge34" class="edge"><title>Ketrew_path&#45;&gt;Ketrew_pervasives</title>
<path fill="none" stroke="black" d="M624.989,-91.6111C612.519,-78.9928 595.094,-61.3607 581.032,-47.1307"/>
<polygon fill="black" stroke="black" points="583.137,-44.2812 573.618,-39.6286 578.158,-49.2016 583.137,-44.2812"/>
</g>
<!-- Ketrew_host&#45;&gt;Ketrew_pervasives -->
<g id="edge18" class="edge"><title>Ketrew_host&#45;&gt;Ketrew_pervasives</title>
<path fill="none" stroke="black" d="M919.438,-178.857C921.45,-155.631 921.163,-114.391 898.185,-91 863.052,-55.2352 729.958,-37.2544 640.812,-29.0362"/>
<polygon fill="black" stroke="black" points="640.982,-25.5375 630.709,-28.1291 640.356,-32.5095 640.982,-25.5375"/>
</g>
<!-- Ketrew_host&#45;&gt;Ketrew_path -->
<g id="edge19" class="edge"><title>Ketrew_host&#45;&gt;Ketrew_path</title>
<path fill="none" stroke="black" d="M878.518,-183.952C829.076,-168.546 743.448,-141.865 689.687,-125.113"/>
<polygon fill="black" stroke="black" points="690.624,-121.739 680.035,-122.106 688.541,-128.422 690.624,-121.739"/>
</g>
<!-- Ketrew_unix_process -->
<g id="node13" class="node"><title>Ketrew_unix_process</title>
<ellipse fill="darkturquoise" stroke="darkturquoise" cx="802.185" cy="-109" rx="87.4394" ry="18"/>
<text text-anchor="middle" x="802.185" y="-104.8" font-family="Times,serif" font-size="14.00">Ketrew_unix_process</text>
</g>
<!-- Ketrew_host&#45;&gt;Ketrew_unix_process -->
<g id="edge17" class="edge"><title>Ketrew_host&#45;&gt;Ketrew_unix_process</title>
<path fill="none" stroke="black" d="M896.092,-180.226C878.277,-166.903 852.54,-147.657 832.513,-132.68"/>
<polygon fill="black" stroke="black" points="834.424,-129.739 824.32,-126.553 830.232,-135.345 834.424,-129.739"/>
</g>
<!-- Ketrew_command_line -->
<g id="node5" class="node"><title>Ketrew_command_line</title>
<ellipse fill="darkturquoise" stroke="darkturquoise" cx="282.185" cy="-547" rx="93.2188" ry="18"/>
<text text-anchor="middle" x="282.185" y="-542.8" font-family="Times,serif" font-size="14.00">Ketrew_command_line</text>
</g>
<!-- Ketrew_command_line&#45;&gt;Ketrew_pervasives -->
<g id="edge7" class="edge"><title>Ketrew_command_line&#45;&gt;Ketrew_pervasives</title>
<path fill="none" stroke="black" d="M241.781,-530.763C163.806,-498.429 0.185031,-415.083 0.185031,-285 0.185031,-285 0.185031,-285 0.185031,-196 0.185031,-146.809 -2.77547,-122.285 35.185,-91 99.6243,-37.8926 338.05,-25.9548 469.236,-23.4716"/>
<polygon fill="black" stroke="black" points="469.328,-26.9706 479.265,-23.2962 469.206,-19.9716 469.328,-26.9706"/>
</g>
<!-- Ketrew_error -->
<g id="node6" class="node"><title>Ketrew_error</title>
<ellipse fill="darkturquoise" stroke="darkturquoise" cx="1000.19" cy="-284" rx="57.9719" ry="18"/>
<text text-anchor="middle" x="1000.19" y="-279.8" font-family="Times,serif" font-size="14.00">Ketrew_error</text>
</g>
<!-- Ketrew_command_line&#45;&gt;Ketrew_error -->
<g id="edge4" class="edge"><title>Ketrew_command_line&#45;&gt;Ketrew_error</title>
<path fill="none" stroke="black" d="M363.702,-538.177C527.139,-520.856 886.652,-474.005 973.185,-390 993.914,-369.876 999.492,-336.137 1000.64,-312.344"/>
<polygon fill="black" stroke="black" points="1004.14,-312.28 1000.89,-302.197 997.14,-312.107 1004.14,-312.28"/>
</g>
<!-- Ketrew_target -->
<g id="node7" class="node"><title>Ketrew_target</title>
<ellipse fill="darkturquoise" stroke="darkturquoise" cx="127.185" cy="-372" rx="60.5585" ry="18"/>
<text text-anchor="middle" x="127.185" y="-367.8" font-family="Times,serif" font-size="14.00">Ketrew_target</text>
</g>
<!-- Ketrew_command_line&#45;&gt;Ketrew_target -->
<g id="edge5" class="edge"><title>Ketrew_command_line&#45;&gt;Ketrew_target</title>
<path fill="none" stroke="black" d="M267.041,-529.097C239.35,-498.191 180.482,-432.487 148.665,-396.975"/>
<polygon fill="black" stroke="black" points="151.216,-394.576 141.936,-389.464 146.002,-399.247 151.216,-394.576"/>
</g>
<!-- Ketrew_state -->
<g id="node8" class="node"><title>Ketrew_state</title>
<ellipse fill="darkturquoise" stroke="darkturquoise" cx="456.185" cy="-459" rx="56.5201" ry="18"/>
<text text-anchor="middle" x="456.185" y="-454.8" font-family="Times,serif" font-size="14.00">Ketrew_state</text>
</g>
<!-- Ketrew_command_line&#45;&gt;Ketrew_state -->
<g id="edge6" class="edge"><title>Ketrew_command_line&#45;&gt;Ketrew_state</title>
<path fill="none" stroke="black" d="M314.505,-530.026C343.719,-515.587 386.766,-494.311 417.737,-479.003"/>
<polygon fill="black" stroke="black" points="419.519,-482.027 426.933,-474.458 416.417,-475.751 419.519,-482.027"/>
</g>
<!-- Ketrew_long_running -->
<g id="node9" class="node"><title>Ketrew_long_running</title>
<ellipse fill="darkturquoise" stroke="darkturquoise" cx="456.185" cy="-284" rx="88.417" ry="18"/>
<text text-anchor="middle" x="456.185" y="-279.8" font-family="Times,serif" font-size="14.00">Ketrew_long_running</text>
</g>
<!-- Ketrew_command_line&#45;&gt;Ketrew_long_running -->
<g id="edge8" class="edge"><title>Ketrew_command_line&#45;&gt;Ketrew_long_running</title>
<path fill="none" stroke="black" d="M293.602,-528.875C323.405,-484.17 403.69,-363.742 439.058,-310.691"/>
<polygon fill="black" stroke="black" points="442.092,-312.45 444.726,-302.188 436.267,-308.567 442.092,-312.45"/>
</g>
<!-- Ketrew_error&#45;&gt;Ketrew_pervasives -->
<g id="edge59" class="edge"><title>Ketrew_error&#45;&gt;Ketrew_pervasives</title>
<path fill="none" stroke="black" d="M999.296,-265.727C996.225,-226.448 982.589,-130.764 922.185,-91 876.518,-60.9377 731.097,-40.8576 638.18,-30.7309"/>
<polygon fill="black" stroke="black" points="638.277,-27.2212 627.96,-29.634 637.53,-34.1813 638.277,-27.2212"/>
</g>
<!-- Ketrew_error&#45;&gt;Ketrew_host -->
<g id="edge60" class="edge"><title>Ketrew_error&#45;&gt;Ketrew_host</title>
<path fill="none" stroke="black" d="M984.182,-266.611C971.781,-253.911 954.421,-236.133 940.479,-221.856"/>
<polygon fill="black" stroke="black" points="942.63,-219.048 933.139,-214.339 937.621,-223.939 942.63,-219.048"/>
</g>
<!-- Ketrew_target&#45;&gt;Ketrew_artifact -->
<g id="edge47" class="edge"><title>Ketrew_target&#45;&gt;Ketrew_artifact</title>
<path fill="none" stroke="black" d="M149.289,-355.026C167.957,-341.535 194.884,-322.075 215.617,-307.092"/>
<polygon fill="black" stroke="black" points="217.741,-309.875 223.795,-301.181 213.64,-304.201 217.741,-309.875"/>
</g>
<!-- Ketrew_target&#45;&gt;Ketrew_pervasives -->
<g id="edge45" class="edge"><title>Ketrew_target&#45;&gt;Ketrew_pervasives</title>
<path fill="none" stroke="black" d="M105.124,-355.06C89.8613,-342.576 70.805,-323.722 62.185,-302 27.5945,-214.835 0.551395,-161.679 62.185,-91 88.7514,-60.5346 339.047,-38.384 473.193,-28.5909"/>
<polygon fill="black" stroke="black" points="473.713,-32.0625 483.435,-27.8507 473.209,-25.0807 473.713,-32.0625"/>
</g>
<!-- Ketrew_target&#45;&gt;Ketrew_path -->
<g id="edge44" class="edge"><title>Ketrew_target&#45;&gt;Ketrew_path</title>
<path fill="none" stroke="black" d="M130.038,-353.705C134.704,-330.685 146.09,-290.09 171.185,-266 232.006,-207.614 475.498,-147.127 586.065,-122.027"/>
<polygon fill="black" stroke="black" points="587.038,-125.396 596.022,-119.781 585.497,-118.567 587.038,-125.396"/>
</g>
<!-- Ketrew_target&#45;&gt;Ketrew_host -->
<g id="edge46" class="edge"><title>Ketrew_target&#45;&gt;Ketrew_host</title>
<path fill="none" stroke="black" d="M173.485,-360.363C214.37,-349.652 274.559,-330.59 321.185,-302 341.018,-289.839 338.135,-275.905 359.185,-266 381.422,-255.536 714.222,-219.43 855.02,-204.52"/>
<polygon fill="black" stroke="black" points="855.646,-207.973 865.222,-203.441 854.91,-201.012 855.646,-207.973"/>
</g>
<!-- Ketrew_state&#45;&gt;Ketrew_artifact -->
<g id="edge35" class="edge"><title>Ketrew_state&#45;&gt;Ketrew_artifact</title>
<path fill="none" stroke="black" d="M436.805,-442.035C399.317,-411.152 316.774,-343.152 273.648,-307.624"/>
<polygon fill="black" stroke="black" points="275.767,-304.835 265.823,-301.178 271.316,-310.238 275.767,-304.835"/>
</g>
<!-- Ketrew_state&#45;&gt;Ketrew_pervasives -->
<g id="edge41" class="edge"><title>Ketrew_state&#45;&gt;Ketrew_pervasives</title>
<path fill="none" stroke="black" d="M404.471,-451.304C356.102,-443.09 283.516,-425.605 230.185,-390 219.678,-382.985 165.893,-312.009 158.185,-302 129.057,-264.176 109.902,-260.415 95.185,-215 90.2527,-199.779 87.8692,-193.229 95.185,-179 125.919,-119.221 156.525,-117.762 218.185,-91 301.239,-54.9525 404.105,-37.7768 474.606,-29.7485"/>
<polygon fill="black" stroke="black" points="475.21,-33.2032 484.767,-28.6292 474.444,-26.2453 475.21,-33.2032"/>
</g>
<!-- Ketrew_state&#45;&gt;Ketrew_path -->
<g id="edge39" class="edge"><title>Ketrew_state&#45;&gt;Ketrew_path</title>
<path fill="none" stroke="black" d="M510.727,-453.832C557.944,-447.424 625.09,-431.177 667.185,-390 708.883,-349.211 686.112,-319.132 710.185,-266 720.946,-242.249 732.519,-240.208 739.185,-215 743.275,-199.532 746.555,-193.202 739.185,-179 727.413,-156.315 704.379,-139.515 683.598,-128.174"/>
<polygon fill="black" stroke="black" points="685.054,-124.987 674.565,-123.497 681.836,-131.203 685.054,-124.987"/>
</g>
<!-- Ketrew_state&#45;&gt;Ketrew_host -->
<g id="edge43" class="edge"><title>Ketrew_state&#45;&gt;Ketrew_host</title>
<path fill="none" stroke="black" d="M506.832,-450.748C558.014,-441.886 638.18,-423.719 700.185,-390 783.044,-344.941 860.936,-262.89 896.687,-222.205"/>
<polygon fill="black" stroke="black" points="899.342,-224.486 903.264,-214.643 894.061,-219.892 899.342,-224.486"/>
</g>
<!-- Ketrew_state&#45;&gt;Ketrew_target -->
<g id="edge40" class="edge"><title>Ketrew_state&#45;&gt;Ketrew_target</title>
<path fill="none" stroke="black" d="M413.511,-446.975C354.098,-431.625 246.448,-403.813 181.415,-387.011"/>
<polygon fill="black" stroke="black" points="181.916,-383.525 171.358,-384.412 180.165,-390.303 181.916,-383.525"/>
</g>
<!-- Ketrew_state&#45;&gt;Ketrew_long_running -->
<g id="edge42" class="edge"><title>Ketrew_state&#45;&gt;Ketrew_long_running</title>
<path fill="none" stroke="black" d="M456.185,-440.78C456.185,-410.728 456.185,-348.48 456.185,-312.432"/>
<polygon fill="black" stroke="black" points="459.685,-312.151 456.185,-302.151 452.685,-312.151 459.685,-312.151"/>
</g>
<!-- Ketrew_database -->
<g id="node10" class="node"><title>Ketrew_database</title>
<ellipse fill="darkturquoise" stroke="darkturquoise" cx="175.185" cy="-197" rx="70.9927" ry="18"/>
<text text-anchor="middle" x="175.185" y="-192.8" font-family="Times,serif" font-size="14.00">Ketrew_database</text>
</g>
<!-- Ketrew_state&#45;&gt;Ketrew_database -->
<g id="edge36" class="edge"><title>Ketrew_state&#45;&gt;Ketrew_database</title>
<path fill="none" stroke="black" d="M421.97,-444.487C352.542,-416.29 199.3,-349.84 171.185,-302 157.512,-278.735 161.154,-247.219 166.561,-224.998"/>
<polygon fill="black" stroke="black" points="169.977,-225.776 169.202,-215.209 163.218,-223.953 169.977,-225.776"/>
</g>
<!-- Ketrew_nohup_setsid -->
<g id="node12" class="node"><title>Ketrew_nohup_setsid</title>
<ellipse fill="darkturquoise" stroke="darkturquoise" cx="877.185" cy="-372" rx="87.4567" ry="18"/>
<text text-anchor="middle" x="877.185" y="-367.8" font-family="Times,serif" font-size="14.00">Ketrew_nohup_setsid</text>
</g>
<!-- Ketrew_state&#45;&gt;Ketrew_nohup_setsid -->
<g id="edge38" class="edge"><title>Ketrew_state&#45;&gt;Ketrew_nohup_setsid</title>
<path fill="none" stroke="black" d="M502.848,-448.579C576.675,-433.673 720.867,-404.561 807.148,-387.141"/>
<polygon fill="black" stroke="black" points="808.006,-390.538 817.116,-385.128 806.621,-383.676 808.006,-390.538"/>
</g>
<!-- Ketrew_lsf -->
<g id="node14" class="node"><title>Ketrew_lsf</title>
<ellipse fill="darkturquoise" stroke="darkturquoise" cx="609.185" cy="-372" rx="49.2946" ry="18"/>
<text text-anchor="middle" x="609.185" y="-367.8" font-family="Times,serif" font-size="14.00">Ketrew_lsf</text>
</g>
<!-- Ketrew_state&#45;&gt;Ketrew_lsf -->
<g id="edge37" class="edge"><title>Ketrew_state&#45;&gt;Ketrew_lsf</title>
<path fill="none" stroke="black" d="M483.186,-442.999C508.544,-428.912 546.617,-407.76 574.273,-392.396"/>
<polygon fill="black" stroke="black" points="576.177,-395.342 583.219,-387.425 572.778,-389.222 576.177,-395.342"/>
</g>
<!-- Ketrew_long_running&#45;&gt;Ketrew_pervasives -->
<g id="edge61" class="edge"><title>Ketrew_long_running&#45;&gt;Ketrew_pervasives</title>
<path fill="none" stroke="black" d="M449.935,-265.996C438.115,-230.769 416.381,-148.326 448.185,-91 460.683,-68.4733 484.091,-52.4316 506.02,-41.6086"/>
<polygon fill="black" stroke="black" points="507.708,-44.6838 515.292,-37.2861 504.75,-38.3394 507.708,-44.6838"/>
</g>
<!-- Ketrew_database&#45;&gt;Ketrew_pervasives -->
<g id="edge9" class="edge"><title>Ketrew_database&#45;&gt;Ketrew_pervasives</title>
<path fill="none" stroke="black" d="M184.184,-178.85C197.506,-155.226 224.763,-113.093 260.185,-91 324.171,-51.0911 408.998,-34.5433 471.61,-27.7143"/>
<polygon fill="black" stroke="black" points="472.263,-31.1658 481.853,-26.6618 471.547,-24.2024 472.263,-31.1658"/>
</g>
<!-- Ketrew_edsl -->
<g id="node11" class="node"><title>Ketrew_edsl</title>
<ellipse fill="darkturquoise" stroke="darkturquoise" cx="814.185" cy="-634" rx="54.599" ry="18"/>
<text text-anchor="middle" x="814.185" y="-629.8" font-family="Times,serif" font-size="14.00">Ketrew_edsl</text>
</g>
<!-- Ketrew_edsl&#45;&gt;Ketrew_artifact -->
<g id="edge16" class="edge"><title>Ketrew_edsl&#45;&gt;Ketrew_artifact</title>
<path fill="none" stroke="black" d="M791.801,-617.538C743.322,-584.217 624.721,-503.591 522.185,-441 438.423,-389.869 337.458,-334.29 283.883,-305.261"/>
<polygon fill="black" stroke="black" points="285.22,-302.005 274.759,-300.325 281.889,-308.162 285.22,-302.005"/>
</g>
<!-- Ketrew_edsl&#45;&gt;Ketrew_pervasives -->
<g id="edge13" class="edge"><title>Ketrew_edsl&#45;&gt;Ketrew_pervasives</title>
<path fill="none" stroke="black" d="M869.079,-632.621C975.647,-628.687 1200.19,-603.385 1200.19,-460 1200.19,-460 1200.19,-460 1200.19,-196 1200.19,-81.7351 816.754,-40.7817 642.074,-28.0533"/>
<polygon fill="black" stroke="black" points="642.112,-24.5472 631.888,-27.3259 641.614,-31.5294 642.112,-24.5472"/>
</g>
<!-- Ketrew_edsl&#45;&gt;Ketrew_path -->
<g id="edge11" class="edge"><title>Ketrew_edsl&#45;&gt;Ketrew_path</title>
<path fill="none" stroke="black" d="M811.764,-615.926C806.166,-576.279 791.978,-474.892 781.185,-390 769.275,-296.32 807.474,-258.291 756.185,-179 740.388,-154.579 712.626,-137.561 688.336,-126.537"/>
<polygon fill="black" stroke="black" points="689.452,-123.207 678.883,-122.461 686.68,-129.634 689.452,-123.207"/>
</g>
<!-- Ketrew_edsl&#45;&gt;Ketrew_host -->
<g id="edge14" class="edge"><title>Ketrew_edsl&#45;&gt;Ketrew_host</title>
<path fill="none" stroke="black" d="M833.169,-616.85C883.395,-572.707 1019.19,-443.821 1067.19,-302 1072.31,-286.844 1075.85,-279.448 1067.19,-266 1047.04,-234.747 1008.65,-217.699 975.756,-208.488"/>
<polygon fill="black" stroke="black" points="976.309,-205.016 965.749,-205.875 974.54,-211.788 976.309,-205.016"/>
</g>
<!-- Ketrew_edsl&#45;&gt;Ketrew_command_line -->
<g id="edge15" class="edge"><title>Ketrew_edsl&#45;&gt;Ketrew_command_line</title>
<path fill="none" stroke="black" d="M766.035,-625.307C674.171,-610.629 473.096,-578.503 361.234,-560.63"/>
<polygon fill="black" stroke="black" points="361.782,-557.173 351.355,-559.052 360.678,-564.086 361.782,-557.173"/>
</g>
<!-- Ketrew_edsl&#45;&gt;Ketrew_target -->
<g id="edge12" class="edge"><title>Ketrew_edsl&#45;&gt;Ketrew_target</title>
<path fill="none" stroke="black" d="M766.563,-624.965C708.883,-614.496 609.249,-594.037 527.185,-565 387.432,-515.551 231.746,-431.944 163.061,-393.48"/>
<polygon fill="black" stroke="black" points="164.389,-390.212 153.957,-388.361 160.958,-396.313 164.389,-390.212"/>
</g>
<!-- Ketrew_edsl&#45;&gt;Ketrew_nohup_setsid -->
<g id="edge10" class="edge"><title>Ketrew_edsl&#45;&gt;Ketrew_nohup_setsid</title>
<path fill="none" stroke="black" d="M818.319,-615.941C829.02,-571.775 857.699,-453.418 870.663,-399.917"/>
<polygon fill="black" stroke="black" points="874.083,-400.665 873.036,-390.122 867.28,-399.017 874.083,-400.665"/>
</g>
<!-- Ketrew_nohup_setsid&#45;&gt;Ketrew_pervasives -->
<g id="edge31" class="edge"><title>Ketrew_nohup_setsid&#45;&gt;Ketrew_pervasives</title>
<path fill="none" stroke="black" d="M954.78,-363.706C995.386,-355.493 1041.81,-338.212 1067.19,-302 1123.08,-222.241 1116.7,-198.539 953.185,-91 902.895,-57.9268 740.453,-38.5426 639.919,-29.4209"/>
<polygon fill="black" stroke="black" points="640.059,-25.9196 629.787,-28.5173 639.437,-32.8919 640.059,-25.9196"/>
</g>
<!-- Ketrew_nohup_setsid&#45;&gt;Ketrew_path -->
<g id="edge30" class="edge"><title>Ketrew_nohup_setsid&#45;&gt;Ketrew_path</title>
<path fill="none" stroke="black" d="M875.866,-353.984C872.143,-317.267 858.437,-229.822 810.185,-179 793.094,-160.998 733.638,-139.191 690.064,-124.976"/>
<polygon fill="black" stroke="black" points="691.067,-121.622 680.476,-121.886 688.92,-128.285 691.067,-121.622"/>
</g>
<!-- Ketrew_nohup_setsid&#45;&gt;Ketrew_host -->
<g id="edge33" class="edge"><title>Ketrew_nohup_setsid&#45;&gt;Ketrew_host</title>
<path fill="none" stroke="black" d="M881.167,-353.78C888.145,-323.598 902.632,-260.943 910.95,-224.967"/>
<polygon fill="black" stroke="black" points="914.377,-225.682 913.22,-215.151 907.557,-224.105 914.377,-225.682"/>
</g>
<!-- Ketrew_nohup_setsid&#45;&gt;Ketrew_error -->
<g id="edge28" class="edge"><title>Ketrew_nohup_setsid&#45;&gt;Ketrew_error</title>
<path fill="none" stroke="black" d="M900.61,-354.622C920.091,-341.001 947.976,-321.504 969.284,-306.606"/>
<polygon fill="black" stroke="black" points="971.488,-309.336 977.677,-300.737 967.476,-303.599 971.488,-309.336"/>
</g>
<!-- Ketrew_nohup_setsid&#45;&gt;Ketrew_long_running -->
<g id="edge32" class="edge"><title>Ketrew_nohup_setsid&#45;&gt;Ketrew_long_running</title>
<path fill="none" stroke="black" d="M817.313,-358.77C740.573,-343.094 607.746,-315.96 526.345,-299.332"/>
<polygon fill="black" stroke="black" points="526.689,-295.83 516.191,-297.258 525.288,-302.688 526.689,-295.83"/>
</g>
<!-- Ketrew_monitored_script -->
<g id="node15" class="node"><title>Ketrew_monitored_script</title>
<ellipse fill="darkturquoise" stroke="darkturquoise" cx="629.185" cy="-197" rx="100.945" ry="18"/>
<text text-anchor="middle" x="629.185" y="-192.8" font-family="Times,serif" font-size="14.00">Ketrew_monitored_script</text>
</g>
<!-- Ketrew_nohup_setsid&#45;&gt;Ketrew_monitored_script -->
<g id="edge29" class="edge"><title>Ketrew_nohup_setsid&#45;&gt;Ketrew_monitored_script</title>
<path fill="none" stroke="black" d="M853.406,-354.412C808.595,-323.153 711.63,-255.512 661.165,-220.308"/>
<polygon fill="black" stroke="black" points="663.096,-217.389 652.892,-214.538 659.091,-223.13 663.096,-217.389"/>
</g>
<!-- Ketrew_unix_process&#45;&gt;Ketrew_pervasives -->
<g id="edge48" class="edge"><title>Ketrew_unix_process&#45;&gt;Ketrew_pervasives</title>
<path fill="none" stroke="black" d="M759.509,-93.1941C717.36,-78.5708 652.878,-56.1996 608.082,-40.658"/>
<polygon fill="black" stroke="black" points="609.15,-37.3241 598.555,-37.353 606.856,-43.9374 609.15,-37.3241"/>
</g>
<!-- Ketrew_lsf&#45;&gt;Ketrew_pervasives -->
<g id="edge23" class="edge"><title>Ketrew_lsf&#45;&gt;Ketrew_pervasives</title>
<path fill="none" stroke="black" d="M601.489,-354.008C591.54,-332.708 573.109,-295.424 553.185,-266 536.561,-241.451 520.358,-242.848 510.185,-215 489.071,-157.203 520.591,-86.1791 541.372,-48.8104"/>
<polygon fill="black" stroke="black" points="544.449,-50.48 546.385,-40.0636 538.376,-46.999 544.449,-50.48"/>
</g>
<!-- Ketrew_lsf&#45;&gt;Ketrew_path -->
<g id="edge22" class="edge"><title>Ketrew_lsf&#45;&gt;Ketrew_path</title>
<path fill="none" stroke="black" d="M608.976,-353.628C607.949,-331.6 603.55,-293.217 586.185,-266 566.056,-234.451 535.802,-248.532 519.185,-215 512.081,-200.664 511.124,-192.821 519.185,-179 534.581,-152.605 564.229,-135.502 590.442,-124.926"/>
<polygon fill="black" stroke="black" points="591.812,-128.15 599.911,-121.32 589.32,-121.608 591.812,-128.15"/>
</g>
<!-- Ketrew_lsf&#45;&gt;Ketrew_host -->
<g id="edge25" class="edge"><title>Ketrew_lsf&#45;&gt;Ketrew_host</title>
<path fill="none" stroke="black" d="M633.269,-356.124C667.093,-335.367 730.747,-296.8 786.185,-266 817.107,-248.821 852.773,-230.396 879.075,-217.064"/>
<polygon fill="black" stroke="black" points="880.969,-220.028 888.315,-212.394 877.811,-213.781 880.969,-220.028"/>
</g>
<!-- Ketrew_lsf&#45;&gt;Ketrew_error -->
<g id="edge20" class="edge"><title>Ketrew_lsf&#45;&gt;Ketrew_error</title>
<path fill="none" stroke="black" d="M650.29,-361.959C720.894,-346.43 865.262,-314.676 944.71,-297.202"/>
<polygon fill="black" stroke="black" points="945.522,-300.607 954.536,-295.04 944.018,-293.77 945.522,-300.607"/>
</g>
<!-- Ketrew_lsf&#45;&gt;Ketrew_long_running -->
<g id="edge24" class="edge"><title>Ketrew_lsf&#45;&gt;Ketrew_long_running</title>
<path fill="none" stroke="black" d="M583.576,-356.606C559.042,-342.815 521.728,-321.841 493.816,-306.152"/>
<polygon fill="black" stroke="black" points="495.175,-302.901 484.742,-301.052 491.745,-309.003 495.175,-302.901"/>
</g>
<!-- Ketrew_lsf&#45;&gt;Ketrew_monitored_script -->
<g id="edge21" class="edge"><title>Ketrew_lsf&#45;&gt;Ketrew_monitored_script</title>
<path fill="none" stroke="black" d="M613.747,-353.842C617.234,-339.965 621.83,-319.866 624.185,-302 627.605,-276.056 628.756,-246.197 629.11,-225.147"/>
<polygon fill="black" stroke="black" points="632.612,-225.051 629.231,-215.01 625.612,-224.968 632.612,-225.051"/>
</g>
<!-- Ketrew_monitored_script&#45;&gt;Ketrew_pervasives -->
<g id="edge26" class="edge"><title>Ketrew_monitored_script&#45;&gt;Ketrew_pervasives</title>
<path fill="none" stroke="black" d="M612.445,-179.076C600.461,-165.958 584.95,-146.742 576.185,-127 565.29,-102.46 560.642,-72.0069 558.66,-50.4112"/>
<polygon fill="black" stroke="black" points="562.137,-49.9907 557.866,-40.2952 555.159,-50.5384 562.137,-49.9907"/>
</g>
<!-- Ketrew_monitored_script&#45;&gt;Ketrew_path -->
<g id="edge27" class="edge"><title>Ketrew_monitored_script&#45;&gt;Ketrew_path</title>
<path fill="none" stroke="black" d="M631.613,-178.597C633.267,-166.746 635.49,-150.817 637.377,-137.292"/>
<polygon fill="black" stroke="black" points="640.886,-137.472 638.801,-127.084 633.953,-136.504 640.886,-137.472"/>
</g>
<!-- Ketrew -->
<g id="node16" class="node"><title>Ketrew</title>
<ellipse fill="darkturquoise" stroke="darkturquoise" cx="903.185" cy="-721" rx="36.2645" ry="18"/>
<text text-anchor="middle" x="903.185" y="-716.8" font-family="Times,serif" font-size="14.00">Ketrew</text>
</g>
<!-- Ketrew&#45;&gt;Ketrew_artifact -->
<g id="edge58" class="edge"><title>Ketrew&#45;&gt;Ketrew_artifact</title>
<path fill="none" stroke="black" d="M866.844,-720.638C702.67,-722.569 38.185,-719.774 38.185,-548 38.185,-548 38.185,-548 38.185,-458 38.185,-411.013 26.8889,-389.916 57.185,-354 86.7307,-318.974 135.626,-301.726 176.281,-293.234"/>
<polygon fill="black" stroke="black" points="177.009,-296.658 186.153,-291.307 175.668,-289.788 177.009,-296.658"/>
</g>
<!-- Ketrew&#45;&gt;Ketrew_pervasives -->
<g id="edge51" class="edge"><title>Ketrew&#45;&gt;Ketrew_pervasives</title>
<path fill="none" stroke="black" d="M939.289,-719.722C1032.9,-716.914 1276.19,-695.434 1276.19,-548 1276.19,-548 1276.19,-548 1276.19,-196 1276.19,-67.2665 834.983,-34.0606 643.808,-25.7148"/>
<polygon fill="black" stroke="black" points="643.929,-22.2169 633.79,-25.2903 643.633,-29.2106 643.929,-22.2169"/>
</g>
<!-- Ketrew&#45;&gt;Ketrew_path -->
<g id="edge52" class="edge"><title>Ketrew&#45;&gt;Ketrew_path</title>
<path fill="none" stroke="black" d="M939.036,-718.101C1025.46,-711.403 1238.19,-681.37 1238.19,-548 1238.19,-548 1238.19,-548 1238.19,-283 1238.19,-36.5997 946.574,-181.096 706.185,-127 701.59,-125.966 696.828,-124.835 692.066,-123.664"/>
<polygon fill="black" stroke="black" points="692.895,-120.264 682.343,-121.221 691.189,-127.053 692.895,-120.264"/>
</g>
<!-- Ketrew&#45;&gt;Ketrew_host -->
<g id="edge54" class="edge"><title>Ketrew&#45;&gt;Ketrew_host</title>
<path fill="none" stroke="black" d="M936.779,-714.027C1006.86,-699.431 1162.19,-655.01 1162.19,-548 1162.19,-548 1162.19,-548 1162.19,-371 1162.19,-278.252 1043.57,-230.817 971.41,-210.54"/>
<polygon fill="black" stroke="black" points="972.121,-207.106 961.553,-207.857 970.283,-213.86 972.121,-207.106"/>
</g>
<!-- Ketrew&#45;&gt;Ketrew_command_line -->
<g id="edge57" class="edge"><title>Ketrew&#45;&gt;Ketrew_command_line</title>
<path fill="none" stroke="black" d="M867.306,-718.754C791.287,-715.186 609.246,-701.708 466.185,-652 408.829,-632.071 348.742,-594.452 313.42,-570.34"/>
<polygon fill="black" stroke="black" points="315.208,-567.321 304.99,-564.519 311.231,-573.081 315.208,-567.321"/>
</g>
<!-- Ketrew&#45;&gt;Ketrew_error -->
<g id="edge55" class="edge"><title>Ketrew&#45;&gt;Ketrew_error</title>
<path fill="none" stroke="black" d="M928.605,-708.205C974.889,-684.771 1068.19,-627.656 1068.19,-548 1068.19,-548 1068.19,-548 1068.19,-458 1068.19,-402.248 1037.22,-342.958 1017.08,-310.295"/>
<polygon fill="black" stroke="black" points="1020.02,-308.398 1011.72,-301.814 1014.1,-312.137 1020.02,-308.398"/>
</g>
<!-- Ketrew&#45;&gt;Ketrew_target -->
<g id="edge49" class="edge"><title>Ketrew&#45;&gt;Ketrew_target</title>
<path fill="none" stroke="black" d="M867.616,-717.798C735.119,-708.817 273.067,-670.296 180.185,-565 138.696,-517.966 129.392,-441.204 127.494,-400.446"/>
<polygon fill="black" stroke="black" points="130.983,-400.067 127.139,-390.194 123.987,-400.309 130.983,-400.067"/>
</g>
<!-- Ketrew&#45;&gt;Ketrew_state -->
<g id="edge50" class="edge"><title>Ketrew&#45;&gt;Ketrew_state</title>
<path fill="none" stroke="black" d="M870.457,-713.275C800.805,-697.62 635.435,-653.188 527.185,-565 500.794,-543.5 480.373,-509.646 468.344,-486.217"/>
<polygon fill="black" stroke="black" points="471.44,-484.584 463.855,-477.186 465.172,-487.699 471.44,-484.584"/>
</g>
<!-- Ketrew&#45;&gt;Ketrew_edsl -->
<g id="edge56" class="edge"><title>Ketrew&#45;&gt;Ketrew_edsl</title>
<path fill="none" stroke="black" d="M887.274,-704.804C873.696,-691.836 853.96,-672.987 838.418,-658.144"/>
<polygon fill="black" stroke="black" points="840.82,-655.598 831.171,-651.222 835.985,-660.66 840.82,-655.598"/>
</g>
<!-- Ketrew&#45;&gt;Ketrew_nohup_setsid -->
<g id="edge53" class="edge"><title>Ketrew&#45;&gt;Ketrew_nohup_setsid</title>
<path fill="none" stroke="black" d="M901.896,-702.792C897.694,-646.715 884.372,-468.919 879.234,-400.344"/>
<polygon fill="black" stroke="black" points="882.72,-400.022 878.482,-390.312 875.739,-400.545 882.72,-400.022"/>
</g>
</g>
</svg>
