<?xml version="1.0" encoding="UTF-8" standalone="no"?>
<!DOCTYPE svg PUBLIC "-//W3C//DTD SVG 1.1//EN"
 "http://www.w3.org/Graphics/SVG/1.1/DTD/svg11.dtd">
<!-- Generated by graphviz version 2.38.0 (20140413.2041)
 -->
<!-- Title: G Pages: 1 -->
<svg width="496pt" height="720pt"
 viewBox="0.00 0.00 720.00 495.66" xmlns="http://www.w3.org/2000/svg" xmlns:xlink="http://www.w3.org/1999/xlink">
<g id="graph0" class="graph" transform="scale(0.765197 0.765197) rotate(-90) translate(-936.934 643.75)">
<title>G</title>
<polygon fill="white" stroke="none" points="-4,4 -4,-643.75 936.934,-643.75 936.934,4 -4,4"/>
<!-- Ketrew_artifact -->
<g id="node1" class="node"><title>Ketrew_artifact</title>
<ellipse fill="darkturquoise" stroke="darkturquoise" cx="323" cy="-262" rx="65.6803" ry="18"/>
<text text-anchor="middle" x="323" y="-257.8" font-family="Times,serif" font-size="14.00">Ketrew_artifact</text>
</g>
<!-- Ketrew_pervasives -->
<g id="node2" class="node"><title>Ketrew_pervasives</title>
<ellipse fill="darkturquoise" stroke="darkturquoise" cx="622" cy="-29" rx="77.7589" ry="18"/>
<text text-anchor="middle" x="622" y="-24.8" font-family="Times,serif" font-size="14.00">Ketrew_pervasives</text>
</g>
<!-- Ketrew_artifact&#45;&gt;Ketrew_pervasives -->
<g id="edge1" class="edge"><title>Ketrew_artifact&#45;&gt;Ketrew_pervasives</title>
<path fill="none" stroke="black" d="M315.615,-243.821C305.042,-216.27 289.516,-161.777 315,-127 343.158,-88.5726 469.931,-58.3131 551.508,-42.3815"/>
<polygon fill="black" stroke="black" points="552.557,-45.7438 561.715,-40.4164 551.234,-38.87 552.557,-45.7438"/>
</g>
<!-- Ketrew_path -->
<g id="node3" class="node"><title>Ketrew_path</title>
<ellipse fill="darkturquoise" stroke="darkturquoise" cx="102" cy="-29" rx="55.5596" ry="18"/>
<text text-anchor="middle" x="102" y="-24.8" font-family="Times,serif" font-size="14.00">Ketrew_path</text>
</g>
<!-- Ketrew_artifact&#45;&gt;Ketrew_path -->
<g id="edge2" class="edge"><title>Ketrew_artifact&#45;&gt;Ketrew_path</title>
<path fill="none" stroke="black" d="M259.311,-257.415C196.136,-250.068 102.391,-228.096 57,-163 33.6247,-129.477 60.1674,-82.8187 81.2705,-54.6081"/>
<polygon fill="black" stroke="black" points="84.2135,-56.5248 87.5838,-46.4803 78.6853,-52.2307 84.2135,-56.5248"/>
</g>
<!-- Ketrew_host -->
<g id="node4" class="node"><title>Ketrew_host</title>
<ellipse fill="darkturquoise" stroke="darkturquoise" cx="379" cy="-145" rx="55.0922" ry="18"/>
<text text-anchor="middle" x="379" y="-140.8" font-family="Times,serif" font-size="14.00">Ketrew_host</text>
</g>
<!-- Ketrew_artifact&#45;&gt;Ketrew_host -->
<g id="edge3" class="edge"><title>Ketrew_artifact&#45;&gt;Ketrew_host</title>
<path fill="none" stroke="black" d="M331.263,-244.031C340.486,-225.091 355.522,-194.214 366.254,-172.175"/>
<polygon fill="black" stroke="black" points="369.472,-173.561 370.703,-163.038 363.178,-170.497 369.472,-173.561"/>
</g>
<!-- Ketrew_host&#45;&gt;Ketrew_pervasives -->
<g id="edge5" class="edge"><title>Ketrew_host&#45;&gt;Ketrew_pervasives</title>
<path fill="none" stroke="black" d="M409.285,-129.792C452.224,-109.648 530.982,-72.6996 579.68,-49.854"/>
<polygon fill="black" stroke="black" points="581.432,-52.8979 588.999,-45.4821 578.459,-46.5607 581.432,-52.8979"/>
</g>
<!-- Ketrew_host&#45;&gt;Ketrew_path -->
<g id="edge6" class="edge"><title>Ketrew_host&#45;&gt;Ketrew_path</title>
<path fill="none" stroke="black" d="M346.137,-130.475C295.98,-109.833 200.318,-70.4631 144.799,-47.614"/>
<polygon fill="black" stroke="black" points="145.831,-44.2539 135.251,-43.6847 143.167,-50.7272 145.831,-44.2539"/>
</g>
<!-- Ketrew_database -->
<g id="node5" class="node"><title>Ketrew_database</title>
<ellipse fill="darkturquoise" stroke="darkturquoise" cx="523" cy="-145" rx="70.9927" ry="18"/>
<text text-anchor="middle" x="523" y="-140.8" font-family="Times,serif" font-size="14.00">Ketrew_database</text>
</g>
<!-- Ketrew_database&#45;&gt;Ketrew_pervasives -->
<g id="edge4" class="edge"><title>Ketrew_database&#45;&gt;Ketrew_pervasives</title>
<path fill="none" stroke="black" d="M537.608,-127.179C554.278,-107.983 581.691,-76.4166 600.732,-54.491"/>
<polygon fill="black" stroke="black" points="603.418,-56.7354 607.332,-46.8901 598.133,-52.1455 603.418,-56.7354"/>
</g>
<!-- Ketrew_monitored_script -->
<g id="node6" class="node"><title>Ketrew_monitored_script</title>
<ellipse fill="darkturquoise" stroke="darkturquoise" cx="167" cy="-145" rx="100.945" ry="18"/>
<text text-anchor="middle" x="167" y="-140.8" font-family="Times,serif" font-size="14.00">Ketrew_monitored_script</text>
</g>
<!-- Ketrew_monitored_script&#45;&gt;Ketrew_pervasives -->
<g id="edge7" class="edge"><title>Ketrew_monitored_script&#45;&gt;Ketrew_pervasives</title>
<path fill="none" stroke="black" d="M223.248,-129.907C309.216,-108.368 472.621,-67.4269 561.222,-45.2279"/>
<polygon fill="black" stroke="black" points="562.274,-48.5725 571.124,-42.747 560.573,-41.7824 562.274,-48.5725"/>
</g>
<!-- Ketrew_monitored_script&#45;&gt;Ketrew_path -->
<g id="edge8" class="edge"><title>Ketrew_monitored_script&#45;&gt;Ketrew_path</title>
<path fill="none" stroke="black" d="M157.128,-126.686C146.376,-107.828 129.064,-77.4662 116.71,-55.7985"/>
<polygon fill="black" stroke="black" points="119.746,-54.0571 111.752,-47.1036 113.665,-57.5243 119.746,-54.0571"/>
</g>
<!-- Ketrew_nohup_setsid -->
<g id="node7" class="node"><title>Ketrew_nohup_setsid</title>
<ellipse fill="darkturquoise" stroke="darkturquoise" cx="742" cy="-494" rx="87.4567" ry="18"/>
<text text-anchor="middle" x="742" y="-489.8" font-family="Times,serif" font-size="14.00">Ketrew_nohup_setsid</text>
</g>
<!-- Ketrew_nohup_setsid&#45;&gt;Ketrew_host -->
<g id="edge10" class="edge"><title>Ketrew_nohup_setsid&#45;&gt;Ketrew_host</title>
<path fill="none" stroke="black" d="M766.611,-476.521C800.836,-451.495 855.747,-402.338 829,-360 782.672,-286.669 532.805,-196.912 426.7,-161.459"/>
<polygon fill="black" stroke="black" points="427.485,-158.032 416.892,-158.2 425.278,-164.674 427.485,-158.032"/>
</g>
<!-- Ketrew_long_running -->
<g id="node8" class="node"><title>Ketrew_long_running</title>
<ellipse fill="darkturquoise" stroke="darkturquoise" cx="732" cy="-378" rx="88.417" ry="18"/>
<text text-anchor="middle" x="732" y="-373.8" font-family="Times,serif" font-size="14.00">Ketrew_long_running</text>
</g>
<!-- Ketrew_nohup_setsid&#45;&gt;Ketrew_long_running -->
<g id="edge9" class="edge"><title>Ketrew_nohup_setsid&#45;&gt;Ketrew_long_running</title>
<path fill="none" stroke="black" d="M740.481,-475.686C738.864,-457.249 736.282,-427.816 734.391,-406.262"/>
<polygon fill="black" stroke="black" points="737.861,-405.759 733.5,-396.104 730.888,-406.371 737.861,-405.759"/>
</g>
<!-- Ketrew_long_running&#45;&gt;Ketrew_pervasives -->
<g id="edge25" class="edge"><title>Ketrew_long_running&#45;&gt;Ketrew_pervasives</title>
<path fill="none" stroke="black" d="M729.624,-359.871C723.577,-318.72 705.787,-211.44 674,-127 664.455,-101.643 649.53,-74.617 638.114,-55.55"/>
<polygon fill="black" stroke="black" points="641.02,-53.5929 632.83,-46.8715 635.041,-57.2331 641.02,-53.5929"/>
</g>
<!-- Ketrew_state -->
<g id="node9" class="node"><title>Ketrew_state</title>
<ellipse fill="darkturquoise" stroke="darkturquoise" cx="580" cy="-494" rx="56.5201" ry="18"/>
<text text-anchor="middle" x="580" y="-489.8" font-family="Times,serif" font-size="14.00">Ketrew_state</text>
</g>
<!-- Ketrew_state&#45;&gt;Ketrew_pervasives -->
<g id="edge12" class="edge"><title>Ketrew_state&#45;&gt;Ketrew_pervasives</title>
<path fill="none" stroke="black" d="M582.955,-475.896C591.203,-427.184 614.365,-283.464 622,-163 624.311,-126.544 623.765,-84.3532 623.012,-57.4385"/>
<polygon fill="black" stroke="black" points="626.504,-57.1252 622.695,-47.2386 619.507,-57.3424 626.504,-57.1252"/>
</g>
<!-- Ketrew_state&#45;&gt;Ketrew_long_running -->
<g id="edge13" class="edge"><title>Ketrew_state&#45;&gt;Ketrew_long_running</title>
<path fill="none" stroke="black" d="M601.135,-477.149C627.269,-457.548 671.936,-424.048 701.71,-401.717"/>
<polygon fill="black" stroke="black" points="704.16,-404.255 710.06,-395.455 699.96,-398.655 704.16,-404.255"/>
</g>
<!-- Ketrew_target -->
<g id="node10" class="node"><title>Ketrew_target</title>
<ellipse fill="darkturquoise" stroke="darkturquoise" cx="506" cy="-378" rx="60.5585" ry="18"/>
<text text-anchor="middle" x="506" y="-373.8" font-family="Times,serif" font-size="14.00">Ketrew_target</text>
</g>
<!-- Ketrew_state&#45;&gt;Ketrew_target -->
<g id="edge11" class="edge"><title>Ketrew_state&#45;&gt;Ketrew_target</title>
<path fill="none" stroke="black" d="M569.081,-476.179C556.784,-457.235 536.668,-426.245 522.463,-404.361"/>
<polygon fill="black" stroke="black" points="525.344,-402.372 516.964,-395.89 519.473,-406.184 525.344,-402.372"/>
</g>
<!-- Ketrew_target&#45;&gt;Ketrew_artifact -->
<g id="edge16" class="edge"><title>Ketrew_target&#45;&gt;Ketrew_artifact</title>
<path fill="none" stroke="black" d="M480.938,-361.388C448.812,-341.375 392.979,-306.594 357.031,-284.199"/>
<polygon fill="black" stroke="black" points="358.685,-281.106 348.346,-278.789 354.983,-287.048 358.685,-281.106"/>
</g>
<!-- Ketrew_target&#45;&gt;Ketrew_pervasives -->
<g id="edge14" class="edge"><title>Ketrew_target&#45;&gt;Ketrew_pervasives</title>
<path fill="none" stroke="black" d="M515.648,-360.163C535.419,-324.853 580.561,-239.95 603,-163 613.387,-127.378 618.202,-84.6695 620.359,-57.4372"/>
<polygon fill="black" stroke="black" points="623.874,-57.3485 621.106,-47.1216 616.893,-56.8424 623.874,-57.3485"/>
</g>
<!-- Ketrew_target&#45;&gt;Ketrew_host -->
<g id="edge15" class="edge"><title>Ketrew_target&#45;&gt;Ketrew_host</title>
<path fill="none" stroke="black" d="M496.661,-360.014C474.643,-319.965 419.371,-219.43 393.183,-171.798"/>
<polygon fill="black" stroke="black" points="396.237,-170.088 388.352,-163.011 390.103,-173.46 396.237,-170.088"/>
</g>
<!-- Ketrew_unix_process -->
<g id="node11" class="node"><title>Ketrew_unix_process</title>
<ellipse fill="darkturquoise" stroke="darkturquoise" cx="813" cy="-145" rx="87.4394" ry="18"/>
<text text-anchor="middle" x="813" y="-140.8" font-family="Times,serif" font-size="14.00">Ketrew_unix_process</text>
</g>
<!-- Ketrew_unix_process&#45;&gt;Ketrew_pervasives -->
<g id="edge17" class="edge"><title>Ketrew_unix_process&#45;&gt;Ketrew_pervasives</title>
<path fill="none" stroke="black" d="M785.634,-127.667C751.972,-107.575 694.742,-73.417 657.665,-51.2869"/>
<polygon fill="black" stroke="black" points="659.08,-48.0553 648.699,-45.9356 655.492,-54.0661 659.08,-48.0553"/>
</g>
<!-- Ketrew -->
<g id="node12" class="node"><title>Ketrew</title>
<ellipse fill="darkturquoise" stroke="darkturquoise" cx="495" cy="-611" rx="36.2645" ry="18"/>
<text text-anchor="middle" x="495" y="-606.8" font-family="Times,serif" font-size="14.00">Ketrew</text>
</g>
<!-- Ketrew&#45;&gt;Ketrew_artifact -->
<g id="edge24" class="edge"><title>Ketrew&#45;&gt;Ketrew_artifact</title>
<path fill="none" stroke="black" d="M476.915,-595.196C456.302,-577.429 422.899,-545.78 403,-512 359.491,-438.14 336.646,-337.796 327.65,-290.201"/>
<polygon fill="black" stroke="black" points="331.04,-289.283 325.796,-280.076 324.154,-290.543 331.04,-289.283"/>
</g>
<!-- Ketrew&#45;&gt;Ketrew_pervasives -->
<g id="edge20" class="edge"><title>Ketrew&#45;&gt;Ketrew_pervasives</title>
<path fill="none" stroke="black" d="M530.803,-607.73C634.544,-599.034 928,-558.564 928,-379 928,-379 928,-379 928,-261 928,-200.849 947.421,-173.282 909,-127 859.652,-67.556 772.443,-44.393 707.07,-35.4467"/>
<polygon fill="black" stroke="black" points="707.137,-31.9269 696.774,-34.1295 706.249,-38.8703 707.137,-31.9269"/>
</g>
<!-- Ketrew&#45;&gt;Ketrew_path -->
<g id="edge21" class="edge"><title>Ketrew&#45;&gt;Ketrew_path</title>
<path fill="none" stroke="black" d="M458.601,-609.755C344.287,-606.894 0,-581.472 0,-379 0,-379 0,-379 0,-261 0,-179.927 53.2277,-95.4406 82.7813,-54.7797"/>
<polygon fill="black" stroke="black" points="85.7335,-56.6744 88.8741,-46.5557 80.1089,-52.5073 85.7335,-56.6744"/>
</g>
<!-- Ketrew&#45;&gt;Ketrew_host -->
<g id="edge23" class="edge"><title>Ketrew&#45;&gt;Ketrew_host</title>
<path fill="none" stroke="black" d="M490.076,-593.146C479.608,-557.105 454.58,-469.812 436,-396 415.679,-315.269 394.63,-219.078 384.761,-173.095"/>
<polygon fill="black" stroke="black" points="388.124,-172.084 382.609,-163.038 381.278,-173.549 388.124,-172.084"/>
</g>
<!-- Ketrew&#45;&gt;Ketrew_nohup_setsid -->
<g id="edge22" class="edge"><title>Ketrew&#45;&gt;Ketrew_nohup_setsid</title>
<path fill="none" stroke="black" d="M520.503,-598.126C562.74,-578.461 647.657,-538.925 699.204,-514.925"/>
<polygon fill="black" stroke="black" points="700.835,-518.027 708.423,-510.633 697.88,-511.681 700.835,-518.027"/>
</g>
<!-- Ketrew&#45;&gt;Ketrew_state -->
<g id="edge19" class="edge"><title>Ketrew&#45;&gt;Ketrew_state</title>
<path fill="none" stroke="black" d="M507.178,-593.523C521.362,-574.333 544.948,-542.423 561.422,-520.135"/>
<polygon fill="black" stroke="black" points="564.438,-521.942 567.568,-511.82 558.809,-517.782 564.438,-521.942"/>
</g>
<!-- Ketrew&#45;&gt;Ketrew_target -->
<g id="edge18" class="edge"><title>Ketrew&#45;&gt;Ketrew_target</title>
<path fill="none" stroke="black" d="M495.827,-592.637C497.723,-552.824 502.396,-454.686 504.689,-406.539"/>
<polygon fill="black" stroke="black" points="508.199,-406.404 505.179,-396.249 501.207,-406.071 508.199,-406.404"/>
</g>
</g>
</svg>
