<?xml version="1.0" encoding="UTF-8" standalone="no"?>
<!DOCTYPE svg PUBLIC "-//W3C//DTD SVG 1.1//EN"
 "http://www.w3.org/Graphics/SVG/1.1/DTD/svg11.dtd">
<!-- Generated by graphviz version 2.38.0 (20140413.2041)
 -->
<!-- Title: G Pages: 1 -->
<svg width="476pt" height="720pt"
 viewBox="0.00 0.00 720.00 476.07" xmlns="http://www.w3.org/2000/svg" xmlns:xlink="http://www.w3.org/1999/xlink">
<g id="graph0" class="graph" transform="scale(0.399556 0.399556) rotate(-90) translate(-1798 1187.5)">
<title>G</title>
<polygon fill="white" stroke="none" points="-4,4 -4,-1187.5 1798,-1187.5 1798,4 -4,4"/>
<!-- Ketrew_artifact -->
<g id="node1" class="node"><title>Ketrew_artifact</title>
<ellipse fill="darkturquoise" stroke="darkturquoise" cx="392" cy="-453" rx="65.6803" ry="18"/>
<text text-anchor="middle" x="392" y="-448.8" font-family="Times,serif" font-size="14.00">Ketrew_artifact</text>
</g>
<!-- Ketrew_pervasives -->
<g id="node2" class="node"><title>Ketrew_pervasives</title>
<ellipse fill="darkturquoise" stroke="darkturquoise" cx="787" cy="-35" rx="77.7589" ry="18"/>
<text text-anchor="middle" x="787" y="-30.8" font-family="Times,serif" font-size="14.00">Ketrew_pervasives</text>
</g>
<!-- Ketrew_artifact&#45;&gt;Ketrew_pervasives -->
<g id="edge1" class="edge"><title>Ketrew_artifact&#45;&gt;Ketrew_pervasives</title>
<path fill="none" stroke="black" d="M392.262,-434.79C393.939,-384.964 405.482,-238.871 482,-156 542.247,-90.7509 642.399,-60.459 711.405,-46.7525"/>
<polygon fill="black" stroke="black" points="712.189,-50.1662 721.352,-44.8484 710.872,-43.291 712.189,-50.1662"/>
</g>
<!-- Ketrew_path -->
<g id="node3" class="node"><title>Ketrew_path</title>
<ellipse fill="darkturquoise" stroke="darkturquoise" cx="953" cy="-174" rx="55.5596" ry="18"/>
<text text-anchor="middle" x="953" y="-169.8" font-family="Times,serif" font-size="14.00">Ketrew_path</text>
</g>
<!-- Ketrew_artifact&#45;&gt;Ketrew_path -->
<g id="edge2" class="edge"><title>Ketrew_artifact&#45;&gt;Ketrew_path</title>
<path fill="none" stroke="black" d="M400.975,-435.149C419.051,-402.868 463.026,-332.212 520,-295 582.653,-254.079 794.605,-207.093 896.878,-186.117"/>
<polygon fill="black" stroke="black" points="897.622,-189.538 906.72,-184.11 896.222,-182.679 897.622,-189.538"/>
</g>
<!-- Ketrew_host -->
<g id="node4" class="node"><title>Ketrew_host</title>
<ellipse fill="darkturquoise" stroke="darkturquoise" cx="631" cy="-313" rx="55.0922" ry="18"/>
<text text-anchor="middle" x="631" y="-308.8" font-family="Times,serif" font-size="14.00">Ketrew_host</text>
</g>
<!-- Ketrew_artifact&#45;&gt;Ketrew_host -->
<g id="edge3" class="edge"><title>Ketrew_artifact&#45;&gt;Ketrew_host</title>
<path fill="none" stroke="black" d="M418.952,-436.438C462.418,-411.34 547.977,-361.938 596.065,-334.172"/>
<polygon fill="black" stroke="black" points="597.964,-337.117 604.874,-329.085 594.464,-331.055 597.964,-337.117"/>
</g>
<!-- Ketrew_path&#45;&gt;Ketrew_pervasives -->
<g id="edge46" class="edge"><title>Ketrew_path&#45;&gt;Ketrew_pervasives</title>
<path fill="none" stroke="black" d="M933.633,-157.016C904.382,-132.875 848.779,-86.9864 815.083,-59.177"/>
<polygon fill="black" stroke="black" points="816.958,-56.1864 807.018,-52.5206 812.502,-61.5853 816.958,-56.1864"/>
</g>
<!-- Ketrew_host&#45;&gt;Ketrew_pervasives -->
<g id="edge27" class="edge"><title>Ketrew_host&#45;&gt;Ketrew_pervasives</title>
<path fill="none" stroke="black" d="M626.815,-294.952C620.409,-265.013 611.158,-201.819 634,-156 657.118,-109.627 707.516,-75.7233 744.171,-56.0069"/>
<polygon fill="black" stroke="black" points="745.93,-59.037 753.169,-51.301 742.686,-52.8341 745.93,-59.037"/>
</g>
<!-- Ketrew_host&#45;&gt;Ketrew_path -->
<g id="edge28" class="edge"><title>Ketrew_host&#45;&gt;Ketrew_path</title>
<path fill="none" stroke="black" d="M663.349,-298.237C722.055,-273.259 846.066,-220.497 911.135,-192.812"/>
<polygon fill="black" stroke="black" points="912.841,-195.89 920.673,-188.754 910.101,-189.449 912.841,-195.89"/>
</g>
<!-- Ketrew_unix_process -->
<g id="node17" class="node"><title>Ketrew_unix_process</title>
<ellipse fill="darkturquoise" stroke="darkturquoise" cx="730" cy="-174" rx="87.4394" ry="18"/>
<text text-anchor="middle" x="730" y="-169.8" font-family="Times,serif" font-size="14.00">Ketrew_unix_process</text>
</g>
<!-- Ketrew_host&#45;&gt;Ketrew_unix_process -->
<g id="edge26" class="edge"><title>Ketrew_host&#45;&gt;Ketrew_unix_process</title>
<path fill="none" stroke="black" d="M643.139,-295.201C660.285,-271.475 691.727,-227.964 711.709,-200.312"/>
<polygon fill="black" stroke="black" points="714.741,-202.092 717.761,-191.936 709.067,-197.992 714.741,-202.092"/>
</g>
<!-- Ketrew_command_line -->
<g id="node5" class="node"><title>Ketrew_command_line</title>
<ellipse fill="darkturquoise" stroke="darkturquoise" cx="550" cy="-1009" rx="93.2188" ry="18"/>
<text text-anchor="middle" x="550" y="-1004.8" font-family="Times,serif" font-size="14.00">Ketrew_command_line</text>
</g>
<!-- Ketrew_command_line&#45;&gt;Ketrew_pervasives -->
<g id="edge8" class="edge"><title>Ketrew_command_line&#45;&gt;Ketrew_pervasives</title>
<path fill="none" stroke="black" d="M504.551,-993.092C385.913,-951.008 76,-819.407 76,-593 76,-593 76,-593 76,-312 76,-236.187 85.5562,-203.053 145,-156 230.497,-88.324 549.898,-54.6041 703.485,-42.0174"/>
<polygon fill="black" stroke="black" points="704.119,-45.4777 713.804,-41.1831 703.555,-38.5005 704.119,-45.4777"/>
</g>
<!-- Ketrew_error -->
<g id="node6" class="node"><title>Ketrew_error</title>
<ellipse fill="darkturquoise" stroke="darkturquoise" cx="1108" cy="-453" rx="57.9719" ry="18"/>
<text text-anchor="middle" x="1108" y="-448.8" font-family="Times,serif" font-size="14.00">Ketrew_error</text>
</g>
<!-- Ketrew_command_line&#45;&gt;Ketrew_error -->
<g id="edge4" class="edge"><title>Ketrew_command_line&#45;&gt;Ketrew_error</title>
<path fill="none" stroke="black" d="M570.99,-991.412C636.585,-939.088 842.163,-771.411 990,-610 1029.62,-566.738 1069.51,-510.822 1091.25,-479.033"/>
<polygon fill="black" stroke="black" points="1094.16,-480.976 1096.89,-470.737 1088.38,-477.041 1094.16,-480.976"/>
</g>
<!-- Ketrew_state -->
<g id="node7" class="node"><title>Ketrew_state</title>
<ellipse fill="darkturquoise" stroke="darkturquoise" cx="636" cy="-731" rx="56.5201" ry="18"/>
<text text-anchor="middle" x="636" y="-726.8" font-family="Times,serif" font-size="14.00">Ketrew_state</text>
</g>
<!-- Ketrew_command_line&#45;&gt;Ketrew_state -->
<g id="edge5" class="edge"><title>Ketrew_command_line&#45;&gt;Ketrew_state</title>
<path fill="none" stroke="black" d="M561.802,-991.016C576.786,-968.547 602.223,-927.196 615,-888 629.168,-844.538 633.787,-791.268 635.286,-759.564"/>
<polygon fill="black" stroke="black" points="638.794,-759.433 635.697,-749.301 631.8,-759.153 638.794,-759.433"/>
</g>
<!-- Ketrew_target -->
<g id="node8" class="node"><title>Ketrew_target</title>
<ellipse fill="darkturquoise" stroke="darkturquoise" cx="549" cy="-592" rx="60.5585" ry="18"/>
<text text-anchor="middle" x="549" y="-587.8" font-family="Times,serif" font-size="14.00">Ketrew_target</text>
</g>
<!-- Ketrew_command_line&#45;&gt;Ketrew_target -->
<g id="edge6" class="edge"><title>Ketrew_command_line&#45;&gt;Ketrew_target</title>
<path fill="none" stroke="black" d="M517.835,-992.013C483.114,-972.741 429.736,-936.76 407,-888 400.238,-873.499 403.03,-867.5 407,-852 431.037,-758.159 496.921,-661.781 529.805,-617.708"/>
<polygon fill="black" stroke="black" points="532.688,-619.698 535.919,-609.607 527.101,-615.481 532.688,-619.698"/>
</g>
<!-- Ketrew_user_command -->
<g id="node9" class="node"><title>Ketrew_user_command</title>
<ellipse fill="darkturquoise" stroke="darkturquoise" cx="511" cy="-870" rx="94.6636" ry="18"/>
<text text-anchor="middle" x="511" y="-865.8" font-family="Times,serif" font-size="14.00">Ketrew_user_command</text>
</g>
<!-- Ketrew_command_line&#45;&gt;Ketrew_user_command -->
<g id="edge7" class="edge"><title>Ketrew_command_line&#45;&gt;Ketrew_user_command</title>
<path fill="none" stroke="black" d="M545.139,-990.926C538.513,-967.647 526.57,-925.695 518.713,-898.096"/>
<polygon fill="black" stroke="black" points="522.026,-896.949 515.922,-888.289 515.294,-898.866 522.026,-896.949"/>
</g>
<!-- Ketrew_long_running -->
<g id="node10" class="node"><title>Ketrew_long_running</title>
<ellipse fill="darkturquoise" stroke="darkturquoise" cx="830" cy="-453" rx="88.417" ry="18"/>
<text text-anchor="middle" x="830" y="-448.8" font-family="Times,serif" font-size="14.00">Ketrew_long_running</text>
</g>
<!-- Ketrew_command_line&#45;&gt;Ketrew_long_running -->
<g id="edge9" class="edge"><title>Ketrew_command_line&#45;&gt;Ketrew_long_running</title>
<path fill="none" stroke="black" d="M563.117,-991.075C580.441,-968.334 611.393,-926.333 634,-888 720.286,-741.691 794.316,-550.689 820.186,-480.966"/>
<polygon fill="black" stroke="black" points="823.607,-481.803 823.784,-471.21 817.04,-479.381 823.607,-481.803"/>
</g>
<!-- Ketrew_configuration -->
<g id="node11" class="node"><title>Ketrew_configuration</title>
<ellipse fill="darkturquoise" stroke="darkturquoise" cx="192" cy="-592" rx="87.9239" ry="18"/>
<text text-anchor="middle" x="192" y="-587.8" font-family="Times,serif" font-size="14.00">Ketrew_configuration</text>
</g>
<!-- Ketrew_command_line&#45;&gt;Ketrew_configuration -->
<g id="edge10" class="edge"><title>Ketrew_command_line&#45;&gt;Ketrew_configuration</title>
<path fill="none" stroke="black" d="M525.201,-991.634C493.717,-970.143 438.723,-930.166 399,-888 314.818,-798.641 238.073,-672.956 206.82,-619.129"/>
<polygon fill="black" stroke="black" points="209.719,-617.148 201.691,-610.234 203.655,-620.645 209.719,-617.148"/>
</g>
<!-- Ketrew_error&#45;&gt;Ketrew_pervasives -->
<g id="edge79" class="edge"><title>Ketrew_error&#45;&gt;Ketrew_pervasives</title>
<path fill="none" stroke="black" d="M1111.49,-434.824C1120.42,-385.704 1139.11,-242.625 1074,-156 1024.08,-89.5811 930.499,-59.6538 863.771,-46.3456"/>
<polygon fill="black" stroke="black" points="864.196,-42.8635 853.717,-44.4248 862.882,-49.7392 864.196,-42.8635"/>
</g>
<!-- Ketrew_error&#45;&gt;Ketrew_host -->
<g id="edge80" class="edge"><title>Ketrew_error&#45;&gt;Ketrew_host</title>
<path fill="none" stroke="black" d="M1066.92,-440.115C979.485,-414.82 775.268,-355.738 680.695,-328.377"/>
<polygon fill="black" stroke="black" points="681.383,-324.933 670.804,-325.516 679.438,-331.657 681.383,-324.933"/>
</g>
<!-- Ketrew_state&#45;&gt;Ketrew_artifact -->
<g id="edge48" class="edge"><title>Ketrew_state&#45;&gt;Ketrew_artifact</title>
<path fill="none" stroke="black" d="M610.02,-714.844C576.557,-694.352 518.067,-655.135 479,-610 444.239,-569.84 417.047,-513.586 402.857,-480.751"/>
<polygon fill="black" stroke="black" points="406,-479.199 398.876,-471.357 399.555,-481.93 406,-479.199"/>
</g>
<!-- Ketrew_state&#45;&gt;Ketrew_pervasives -->
<g id="edge54" class="edge"><title>Ketrew_state&#45;&gt;Ketrew_pervasives</title>
<path fill="none" stroke="black" d="M594.001,-718.626C539.969,-702.224 445.739,-667.423 384,-610 271.418,-505.288 184.821,-438.12 241,-295 312.501,-112.846 569.645,-58.6349 703.966,-42.626"/>
<polygon fill="black" stroke="black" points="704.673,-46.0679 714.209,-41.451 703.875,-39.1136 704.673,-46.0679"/>
</g>
<!-- Ketrew_state&#45;&gt;Ketrew_path -->
<g id="edge52" class="edge"><title>Ketrew_state&#45;&gt;Ketrew_path</title>
<path fill="none" stroke="black" d="M639.245,-712.76C648.581,-665.805 678.391,-532.635 733,-435 787.981,-336.7 882.942,-240.739 927.949,-198.058"/>
<polygon fill="black" stroke="black" points="930.357,-200.598 935.241,-191.195 925.56,-195.5 930.357,-200.598"/>
</g>
<!-- Ketrew_state&#45;&gt;Ketrew_host -->
<g id="edge56" class="edge"><title>Ketrew_state&#45;&gt;Ketrew_host</title>
<path fill="none" stroke="black" d="M634.456,-712.715C630.579,-667.248 620.95,-540.547 624,-435 624.932,-402.753 627.258,-365.733 628.975,-341.222"/>
<polygon fill="black" stroke="black" points="632.468,-341.443 629.69,-331.219 625.485,-340.944 632.468,-341.443"/>
</g>
<!-- Ketrew_state&#45;&gt;Ketrew_target -->
<g id="edge53" class="edge"><title>Ketrew_state&#45;&gt;Ketrew_target</title>
<path fill="none" stroke="black" d="M625.332,-713.201C610.33,-689.578 582.873,-646.341 565.303,-618.672"/>
<polygon fill="black" stroke="black" points="568.071,-616.502 559.755,-609.936 562.161,-620.254 568.071,-616.502"/>
</g>
<!-- Ketrew_state&#45;&gt;Ketrew_long_running -->
<g id="edge55" class="edge"><title>Ketrew_state&#45;&gt;Ketrew_long_running</title>
<path fill="none" stroke="black" d="M649.511,-713.211C667.818,-690.278 701.283,-647.695 728,-610 759.847,-565.067 794.433,-510.926 814.039,-479.683"/>
<polygon fill="black" stroke="black" points="817.053,-481.464 819.39,-471.13 811.119,-477.751 817.053,-481.464"/>
</g>
<!-- Ketrew_state&#45;&gt;Ketrew_configuration -->
<g id="edge57" class="edge"><title>Ketrew_state&#45;&gt;Ketrew_configuration</title>
<path fill="none" stroke="black" d="M596.598,-717.842C517.556,-693.453 339.426,-638.49 248.184,-610.336"/>
<polygon fill="black" stroke="black" points="249.153,-606.972 238.566,-607.368 247.089,-613.661 249.153,-606.972"/>
</g>
<!-- Ketrew_database -->
<g id="node12" class="node"><title>Ketrew_database</title>
<ellipse fill="darkturquoise" stroke="darkturquoise" cx="321" cy="-313" rx="70.9927" ry="18"/>
<text text-anchor="middle" x="321" y="-308.8" font-family="Times,serif" font-size="14.00">Ketrew_database</text>
</g>
<!-- Ketrew_state&#45;&gt;Ketrew_database -->
<g id="edge49" class="edge"><title>Ketrew_state&#45;&gt;Ketrew_database</title>
<path fill="none" stroke="black" d="M602.36,-716.341C531.555,-685.378 369.364,-602.183 317,-471 299.927,-428.228 307.124,-373.551 313.998,-341.299"/>
<polygon fill="black" stroke="black" points="317.474,-341.798 316.281,-331.27 310.648,-340.244 317.474,-341.798"/>
</g>
<!-- Ketrew_lsf -->
<g id="node14" class="node"><title>Ketrew_lsf</title>
<ellipse fill="darkturquoise" stroke="darkturquoise" cx="932" cy="-592" rx="49.2946" ry="18"/>
<text text-anchor="middle" x="932" y="-587.8" font-family="Times,serif" font-size="14.00">Ketrew_lsf</text>
</g>
<!-- Ketrew_state&#45;&gt;Ketrew_lsf -->
<g id="edge50" class="edge"><title>Ketrew_state&#45;&gt;Ketrew_lsf</title>
<path fill="none" stroke="black" d="M666.84,-715.726C721.122,-690.603 833.608,-638.54 893.122,-610.994"/>
<polygon fill="black" stroke="black" points="894.945,-614.007 902.55,-606.631 892.004,-607.655 894.945,-614.007"/>
</g>
<!-- Ketrew_nohup_setsid -->
<g id="node15" class="node"><title>Ketrew_nohup_setsid</title>
<ellipse fill="darkturquoise" stroke="darkturquoise" cx="1200" cy="-592" rx="87.4567" ry="18"/>
<text text-anchor="middle" x="1200" y="-587.8" font-family="Times,serif" font-size="14.00">Ketrew_nohup_setsid</text>
</g>
<!-- Ketrew_state&#45;&gt;Ketrew_nohup_setsid -->
<g id="edge51" class="edge"><title>Ketrew_state&#45;&gt;Ketrew_nohup_setsid</title>
<path fill="none" stroke="black" d="M679.787,-719.364C778.747,-695.326 1020.02,-636.718 1135.86,-608.579"/>
<polygon fill="black" stroke="black" points="1136.78,-611.96 1145.67,-606.198 1135.12,-605.157 1136.78,-611.96"/>
</g>
<!-- Ketrew_target&#45;&gt;Ketrew_artifact -->
<g id="edge62" class="edge"><title>Ketrew_target&#45;&gt;Ketrew_artifact</title>
<path fill="none" stroke="black" d="M530.374,-574.746C502.668,-550.57 450.464,-505.016 418.7,-477.299"/>
<polygon fill="black" stroke="black" points="420.928,-474.598 411.092,-470.66 416.325,-479.872 420.928,-474.598"/>
</g>
<!-- Ketrew_target&#45;&gt;Ketrew_pervasives -->
<g id="edge60" class="edge"><title>Ketrew_target&#45;&gt;Ketrew_pervasives</title>
<path fill="none" stroke="black" d="M543.841,-573.717C537.229,-550.579 526.127,-508.141 522,-471 513.301,-392.705 517.874,-369.663 543,-295 565.457,-228.268 572.286,-208.68 619,-156 656.488,-113.724 711.511,-78.0112 748.258,-56.809"/>
<polygon fill="black" stroke="black" points="750.22,-59.7198 757.185,-51.736 746.762,-53.6338 750.22,-59.7198"/>
</g>
<!-- Ketrew_target&#45;&gt;Ketrew_path -->
<g id="edge58" class="edge"><title>Ketrew_target&#45;&gt;Ketrew_path</title>
<path fill="none" stroke="black" d="M544.072,-574.004C530.91,-524.756 500.281,-380.074 567,-295 607.729,-243.066 796.987,-202.667 894.526,-184.889"/>
<polygon fill="black" stroke="black" points="895.306,-188.305 904.527,-183.087 894.064,-181.415 895.306,-188.305"/>
</g>
<!-- Ketrew_target&#45;&gt;Ketrew_host -->
<g id="edge61" class="edge"><title>Ketrew_target&#45;&gt;Ketrew_host</title>
<path fill="none" stroke="black" d="M552.323,-573.966C558.114,-545.09 570.893,-484.81 586,-435 596.017,-401.97 610.267,-364.892 620.032,-340.589"/>
<polygon fill="black" stroke="black" points="623.404,-341.587 623.917,-331.005 616.917,-338.958 623.404,-341.587"/>
</g>
<!-- Ketrew_program -->
<g id="node16" class="node"><title>Ketrew_program</title>
<ellipse fill="darkturquoise" stroke="darkturquoise" cx="1612" cy="-313" rx="70.5254" ry="18"/>
<text text-anchor="middle" x="1612" y="-308.8" font-family="Times,serif" font-size="14.00">Ketrew_program</text>
</g>
<!-- Ketrew_target&#45;&gt;Ketrew_program -->
<g id="edge59" class="edge"><title>Ketrew_target&#45;&gt;Ketrew_program</title>
<path fill="none" stroke="black" d="M562.661,-574.321C590.704,-541.384 658.432,-468.301 733,-435 876.206,-371.046 1347.74,-332.276 1534.67,-319.09"/>
<polygon fill="black" stroke="black" points="1534.96,-322.578 1544.69,-318.389 1534.47,-315.596 1534.96,-322.578"/>
</g>
<!-- Ketrew_user_command&#45;&gt;Ketrew_pervasives -->
<g id="edge66" class="edge"><title>Ketrew_user_command&#45;&gt;Ketrew_pervasives</title>
<path fill="none" stroke="black" d="M498.277,-852.158C445.492,-782.121 245.786,-515.496 231,-471 206.326,-396.75 206.194,-370.425 227,-295 246.133,-225.637 252.264,-198.94 310,-156 426.046,-69.6933 597.315,-45.0614 699.951,-38.2742"/>
<polygon fill="black" stroke="black" points="700.207,-41.7652 709.971,-37.6539 699.774,-34.7786 700.207,-41.7652"/>
</g>
<!-- Ketrew_user_command&#45;&gt;Ketrew_state -->
<g id="edge65" class="edge"><title>Ketrew_user_command&#45;&gt;Ketrew_state</title>
<path fill="none" stroke="black" d="M526.327,-852.201C548.282,-828.139 588.801,-783.73 613.967,-756.149"/>
<polygon fill="black" stroke="black" points="616.783,-758.255 620.938,-748.508 611.612,-753.537 616.783,-758.255"/>
</g>
<!-- Ketrew_user_command&#45;&gt;Ketrew_target -->
<g id="edge64" class="edge"><title>Ketrew_user_command&#45;&gt;Ketrew_target</title>
<path fill="none" stroke="black" d="M513.377,-851.735C519.788,-805.17 537.474,-676.714 545.25,-620.24"/>
<polygon fill="black" stroke="black" points="548.727,-620.642 546.624,-610.259 541.793,-619.688 548.727,-620.642"/>
</g>
<!-- Ketrew_long_running&#45;&gt;Ketrew_pervasives -->
<g id="edge81" class="edge"><title>Ketrew_long_running&#45;&gt;Ketrew_pervasives</title>
<path fill="none" stroke="black" d="M831.551,-434.824C835.298,-389.09 843.314,-260.706 826,-156 820.528,-122.906 807.649,-86.4686 798.181,-62.528"/>
<polygon fill="black" stroke="black" points="801.355,-61.04 794.364,-53.0789 794.865,-63.662 801.355,-61.04"/>
</g>
<!-- Ketrew_configuration&#45;&gt;Ketrew_pervasives -->
<g id="edge11" class="edge"><title>Ketrew_configuration&#45;&gt;Ketrew_pervasives</title>
<path fill="none" stroke="black" d="M183.957,-573.94C155.239,-510.245 64.9114,-283.496 170,-156 236.28,-75.5876 547.073,-48.3678 700.656,-39.7286"/>
<polygon fill="black" stroke="black" points="701.195,-43.2044 710.989,-39.1621 700.812,-36.2149 701.195,-43.2044"/>
</g>
<!-- Ketrew_database&#45;&gt;Ketrew_pervasives -->
<g id="edge12" class="edge"><title>Ketrew_database&#45;&gt;Ketrew_pervasives</title>
<path fill="none" stroke="black" d="M325.707,-294.68C335.324,-262.563 360.272,-193.626 406,-156 492.837,-84.5472 622.534,-55.467 705.951,-43.7486"/>
<polygon fill="black" stroke="black" points="706.448,-47.2133 715.889,-42.4039 705.509,-40.2766 706.448,-47.2133"/>
</g>
<!-- Ketrew_edsl -->
<g id="node13" class="node"><title>Ketrew_edsl</title>
<ellipse fill="darkturquoise" stroke="darkturquoise" cx="881" cy="-1009" rx="54.599" ry="18"/>
<text text-anchor="middle" x="881" y="-1004.8" font-family="Times,serif" font-size="14.00">Ketrew_edsl</text>
</g>
<!-- Ketrew_edsl&#45;&gt;Ketrew_artifact -->
<g id="edge25" class="edge"><title>Ketrew_edsl&#45;&gt;Ketrew_artifact</title>
<path fill="none" stroke="black" d="M829.694,-1002.68C718.326,-989.97 460.157,-953.911 407,-888 308.433,-765.784 360.309,-555.197 383.086,-480.901"/>
<polygon fill="black" stroke="black" points="386.553,-481.545 386.214,-470.955 379.875,-479.445 386.553,-481.545"/>
</g>
<!-- Ketrew_edsl&#45;&gt;Ketrew_pervasives -->
<g id="edge21" class="edge"><title>Ketrew_edsl&#45;&gt;Ketrew_pervasives</title>
<path fill="none" stroke="black" d="M933.793,-1003.95C1026.55,-994.934 1222.54,-967.335 1366,-888 1480.24,-824.826 1756,-454.343 1756,-454 1756,-454 1756,-454 1756,-312 1756,-199.968 1660.71,-200.745 1558,-156 1326.35,-55.0832 1022.97,-37.5196 875.353,-35.4193"/>
<polygon fill="black" stroke="black" points="875.039,-31.9153 864.997,-35.2938 874.954,-38.9148 875.039,-31.9153"/>
</g>
<!-- Ketrew_edsl&#45;&gt;Ketrew_path -->
<g id="edge16" class="edge"><title>Ketrew_edsl&#45;&gt;Ketrew_path</title>
<path fill="none" stroke="black" d="M908.613,-993.373C988.942,-948.946 1221.54,-806.502 1296,-610 1323.86,-536.487 1189.39,-351.756 1135,-295 1092.69,-250.857 1031.31,-214.64 991.766,-193.925"/>
<polygon fill="black" stroke="black" points="993.191,-190.721 982.699,-189.245 989.98,-196.942 993.191,-190.721"/>
</g>
<!-- Ketrew_edsl&#45;&gt;Ketrew_host -->
<g id="edge23" class="edge"><title>Ketrew_edsl&#45;&gt;Ketrew_host</title>
<path fill="none" stroke="black" d="M874.945,-990.669C864.868,-961.857 843.981,-902.297 826,-852 755.744,-655.48 669.486,-419.218 640.795,-340.764"/>
<polygon fill="black" stroke="black" points="644.007,-339.358 637.285,-331.169 637.433,-341.762 644.007,-339.358"/>
</g>
<!-- Ketrew_edsl&#45;&gt;Ketrew_error -->
<g id="edge13" class="edge"><title>Ketrew_edsl&#45;&gt;Ketrew_error</title>
<path fill="none" stroke="black" d="M888.161,-990.927C897.905,-967.671 915.861,-924.724 931,-888 994.57,-733.794 1069.82,-548.29 1097.29,-480.471"/>
<polygon fill="black" stroke="black" points="1100.62,-481.56 1101.13,-470.977 1094.13,-478.932 1100.62,-481.56"/>
</g>
<!-- Ketrew_edsl&#45;&gt;Ketrew_state -->
<g id="edge17" class="edge"><title>Ketrew_edsl&#45;&gt;Ketrew_state</title>
<path fill="none" stroke="black" d="M866.408,-991.561C824.973,-944.884 706.445,-811.358 657.521,-756.244"/>
<polygon fill="black" stroke="black" points="660.082,-753.856 650.825,-748.701 654.847,-758.503 660.082,-753.856"/>
</g>
<!-- Ketrew_edsl&#45;&gt;Ketrew_target -->
<g id="edge19" class="edge"><title>Ketrew_edsl&#45;&gt;Ketrew_target</title>
<path fill="none" stroke="black" d="M873.359,-990.952C851.493,-943.361 784.879,-806.446 702,-713 666.222,-672.66 615.528,-635.944 582.46,-614.034"/>
<polygon fill="black" stroke="black" points="584.324,-611.071 574.04,-608.522 580.49,-616.928 584.324,-611.071"/>
</g>
<!-- Ketrew_edsl&#45;&gt;Ketrew_user_command -->
<g id="edge18" class="edge"><title>Ketrew_edsl&#45;&gt;Ketrew_user_command</title>
<path fill="none" stroke="black" d="M845.858,-994.988C780.036,-970.616 637.954,-918.007 561.743,-889.789"/>
<polygon fill="black" stroke="black" points="562.93,-886.496 552.337,-886.306 560.5,-893.06 562.93,-886.496"/>
</g>
<!-- Ketrew_edsl&#45;&gt;Ketrew_long_running -->
<g id="edge22" class="edge"><title>Ketrew_edsl&#45;&gt;Ketrew_long_running</title>
<path fill="none" stroke="black" d="M881.653,-990.986C883.189,-945.663 886.177,-818.284 876,-713 867.745,-627.601 846.833,-528.061 836.287,-481.125"/>
<polygon fill="black" stroke="black" points="839.648,-480.124 834.022,-471.146 832.822,-481.673 839.648,-480.124"/>
</g>
<!-- Ketrew_edsl&#45;&gt;Ketrew_configuration -->
<g id="edge24" class="edge"><title>Ketrew_edsl&#45;&gt;Ketrew_configuration</title>
<path fill="none" stroke="black" d="M830.618,-1001.7C716.861,-986.614 444.542,-945.338 374,-888 307.348,-833.824 338.095,-785.477 292,-713 269.249,-677.227 236.994,-640.396 215.326,-617.139"/>
<polygon fill="black" stroke="black" points="217.815,-614.677 208.413,-609.793 212.718,-619.474 217.815,-614.677"/>
</g>
<!-- Ketrew_edsl&#45;&gt;Ketrew_lsf -->
<g id="edge14" class="edge"><title>Ketrew_edsl&#45;&gt;Ketrew_lsf</title>
<path fill="none" stroke="black" d="M886.959,-990.764C894.657,-967.68 907.802,-925.3 914,-888 930.214,-790.418 932.216,-672.508 932.215,-620.228"/>
<polygon fill="black" stroke="black" points="935.715,-620.09 932.189,-610.099 928.715,-620.108 935.715,-620.09"/>
</g>
<!-- Ketrew_edsl&#45;&gt;Ketrew_nohup_setsid -->
<g id="edge15" class="edge"><title>Ketrew_edsl&#45;&gt;Ketrew_nohup_setsid</title>
<path fill="none" stroke="black" d="M903.661,-992.484C933.486,-971.304 986.405,-931.027 1023,-888 1098.77,-798.912 1162.18,-673.517 1187.81,-619.478"/>
<polygon fill="black" stroke="black" points="1191.07,-620.782 1192.15,-610.243 1184.73,-617.805 1191.07,-620.782"/>
</g>
<!-- Ketrew_edsl&#45;&gt;Ketrew_program -->
<g id="edge20" class="edge"><title>Ketrew_edsl&#45;&gt;Ketrew_program</title>
<path fill="none" stroke="black" d="M935.181,-1005.67C1025.06,-999.324 1207.12,-975.732 1329,-888 1509.38,-758.157 1536.22,-682.342 1605,-471 1619.2,-427.368 1617.76,-373.309 1615.11,-341.352"/>
<polygon fill="black" stroke="black" points="1618.56,-340.653 1614.14,-331.023 1611.59,-341.306 1618.56,-340.653"/>
</g>
<!-- Ketrew_lsf&#45;&gt;Ketrew_pervasives -->
<g id="edge32" class="edge"><title>Ketrew_lsf&#45;&gt;Ketrew_pervasives</title>
<path fill="none" stroke="black" d="M943.148,-574.154C982.067,-513.043 1104.92,-299.107 1018,-156 982.312,-97.2439 907.474,-65.9446 852.614,-50.2177"/>
<polygon fill="black" stroke="black" points="853.532,-46.8403 842.961,-47.5507 851.668,-53.5875 853.532,-46.8403"/>
</g>
<!-- Ketrew_lsf&#45;&gt;Ketrew_path -->
<g id="edge31" class="edge"><title>Ketrew_lsf&#45;&gt;Ketrew_path</title>
<path fill="none" stroke="black" d="M935.107,-573.985C939.182,-550.795 946.147,-507.923 949,-471 956.634,-372.214 955.038,-254.347 953.785,-202.161"/>
<polygon fill="black" stroke="black" points="957.281,-201.959 953.526,-192.052 950.283,-202.139 957.281,-201.959"/>
</g>
<!-- Ketrew_lsf&#45;&gt;Ketrew_host -->
<g id="edge35" class="edge"><title>Ketrew_lsf&#45;&gt;Ketrew_host</title>
<path fill="none" stroke="black" d="M937.034,-573.67C944.905,-542.73 956.384,-477.276 927,-435 873.924,-358.636 763.571,-330.401 693.624,-320.005"/>
<polygon fill="black" stroke="black" points="693.999,-316.523 683.609,-318.597 693.024,-323.455 693.999,-316.523"/>
</g>
<!-- Ketrew_lsf&#45;&gt;Ketrew_error -->
<g id="edge29" class="edge"><title>Ketrew_lsf&#45;&gt;Ketrew_error</title>
<path fill="none" stroke="black" d="M952.189,-575.284C983.452,-550.949 1043.69,-504.062 1079.41,-476.253"/>
<polygon fill="black" stroke="black" points="1081.76,-478.859 1087.5,-469.954 1077.46,-473.335 1081.76,-478.859"/>
</g>
<!-- Ketrew_lsf&#45;&gt;Ketrew_long_running -->
<g id="edge34" class="edge"><title>Ketrew_lsf&#45;&gt;Ketrew_long_running</title>
<path fill="none" stroke="black" d="M919.696,-574.475C902.026,-550.74 869.319,-506.811 848.661,-479.065"/>
<polygon fill="black" stroke="black" points="851.446,-476.945 842.667,-471.014 845.832,-481.125 851.446,-476.945"/>
</g>
<!-- Ketrew_lsf&#45;&gt;Ketrew_program -->
<g id="edge33" class="edge"><title>Ketrew_lsf&#45;&gt;Ketrew_program</title>
<path fill="none" stroke="black" d="M978.58,-585.943C1099.79,-572.068 1421.67,-530.442 1509,-471 1556.46,-438.696 1587.37,-376.535 1602.04,-340.886"/>
<polygon fill="black" stroke="black" points="1605.46,-341.743 1605.9,-331.158 1598.96,-339.156 1605.46,-341.743"/>
</g>
<!-- Ketrew_monitored_script -->
<g id="node18" class="node"><title>Ketrew_monitored_script</title>
<ellipse fill="darkturquoise" stroke="darkturquoise" cx="1399" cy="-453" rx="100.945" ry="18"/>
<text text-anchor="middle" x="1399" y="-448.8" font-family="Times,serif" font-size="14.00">Ketrew_monitored_script</text>
</g>
<!-- Ketrew_lsf&#45;&gt;Ketrew_monitored_script -->
<g id="edge30" class="edge"><title>Ketrew_lsf&#45;&gt;Ketrew_monitored_script</title>
<path fill="none" stroke="black" d="M969.427,-580.02C1050.2,-556.325 1241.44,-500.222 1339.2,-471.542"/>
<polygon fill="black" stroke="black" points="1340.33,-474.86 1348.94,-468.687 1338.36,-468.143 1340.33,-474.86"/>
</g>
<!-- Ketrew_nohup_setsid&#45;&gt;Ketrew_pervasives -->
<g id="edge42" class="edge"><title>Ketrew_nohup_setsid&#45;&gt;Ketrew_pervasives</title>
<path fill="none" stroke="black" d="M1277.99,-583.814C1383.69,-570.303 1554.38,-533.024 1509,-435 1388.89,-175.574 1017.11,-78.1263 859.163,-47.7858"/>
<polygon fill="black" stroke="black" points="859.549,-44.297 849.073,-45.8834 858.252,-51.1758 859.549,-44.297"/>
</g>
<!-- Ketrew_nohup_setsid&#45;&gt;Ketrew_path -->
<g id="edge41" class="edge"><title>Ketrew_nohup_setsid&#45;&gt;Ketrew_path</title>
<path fill="none" stroke="black" d="M1204,-573.836C1210.03,-544.253 1218.88,-482.287 1200,-435 1156.28,-325.503 1042.09,-235.731 985.603,-196.418"/>
<polygon fill="black" stroke="black" points="987.278,-193.323 977.053,-190.547 983.315,-199.093 987.278,-193.323"/>
</g>
<!-- Ketrew_nohup_setsid&#45;&gt;Ketrew_host -->
<g id="edge45" class="edge"><title>Ketrew_nohup_setsid&#45;&gt;Ketrew_host</title>
<path fill="none" stroke="black" d="M1202.86,-573.813C1207.12,-541.919 1211.11,-473.338 1175,-435 1109.69,-365.651 822.979,-331.396 694.117,-319.279"/>
<polygon fill="black" stroke="black" points="694.283,-315.779 684.003,-318.343 693.638,-322.749 694.283,-315.779"/>
</g>
<!-- Ketrew_nohup_setsid&#45;&gt;Ketrew_error -->
<g id="edge39" class="edge"><title>Ketrew_nohup_setsid&#45;&gt;Ketrew_error</title>
<path fill="none" stroke="black" d="M1188.53,-573.926C1172.54,-550.107 1143.42,-506.74 1124.92,-479.2"/>
<polygon fill="black" stroke="black" points="1127.8,-477.21 1119.32,-470.859 1121.99,-481.112 1127.8,-477.21"/>
</g>
<!-- Ketrew_nohup_setsid&#45;&gt;Ketrew_long_running -->
<g id="edge44" class="edge"><title>Ketrew_nohup_setsid&#45;&gt;Ketrew_long_running</title>
<path fill="none" stroke="black" d="M1159.35,-575.947C1091.25,-550.735 954.35,-500.043 880.304,-472.626"/>
<polygon fill="black" stroke="black" points="881.315,-469.268 870.722,-469.078 878.885,-475.833 881.315,-469.268"/>
</g>
<!-- Ketrew_nohup_setsid&#45;&gt;Ketrew_program -->
<g id="edge43" class="edge"><title>Ketrew_nohup_setsid&#45;&gt;Ketrew_program</title>
<path fill="none" stroke="black" d="M1285.34,-588.07C1372.35,-580.302 1504.89,-554.422 1580,-471 1612.25,-435.184 1615.5,-375.939 1614.24,-341.381"/>
<polygon fill="black" stroke="black" points="1617.72,-340.892 1613.7,-331.089 1610.73,-341.258 1617.72,-340.892"/>
</g>
<!-- Ketrew_nohup_setsid&#45;&gt;Ketrew_monitored_script -->
<g id="edge40" class="edge"><title>Ketrew_nohup_setsid&#45;&gt;Ketrew_monitored_script</title>
<path fill="none" stroke="black" d="M1224,-574.475C1259.64,-549.943 1326.61,-503.835 1366.57,-476.324"/>
<polygon fill="black" stroke="black" points="1368.66,-479.137 1374.91,-470.584 1364.69,-473.372 1368.66,-479.137"/>
</g>
<!-- Ketrew_program&#45;&gt;Ketrew_pervasives -->
<g id="edge47" class="edge"><title>Ketrew_program&#45;&gt;Ketrew_pervasives</title>
<path fill="none" stroke="black" d="M1607.98,-294.814C1599.34,-261.971 1575.7,-190.498 1527,-156 1422.81,-82.1905 1043.6,-51.0294 872.174,-40.5006"/>
<polygon fill="black" stroke="black" points="872.374,-37.0063 862.181,-39.8957 871.951,-43.9936 872.374,-37.0063"/>
</g>
<!-- Ketrew_unix_process&#45;&gt;Ketrew_pervasives -->
<g id="edge63" class="edge"><title>Ketrew_unix_process&#45;&gt;Ketrew_pervasives</title>
<path fill="none" stroke="black" d="M737.104,-155.926C746.832,-132.544 764.398,-90.325 775.878,-62.7316"/>
<polygon fill="black" stroke="black" points="779.197,-63.8666 779.807,-53.2893 772.734,-61.1776 779.197,-63.8666"/>
</g>
<!-- Ketrew_monitored_script&#45;&gt;Ketrew_pervasives -->
<g id="edge37" class="edge"><title>Ketrew_monitored_script&#45;&gt;Ketrew_pervasives</title>
<path fill="none" stroke="black" d="M1393.2,-434.671C1382.17,-403.712 1355.66,-338.113 1316,-295 1185.26,-152.872 959.523,-79.4905 850.104,-50.7739"/>
<polygon fill="black" stroke="black" points="850.76,-47.3286 840.202,-48.2142 849.008,-54.1058 850.76,-47.3286"/>
</g>
<!-- Ketrew_monitored_script&#45;&gt;Ketrew_path -->
<g id="edge38" class="edge"><title>Ketrew_monitored_script&#45;&gt;Ketrew_path</title>
<path fill="none" stroke="black" d="M1390.76,-434.764C1374.64,-402.766 1335.91,-333.907 1284,-295 1200.55,-232.454 1081.32,-199.977 1011.06,-185.27"/>
<polygon fill="black" stroke="black" points="1011.56,-181.8 1001.06,-183.228 1010.16,-188.658 1011.56,-181.8"/>
</g>
<!-- Ketrew_monitored_script&#45;&gt;Ketrew_program -->
<g id="edge36" class="edge"><title>Ketrew_monitored_script&#45;&gt;Ketrew_program</title>
<path fill="none" stroke="black" d="M1424.69,-435.354C1463.22,-410.39 1535.99,-363.247 1578.59,-335.643"/>
<polygon fill="black" stroke="black" points="1580.72,-338.439 1587.21,-330.064 1576.91,-332.564 1580.72,-338.439"/>
</g>
<!-- Ketrew -->
<g id="node19" class="node"><title>Ketrew</title>
<ellipse fill="darkturquoise" stroke="darkturquoise" cx="795" cy="-1149" rx="36.2645" ry="18"/>
<text text-anchor="middle" x="795" y="-1144.8" font-family="Times,serif" font-size="14.00">Ketrew</text>
</g>
<!-- Ketrew&#45;&gt;Ketrew_artifact -->
<g id="edge78" class="edge"><title>Ketrew&#45;&gt;Ketrew_artifact</title>
<path fill="none" stroke="black" d="M760.506,-1143.16C612.415,-1121.42 38,-1027.04 38,-871 38,-871 38,-871 38,-730 38,-656.183 43.6899,-627.068 95,-574 157.507,-509.352 259.543,-478.497 326.234,-464.536"/>
<polygon fill="black" stroke="black" points="327.108,-467.931 336.216,-462.518 325.72,-461.07 327.108,-467.931"/>
</g>
<!-- Ketrew&#45;&gt;Ketrew_pervasives -->
<g id="edge70" class="edge"><title>Ketrew&#45;&gt;Ketrew_pervasives</title>
<path fill="none" stroke="black" d="M830.849,-1145.99C1009.38,-1135.01 1794,-1075.17 1794,-871 1794,-871 1794,-871 1794,-312 1794,-207.806 1713.46,-199.97 1619,-156 1486.79,-94.4608 1053.97,-55.8729 870.448,-41.9054"/>
<polygon fill="black" stroke="black" points="870.546,-38.4029 860.31,-41.1396 870.018,-45.383 870.546,-38.4029"/>
</g>
<!-- Ketrew&#45;&gt;Ketrew_path -->
<g id="edge71" class="edge"><title>Ketrew&#45;&gt;Ketrew_path</title>
<path fill="none" stroke="black" d="M830.589,-1144.79C960.274,-1132.7 1406.63,-1087.47 1535,-1027 1619.91,-987 1655.2,-973.466 1694,-888 1748.48,-768.01 1777.75,-395.065 1692,-295 1605.36,-193.895 1184.08,-177.761 1019.28,-175.349"/>
<polygon fill="black" stroke="black" points="1018.85,-171.843 1008.8,-175.209 1018.75,-178.843 1018.85,-171.843"/>
</g>
<!-- Ketrew&#45;&gt;Ketrew_host -->
<g id="edge73" class="edge"><title>Ketrew&#45;&gt;Ketrew_host</title>
<path fill="none" stroke="black" d="M758.67,-1148.17C657.797,-1147.2 368.083,-1134.57 161,-1027 72.5823,-981.069 0,-970.636 0,-871 0,-871 0,-871 0,-730 0,-457.162 416.297,-353.094 572.621,-323.633"/>
<polygon fill="black" stroke="black" points="573.338,-327.06 582.534,-321.8 572.064,-320.177 573.338,-327.06"/>
</g>
<!-- Ketrew&#45;&gt;Ketrew_command_line -->
<g id="edge77" class="edge"><title>Ketrew&#45;&gt;Ketrew_command_line</title>
<path fill="none" stroke="black" d="M771.951,-1135.02C729.586,-1111.15 638.985,-1060.12 587.601,-1031.18"/>
<polygon fill="black" stroke="black" points="589.219,-1028.07 578.788,-1026.22 585.784,-1034.17 589.219,-1028.07"/>
</g>
<!-- Ketrew&#45;&gt;Ketrew_error -->
<g id="edge74" class="edge"><title>Ketrew&#45;&gt;Ketrew_error</title>
<path fill="none" stroke="black" d="M822.806,-1137.28C895.391,-1107.28 1085,-1015.12 1085,-871 1085,-871 1085,-871 1085,-730 1085,-638.585 1097.69,-530.724 1104.21,-481.264"/>
<polygon fill="black" stroke="black" points="1107.72,-481.454 1105.58,-471.077 1100.78,-480.522 1107.72,-481.454"/>
</g>
<!-- Ketrew&#45;&gt;Ketrew_state -->
<g id="edge68" class="edge"><title>Ketrew&#45;&gt;Ketrew_state</title>
<path fill="none" stroke="black" d="M788.57,-1131.18C764.05,-1067.02 676.283,-837.395 646.202,-758.692"/>
<polygon fill="black" stroke="black" points="649.35,-757.124 642.51,-749.032 642.811,-759.623 649.35,-757.124"/>
</g>
<!-- Ketrew&#45;&gt;Ketrew_target -->
<g id="edge67" class="edge"><title>Ketrew&#45;&gt;Ketrew_target</title>
<path fill="none" stroke="black" d="M759.494,-1145.55C690.137,-1138.87 535.782,-1114.48 448,-1027 349.15,-928.485 376.937,-834.272 446,-713 467.24,-675.704 500.948,-639.21 523.977,-616.446"/>
<polygon fill="black" stroke="black" points="526.622,-618.756 531.343,-609.271 521.737,-613.741 526.622,-618.756"/>
</g>
<!-- Ketrew&#45;&gt;Ketrew_configuration -->
<g id="edge76" class="edge"><title>Ketrew&#45;&gt;Ketrew_configuration</title>
<path fill="none" stroke="black" d="M759.408,-1145.69C686.42,-1139.2 517.931,-1115.03 414,-1027 279.198,-912.824 216.631,-696.305 198.123,-620.244"/>
<polygon fill="black" stroke="black" points="201.423,-618.992 195.709,-610.07 194.612,-620.608 201.423,-618.992"/>
</g>
<!-- Ketrew&#45;&gt;Ketrew_edsl -->
<g id="edge75" class="edge"><title>Ketrew&#45;&gt;Ketrew_edsl</title>
<path fill="none" stroke="black" d="M805.203,-1131.63C819.994,-1107.89 847.53,-1063.71 865.026,-1035.63"/>
<polygon fill="black" stroke="black" points="868.223,-1037.12 870.542,-1026.78 862.283,-1033.42 868.223,-1037.12"/>
</g>
<!-- Ketrew&#45;&gt;Ketrew_nohup_setsid -->
<g id="edge72" class="edge"><title>Ketrew&#45;&gt;Ketrew_nohup_setsid</title>
<path fill="none" stroke="black" d="M830.16,-1144.47C893.85,-1136.13 1028.25,-1109.26 1099,-1027 1203.82,-905.134 1205.02,-695.186 1201.76,-620.421"/>
<polygon fill="black" stroke="black" points="1205.25,-620.21 1201.25,-610.397 1198.26,-620.56 1205.25,-620.21"/>
</g>
<!-- Ketrew&#45;&gt;Ketrew_program -->
<g id="edge69" class="edge"><title>Ketrew&#45;&gt;Ketrew_program</title>
<path fill="none" stroke="black" d="M830.239,-1144.82C994.839,-1129.01 1680,-1052.32 1680,-871 1680,-871 1680,-871 1680,-591 1680,-496.691 1642.36,-389.394 1623.09,-340.631"/>
<polygon fill="black" stroke="black" points="1626.25,-339.114 1619.28,-331.14 1619.76,-341.724 1626.25,-339.114"/>
</g>
</g>
</svg>
