<?xml version="1.0" encoding="UTF-8" standalone="no"?>
<!DOCTYPE svg PUBLIC "-//W3C//DTD SVG 1.1//EN"
 "http://www.w3.org/Graphics/SVG/1.1/DTD/svg11.dtd">
<!-- Generated by graphviz version 2.38.0 (20140413.2041)
 -->
<!-- Title: G Pages: 1 -->
<svg width="439pt" height="720pt"
 viewBox="0.00 0.00 720.00 439.20" xmlns="http://www.w3.org/2000/svg" xmlns:xlink="http://www.w3.org/1999/xlink">
<g id="graph0" class="graph" transform="scale(0.36 0.36) rotate(-90) translate(-1996 1216)">
<title>G</title>
<polygon fill="white" stroke="none" points="-4,4 -4,-1216 1996,-1216 1996,4 -4,4"/>
<!-- Ketrew_artifact -->
<g id="node1" class="node"><title>Ketrew_artifact</title>
<ellipse fill="darkturquoise" stroke="darkturquoise" cx="648" cy="-463" rx="65.6803" ry="18"/>
<text text-anchor="middle" x="648" y="-458.8" font-family="Times,serif" font-size="14.00">Ketrew_artifact</text>
</g>
<!-- Ketrew_pervasives -->
<g id="node2" class="node"><title>Ketrew_pervasives</title>
<ellipse fill="darkturquoise" stroke="darkturquoise" cx="930" cy="-36" rx="77.7589" ry="18"/>
<text text-anchor="middle" x="930" y="-31.8" font-family="Times,serif" font-size="14.00">Ketrew_pervasives</text>
</g>
<!-- Ketrew_artifact&#45;&gt;Ketrew_pervasives -->
<g id="edge1" class="edge"><title>Ketrew_artifact&#45;&gt;Ketrew_pervasives</title>
<path fill="none" stroke="black" d="M650.23,-444.824C657.891,-387.921 684.564,-206.546 719,-160 758.246,-106.952 827.752,-72.9457 876.224,-54.4338"/>
<polygon fill="black" stroke="black" points="877.471,-57.7044 885.623,-50.937 875.03,-51.1438 877.471,-57.7044"/>
</g>
<!-- Ketrew_path -->
<g id="node3" class="node"><title>Ketrew_path</title>
<ellipse fill="darkturquoise" stroke="darkturquoise" cx="1126" cy="-178" rx="55.5596" ry="18"/>
<text text-anchor="middle" x="1126" y="-173.8" font-family="Times,serif" font-size="14.00">Ketrew_path</text>
</g>
<!-- Ketrew_artifact&#45;&gt;Ketrew_path -->
<g id="edge2" class="edge"><title>Ketrew_artifact&#45;&gt;Ketrew_path</title>
<path fill="none" stroke="black" d="M660.684,-445.331C685.571,-413.634 743.898,-344.168 807,-303 892.676,-247.104 1007.39,-210.308 1073.34,-192.202"/>
<polygon fill="black" stroke="black" points="1074.36,-195.552 1083.1,-189.561 1072.53,-188.795 1074.36,-195.552"/>
</g>
<!-- Ketrew_host -->
<g id="node4" class="node"><title>Ketrew_host</title>
<ellipse fill="darkturquoise" stroke="darkturquoise" cx="871" cy="-321" rx="55.0922" ry="18"/>
<text text-anchor="middle" x="871" y="-316.8" font-family="Times,serif" font-size="14.00">Ketrew_host</text>
</g>
<!-- Ketrew_artifact&#45;&gt;Ketrew_host -->
<g id="edge3" class="edge"><title>Ketrew_artifact&#45;&gt;Ketrew_host</title>
<path fill="none" stroke="black" d="M673.147,-446.212C713.62,-420.804 793.204,-370.841 838.123,-342.64"/>
<polygon fill="black" stroke="black" points="840.015,-345.585 846.623,-337.304 836.293,-339.657 840.015,-345.585"/>
</g>
<!-- Ketrew_path&#45;&gt;Ketrew_pervasives -->
<g id="edge47" class="edge"><title>Ketrew_path&#45;&gt;Ketrew_pervasives</title>
<path fill="none" stroke="black" d="M1103.9,-161.212C1069.01,-136.296 1001.07,-87.7661 961.223,-59.3021"/>
<polygon fill="black" stroke="black" points="963.101,-56.3422 952.929,-53.3778 959.032,-62.0383 963.101,-56.3422"/>
</g>
<!-- Ketrew_host&#45;&gt;Ketrew_pervasives -->
<g id="edge35" class="edge"><title>Ketrew_host&#45;&gt;Ketrew_pervasives</title>
<path fill="none" stroke="black" d="M877.631,-303.036C886.595,-279.417 902.439,-235.112 911,-196 920.944,-150.572 926.005,-96.6237 928.319,-64.6865"/>
<polygon fill="black" stroke="black" points="931.834,-64.5737 929.026,-54.3579 924.851,-64.0954 931.834,-64.5737"/>
</g>
<!-- Ketrew_host&#45;&gt;Ketrew_path -->
<g id="edge36" class="edge"><title>Ketrew_host&#45;&gt;Ketrew_path</title>
<path fill="none" stroke="black" d="M897.808,-305.177C944.008,-279.631 1038.64,-227.306 1090.34,-198.718"/>
<polygon fill="black" stroke="black" points="1092.11,-201.738 1099.17,-193.836 1088.72,-195.612 1092.11,-201.738"/>
</g>
<!-- Ketrew_unix_process -->
<g id="node19" class="node"><title>Ketrew_unix_process</title>
<ellipse fill="darkturquoise" stroke="darkturquoise" cx="815" cy="-178" rx="87.4394" ry="18"/>
<text text-anchor="middle" x="815" y="-173.8" font-family="Times,serif" font-size="14.00">Ketrew_unix_process</text>
</g>
<!-- Ketrew_host&#45;&gt;Ketrew_unix_process -->
<g id="edge34" class="edge"><title>Ketrew_host&#45;&gt;Ketrew_unix_process</title>
<path fill="none" stroke="black" d="M864.245,-302.992C854.617,-278.75 836.858,-234.035 825.504,-205.448"/>
<polygon fill="black" stroke="black" points="828.723,-204.07 821.779,-196.068 822.217,-206.654 828.723,-204.07"/>
</g>
<!-- Ketrew_command_line -->
<g id="node5" class="node"><title>Ketrew_command_line</title>
<ellipse fill="darkturquoise" stroke="darkturquoise" cx="310" cy="-1034" rx="93.2188" ry="18"/>
<text text-anchor="middle" x="310" y="-1029.8" font-family="Times,serif" font-size="14.00">Ketrew_command_line</text>
</g>
<!-- Ketrew_command_line&#45;&gt;Ketrew_artifact -->
<g id="edge4" class="edge"><title>Ketrew_command_line&#45;&gt;Ketrew_artifact</title>
<path fill="none" stroke="black" d="M313.233,-1015.59C325.642,-952.482 375.088,-731.842 484,-588 518.265,-542.746 573.243,-505.866 609.979,-484.419"/>
<polygon fill="black" stroke="black" points="611.967,-487.313 618.902,-479.303 608.486,-481.241 611.967,-487.313"/>
</g>
<!-- Ketrew_command_line&#45;&gt;Ketrew_pervasives -->
<g id="edge10" class="edge"><title>Ketrew_command_line&#45;&gt;Ketrew_pervasives</title>
<path fill="none" stroke="black" d="M282.399,-1016.7C248.251,-995.435 189.984,-955.414 152,-909 56.8342,-792.712 0,-757.264 0,-607 0,-607 0,-607 0,-320 0,-218.169 73.033,-205.767 164,-160 283.076,-100.091 675.931,-59.2933 848.025,-43.8674"/>
<polygon fill="black" stroke="black" points="848.392,-47.3486 858.043,-42.9758 847.772,-40.3762 848.392,-47.3486"/>
</g>
<!-- Ketrew_error -->
<g id="node6" class="node"><title>Ketrew_error</title>
<ellipse fill="darkturquoise" stroke="darkturquoise" cx="430" cy="-463" rx="57.9719" ry="18"/>
<text text-anchor="middle" x="430" y="-458.8" font-family="Times,serif" font-size="14.00">Ketrew_error</text>
</g>
<!-- Ketrew_command_line&#45;&gt;Ketrew_error -->
<g id="edge5" class="edge"><title>Ketrew_command_line&#45;&gt;Ketrew_error</title>
<path fill="none" stroke="black" d="M280.824,-1016.9C247.415,-996.641 194.302,-958.436 171,-909 110.136,-779.875 82.9511,-708.171 160,-588 205.653,-516.796 303.599,-485.934 368.116,-472.947"/>
<polygon fill="black" stroke="black" points="369.011,-476.339 378.17,-471.012 367.689,-469.465 369.011,-476.339"/>
</g>
<!-- Ketrew_server -->
<g id="node7" class="node"><title>Ketrew_server</title>
<ellipse fill="darkturquoise" stroke="darkturquoise" cx="242" cy="-891" rx="62.3148" ry="18"/>
<text text-anchor="middle" x="242" y="-886.8" font-family="Times,serif" font-size="14.00">Ketrew_server</text>
</g>
<!-- Ketrew_command_line&#45;&gt;Ketrew_server -->
<g id="edge6" class="edge"><title>Ketrew_command_line&#45;&gt;Ketrew_server</title>
<path fill="none" stroke="black" d="M301.798,-1015.99C290.106,-991.75 268.542,-947.035 254.755,-918.448"/>
<polygon fill="black" stroke="black" points="257.728,-916.555 250.231,-909.068 251.423,-919.596 257.728,-916.555"/>
</g>
<!-- Ketrew_state -->
<g id="node8" class="node"><title>Ketrew_state</title>
<ellipse fill="darkturquoise" stroke="darkturquoise" cx="918" cy="-749" rx="56.5201" ry="18"/>
<text text-anchor="middle" x="918" y="-744.8" font-family="Times,serif" font-size="14.00">Ketrew_state</text>
</g>
<!-- Ketrew_command_line&#45;&gt;Ketrew_state -->
<g id="edge7" class="edge"><title>Ketrew_command_line&#45;&gt;Ketrew_state</title>
<path fill="none" stroke="black" d="M384.473,-1023.07C475.32,-1008.53 631.318,-975.617 749,-909 811.963,-873.358 869.762,-809.467 898.652,-774.507"/>
<polygon fill="black" stroke="black" points="901.423,-776.648 905.031,-766.686 895.998,-772.224 901.423,-776.648"/>
</g>
<!-- Ketrew_target -->
<g id="node9" class="node"><title>Ketrew_target</title>
<ellipse fill="darkturquoise" stroke="darkturquoise" cx="684" cy="-606" rx="60.5585" ry="18"/>
<text text-anchor="middle" x="684" y="-601.8" font-family="Times,serif" font-size="14.00">Ketrew_target</text>
</g>
<!-- Ketrew_command_line&#45;&gt;Ketrew_target -->
<g id="edge8" class="edge"><title>Ketrew_command_line&#45;&gt;Ketrew_target</title>
<path fill="none" stroke="black" d="M324.892,-1016.04C382.961,-949.894 594.345,-709.12 662.595,-631.381"/>
<polygon fill="black" stroke="black" points="665.504,-633.373 669.471,-623.549 660.243,-628.755 665.504,-633.373"/>
</g>
<!-- Ketrew_user_command -->
<g id="node10" class="node"><title>Ketrew_user_command</title>
<ellipse fill="darkturquoise" stroke="darkturquoise" cx="645" cy="-891" rx="94.6636" ry="18"/>
<text text-anchor="middle" x="645" y="-886.8" font-family="Times,serif" font-size="14.00">Ketrew_user_command</text>
</g>
<!-- Ketrew_command_line&#45;&gt;Ketrew_user_command -->
<g id="edge9" class="edge"><title>Ketrew_command_line&#45;&gt;Ketrew_user_command</title>
<path fill="none" stroke="black" d="M347.131,-1017.37C408.587,-991.505 531.321,-939.847 598.469,-911.585"/>
<polygon fill="black" stroke="black" points="600.099,-914.696 607.959,-907.591 597.384,-908.244 600.099,-914.696"/>
</g>
<!-- Ketrew_configuration -->
<g id="node11" class="node"><title>Ketrew_configuration</title>
<ellipse fill="darkturquoise" stroke="darkturquoise" cx="268" cy="-606" rx="87.9239" ry="18"/>
<text text-anchor="middle" x="268" y="-601.8" font-family="Times,serif" font-size="14.00">Ketrew_configuration</text>
</g>
<!-- Ketrew_command_line&#45;&gt;Ketrew_configuration -->
<g id="edge11" class="edge"><title>Ketrew_command_line&#45;&gt;Ketrew_configuration</title>
<path fill="none" stroke="black" d="M310.549,-1015.75C311.281,-991.8 312.539,-947.113 313,-909 313.194,-893.001 314.339,-888.944 313,-873 305.584,-784.7 284.552,-681.633 274.079,-633.852"/>
<polygon fill="black" stroke="black" points="277.475,-632.996 271.895,-623.99 270.64,-634.51 277.475,-632.996"/>
</g>
<!-- Ketrew_error&#45;&gt;Ketrew_pervasives -->
<g id="edge83" class="edge"><title>Ketrew_error&#45;&gt;Ketrew_pervasives</title>
<path fill="none" stroke="black" d="M430.666,-444.834C432.587,-414.088 440.045,-348.584 469,-303 562.017,-156.561 766.553,-81.8445 869.003,-52.4135"/>
<polygon fill="black" stroke="black" points="870.217,-55.7077 878.891,-49.623 868.316,-48.9709 870.217,-55.7077"/>
</g>
<!-- Ketrew_error&#45;&gt;Ketrew_host -->
<g id="edge84" class="edge"><title>Ketrew_error&#45;&gt;Ketrew_host</title>
<path fill="none" stroke="black" d="M469.136,-449.576C550.022,-423.898 735.379,-365.054 823.189,-337.178"/>
<polygon fill="black" stroke="black" points="824.423,-340.459 832.895,-334.097 822.305,-333.787 824.423,-340.459"/>
</g>
<!-- Ketrew_database -->
<g id="node16" class="node"><title>Ketrew_database</title>
<ellipse fill="darkturquoise" stroke="darkturquoise" cx="579" cy="-321" rx="70.9927" ry="18"/>
<text text-anchor="middle" x="579" y="-316.8" font-family="Times,serif" font-size="14.00">Ketrew_database</text>
</g>
<!-- Ketrew_error&#45;&gt;Ketrew_database -->
<g id="edge85" class="edge"><title>Ketrew_error&#45;&gt;Ketrew_database</title>
<path fill="none" stroke="black" d="M447.384,-445.666C473.598,-421.035 523.393,-374.249 553.652,-345.817"/>
<polygon fill="black" stroke="black" points="556.374,-348.062 561.265,-338.664 551.581,-342.961 556.374,-348.062"/>
</g>
<!-- Ketrew_error&#45;&gt;Ketrew_unix_process -->
<g id="edge82" class="edge"><title>Ketrew_error&#45;&gt;Ketrew_unix_process</title>
<path fill="none" stroke="black" d="M432.987,-444.679C439.402,-412.498 457.428,-343.122 499,-303 565.083,-239.222 667.808,-207.143 738.077,-191.803"/>
<polygon fill="black" stroke="black" points="739.143,-195.155 748.201,-189.66 737.693,-188.307 739.143,-195.155"/>
</g>
<!-- Ketrew_server&#45;&gt;Ketrew_pervasives -->
<g id="edge89" class="edge"><title>Ketrew_server&#45;&gt;Ketrew_pervasives</title>
<path fill="none" stroke="black" d="M226.999,-873.151C179.888,-818.425 38,-639.072 38,-464 38,-464 38,-464 38,-320 38,-150.475 630.759,-69.2772 849.859,-45.0547"/>
<polygon fill="black" stroke="black" points="850.446,-48.5114 860.006,-43.9442 849.685,-41.553 850.446,-48.5114"/>
</g>
<!-- Ketrew_server&#45;&gt;Ketrew_error -->
<g id="edge90" class="edge"><title>Ketrew_server&#45;&gt;Ketrew_error</title>
<path fill="none" stroke="black" d="M234.745,-873.012C211.194,-816.704 140.14,-636.99 171,-588 214.293,-519.274 307.39,-487.801 369.359,-474"/>
<polygon fill="black" stroke="black" points="370.356,-477.366 379.405,-471.856 368.895,-470.52 370.356,-477.366"/>
</g>
<!-- Ketrew_server&#45;&gt;Ketrew_state -->
<g id="edge88" class="edge"><title>Ketrew_server&#45;&gt;Ketrew_state</title>
<path fill="none" stroke="black" d="M290.888,-879.875C413.136,-854.558 731.583,-788.607 861.535,-761.694"/>
<polygon fill="black" stroke="black" points="862.588,-765.05 871.67,-759.595 861.168,-758.196 862.588,-765.05"/>
</g>
<!-- Ketrew_server&#45;&gt;Ketrew_target -->
<g id="edge87" class="edge"><title>Ketrew_server&#45;&gt;Ketrew_target</title>
<path fill="none" stroke="black" d="M266.393,-874.382C341.029,-826.594 566.372,-682.314 651.215,-627.991"/>
<polygon fill="black" stroke="black" points="653.148,-630.91 659.682,-622.57 649.373,-625.015 653.148,-630.91"/>
</g>
<!-- Ketrew_server&#45;&gt;Ketrew_configuration -->
<g id="edge91" class="edge"><title>Ketrew_server&#45;&gt;Ketrew_configuration</title>
<path fill="none" stroke="black" d="M243.587,-872.723C247.958,-825.146 260.197,-691.931 265.499,-634.224"/>
<polygon fill="black" stroke="black" points="269.004,-634.329 266.433,-624.051 262.033,-633.689 269.004,-634.329"/>
</g>
<!-- Ketrew_state&#45;&gt;Ketrew_artifact -->
<g id="edge49" class="edge"><title>Ketrew_state&#45;&gt;Ketrew_artifact</title>
<path fill="none" stroke="black" d="M905.78,-731.398C883.498,-701.526 834.2,-637.243 787,-588 750.95,-550.39 705.227,-511.011 676.282,-486.982"/>
<polygon fill="black" stroke="black" points="678.166,-483.999 668.226,-480.332 673.709,-489.397 678.166,-483.999"/>
</g>
<!-- Ketrew_state&#45;&gt;Ketrew_pervasives -->
<g id="edge55" class="edge"><title>Ketrew_state&#45;&gt;Ketrew_pervasives</title>
<path fill="none" stroke="black" d="M919.259,-730.621C923.449,-671.051 936.566,-469.603 935,-303 934.181,-215.802 931.85,-112.547 930.683,-64.3431"/>
<polygon fill="black" stroke="black" points="934.177,-64.0256 930.433,-54.1142 927.179,-64.1969 934.177,-64.0256"/>
</g>
<!-- Ketrew_state&#45;&gt;Ketrew_path -->
<g id="edge53" class="edge"><title>Ketrew_state&#45;&gt;Ketrew_path</title>
<path fill="none" stroke="black" d="M926.876,-731.042C939.048,-707.428 961.207,-663.131 977,-624 1039.65,-468.777 1097.71,-276.084 1118.19,-206.041"/>
<polygon fill="black" stroke="black" points="1121.61,-206.825 1121.05,-196.245 1114.89,-204.867 1121.61,-206.825"/>
</g>
<!-- Ketrew_state&#45;&gt;Ketrew_host -->
<g id="edge57" class="edge"><title>Ketrew_state&#45;&gt;Ketrew_host</title>
<path fill="none" stroke="black" d="M915.049,-730.881C907.873,-688.607 889.413,-575.815 880,-481 875.431,-434.977 872.99,-381.211 871.847,-349.472"/>
<polygon fill="black" stroke="black" points="875.336,-349.087 871.496,-339.213 868.34,-349.327 875.336,-349.087"/>
</g>
<!-- Ketrew_state&#45;&gt;Ketrew_error -->
<g id="edge51" class="edge"><title>Ketrew_state&#45;&gt;Ketrew_error</title>
<path fill="none" stroke="black" d="M899.816,-731.545C874.159,-708.159 826.099,-663.73 787,-624 771.776,-608.53 771.948,-600.205 754,-588 668.848,-530.095 552.918,-494.226 485.303,-476.787"/>
<polygon fill="black" stroke="black" points="485.836,-473.312 475.282,-474.247 484.115,-480.097 485.836,-473.312"/>
</g>
<!-- Ketrew_state&#45;&gt;Ketrew_target -->
<g id="edge54" class="edge"><title>Ketrew_state&#45;&gt;Ketrew_target</title>
<path fill="none" stroke="black" d="M892.512,-732.642C850.226,-707.162 765.538,-656.132 718.135,-627.569"/>
<polygon fill="black" stroke="black" points="719.828,-624.502 709.456,-622.339 716.215,-630.498 719.828,-624.502"/>
</g>
<!-- Ketrew_state&#45;&gt;Ketrew_configuration -->
<g id="edge59" class="edge"><title>Ketrew_state&#45;&gt;Ketrew_configuration</title>
<path fill="none" stroke="black" d="M872.552,-738.141C760.247,-713.78 469.135,-650.631 336.115,-621.776"/>
<polygon fill="black" stroke="black" points="336.561,-618.291 326.046,-619.592 335.077,-625.132 336.561,-618.291"/>
</g>
<!-- Ketrew_daemonize -->
<g id="node12" class="node"><title>Ketrew_daemonize</title>
<ellipse fill="darkturquoise" stroke="darkturquoise" cx="1361" cy="-606" rx="78.7108" ry="18"/>
<text text-anchor="middle" x="1361" y="-601.8" font-family="Times,serif" font-size="14.00">Ketrew_daemonize</text>
</g>
<!-- Ketrew_state&#45;&gt;Ketrew_daemonize -->
<g id="edge50" class="edge"><title>Ketrew_state&#45;&gt;Ketrew_daemonize</title>
<path fill="none" stroke="black" d="M956.538,-735.734C1035.67,-710.548 1216.63,-652.952 1307.24,-624.112"/>
<polygon fill="black" stroke="black" points="1308.57,-627.362 1317.03,-620.994 1306.44,-620.691 1308.57,-627.362"/>
</g>
<!-- Ketrew_long_running -->
<g id="node15" class="node"><title>Ketrew_long_running</title>
<ellipse fill="darkturquoise" stroke="darkturquoise" cx="1276" cy="-463" rx="88.417" ry="18"/>
<text text-anchor="middle" x="1276" y="-458.8" font-family="Times,serif" font-size="14.00">Ketrew_long_running</text>
</g>
<!-- Ketrew_state&#45;&gt;Ketrew_long_running -->
<g id="edge56" class="edge"><title>Ketrew_state&#45;&gt;Ketrew_long_running</title>
<path fill="none" stroke="black" d="M959.539,-736.664C1015.14,-719.78 1114.37,-683.473 1180,-624 1221.95,-585.988 1251.36,-525.317 1265.8,-490.634"/>
<polygon fill="black" stroke="black" points="1269.13,-491.752 1269.64,-481.169 1262.64,-489.121 1269.13,-491.752"/>
</g>
<!-- Ketrew_state&#45;&gt;Ketrew_database -->
<g id="edge58" class="edge"><title>Ketrew_state&#45;&gt;Ketrew_database</title>
<path fill="none" stroke="black" d="M909.439,-731.027C884.724,-682.962 809.475,-543.06 723,-445 688.214,-405.554 640.678,-367.38 609.906,-344.29"/>
<polygon fill="black" stroke="black" points="611.81,-341.344 601.696,-338.188 607.635,-346.962 611.81,-341.344"/>
</g>
<!-- Ketrew_lsf -->
<g id="node18" class="node"><title>Ketrew_lsf</title>
<ellipse fill="darkturquoise" stroke="darkturquoise" cx="1122" cy="-606" rx="49.2946" ry="18"/>
<text text-anchor="middle" x="1122" y="-601.8" font-family="Times,serif" font-size="14.00">Ketrew_lsf</text>
</g>
<!-- Ketrew_state&#45;&gt;Ketrew_lsf -->
<g id="edge52" class="edge"><title>Ketrew_state&#45;&gt;Ketrew_lsf</title>
<path fill="none" stroke="black" d="M940.611,-732.372C977.414,-706.935 1050.3,-656.556 1091.6,-628.012"/>
<polygon fill="black" stroke="black" points="1093.67,-630.835 1099.91,-622.27 1089.69,-625.076 1093.67,-630.835"/>
</g>
<!-- Ketrew_target&#45;&gt;Ketrew_artifact -->
<g id="edge64" class="edge"><title>Ketrew_target&#45;&gt;Ketrew_artifact</title>
<path fill="none" stroke="black" d="M679.658,-587.992C673.495,-563.855 662.151,-519.426 654.848,-490.823"/>
<polygon fill="black" stroke="black" points="658.223,-489.892 652.358,-481.068 651.441,-491.623 658.223,-489.892"/>
</g>
<!-- Ketrew_target&#45;&gt;Ketrew_pervasives -->
<g id="edge62" class="edge"><title>Ketrew_target&#45;&gt;Ketrew_pervasives</title>
<path fill="none" stroke="black" d="M625.446,-601.375C524.428,-592.064 331.1,-559.251 363,-445 405.101,-294.215 440.694,-248.252 570,-160 659.799,-98.712 782.96,-65.386 859.451,-49.4024"/>
<polygon fill="black" stroke="black" points="860.369,-52.7871 869.464,-47.3534 858.965,-45.9292 860.369,-52.7871"/>
</g>
<!-- Ketrew_target&#45;&gt;Ketrew_path -->
<g id="edge60" class="edge"><title>Ketrew_target&#45;&gt;Ketrew_path</title>
<path fill="none" stroke="black" d="M701.056,-588.561C769.005,-523.072 1020.63,-280.56 1101.09,-203.012"/>
<polygon fill="black" stroke="black" points="1103.98,-205.079 1108.76,-195.619 1099.13,-200.039 1103.98,-205.079"/>
</g>
<!-- Ketrew_target&#45;&gt;Ketrew_host -->
<g id="edge63" class="edge"><title>Ketrew_target&#45;&gt;Ketrew_host</title>
<path fill="none" stroke="black" d="M691.165,-587.931C704.122,-557.866 733.173,-494.016 766,-445 790.704,-408.112 824.95,-369.866 847.525,-346.014"/>
<polygon fill="black" stroke="black" points="850.326,-348.148 854.703,-338.499 845.265,-343.313 850.326,-348.148"/>
</g>
<!-- Ketrew_program -->
<g id="node14" class="node"><title>Ketrew_program</title>
<ellipse fill="darkturquoise" stroke="darkturquoise" cx="1726" cy="-321" rx="70.5254" ry="18"/>
<text text-anchor="middle" x="1726" y="-316.8" font-family="Times,serif" font-size="14.00">Ketrew_program</text>
</g>
<!-- Ketrew_target&#45;&gt;Ketrew_program -->
<g id="edge61" class="edge"><title>Ketrew_target&#45;&gt;Ketrew_program</title>
<path fill="none" stroke="black" d="M721.217,-591.677C803.199,-562.615 1005.85,-492.344 1179,-445 1351.87,-397.732 1559.02,-354.832 1661.73,-334.466"/>
<polygon fill="black" stroke="black" points="1662.5,-337.881 1671.64,-332.508 1661.15,-331.014 1662.5,-337.881"/>
</g>
<!-- Ketrew_user_command&#45;&gt;Ketrew_pervasives -->
<g id="edge68" class="edge"><title>Ketrew_user_command&#45;&gt;Ketrew_pervasives</title>
<path fill="none" stroke="black" d="M626.885,-873.108C572.614,-821.097 411.671,-656.258 356,-481 337.9,-424.02 381.795,-331.118 397,-303 436.876,-229.259 449.692,-205.657 520,-160 623.867,-92.5491 766.252,-60.7922 852.989,-46.8412"/>
<polygon fill="black" stroke="black" points="853.688,-50.2745 863.024,-45.2667 852.603,-43.3591 853.688,-50.2745"/>
</g>
<!-- Ketrew_user_command&#45;&gt;Ketrew_state -->
<g id="edge67" class="edge"><title>Ketrew_user_command&#45;&gt;Ketrew_state</title>
<path fill="none" stroke="black" d="M676.317,-873.94C726.892,-848.004 826.349,-797.001 880.577,-769.191"/>
<polygon fill="black" stroke="black" points="882.216,-772.284 889.517,-764.607 879.021,-766.056 882.216,-772.284"/>
</g>
<!-- Ketrew_user_command&#45;&gt;Ketrew_target -->
<g id="edge66" class="edge"><title>Ketrew_user_command&#45;&gt;Ketrew_target</title>
<path fill="none" stroke="black" d="M647.381,-872.723C653.937,-825.146 672.296,-691.931 680.248,-634.224"/>
<polygon fill="black" stroke="black" points="683.752,-634.435 681.65,-624.051 676.818,-633.479 683.752,-634.435"/>
</g>
<!-- Ketrew_user_command&#45;&gt;Ketrew_database -->
<g id="edge69" class="edge"><title>Ketrew_user_command&#45;&gt;Ketrew_database</title>
<path fill="none" stroke="black" d="M639.71,-872.784C627.051,-830.761 595.028,-719.396 581,-624 571.739,-561.022 574.778,-544.63 573,-481 572.553,-465.006 572.61,-460.995 573,-445 573.803,-412.046 575.815,-374.17 577.289,-349.254"/>
<polygon fill="black" stroke="black" points="580.793,-349.296 577.902,-339.103 573.805,-348.874 580.793,-349.296"/>
</g>
<!-- Ketrew_configuration&#45;&gt;Ketrew_pervasives -->
<g id="edge13" class="edge"><title>Ketrew_configuration&#45;&gt;Ketrew_pervasives</title>
<path fill="none" stroke="black" d="M262.381,-587.803C242.247,-522.578 180.643,-287.707 292,-160 363.228,-78.3137 686.986,-49.9564 844.04,-40.8929"/>
<polygon fill="black" stroke="black" points="844.352,-44.3809 854.139,-40.3234 843.958,-37.392 844.352,-44.3809"/>
</g>
<!-- Ketrew_configuration&#45;&gt;Ketrew_host -->
<g id="edge12" class="edge"><title>Ketrew_configuration&#45;&gt;Ketrew_host</title>
<path fill="none" stroke="black" d="M296.573,-588.882C350.058,-558.967 469.267,-493.492 573,-445 661.614,-403.575 768.126,-361.384 826.797,-338.78"/>
<polygon fill="black" stroke="black" points="828.06,-342.045 836.139,-335.191 825.549,-335.51 828.06,-342.045"/>
</g>
<!-- Ketrew_daemonize&#45;&gt;Ketrew_pervasives -->
<g id="edge17" class="edge"><title>Ketrew_daemonize&#45;&gt;Ketrew_pervasives</title>
<path fill="none" stroke="black" d="M1437.99,-601.779C1527.44,-593.907 1673.84,-567.609 1761,-481 1818.88,-423.482 1841.77,-376.343 1806,-303 1760.76,-210.224 1717.27,-202.041 1623,-160 1418.93,-68.9939 1152.81,-45.2415 1017.4,-39.0977"/>
<polygon fill="black" stroke="black" points="1017.23,-35.5871 1007.09,-38.6525 1016.93,-42.5806 1017.23,-35.5871"/>
</g>
<!-- Ketrew_daemonize&#45;&gt;Ketrew_path -->
<g id="edge16" class="edge"><title>Ketrew_daemonize&#45;&gt;Ketrew_path</title>
<path fill="none" stroke="black" d="M1371.02,-588.036C1387.29,-558.135 1415.68,-494.529 1395,-445 1346.76,-329.465 1221.21,-238.502 1160.23,-199.578"/>
<polygon fill="black" stroke="black" points="1162.05,-196.585 1151.72,-194.216 1158.32,-202.507 1162.05,-196.585"/>
</g>
<!-- Ketrew_daemonize&#45;&gt;Ketrew_host -->
<g id="edge20" class="edge"><title>Ketrew_daemonize&#45;&gt;Ketrew_host</title>
<path fill="none" stroke="black" d="M1369.06,-587.89C1382.76,-556.039 1406.01,-487.078 1373,-445 1318.99,-376.162 1055.95,-340.825 933.693,-327.895"/>
<polygon fill="black" stroke="black" points="934.032,-324.412 923.724,-326.857 933.308,-331.374 934.032,-324.412"/>
</g>
<!-- Ketrew_daemonize&#45;&gt;Ketrew_error -->
<g id="edge14" class="edge"><title>Ketrew_daemonize&#45;&gt;Ketrew_error</title>
<path fill="none" stroke="black" d="M1297.38,-595.364C1126.38,-569.467 658.521,-498.61 490.821,-473.211"/>
<polygon fill="black" stroke="black" points="491.099,-469.714 480.687,-471.677 490.051,-476.635 491.099,-469.714"/>
</g>
<!-- Ketrew_monitored_script -->
<g id="node13" class="node"><title>Ketrew_monitored_script</title>
<ellipse fill="darkturquoise" stroke="darkturquoise" cx="1597" cy="-463" rx="100.945" ry="18"/>
<text text-anchor="middle" x="1597" y="-458.8" font-family="Times,serif" font-size="14.00">Ketrew_monitored_script</text>
</g>
<!-- Ketrew_daemonize&#45;&gt;Ketrew_monitored_script -->
<g id="edge15" class="edge"><title>Ketrew_daemonize&#45;&gt;Ketrew_monitored_script</title>
<path fill="none" stroke="black" d="M1388.07,-588.826C1430.61,-563.41 1513.16,-514.093 1560.77,-485.648"/>
<polygon fill="black" stroke="black" points="1562.73,-488.554 1569.52,-480.42 1559.14,-482.545 1562.73,-488.554"/>
</g>
<!-- Ketrew_daemonize&#45;&gt;Ketrew_program -->
<g id="edge18" class="edge"><title>Ketrew_daemonize&#45;&gt;Ketrew_program</title>
<path fill="none" stroke="black" d="M1439.96,-604.521C1529.42,-599.212 1671.63,-575.305 1740,-481 1768.28,-441.999 1751.69,-382.647 1738.14,-348.568"/>
<polygon fill="black" stroke="black" points="1741.34,-347.142 1734.26,-339.258 1734.87,-349.835 1741.34,-347.142"/>
</g>
<!-- Ketrew_daemonize&#45;&gt;Ketrew_long_running -->
<g id="edge19" class="edge"><title>Ketrew_daemonize&#45;&gt;Ketrew_long_running</title>
<path fill="none" stroke="black" d="M1350.75,-587.992C1336.01,-563.538 1308.71,-518.253 1291.49,-489.702"/>
<polygon fill="black" stroke="black" points="1294.45,-487.825 1286.29,-481.068 1288.45,-491.439 1294.45,-487.825"/>
</g>
<!-- Ketrew_monitored_script&#45;&gt;Ketrew_pervasives -->
<g id="edge45" class="edge"><title>Ketrew_monitored_script&#45;&gt;Ketrew_pervasives</title>
<path fill="none" stroke="black" d="M1592.08,-444.959C1582.15,-413.244 1556.93,-344.614 1514,-303 1361.46,-155.125 1112.13,-79.9581 994.847,-51.2303"/>
<polygon fill="black" stroke="black" points="995.476,-47.7818 984.934,-48.8362 993.833,-54.5861 995.476,-47.7818"/>
</g>
<!-- Ketrew_monitored_script&#45;&gt;Ketrew_path -->
<g id="edge46" class="edge"><title>Ketrew_monitored_script&#45;&gt;Ketrew_path</title>
<path fill="none" stroke="black" d="M1589.12,-444.984C1573.32,-412.695 1534.74,-342.26 1482,-303 1391.25,-235.443 1260.73,-202.582 1185.53,-188.364"/>
<polygon fill="black" stroke="black" points="1185.76,-184.848 1175.3,-186.479 1184.5,-191.732 1185.76,-184.848"/>
</g>
<!-- Ketrew_monitored_script&#45;&gt;Ketrew_program -->
<g id="edge44" class="edge"><title>Ketrew_monitored_script&#45;&gt;Ketrew_program</title>
<path fill="none" stroke="black" d="M1612.56,-445.113C1635.22,-420.517 1677.44,-374.697 1703.5,-346.424"/>
<polygon fill="black" stroke="black" points="1706.18,-348.673 1710.38,-338.947 1701.03,-343.93 1706.18,-348.673"/>
</g>
<!-- Ketrew_program&#45;&gt;Ketrew_pervasives -->
<g id="edge48" class="edge"><title>Ketrew_program&#45;&gt;Ketrew_pervasives</title>
<path fill="none" stroke="black" d="M1716.49,-303.155C1696.72,-269.842 1647.76,-195.688 1585,-160 1487.48,-104.547 1161.86,-62.5272 1009.67,-45.4086"/>
<polygon fill="black" stroke="black" points="1009.79,-41.8998 999.459,-44.2681 1009.01,-48.8565 1009.79,-41.8998"/>
</g>
<!-- Ketrew_long_running&#45;&gt;Ketrew_pervasives -->
<g id="edge86" class="edge"><title>Ketrew_long_running&#45;&gt;Ketrew_pervasives</title>
<path fill="none" stroke="black" d="M1275.91,-444.709C1274.75,-394.596 1264.9,-247.309 1191,-160 1140.5,-100.329 1054.57,-67.6998 995.182,-51.3181"/>
<polygon fill="black" stroke="black" points="996.086,-47.9369 985.521,-48.7314 994.276,-54.6987 996.086,-47.9369"/>
</g>
<!-- Ketrew_database&#45;&gt;Ketrew_pervasives -->
<g id="edge21" class="edge"><title>Ketrew_database&#45;&gt;Ketrew_pervasives</title>
<path fill="none" stroke="black" d="M586.109,-302.918C600.081,-271.114 633.912,-202.228 681,-160 738.447,-108.482 821.381,-73.3069 875.484,-54.1751"/>
<polygon fill="black" stroke="black" points="876.939,-57.375 885.238,-50.7892 874.643,-50.7621 876.939,-57.375"/>
</g>
<!-- Ketrew_edsl -->
<g id="node17" class="node"><title>Ketrew_edsl</title>
<ellipse fill="darkturquoise" stroke="darkturquoise" cx="1003" cy="-1034" rx="54.599" ry="18"/>
<text text-anchor="middle" x="1003" y="-1029.8" font-family="Times,serif" font-size="14.00">Ketrew_edsl</text>
</g>
<!-- Ketrew_edsl&#45;&gt;Ketrew_artifact -->
<g id="edge33" class="edge"><title>Ketrew_edsl&#45;&gt;Ketrew_artifact</title>
<path fill="none" stroke="black" d="M978.796,-1017.67C906.254,-970.077 690.909,-816.46 614,-624 595.951,-578.832 617.274,-522.481 633.364,-490.13"/>
<polygon fill="black" stroke="black" points="636.653,-491.39 638.14,-480.9 630.436,-488.173 636.653,-491.39"/>
</g>
<!-- Ketrew_edsl&#45;&gt;Ketrew_pervasives -->
<g id="edge30" class="edge"><title>Ketrew_edsl&#45;&gt;Ketrew_pervasives</title>
<path fill="none" stroke="black" d="M1057.36,-1031.28C1256.73,-1021.97 1934.19,-962.756 1892,-588 1868.18,-376.463 1867.52,-254.954 1677,-160 1560.93,-102.152 1179.91,-60.3987 1011.4,-44.3021"/>
<polygon fill="black" stroke="black" points="1011.63,-40.8082 1001.34,-43.3478 1010.97,-47.7769 1011.63,-40.8082"/>
</g>
<!-- Ketrew_edsl&#45;&gt;Ketrew_path -->
<g id="edge25" class="edge"><title>Ketrew_edsl&#45;&gt;Ketrew_path</title>
<path fill="none" stroke="black" d="M1030.93,-1018.5C1114.06,-973.534 1359.65,-827.16 1449,-624 1510.7,-483.704 1431.54,-411.205 1323,-303 1276.17,-256.315 1208.72,-218.651 1166.15,-197.549"/>
<polygon fill="black" stroke="black" points="1167.45,-194.292 1156.93,-193.048 1164.38,-200.582 1167.45,-194.292"/>
</g>
<!-- Ketrew_edsl&#45;&gt;Ketrew_host -->
<g id="edge31" class="edge"><title>Ketrew_edsl&#45;&gt;Ketrew_host</title>
<path fill="none" stroke="black" d="M1003.16,-1015.83C1003.31,-969.51 1001.99,-838.247 984,-731 977.492,-692.205 903.182,-433.432 878.74,-348.76"/>
<polygon fill="black" stroke="black" points="882.088,-347.738 875.95,-339.102 875.363,-349.681 882.088,-347.738"/>
</g>
<!-- Ketrew_edsl&#45;&gt;Ketrew_error -->
<g id="edge23" class="edge"><title>Ketrew_edsl&#45;&gt;Ketrew_error</title>
<path fill="none" stroke="black" d="M953.503,-1026.12C846.578,-1010.28 598.981,-968.02 541,-909 424.526,-790.437 424.195,-569.372 428.043,-491.782"/>
<polygon fill="black" stroke="black" points="431.559,-491.586 428.628,-481.405 424.571,-491.192 431.559,-491.586"/>
</g>
<!-- Ketrew_edsl&#45;&gt;Ketrew_state -->
<g id="edge26" class="edge"><title>Ketrew_edsl&#45;&gt;Ketrew_state</title>
<path fill="none" stroke="black" d="M997.811,-1015.72C983.491,-968.048 943.343,-834.376 926.069,-776.865"/>
<polygon fill="black" stroke="black" points="929.35,-775.621 923.121,-767.051 922.646,-777.635 929.35,-775.621"/>
</g>
<!-- Ketrew_edsl&#45;&gt;Ketrew_target -->
<g id="edge28" class="edge"><title>Ketrew_edsl&#45;&gt;Ketrew_target</title>
<path fill="none" stroke="black" d="M993.882,-1016.1C968.013,-968.812 890.72,-832.013 809,-731 778.335,-693.095 737.358,-654.288 710.822,-630.417"/>
<polygon fill="black" stroke="black" points="712.87,-627.553 703.078,-623.506 708.209,-632.776 712.87,-627.553"/>
</g>
<!-- Ketrew_edsl&#45;&gt;Ketrew_user_command -->
<g id="edge27" class="edge"><title>Ketrew_edsl&#45;&gt;Ketrew_user_command</title>
<path fill="none" stroke="black" d="M969.32,-1019.74C905.686,-994.672 767.573,-940.276 693.785,-911.214"/>
<polygon fill="black" stroke="black" points="694.835,-907.866 684.248,-907.458 692.27,-914.379 694.835,-907.866"/>
</g>
<!-- Ketrew_edsl&#45;&gt;Ketrew_configuration -->
<g id="edge32" class="edge"><title>Ketrew_edsl&#45;&gt;Ketrew_configuration</title>
<path fill="none" stroke="black" d="M949.097,-1030.68C853.09,-1024.25 649.312,-1000.05 508,-909 395.211,-836.328 311.968,-692.437 281.105,-633.309"/>
<polygon fill="black" stroke="black" points="284.13,-631.538 276.441,-624.249 277.906,-634.742 284.13,-631.538"/>
</g>
<!-- Ketrew_edsl&#45;&gt;Ketrew_daemonize -->
<g id="edge22" class="edge"><title>Ketrew_edsl&#45;&gt;Ketrew_daemonize</title>
<path fill="none" stroke="black" d="M1016.81,-1016.56C1071.62,-951.352 1273.91,-710.629 1339.98,-632.015"/>
<polygon fill="black" stroke="black" points="1342.89,-633.991 1346.64,-624.083 1337.53,-629.487 1342.89,-633.991"/>
</g>
<!-- Ketrew_edsl&#45;&gt;Ketrew_program -->
<g id="edge29" class="edge"><title>Ketrew_edsl&#45;&gt;Ketrew_program</title>
<path fill="none" stroke="black" d="M1040.95,-1020.82C1173.97,-975.716 1618.66,-803.873 1761,-481 1780.61,-436.51 1758.07,-380.019 1741.16,-347.743"/>
<polygon fill="black" stroke="black" points="1744.22,-346.04 1736.37,-338.927 1738.07,-349.384 1744.22,-346.04"/>
</g>
<!-- Ketrew_edsl&#45;&gt;Ketrew_lsf -->
<g id="edge24" class="edge"><title>Ketrew_edsl&#45;&gt;Ketrew_lsf</title>
<path fill="none" stroke="black" d="M1007.74,-1016.04C1026.02,-950.578 1092.09,-714.079 1114.5,-633.844"/>
<polygon fill="black" stroke="black" points="1117.93,-634.584 1117.25,-624.011 1111.19,-632.701 1117.93,-634.584"/>
</g>
<!-- Ketrew_lsf&#45;&gt;Ketrew_pervasives -->
<g id="edge40" class="edge"><title>Ketrew_lsf&#45;&gt;Ketrew_pervasives</title>
<path fill="none" stroke="black" d="M1117.33,-587.809C1100.94,-528.032 1043.74,-323.937 983,-160 970.449,-126.122 953.61,-88.0582 942.311,-63.369"/>
<polygon fill="black" stroke="black" points="945.49,-61.904 938.127,-54.2852 939.131,-64.8323 945.49,-61.904"/>
</g>
<!-- Ketrew_lsf&#45;&gt;Ketrew_path -->
<g id="edge39" class="edge"><title>Ketrew_lsf&#45;&gt;Ketrew_path</title>
<path fill="none" stroke="black" d="M1124.56,-587.8C1127.98,-563.907 1133.85,-519.286 1136,-481 1141.7,-379.781 1133.09,-259.281 1128.53,-206.292"/>
<polygon fill="black" stroke="black" points="1132,-205.694 1127.63,-196.041 1125.02,-206.31 1132,-205.694"/>
</g>
<!-- Ketrew_lsf&#45;&gt;Ketrew_host -->
<g id="edge43" class="edge"><title>Ketrew_lsf&#45;&gt;Ketrew_host</title>
<path fill="none" stroke="black" d="M1107.42,-588.561C1065.14,-540.888 942.312,-402.403 892.432,-346.164"/>
<polygon fill="black" stroke="black" points="894.874,-343.643 885.62,-338.484 889.637,-348.288 894.874,-343.643"/>
</g>
<!-- Ketrew_lsf&#45;&gt;Ketrew_error -->
<g id="edge37" class="edge"><title>Ketrew_lsf&#45;&gt;Ketrew_error</title>
<path fill="none" stroke="black" d="M1080.01,-596.445C961.289,-572.254 622.997,-503.325 487.323,-475.68"/>
<polygon fill="black" stroke="black" points="487.636,-472.172 477.139,-473.605 486.239,-479.031 487.636,-472.172"/>
</g>
<!-- Ketrew_lsf&#45;&gt;Ketrew_monitored_script -->
<g id="edge38" class="edge"><title>Ketrew_lsf&#45;&gt;Ketrew_monitored_script</title>
<path fill="none" stroke="black" d="M1159.27,-593.936C1241.31,-569.583 1438.1,-511.168 1537.46,-481.674"/>
<polygon fill="black" stroke="black" points="1538.75,-484.941 1547.34,-478.74 1536.76,-478.231 1538.75,-484.941"/>
</g>
<!-- Ketrew_lsf&#45;&gt;Ketrew_program -->
<g id="edge41" class="edge"><title>Ketrew_lsf&#45;&gt;Ketrew_program</title>
<path fill="none" stroke="black" d="M1167.38,-598.463C1298.37,-579.175 1670.14,-521.33 1707,-481 1739.63,-445.292 1736.68,-384.671 1731.44,-349.499"/>
<polygon fill="black" stroke="black" points="1734.87,-348.75 1729.78,-339.456 1727.96,-349.893 1734.87,-348.75"/>
</g>
<!-- Ketrew_lsf&#45;&gt;Ketrew_long_running -->
<g id="edge42" class="edge"><title>Ketrew_lsf&#45;&gt;Ketrew_long_running</title>
<path fill="none" stroke="black" d="M1139.37,-589.1C1166.34,-564.401 1218.48,-516.665 1249.97,-487.833"/>
<polygon fill="black" stroke="black" points="1252.49,-490.27 1257.5,-480.936 1247.76,-485.107 1252.49,-490.27"/>
</g>
<!-- Ketrew_unix_process&#45;&gt;Ketrew_pervasives -->
<g id="edge65" class="edge"><title>Ketrew_unix_process&#45;&gt;Ketrew_pervasives</title>
<path fill="none" stroke="black" d="M828.872,-160.113C848.989,-135.622 886.392,-90.088 909.639,-61.7874"/>
<polygon fill="black" stroke="black" points="912.436,-63.896 916.079,-53.9472 907.027,-59.4528 912.436,-63.896"/>
</g>
<!-- Ketrew -->
<g id="node20" class="node"><title>Ketrew</title>
<ellipse fill="darkturquoise" stroke="darkturquoise" cx="961" cy="-1176" rx="36.2645" ry="18"/>
<text text-anchor="middle" x="961" y="-1171.8" font-family="Times,serif" font-size="14.00">Ketrew</text>
</g>
<!-- Ketrew&#45;&gt;Ketrew_artifact -->
<g id="edge81" class="edge"><title>Ketrew&#45;&gt;Ketrew_artifact</title>
<path fill="none" stroke="black" d="M929.9,-1166.61C848.048,-1142.65 627.039,-1065.33 541,-909 461.09,-763.802 582.426,-559.8 630.12,-489.204"/>
<polygon fill="black" stroke="black" points="633.049,-491.121 635.814,-480.894 627.274,-487.165 633.049,-491.121"/>
</g>
<!-- Ketrew&#45;&gt;Ketrew_pervasives -->
<g id="edge73" class="edge"><title>Ketrew&#45;&gt;Ketrew_pervasives</title>
<path fill="none" stroke="black" d="M996.945,-1172.56C1139.26,-1162.49 1662.75,-1121.37 1812,-1052 1909.06,-1006.88 1992,-999.036 1992,-892 1992,-892 1992,-892 1992,-320 1992,-118.273 1267.5,-56.7178 1015.31,-41.4017"/>
<polygon fill="black" stroke="black" points="1015.29,-37.8943 1005.1,-40.7912 1014.87,-44.8818 1015.29,-37.8943"/>
</g>
<!-- Ketrew&#45;&gt;Ketrew_path -->
<g id="edge74" class="edge"><title>Ketrew&#45;&gt;Ketrew_path</title>
<path fill="none" stroke="black" d="M996.634,-1172.74C1174.09,-1160.54 1954,-1095.35 1954,-892 1954,-892 1954,-892 1954,-748 1954,-539.571 1963.38,-439.657 1806,-303 1714.27,-223.347 1342.27,-192.124 1190.72,-182.549"/>
<polygon fill="black" stroke="black" points="1190.83,-179.049 1180.63,-181.923 1190.4,-186.036 1190.83,-179.049"/>
</g>
<!-- Ketrew&#45;&gt;Ketrew_host -->
<g id="edge75" class="edge"><title>Ketrew&#45;&gt;Ketrew_host</title>
<path fill="none" stroke="black" d="M980.09,-1160.45C1005.6,-1139.67 1049.63,-1098.77 1067,-1052 1072.57,-1037 1068.82,-1031.9 1067,-1016 1036.37,-748.007 918.476,-439.553 881.891,-348.553"/>
<polygon fill="black" stroke="black" points="885.028,-346.974 878.034,-339.016 878.539,-349.598 885.028,-346.974"/>
</g>
<!-- Ketrew&#45;&gt;Ketrew_command_line -->
<g id="edge80" class="edge"><title>Ketrew&#45;&gt;Ketrew_command_line</title>
<path fill="none" stroke="black" d="M928.271,-1167.96C827.34,-1146.26 519.334,-1080.02 379.894,-1050.03"/>
<polygon fill="black" stroke="black" points="380.261,-1046.53 369.749,-1047.85 378.789,-1053.37 380.261,-1046.53"/>
</g>
<!-- Ketrew&#45;&gt;Ketrew_error -->
<g id="edge76" class="edge"><title>Ketrew&#45;&gt;Ketrew_error</title>
<path fill="none" stroke="black" d="M924.719,-1174.71C784.943,-1172.82 283.756,-1158.59 176,-1052 28.8456,-906.435 21.5582,-760.472 136,-588 186.868,-511.339 295.474,-481.957 365.493,-470.774"/>
<polygon fill="black" stroke="black" points="366.17,-474.212 375.533,-469.253 365.121,-467.291 366.17,-474.212"/>
</g>
<!-- Ketrew&#45;&gt;Ketrew_state -->
<g id="edge71" class="edge"><title>Ketrew&#45;&gt;Ketrew_state</title>
<path fill="none" stroke="black" d="M957.356,-1157.98C952.429,-1134.32 943.719,-1090.11 939,-1052 926.518,-951.201 920.914,-830.487 918.917,-777.368"/>
<polygon fill="black" stroke="black" points="922.404,-776.957 918.544,-767.09 915.409,-777.211 922.404,-776.957"/>
</g>
<!-- Ketrew&#45;&gt;Ketrew_target -->
<g id="edge70" class="edge"><title>Ketrew&#45;&gt;Ketrew_target</title>
<path fill="none" stroke="black" d="M952.86,-1158.31C913.722,-1078.06 744.818,-731.711 696.786,-633.218"/>
<polygon fill="black" stroke="black" points="699.804,-631.422 692.275,-623.968 693.513,-634.491 699.804,-631.422"/>
</g>
<!-- Ketrew&#45;&gt;Ketrew_configuration -->
<g id="edge79" class="edge"><title>Ketrew&#45;&gt;Ketrew_configuration</title>
<path fill="none" stroke="black" d="M924.608,-1174.15C788.95,-1170.23 315.013,-1149.67 208,-1052 86.2711,-940.904 206.508,-709.825 252.091,-632.691"/>
<polygon fill="black" stroke="black" points="255.122,-634.443 257.259,-624.066 249.117,-630.846 255.122,-634.443"/>
</g>
<!-- Ketrew&#45;&gt;Ketrew_daemonize -->
<g id="edge78" class="edge"><title>Ketrew&#45;&gt;Ketrew_daemonize</title>
<path fill="none" stroke="black" d="M997.411,-1175.54C1074.57,-1174.47 1254.24,-1159.91 1337,-1052 1435.26,-923.884 1389.27,-708.935 1368.91,-633.856"/>
<polygon fill="black" stroke="black" points="1372.28,-632.908 1366.23,-624.213 1365.54,-634.786 1372.28,-632.908"/>
</g>
<!-- Ketrew&#45;&gt;Ketrew_program -->
<g id="edge72" class="edge"><title>Ketrew&#45;&gt;Ketrew_program</title>
<path fill="none" stroke="black" d="M996.386,-1171.96C1164.91,-1156.51 1878,-1080.06 1878,-892 1878,-892 1878,-892 1878,-605 1878,-497.714 1792.17,-391.865 1749.5,-345.875"/>
<polygon fill="black" stroke="black" points="1751.96,-343.381 1742.56,-338.505 1746.87,-348.183 1751.96,-343.381"/>
</g>
<!-- Ketrew&#45;&gt;Ketrew_edsl -->
<g id="edge77" class="edge"><title>Ketrew&#45;&gt;Ketrew_edsl</title>
<path fill="none" stroke="black" d="M966.066,-1158.11C973.256,-1134.15 986.49,-1090.03 995.01,-1061.63"/>
<polygon fill="black" stroke="black" points="998.395,-1062.53 997.916,-1051.95 991.69,-1060.52 998.395,-1062.53"/>
</g>
</g>
</svg>
