<?xml version="1.0" encoding="UTF-8" standalone="no"?>
<!DOCTYPE svg PUBLIC "-//W3C//DTD SVG 1.1//EN"
 "http://www.w3.org/Graphics/SVG/1.1/DTD/svg11.dtd">
<!-- Generated by graphviz version 2.38.0 (20140413.2041)
 -->
<!-- Title: G Pages: 1 -->
<svg width="451pt" height="720pt"
 viewBox="0.00 0.00 720.00 451.26" xmlns="http://www.w3.org/2000/svg" xmlns:xlink="http://www.w3.org/1999/xlink">
<g id="graph0" class="graph" transform="scale(0.388769 0.388769) rotate(-90) translate(-1848 1156.75)">
<title>G</title>
<polygon fill="white" stroke="none" points="-4,4 -4,-1156.75 1848,-1156.75 1848,4 -4,4"/>
<!-- Ketrew_artifact -->
<g id="node1" class="node"><title>Ketrew_artifact</title>
<ellipse fill="darkturquoise" stroke="darkturquoise" cx="480" cy="-441" rx="65.6803" ry="18"/>
<text text-anchor="middle" x="480" y="-436.8" font-family="Times,serif" font-size="14.00">Ketrew_artifact</text>
</g>
<!-- Ketrew_pervasives -->
<g id="node2" class="node"><title>Ketrew_pervasives</title>
<ellipse fill="darkturquoise" stroke="darkturquoise" cx="707" cy="-34" rx="77.7589" ry="18"/>
<text text-anchor="middle" x="707" y="-29.8" font-family="Times,serif" font-size="14.00">Ketrew_pervasives</text>
</g>
<!-- Ketrew_artifact&#45;&gt;Ketrew_pervasives -->
<g id="edge1" class="edge"><title>Ketrew_artifact&#45;&gt;Ketrew_pervasives</title>
<path fill="none" stroke="black" d="M488.27,-423.124C499.226,-400.539 518.925,-359.132 534,-323 565.247,-248.109 555.303,-221.008 598,-152 620.538,-115.573 655.506,-80.5523 679.732,-58.4767"/>
<polygon fill="black" stroke="black" points="682.089,-61.0643 687.191,-51.7787 677.412,-55.8561 682.089,-61.0643"/>
</g>
<!-- Ketrew_path -->
<g id="node3" class="node"><title>Ketrew_path</title>
<ellipse fill="darkturquoise" stroke="darkturquoise" cx="1043" cy="-170" rx="55.5596" ry="18"/>
<text text-anchor="middle" x="1043" y="-165.8" font-family="Times,serif" font-size="14.00">Ketrew_path</text>
</g>
<!-- Ketrew_artifact&#45;&gt;Ketrew_path -->
<g id="edge2" class="edge"><title>Ketrew_artifact&#45;&gt;Ketrew_path</title>
<path fill="none" stroke="black" d="M496.126,-423.255C526.941,-392.159 597.506,-325.192 669,-287 773.873,-230.976 910.014,-197.359 985.75,-181.682"/>
<polygon fill="black" stroke="black" points="986.478,-185.106 995.577,-179.678 985.08,-178.247 986.478,-185.106"/>
</g>
<!-- Ketrew_host -->
<g id="node4" class="node"><title>Ketrew_host</title>
<ellipse fill="darkturquoise" stroke="darkturquoise" cx="733" cy="-305" rx="55.0922" ry="18"/>
<text text-anchor="middle" x="733" y="-300.8" font-family="Times,serif" font-size="14.00">Ketrew_host</text>
</g>
<!-- Ketrew_artifact&#45;&gt;Ketrew_host -->
<g id="edge3" class="edge"><title>Ketrew_artifact&#45;&gt;Ketrew_host</title>
<path fill="none" stroke="black" d="M509.022,-424.628C555.21,-400.165 645.389,-352.403 696.097,-325.545"/>
<polygon fill="black" stroke="black" points="697.888,-328.557 705.087,-320.784 694.612,-322.371 697.888,-328.557"/>
</g>
<!-- Ketrew_path&#45;&gt;Ketrew_pervasives -->
<g id="edge46" class="edge"><title>Ketrew_path&#45;&gt;Ketrew_pervasives</title>
<path fill="none" stroke="black" d="M1009.24,-155.538C948.971,-131.5 822.726,-81.1524 754.007,-53.7466"/>
<polygon fill="black" stroke="black" points="754.885,-50.3289 744.3,-49.8755 752.292,-56.8309 754.885,-50.3289"/>
</g>
<!-- Ketrew_host&#45;&gt;Ketrew_pervasives -->
<g id="edge27" class="edge"><title>Ketrew_host&#45;&gt;Ketrew_pervasives</title>
<path fill="none" stroke="black" d="M720.31,-287.478C704.663,-265.962 678.925,-226.534 669,-188 657.543,-143.516 677.442,-91.5972 692.507,-61.1126"/>
<polygon fill="black" stroke="black" points="695.729,-62.4994 697.182,-52.0047 689.502,-59.3026 695.729,-62.4994"/>
</g>
<!-- Ketrew_host&#45;&gt;Ketrew_path -->
<g id="edge28" class="edge"><title>Ketrew_host&#45;&gt;Ketrew_path</title>
<path fill="none" stroke="black" d="M765.008,-290.268C821.511,-266.026 938.87,-215.675 1001.5,-188.803"/>
<polygon fill="black" stroke="black" points="1002.89,-192.016 1010.7,-184.857 1000.13,-185.583 1002.89,-192.016"/>
</g>
<!-- Ketrew_unix_process -->
<g id="node17" class="node"><title>Ketrew_unix_process</title>
<ellipse fill="darkturquoise" stroke="darkturquoise" cx="765" cy="-170" rx="87.4394" ry="18"/>
<text text-anchor="middle" x="765" y="-165.8" font-family="Times,serif" font-size="14.00">Ketrew_unix_process</text>
</g>
<!-- Ketrew_host&#45;&gt;Ketrew_unix_process -->
<g id="edge26" class="edge"><title>Ketrew_host&#45;&gt;Ketrew_unix_process</title>
<path fill="none" stroke="black" d="M737.118,-286.885C742.542,-264.34 752.141,-224.446 758.537,-197.861"/>
<polygon fill="black" stroke="black" points="761.961,-198.591 760.898,-188.049 755.156,-196.953 761.961,-198.591"/>
</g>
<!-- Ketrew_command_line -->
<g id="node5" class="node"><title>Ketrew_command_line</title>
<ellipse fill="darkturquoise" stroke="darkturquoise" cx="518" cy="-983" rx="93.2188" ry="18"/>
<text text-anchor="middle" x="518" y="-978.8" font-family="Times,serif" font-size="14.00">Ketrew_command_line</text>
</g>
<!-- Ketrew_command_line&#45;&gt;Ketrew_pervasives -->
<g id="edge8" class="edge"><title>Ketrew_command_line&#45;&gt;Ketrew_pervasives</title>
<path fill="none" stroke="black" d="M438.199,-973.697C301.709,-954.605 38,-894.263 38,-713 38,-713 38,-713 38,-304 38,-207.831 107.656,-198.201 192,-152 330.469,-76.1509 515.667,-49.4041 622.081,-40.0207"/>
<polygon fill="black" stroke="black" points="622.462,-43.5011 632.129,-39.1658 621.868,-36.5263 622.462,-43.5011"/>
</g>
<!-- Ketrew_error -->
<g id="node6" class="node"><title>Ketrew_error</title>
<ellipse fill="darkturquoise" stroke="darkturquoise" cx="774" cy="-441" rx="57.9719" ry="18"/>
<text text-anchor="middle" x="774" y="-436.8" font-family="Times,serif" font-size="14.00">Ketrew_error</text>
</g>
<!-- Ketrew_command_line&#45;&gt;Ketrew_error -->
<g id="edge4" class="edge"><title>Ketrew_command_line&#45;&gt;Ketrew_error</title>
<path fill="none" stroke="black" d="M535.643,-965.145C557.542,-943.592 595.153,-904.442 621,-866 696.192,-754.165 716.329,-723.095 755,-594 767.697,-551.613 771.916,-500.116 773.313,-469.257"/>
<polygon fill="black" stroke="black" points="776.811,-469.378 773.699,-459.251 769.816,-469.108 776.811,-469.378"/>
</g>
<!-- Ketrew_state -->
<g id="node7" class="node"><title>Ketrew_state</title>
<ellipse fill="darkturquoise" stroke="darkturquoise" cx="621" cy="-712" rx="56.5201" ry="18"/>
<text text-anchor="middle" x="621" y="-707.8" font-family="Times,serif" font-size="14.00">Ketrew_state</text>
</g>
<!-- Ketrew_command_line&#45;&gt;Ketrew_state -->
<g id="edge5" class="edge"><title>Ketrew_command_line&#45;&gt;Ketrew_state</title>
<path fill="none" stroke="black" d="M534.48,-965.211C554.175,-944.028 586.421,-905.561 602,-866 618.406,-824.34 621.484,-771.797 621.647,-740.382"/>
<polygon fill="black" stroke="black" points="625.146,-740.187 621.6,-730.203 618.146,-740.219 625.146,-740.187"/>
</g>
<!-- Ketrew_target -->
<g id="node8" class="node"><title>Ketrew_target</title>
<ellipse fill="darkturquoise" stroke="darkturquoise" cx="663" cy="-576" rx="60.5585" ry="18"/>
<text text-anchor="middle" x="663" y="-571.8" font-family="Times,serif" font-size="14.00">Ketrew_target</text>
</g>
<!-- Ketrew_command_line&#45;&gt;Ketrew_target -->
<g id="edge6" class="edge"><title>Ketrew_command_line&#45;&gt;Ketrew_target</title>
<path fill="none" stroke="black" d="M487.607,-965.984C443.583,-940.435 369.836,-887.448 394,-830 440.91,-718.473 564.842,-633.888 626.745,-597.13"/>
<polygon fill="black" stroke="black" points="628.55,-600.129 635.412,-592.057 625.014,-594.088 628.55,-600.129"/>
</g>
<!-- Ketrew_user_command -->
<g id="node9" class="node"><title>Ketrew_user_command</title>
<ellipse fill="darkturquoise" stroke="darkturquoise" cx="498" cy="-848" rx="94.6636" ry="18"/>
<text text-anchor="middle" x="498" y="-843.8" font-family="Times,serif" font-size="14.00">Ketrew_user_command</text>
</g>
<!-- Ketrew_command_line&#45;&gt;Ketrew_user_command -->
<g id="edge7" class="edge"><title>Ketrew_command_line&#45;&gt;Ketrew_user_command</title>
<path fill="none" stroke="black" d="M515.426,-964.885C512.051,-942.44 506.09,-902.799 502.092,-876.215"/>
<polygon fill="black" stroke="black" points="505.512,-875.418 500.564,-866.049 498.59,-876.459 505.512,-875.418"/>
</g>
<!-- Ketrew_long_running -->
<g id="node10" class="node"><title>Ketrew_long_running</title>
<ellipse fill="darkturquoise" stroke="darkturquoise" cx="1166" cy="-441" rx="88.417" ry="18"/>
<text text-anchor="middle" x="1166" y="-436.8" font-family="Times,serif" font-size="14.00">Ketrew_long_running</text>
</g>
<!-- Ketrew_command_line&#45;&gt;Ketrew_long_running -->
<g id="edge9" class="edge"><title>Ketrew_command_line&#45;&gt;Ketrew_long_running</title>
<path fill="none" stroke="black" d="M563.252,-967.248C678.219,-927.306 982.961,-805.594 1132,-594 1158.44,-556.461 1164.76,-501.846 1166.02,-469.324"/>
<polygon fill="black" stroke="black" points="1169.53,-469.284 1166.28,-459.199 1162.53,-469.107 1169.53,-469.284"/>
</g>
<!-- Ketrew_configuration -->
<g id="node11" class="node"><title>Ketrew_configuration</title>
<ellipse fill="darkturquoise" stroke="darkturquoise" cx="192" cy="-576" rx="87.9239" ry="18"/>
<text text-anchor="middle" x="192" y="-571.8" font-family="Times,serif" font-size="14.00">Ketrew_configuration</text>
</g>
<!-- Ketrew_command_line&#45;&gt;Ketrew_configuration -->
<g id="edge10" class="edge"><title>Ketrew_command_line&#45;&gt;Ketrew_configuration</title>
<path fill="none" stroke="black" d="M479.553,-966.444C437.06,-947.722 368.608,-912.859 323,-866 247.559,-788.491 210.78,-659.872 197.735,-604.138"/>
<polygon fill="black" stroke="black" points="201.13,-603.282 195.505,-594.304 194.304,-604.83 201.13,-603.282"/>
</g>
<!-- Ketrew_error&#45;&gt;Ketrew_pervasives -->
<g id="edge81" class="edge"><title>Ketrew_error&#45;&gt;Ketrew_pervasives</title>
<path fill="none" stroke="black" d="M787.371,-423.36C822.093,-377.999 909.168,-249.088 861,-152 838.37,-106.386 788.511,-73.757 751.623,-54.7352"/>
<polygon fill="black" stroke="black" points="753.058,-51.5394 742.549,-50.1927 749.924,-57.7989 753.058,-51.5394"/>
</g>
<!-- Ketrew_error&#45;&gt;Ketrew_host -->
<g id="edge82" class="edge"><title>Ketrew_error&#45;&gt;Ketrew_host</title>
<path fill="none" stroke="black" d="M768.807,-423.029C761.852,-400.298 749.436,-359.718 741.208,-332.827"/>
<polygon fill="black" stroke="black" points="744.553,-331.795 738.28,-323.257 737.859,-333.843 744.553,-331.795"/>
</g>
<!-- Ketrew_database -->
<g id="node12" class="node"><title>Ketrew_database</title>
<ellipse fill="darkturquoise" stroke="darkturquoise" cx="454" cy="-305" rx="70.9927" ry="18"/>
<text text-anchor="middle" x="454" y="-300.8" font-family="Times,serif" font-size="14.00">Ketrew_database</text>
</g>
<!-- Ketrew_error&#45;&gt;Ketrew_database -->
<g id="edge83" class="edge"><title>Ketrew_error&#45;&gt;Ketrew_database</title>
<path fill="none" stroke="black" d="M740.96,-426.164C683.242,-401.995 564.006,-352.065 498.873,-324.791"/>
<polygon fill="black" stroke="black" points="499.862,-321.41 489.286,-320.776 497.158,-327.867 499.862,-321.41"/>
</g>
<!-- Ketrew_state&#45;&gt;Ketrew_artifact -->
<g id="edge48" class="edge"><title>Ketrew_state&#45;&gt;Ketrew_artifact</title>
<path fill="none" stroke="black" d="M612.18,-694.173C588.349,-648.709 522.535,-523.148 493.763,-468.258"/>
<polygon fill="black" stroke="black" points="496.741,-466.399 488.998,-459.167 490.541,-469.649 496.741,-466.399"/>
</g>
<!-- Ketrew_state&#45;&gt;Ketrew_pervasives -->
<g id="edge54" class="edge"><title>Ketrew_state&#45;&gt;Ketrew_pervasives</title>
<path fill="none" stroke="black" d="M592.404,-696.329C557.085,-676.993 497.028,-639.985 459,-594 368.775,-484.896 317.052,-416.619 374,-287 428.185,-163.67 579.133,-86.6164 657.84,-53.6325"/>
<polygon fill="black" stroke="black" points="659.615,-56.6865 667.529,-49.6421 656.95,-50.214 659.615,-56.6865"/>
</g>
<!-- Ketrew_state&#45;&gt;Ketrew_path -->
<g id="edge52" class="edge"><title>Ketrew_state&#45;&gt;Ketrew_path</title>
<path fill="none" stroke="black" d="M642.464,-695.054C670.256,-673.81 719.349,-634.209 755,-594 876.875,-456.545 989.761,-265.173 1028.67,-196.659"/>
<polygon fill="black" stroke="black" points="1031.79,-198.253 1033.66,-187.825 1025.69,-194.809 1031.79,-198.253"/>
</g>
<!-- Ketrew_state&#45;&gt;Ketrew_host -->
<g id="edge56" class="edge"><title>Ketrew_state&#45;&gt;Ketrew_host</title>
<path fill="none" stroke="black" d="M613.164,-693.875C601.196,-665.434 580.959,-606.762 593,-558 615.552,-466.668 680.464,-373.598 713.372,-330.581"/>
<polygon fill="black" stroke="black" points="716.15,-332.71 719.505,-322.661 710.615,-328.425 716.15,-332.71"/>
</g>
<!-- Ketrew_state&#45;&gt;Ketrew_error -->
<g id="edge49" class="edge"><title>Ketrew_state&#45;&gt;Ketrew_error</title>
<path fill="none" stroke="black" d="M641.588,-695.083C666.85,-674.461 709.241,-636.127 733,-594 755.58,-553.964 766.187,-500.934 770.807,-469.259"/>
<polygon fill="black" stroke="black" points="774.322,-469.383 772.201,-459.003 767.386,-468.44 774.322,-469.383"/>
</g>
<!-- Ketrew_state&#45;&gt;Ketrew_target -->
<g id="edge53" class="edge"><title>Ketrew_state&#45;&gt;Ketrew_target</title>
<path fill="none" stroke="black" d="M626.319,-694.029C633.444,-671.298 646.163,-630.718 654.592,-603.827"/>
<polygon fill="black" stroke="black" points="657.94,-604.846 657.591,-594.257 651.26,-602.752 657.94,-604.846"/>
</g>
<!-- Ketrew_state&#45;&gt;Ketrew_long_running -->
<g id="edge55" class="edge"><title>Ketrew_state&#45;&gt;Ketrew_long_running</title>
<path fill="none" stroke="black" d="M672.912,-704.454C783.806,-689.535 1039.01,-649.926 1104,-594 1141.43,-561.793 1156.59,-503.563 1162.49,-469.283"/>
<polygon fill="black" stroke="black" points="1166,-469.479 1164.09,-459.058 1159.08,-468.394 1166,-469.479"/>
</g>
<!-- Ketrew_state&#45;&gt;Ketrew_configuration -->
<g id="edge58" class="edge"><title>Ketrew_state&#45;&gt;Ketrew_configuration</title>
<path fill="none" stroke="black" d="M581.792,-698.753C505.234,-674.84 335.664,-621.874 247.567,-594.357"/>
<polygon fill="black" stroke="black" points="248.601,-591.013 238.012,-591.372 246.514,-597.695 248.601,-591.013"/>
</g>
<!-- Ketrew_state&#45;&gt;Ketrew_database -->
<g id="edge57" class="edge"><title>Ketrew_state&#45;&gt;Ketrew_database</title>
<path fill="none" stroke="black" d="M599.56,-695.079C553.237,-659.166 444.784,-566.545 405,-459 388.618,-414.716 415.33,-362.094 435.305,-331.527"/>
<polygon fill="black" stroke="black" points="438.269,-333.392 440.975,-323.149 432.472,-329.469 438.269,-333.392"/>
</g>
<!-- Ketrew_lsf -->
<g id="node14" class="node"><title>Ketrew_lsf</title>
<ellipse fill="darkturquoise" stroke="darkturquoise" cx="1046" cy="-576" rx="49.2946" ry="18"/>
<text text-anchor="middle" x="1046" y="-571.8" font-family="Times,serif" font-size="14.00">Ketrew_lsf</text>
</g>
<!-- Ketrew_state&#45;&gt;Ketrew_lsf -->
<g id="edge50" class="edge"><title>Ketrew_state&#45;&gt;Ketrew_lsf</title>
<path fill="none" stroke="black" d="M659.843,-698.753C738.41,-673.981 915.857,-618.033 1000.03,-591.494"/>
<polygon fill="black" stroke="black" points="1001.34,-594.752 1009.82,-588.407 999.232,-588.076 1001.34,-594.752"/>
</g>
<!-- Ketrew_nohup_setsid -->
<g id="node15" class="node"><title>Ketrew_nohup_setsid</title>
<ellipse fill="darkturquoise" stroke="darkturquoise" cx="1435" cy="-576" rx="87.4567" ry="18"/>
<text text-anchor="middle" x="1435" y="-571.8" font-family="Times,serif" font-size="14.00">Ketrew_nohup_setsid</text>
</g>
<!-- Ketrew_state&#45;&gt;Ketrew_nohup_setsid -->
<g id="edge51" class="edge"><title>Ketrew_state&#45;&gt;Ketrew_nohup_setsid</title>
<path fill="none" stroke="black" d="M670.086,-702.919C807.03,-680.376 1194.01,-616.672 1358.98,-589.515"/>
<polygon fill="black" stroke="black" points="1359.74,-592.936 1369.04,-587.858 1358.61,-586.029 1359.74,-592.936"/>
</g>
<!-- Ketrew_target&#45;&gt;Ketrew_artifact -->
<g id="edge63" class="edge"><title>Ketrew_target&#45;&gt;Ketrew_artifact</title>
<path fill="none" stroke="black" d="M640.926,-558.957C608.363,-535.291 547.342,-490.942 510.516,-464.178"/>
<polygon fill="black" stroke="black" points="512.299,-461.148 502.152,-458.1 508.184,-466.81 512.299,-461.148"/>
</g>
<!-- Ketrew_target&#45;&gt;Ketrew_pervasives -->
<g id="edge61" class="edge"><title>Ketrew_target&#45;&gt;Ketrew_pervasives</title>
<path fill="none" stroke="black" d="M660.713,-557.871C653.473,-500.082 633.176,-307.238 662,-152 668.014,-119.61 682.65,-84.6162 693.608,-61.4232"/>
<polygon fill="black" stroke="black" points="696.843,-62.7743 698.044,-52.2478 690.54,-59.7277 696.843,-62.7743"/>
</g>
<!-- Ketrew_target&#45;&gt;Ketrew_path -->
<g id="edge59" class="edge"><title>Ketrew_target&#45;&gt;Ketrew_path</title>
<path fill="none" stroke="black" d="M664.4,-557.994C667.57,-528.21 677.488,-465.72 707,-423 785.93,-308.743 933.381,-225.018 1003.72,-189.632"/>
<polygon fill="black" stroke="black" points="1005.32,-192.746 1012.71,-185.16 1002.2,-186.478 1005.32,-192.746"/>
</g>
<!-- Ketrew_target&#45;&gt;Ketrew_host -->
<g id="edge62" class="edge"><title>Ketrew_target&#45;&gt;Ketrew_host</title>
<path fill="none" stroke="black" d="M662.077,-557.76C661.024,-529.18 660.89,-470.433 674,-423 683.215,-389.66 702.297,-354.65 716.274,-331.715"/>
<polygon fill="black" stroke="black" points="719.411,-333.299 721.722,-322.959 713.468,-329.601 719.411,-333.299"/>
</g>
<!-- Ketrew_program -->
<g id="node16" class="node"><title>Ketrew_program</title>
<ellipse fill="darkturquoise" stroke="darkturquoise" cx="1571" cy="-305" rx="70.5254" ry="18"/>
<text text-anchor="middle" x="1571" y="-300.8" font-family="Times,serif" font-size="14.00">Ketrew_program</text>
</g>
<!-- Ketrew_target&#45;&gt;Ketrew_program -->
<g id="edge60" class="edge"><title>Ketrew_target&#45;&gt;Ketrew_program</title>
<path fill="none" stroke="black" d="M696.183,-560.901C764.821,-532.112 927.795,-465.692 1069,-423 1223.71,-376.225 1409.98,-337.215 1506.28,-318.295"/>
<polygon fill="black" stroke="black" points="1507.02,-321.717 1516.16,-316.362 1505.68,-314.847 1507.02,-321.717"/>
</g>
<!-- Ketrew_user_command&#45;&gt;Ketrew_pervasives -->
<g id="edge67" class="edge"><title>Ketrew_user_command&#45;&gt;Ketrew_pervasives</title>
<path fill="none" stroke="black" d="M487.071,-829.91C444.561,-761.248 295.611,-498.982 358,-287 378.153,-218.524 390.829,-198.483 445,-152 504.771,-100.711 590.646,-68.1476 647.584,-50.7424"/>
<polygon fill="black" stroke="black" points="648.589,-54.0951 657.164,-47.8732 646.581,-47.3893 648.589,-54.0951"/>
</g>
<!-- Ketrew_user_command&#45;&gt;Ketrew_state -->
<g id="edge66" class="edge"><title>Ketrew_user_command&#45;&gt;Ketrew_state</title>
<path fill="none" stroke="black" d="M513.578,-830.029C535.23,-806.441 574.524,-763.632 599.113,-736.845"/>
<polygon fill="black" stroke="black" points="601.749,-739.148 605.933,-729.414 596.592,-734.414 601.749,-739.148"/>
</g>
<!-- Ketrew_user_command&#45;&gt;Ketrew_target -->
<g id="edge65" class="edge"><title>Ketrew_user_command&#45;&gt;Ketrew_target</title>
<path fill="none" stroke="black" d="M502.023,-829.96C509.437,-800.634 527.099,-739.403 555,-694 577.365,-657.605 612.082,-622.516 636.09,-600.419"/>
<polygon fill="black" stroke="black" points="638.73,-602.749 643.788,-593.44 634.028,-597.563 638.73,-602.749"/>
</g>
<!-- Ketrew_user_command&#45;&gt;Ketrew_database -->
<g id="edge68" class="edge"><title>Ketrew_user_command&#45;&gt;Ketrew_database</title>
<path fill="none" stroke="black" d="M491.809,-829.913C472.728,-776.227 414.972,-605.785 396,-459 393.949,-443.132 392.351,-438.578 396,-423 403.863,-389.437 422.846,-354.468 436.966,-331.605"/>
<polygon fill="black" stroke="black" points="440.098,-333.201 442.484,-322.879 434.181,-329.46 440.098,-333.201"/>
</g>
<!-- Ketrew_long_running&#45;&gt;Ketrew_pervasives -->
<g id="edge84" class="edge"><title>Ketrew_long_running&#45;&gt;Ketrew_pervasives</title>
<path fill="none" stroke="black" d="M1168.11,-422.736C1173.1,-373.469 1180.27,-230.704 1108,-152 1027.86,-64.7308 886.691,-41.1977 795.026,-35.5927"/>
<polygon fill="black" stroke="black" points="795.109,-32.0921 784.931,-35.0356 794.723,-39.0815 795.109,-32.0921"/>
</g>
<!-- Ketrew_configuration&#45;&gt;Ketrew_pervasives -->
<g id="edge11" class="edge"><title>Ketrew_configuration&#45;&gt;Ketrew_pervasives</title>
<path fill="none" stroke="black" d="M186.831,-557.914C168.99,-495.156 116.571,-274.657 220,-152 271.728,-90.6563 501.993,-56.9514 626.479,-42.9173"/>
<polygon fill="black" stroke="black" points="627.168,-46.3624 636.72,-41.7801 626.395,-39.4051 627.168,-46.3624"/>
</g>
<!-- Ketrew_database&#45;&gt;Ketrew_pervasives -->
<g id="edge12" class="edge"><title>Ketrew_database&#45;&gt;Ketrew_pervasives</title>
<path fill="none" stroke="black" d="M462.709,-286.7C478.187,-257.006 512.678,-195.353 553,-152 589.001,-113.293 638.963,-77.9457 672.101,-56.464"/>
<polygon fill="black" stroke="black" points="674.027,-59.3864 680.559,-51.0447 670.251,-53.4923 674.027,-59.3864"/>
</g>
<!-- Ketrew_edsl -->
<g id="node13" class="node"><title>Ketrew_edsl</title>
<ellipse fill="darkturquoise" stroke="darkturquoise" cx="982" cy="-983" rx="54.599" ry="18"/>
<text text-anchor="middle" x="982" y="-978.8" font-family="Times,serif" font-size="14.00">Ketrew_edsl</text>
</g>
<!-- Ketrew_edsl&#45;&gt;Ketrew_artifact -->
<g id="edge25" class="edge"><title>Ketrew_edsl&#45;&gt;Ketrew_artifact</title>
<path fill="none" stroke="black" d="M942.432,-970.361C857.376,-943.216 656.622,-867.362 555,-730 495.059,-648.979 482.92,-524.22 480.537,-469.415"/>
<polygon fill="black" stroke="black" points="484.024,-468.991 480.171,-459.121 477.028,-469.239 484.024,-468.991"/>
</g>
<!-- Ketrew_edsl&#45;&gt;Ketrew_pervasives -->
<g id="edge21" class="edge"><title>Ketrew_edsl&#45;&gt;Ketrew_pervasives</title>
<path fill="none" stroke="black" d="M1032.37,-975.718C1113.76,-963.924 1277.37,-933.327 1399,-866 1650.11,-726.998 1789.72,-554.229 1685,-287 1655.17,-210.866 1632.53,-189.765 1560,-152 1427.37,-82.9407 981.059,-50.3634 792.367,-39.4248"/>
<polygon fill="black" stroke="black" points="792.401,-35.9211 782.217,-38.8429 792,-42.9096 792.401,-35.9211"/>
</g>
<!-- Ketrew_edsl&#45;&gt;Ketrew_path -->
<g id="edge16" class="edge"><title>Ketrew_edsl&#45;&gt;Ketrew_path</title>
<path fill="none" stroke="black" d="M1022.77,-970.755C1112.67,-943.205 1320,-863.367 1320,-713 1320,-713 1320,-713 1320,-440 1320,-311.107 1163.74,-224.084 1085.95,-188.746"/>
<polygon fill="black" stroke="black" points="1086.97,-185.371 1076.41,-184.496 1084.12,-191.765 1086.97,-185.371"/>
</g>
<!-- Ketrew_edsl&#45;&gt;Ketrew_host -->
<g id="edge23" class="edge"><title>Ketrew_edsl&#45;&gt;Ketrew_host</title>
<path fill="none" stroke="black" d="M982.093,-964.553C981.994,-936.164 980.741,-878.288 973,-830 942.899,-642.233 939.249,-585.818 841,-423 818.802,-386.213 783.747,-350.966 759.63,-328.951"/>
<polygon fill="black" stroke="black" points="761.682,-326.09 751.905,-322.009 757.003,-331.296 761.682,-326.09"/>
</g>
<!-- Ketrew_edsl&#45;&gt;Ketrew_error -->
<g id="edge13" class="edge"><title>Ketrew_edsl&#45;&gt;Ketrew_error</title>
<path fill="none" stroke="black" d="M979.606,-964.997C970.815,-906.002 936.911,-705.68 863,-558 845.597,-523.228 817.153,-488.534 797.114,-466.276"/>
<polygon fill="black" stroke="black" points="799.48,-463.676 790.147,-458.661 794.315,-468.402 799.48,-463.676"/>
</g>
<!-- Ketrew_edsl&#45;&gt;Ketrew_state -->
<g id="edge17" class="edge"><title>Ketrew_edsl&#45;&gt;Ketrew_state</title>
<path fill="none" stroke="black" d="M960.766,-966.177C899.332,-920.399 721.296,-787.736 650.519,-734.996"/>
<polygon fill="black" stroke="black" points="652.545,-732.141 642.435,-728.972 648.362,-737.754 652.545,-732.141"/>
</g>
<!-- Ketrew_edsl&#45;&gt;Ketrew_target -->
<g id="edge19" class="edge"><title>Ketrew_edsl&#45;&gt;Ketrew_target</title>
<path fill="none" stroke="black" d="M968.9,-965.368C919.228,-902.306 742.303,-677.682 682.736,-602.057"/>
<polygon fill="black" stroke="black" points="685.323,-599.685 676.386,-593.995 679.824,-604.016 685.323,-599.685"/>
</g>
<!-- Ketrew_edsl&#45;&gt;Ketrew_user_command -->
<g id="edge18" class="edge"><title>Ketrew_edsl&#45;&gt;Ketrew_user_command</title>
<path fill="none" stroke="black" d="M941.152,-970.775C856.127,-947.411 659.718,-893.439 559.393,-865.871"/>
<polygon fill="black" stroke="black" points="560.268,-862.481 549.698,-863.206 558.413,-869.231 560.268,-862.481"/>
</g>
<!-- Ketrew_edsl&#45;&gt;Ketrew_long_running -->
<g id="edge22" class="edge"><title>Ketrew_edsl&#45;&gt;Ketrew_long_running</title>
<path fill="none" stroke="black" d="M993.911,-965.315C1030.1,-913.46 1138.52,-749.268 1175,-594 1185.06,-551.183 1178.24,-499.815 1172.24,-469.099"/>
<polygon fill="black" stroke="black" points="1175.63,-468.225 1170.17,-459.143 1168.77,-469.645 1175.63,-468.225"/>
</g>
<!-- Ketrew_edsl&#45;&gt;Ketrew_configuration -->
<g id="edge24" class="edge"><title>Ketrew_edsl&#45;&gt;Ketrew_configuration</title>
<path fill="none" stroke="black" d="M930.078,-976.761C803.503,-963.209 482.905,-923.965 394,-866 291.931,-799.452 226.465,-661.673 202.389,-603.664"/>
<polygon fill="black" stroke="black" points="205.512,-602.054 198.501,-594.111 199.029,-604.693 205.512,-602.054"/>
</g>
<!-- Ketrew_edsl&#45;&gt;Ketrew_lsf -->
<g id="edge14" class="edge"><title>Ketrew_edsl&#45;&gt;Ketrew_lsf</title>
<path fill="none" stroke="black" d="M987.848,-964.927C995.301,-942.499 1008.05,-901.763 1015,-866 1033.48,-770.935 1041.67,-655.983 1044.62,-604.39"/>
<polygon fill="black" stroke="black" points="1048.13,-604.266 1045.18,-594.089 1041.14,-603.883 1048.13,-604.266"/>
</g>
<!-- Ketrew_edsl&#45;&gt;Ketrew_nohup_setsid -->
<g id="edge15" class="edge"><title>Ketrew_edsl&#45;&gt;Ketrew_nohup_setsid</title>
<path fill="none" stroke="black" d="M1035.44,-978.797C1111.7,-971.402 1251.6,-946.936 1334,-866 1408.8,-792.521 1428.3,-660.659 1433.3,-604.038"/>
<polygon fill="black" stroke="black" points="1436.79,-604.311 1434.1,-594.064 1429.81,-603.753 1436.79,-604.311"/>
</g>
<!-- Ketrew_edsl&#45;&gt;Ketrew_program -->
<g id="edge20" class="edge"><title>Ketrew_edsl&#45;&gt;Ketrew_program</title>
<path fill="none" stroke="black" d="M1033.73,-976.935C1111.55,-967.104 1260.44,-939.499 1362,-866 1541.31,-736.235 1582.09,-669.985 1649,-459 1664.31,-410.735 1624.98,-359.176 1596.77,-329.932"/>
<polygon fill="black" stroke="black" points="1599.05,-327.266 1589.52,-322.645 1594.09,-332.203 1599.05,-327.266"/>
</g>
<!-- Ketrew_lsf&#45;&gt;Ketrew_pervasives -->
<g id="edge32" class="edge"><title>Ketrew_lsf&#45;&gt;Ketrew_pervasives</title>
<path fill="none" stroke="black" d="M1043.12,-557.835C1032.14,-496.611 987.941,-285.503 881,-152 845.709,-107.943 789.329,-74.3308 750.357,-54.6749"/>
<polygon fill="black" stroke="black" points="751.855,-51.5112 741.34,-50.2184 748.754,-57.7867 751.855,-51.5112"/>
</g>
<!-- Ketrew_lsf&#45;&gt;Ketrew_path -->
<g id="edge31" class="edge"><title>Ketrew_lsf&#45;&gt;Ketrew_path</title>
<path fill="none" stroke="black" d="M1045.87,-557.899C1045.41,-495.057 1043.78,-276.532 1043.21,-198.751"/>
<polygon fill="black" stroke="black" points="1046.7,-198.305 1043.13,-188.332 1039.7,-198.357 1046.7,-198.305"/>
</g>
<!-- Ketrew_lsf&#45;&gt;Ketrew_host -->
<g id="edge35" class="edge"><title>Ketrew_lsf&#45;&gt;Ketrew_host</title>
<path fill="none" stroke="black" d="M1028.08,-558.839C996.991,-530.863 930.904,-471.732 874,-423 835.078,-389.668 789.306,-351.954 760.718,-328.573"/>
<polygon fill="black" stroke="black" points="762.737,-325.703 752.778,-322.086 758.308,-331.124 762.737,-325.703"/>
</g>
<!-- Ketrew_lsf&#45;&gt;Ketrew_error -->
<g id="edge29" class="edge"><title>Ketrew_lsf&#45;&gt;Ketrew_error</title>
<path fill="none" stroke="black" d="M1017.66,-561.143C968.783,-537.243 868.551,-488.233 813.084,-461.111"/>
<polygon fill="black" stroke="black" points="814.447,-457.881 803.926,-456.633 811.372,-464.17 814.447,-457.881"/>
</g>
<!-- Ketrew_lsf&#45;&gt;Ketrew_long_running -->
<g id="edge34" class="edge"><title>Ketrew_lsf&#45;&gt;Ketrew_long_running</title>
<path fill="none" stroke="black" d="M1060.71,-558.692C1081.56,-535.585 1119.85,-493.149 1144.06,-466.318"/>
<polygon fill="black" stroke="black" points="1146.69,-468.631 1150.79,-458.861 1141.49,-463.941 1146.69,-468.631"/>
</g>
<!-- Ketrew_lsf&#45;&gt;Ketrew_program -->
<g id="edge33" class="edge"><title>Ketrew_lsf&#45;&gt;Ketrew_program</title>
<path fill="none" stroke="black" d="M1094.48,-572.345C1216.98,-564.521 1533.71,-536.999 1597,-459 1626.51,-422.629 1603.95,-365.102 1586.43,-331.923"/>
<polygon fill="black" stroke="black" points="1589.33,-329.93 1581.45,-322.853 1583.2,-333.303 1589.33,-329.93"/>
</g>
<!-- Ketrew_monitored_script -->
<g id="node18" class="node"><title>Ketrew_monitored_script</title>
<ellipse fill="darkturquoise" stroke="darkturquoise" cx="1487" cy="-441" rx="100.945" ry="18"/>
<text text-anchor="middle" x="1487" y="-436.8" font-family="Times,serif" font-size="14.00">Ketrew_monitored_script</text>
</g>
<!-- Ketrew_lsf&#45;&gt;Ketrew_monitored_script -->
<g id="edge30" class="edge"><title>Ketrew_lsf&#45;&gt;Ketrew_monitored_script</title>
<path fill="none" stroke="black" d="M1082.84,-563.889C1159.34,-540.818 1335.95,-487.556 1428.31,-459.701"/>
<polygon fill="black" stroke="black" points="1429.5,-462.998 1438.06,-456.76 1427.47,-456.297 1429.5,-462.998"/>
</g>
<!-- Ketrew_nohup_setsid&#45;&gt;Ketrew_pervasives -->
<g id="edge42" class="edge"><title>Ketrew_nohup_setsid&#45;&gt;Ketrew_pervasives</title>
<path fill="none" stroke="black" d="M1490.36,-561.984C1541.47,-546.723 1614.53,-515.938 1649,-459 1725.92,-331.948 1649.67,-218.771 1517,-152 1390.8,-88.4855 971.879,-53.0462 791.172,-40.3911"/>
<polygon fill="black" stroke="black" points="791.401,-36.8986 781.182,-39.6977 790.916,-43.8818 791.401,-36.8986"/>
</g>
<!-- Ketrew_nohup_setsid&#45;&gt;Ketrew_path -->
<g id="edge41" class="edge"><title>Ketrew_nohup_setsid&#45;&gt;Ketrew_path</title>
<path fill="none" stroke="black" d="M1424.92,-557.847C1412.25,-535.664 1390.51,-495.533 1377,-459 1349.66,-385.097 1385.85,-346.332 1334,-287 1274.77,-219.223 1170.5,-190.598 1104.18,-178.83"/>
<polygon fill="black" stroke="black" points="1104.72,-175.372 1094.28,-177.148 1103.55,-182.273 1104.72,-175.372"/>
</g>
<!-- Ketrew_nohup_setsid&#45;&gt;Ketrew_host -->
<g id="edge45" class="edge"><title>Ketrew_nohup_setsid&#45;&gt;Ketrew_host</title>
<path fill="none" stroke="black" d="M1420.91,-557.754C1393.85,-525.843 1331.2,-457.686 1263,-423 1107.91,-344.118 900.796,-318.159 797.406,-309.817"/>
<polygon fill="black" stroke="black" points="797.369,-306.303 787.127,-309.018 796.826,-313.282 797.369,-306.303"/>
</g>
<!-- Ketrew_nohup_setsid&#45;&gt;Ketrew_error -->
<g id="edge39" class="edge"><title>Ketrew_nohup_setsid&#45;&gt;Ketrew_error</title>
<path fill="none" stroke="black" d="M1374.88,-562.904C1248.28,-537.429 955.656,-478.551 831.436,-453.557"/>
<polygon fill="black" stroke="black" points="831.86,-450.072 821.366,-451.531 830.479,-456.934 831.86,-450.072"/>
</g>
<!-- Ketrew_nohup_setsid&#45;&gt;Ketrew_long_running -->
<g id="edge44" class="edge"><title>Ketrew_nohup_setsid&#45;&gt;Ketrew_long_running</title>
<path fill="none" stroke="black" d="M1403.09,-559.221C1354.38,-535.139 1261.48,-489.207 1207.56,-462.55"/>
<polygon fill="black" stroke="black" points="1208.81,-459.26 1198.29,-457.965 1205.7,-465.535 1208.81,-459.26"/>
</g>
<!-- Ketrew_nohup_setsid&#45;&gt;Ketrew_program -->
<g id="edge43" class="edge"><title>Ketrew_nohup_setsid&#45;&gt;Ketrew_program</title>
<path fill="none" stroke="black" d="M1484.44,-561.108C1531.31,-545.006 1599.04,-513.444 1630,-459 1654.29,-416.292 1619.02,-361.634 1593.45,-330.547"/>
<polygon fill="black" stroke="black" points="1596.02,-328.162 1586.88,-322.803 1590.68,-332.692 1596.02,-328.162"/>
</g>
<!-- Ketrew_nohup_setsid&#45;&gt;Ketrew_monitored_script -->
<g id="edge40" class="edge"><title>Ketrew_nohup_setsid&#45;&gt;Ketrew_monitored_script</title>
<path fill="none" stroke="black" d="M1441.69,-557.885C1450.55,-535.24 1466.24,-495.093 1476.64,-468.509"/>
<polygon fill="black" stroke="black" points="1479.95,-469.637 1480.33,-459.049 1473.43,-467.088 1479.95,-469.637"/>
</g>
<!-- Ketrew_program&#45;&gt;Ketrew_pervasives -->
<g id="edge47" class="edge"><title>Ketrew_program&#45;&gt;Ketrew_pervasives</title>
<path fill="none" stroke="black" d="M1566.81,-286.944C1557.93,-254.728 1534,-185.189 1486,-152 1374.97,-75.2212 971.918,-47.2813 793.267,-38.5146"/>
<polygon fill="black" stroke="black" points="793.277,-35.0111 783.12,-38.0255 792.94,-42.003 793.277,-35.0111"/>
</g>
<!-- Ketrew_unix_process&#45;&gt;Ketrew_pervasives -->
<g id="edge64" class="edge"><title>Ketrew_unix_process&#45;&gt;Ketrew_pervasives</title>
<path fill="none" stroke="black" d="M757.654,-152.029C747.772,-129.198 730.096,-88.3605 718.458,-61.4724"/>
<polygon fill="black" stroke="black" points="721.654,-60.0436 714.469,-52.2567 715.23,-62.8242 721.654,-60.0436"/>
</g>
<!-- Ketrew_monitored_script&#45;&gt;Ketrew_pervasives -->
<g id="edge37" class="edge"><title>Ketrew_monitored_script&#45;&gt;Ketrew_pervasives</title>
<path fill="none" stroke="black" d="M1481.78,-422.681C1471.71,-391.825 1446.9,-326.847 1406,-287 1230.71,-116.246 931.39,-60.1809 788.102,-42.5936"/>
<polygon fill="black" stroke="black" points="788.404,-39.1048 778.059,-41.3928 787.573,-46.0553 788.404,-39.1048"/>
</g>
<!-- Ketrew_monitored_script&#45;&gt;Ketrew_path -->
<g id="edge38" class="edge"><title>Ketrew_monitored_script&#45;&gt;Ketrew_path</title>
<path fill="none" stroke="black" d="M1478.42,-422.676C1462.01,-391.224 1423.19,-324.526 1372,-287 1289.02,-226.163 1171.27,-194.985 1101.46,-180.894"/>
<polygon fill="black" stroke="black" points="1102,-177.434 1091.52,-178.937 1100.65,-184.302 1102,-177.434"/>
</g>
<!-- Ketrew_monitored_script&#45;&gt;Ketrew_program -->
<g id="edge36" class="edge"><title>Ketrew_monitored_script&#45;&gt;Ketrew_program</title>
<path fill="none" stroke="black" d="M1497.64,-423.029C1512.16,-399.871 1538.29,-358.188 1555.12,-331.326"/>
<polygon fill="black" stroke="black" points="1558.1,-333.165 1560.45,-322.833 1552.17,-329.447 1558.1,-333.165"/>
</g>
<!-- Ketrew -->
<g id="node19" class="node"><title>Ketrew</title>
<ellipse fill="darkturquoise" stroke="darkturquoise" cx="678" cy="-1119" rx="36.2645" ry="18"/>
<text text-anchor="middle" x="678" y="-1114.8" font-family="Times,serif" font-size="14.00">Ketrew</text>
</g>
<!-- Ketrew&#45;&gt;Ketrew_artifact -->
<g id="edge80" class="edge"><title>Ketrew&#45;&gt;Ketrew_artifact</title>
<path fill="none" stroke="black" d="M644,-1112.81C587.559,-1102.33 474.918,-1073.16 416,-1001 283.206,-838.367 418.522,-554.761 465.342,-467.974"/>
<polygon fill="black" stroke="black" points="468.489,-469.514 470.216,-459.06 462.347,-466.155 468.489,-469.514"/>
</g>
<!-- Ketrew&#45;&gt;Ketrew_pervasives -->
<g id="edge72" class="edge"><title>Ketrew&#45;&gt;Ketrew_pervasives</title>
<path fill="none" stroke="black" d="M643.217,-1114.04C534.644,-1101.18 203.897,-1058.11 114,-1001 42.7208,-955.721 0,-933.444 0,-849 0,-849 0,-849 0,-304 0,-218.477 45.241,-196.948 118,-152 202.583,-99.7479 488.067,-60.4116 628.149,-43.7492"/>
<polygon fill="black" stroke="black" points="628.866,-47.1889 638.387,-42.541 628.045,-40.2372 628.866,-47.1889"/>
</g>
<!-- Ketrew&#45;&gt;Ketrew_path -->
<g id="edge73" class="edge"><title>Ketrew&#45;&gt;Ketrew_path</title>
<path fill="none" stroke="black" d="M714.175,-1117.59C910.983,-1114.43 1844,-1086.87 1844,-849 1844,-849 1844,-849 1844,-575 1844,-420.916 1779.51,-372.015 1651,-287 1561.69,-227.915 1242.91,-190.519 1106.11,-176.854"/>
<polygon fill="black" stroke="black" points="1106.09,-173.335 1095.79,-175.834 1105.4,-180.301 1106.09,-173.335"/>
</g>
<!-- Ketrew&#45;&gt;Ketrew_host -->
<g id="edge75" class="edge"><title>Ketrew&#45;&gt;Ketrew_host</title>
<path fill="none" stroke="black" d="M641.698,-1118.47C511.545,-1118.11 76,-1098.27 76,-849 76,-849 76,-849 76,-711 76,-642.478 53.9791,-612.887 95,-558 235.217,-370.386 536.548,-322.309 668.681,-310.101"/>
<polygon fill="black" stroke="black" points="669.384,-313.553 679.037,-309.186 668.768,-306.58 669.384,-313.553"/>
</g>
<!-- Ketrew&#45;&gt;Ketrew_command_line -->
<g id="edge79" class="edge"><title>Ketrew&#45;&gt;Ketrew_command_line</title>
<path fill="none" stroke="black" d="M660.266,-1103.15C632.513,-1079.9 578.598,-1034.75 545.696,-1007.2"/>
<polygon fill="black" stroke="black" points="547.726,-1004.33 537.812,-1000.59 543.232,-1009.7 547.726,-1004.33"/>
</g>
<!-- Ketrew&#45;&gt;Ketrew_error -->
<g id="edge76" class="edge"><title>Ketrew&#45;&gt;Ketrew_error</title>
<path fill="none" stroke="black" d="M696.3,-1103.19C740.413,-1065.68 849,-961.891 849,-849 849,-849 849,-849 849,-711 849,-618.89 807.693,-515.341 786.389,-468.062"/>
<polygon fill="black" stroke="black" points="789.517,-466.485 782.169,-458.851 783.153,-469.401 789.517,-466.485"/>
</g>
<!-- Ketrew&#45;&gt;Ketrew_state -->
<g id="edge70" class="edge"><title>Ketrew&#45;&gt;Ketrew_state</title>
<path fill="none" stroke="black" d="M675.587,-1100.86C666.703,-1037.73 635.763,-817.894 624.848,-740.342"/>
<polygon fill="black" stroke="black" points="628.305,-739.789 623.445,-730.374 621.373,-740.765 628.305,-739.789"/>
</g>
<!-- Ketrew&#45;&gt;Ketrew_target -->
<g id="edge69" class="edge"><title>Ketrew&#45;&gt;Ketrew_target</title>
<path fill="none" stroke="black" d="M679.849,-1100.98C685.773,-1043.51 702.986,-851.49 687,-694 683.84,-662.872 676.067,-627.792 670.217,-604.232"/>
<polygon fill="black" stroke="black" points="673.542,-603.105 667.688,-594.274 666.758,-604.828 673.542,-603.105"/>
</g>
<!-- Ketrew&#45;&gt;Ketrew_configuration -->
<g id="edge78" class="edge"><title>Ketrew&#45;&gt;Ketrew_configuration</title>
<path fill="none" stroke="black" d="M641.762,-1118.54C564.24,-1117.62 381.528,-1103.96 285,-1001 177.901,-886.767 183.39,-678.65 189.257,-604.303"/>
<polygon fill="black" stroke="black" points="192.744,-604.594 190.112,-594.331 185.77,-603.995 192.744,-604.594"/>
</g>
<!-- Ketrew&#45;&gt;Ketrew_edsl -->
<g id="edge77" class="edge"><title>Ketrew&#45;&gt;Ketrew_edsl</title>
<path fill="none" stroke="black" d="M704.182,-1106.46C757.197,-1083.09 877.583,-1030.03 941.065,-1002.04"/>
<polygon fill="black" stroke="black" points="942.636,-1005.18 950.374,-997.94 939.812,-998.771 942.636,-1005.18"/>
</g>
<!-- Ketrew&#45;&gt;Ketrew_nohup_setsid -->
<g id="edge74" class="edge"><title>Ketrew&#45;&gt;Ketrew_nohup_setsid</title>
<path fill="none" stroke="black" d="M713.236,-1114.71C823.552,-1102.61 1166.55,-1051.17 1362,-866 1410.91,-819.658 1412.43,-795.312 1429,-730 1439.88,-687.129 1439.15,-635.355 1437.31,-604.361"/>
<polygon fill="black" stroke="black" points="1440.8,-604.053 1436.63,-594.313 1433.81,-604.526 1440.8,-604.053"/>
</g>
<!-- Ketrew&#45;&gt;Ketrew_program -->
<g id="edge71" class="edge"><title>Ketrew&#45;&gt;Ketrew_program</title>
<path fill="none" stroke="black" d="M713.956,-1117.03C902.45,-1111.02 1768,-1071.32 1768,-849 1768,-849 1768,-849 1768,-575 1768,-464.606 1658.67,-369.404 1602.91,-328.025"/>
<polygon fill="black" stroke="black" points="1604.9,-325.15 1594.76,-322.083 1600.78,-330.805 1604.9,-325.15"/>
</g>
</g>
</svg>
