<?xml version="1.0" encoding="UTF-8" standalone="no"?>
<!DOCTYPE svg PUBLIC "-//W3C//DTD SVG 1.1//EN"
 "http://www.w3.org/Graphics/SVG/1.1/DTD/svg11.dtd">
<!-- Generated by graphviz version 2.38.0 (20140413.2041)
 -->
<!-- Title: G Pages: 1 -->
<svg width="441pt" height="720pt"
 viewBox="0.00 0.00 720.00 441.28" xmlns="http://www.w3.org/2000/svg" xmlns:xlink="http://www.w3.org/1999/xlink">
<g id="graph0" class="graph" transform="scale(0.505618 0.505618) rotate(-90) translate(-1420 868.75)">
<title>G</title>
<polygon fill="white" stroke="none" points="-4,4 -4,-868.75 1420,-868.75 1420,4 -4,4"/>
<!-- Ketrew_artifact -->
<g id="node1" class="node"><title>Ketrew_artifact</title>
<ellipse fill="darkturquoise" stroke="darkturquoise" cx="386" cy="-331" rx="65.6803" ry="18"/>
<text text-anchor="middle" x="386" y="-326.8" font-family="Times,serif" font-size="14.00">Ketrew_artifact</text>
</g>
<!-- Ketrew_pervasives -->
<g id="node2" class="node"><title>Ketrew_pervasives</title>
<ellipse fill="darkturquoise" stroke="darkturquoise" cx="579" cy="-25" rx="77.7589" ry="18"/>
<text text-anchor="middle" x="579" y="-20.8" font-family="Times,serif" font-size="14.00">Ketrew_pervasives</text>
</g>
<!-- Ketrew_artifact&#45;&gt;Ketrew_pervasives -->
<g id="edge1" class="edge"><title>Ketrew_artifact&#45;&gt;Ketrew_pervasives</title>
<path fill="none" stroke="black" d="M385.767,-312.915C386.071,-273.161 391.808,-172.982 439,-109 461.172,-78.9398 497.776,-57.7928 527.996,-44.3692"/>
<polygon fill="black" stroke="black" points="529.738,-47.4308 537.557,-40.2808 526.986,-40.9946 529.738,-47.4308"/>
</g>
<!-- Ketrew_path -->
<g id="node3" class="node"><title>Ketrew_path</title>
<ellipse fill="darkturquoise" stroke="darkturquoise" cx="537" cy="-127" rx="55.5596" ry="18"/>
<text text-anchor="middle" x="537" y="-122.8" font-family="Times,serif" font-size="14.00">Ketrew_path</text>
</g>
<!-- Ketrew_artifact&#45;&gt;Ketrew_path -->
<g id="edge2" class="edge"><title>Ketrew_artifact&#45;&gt;Ketrew_path</title>
<path fill="none" stroke="black" d="M398.614,-313.125C425.217,-277.538 487.176,-194.653 518.363,-152.931"/>
<polygon fill="black" stroke="black" points="521.344,-154.79 524.528,-144.685 515.737,-150.599 521.344,-154.79"/>
</g>
<!-- Ketrew_host -->
<g id="node4" class="node"><title>Ketrew_host</title>
<ellipse fill="darkturquoise" stroke="darkturquoise" cx="670" cy="-229" rx="55.0922" ry="18"/>
<text text-anchor="middle" x="670" y="-224.8" font-family="Times,serif" font-size="14.00">Ketrew_host</text>
</g>
<!-- Ketrew_artifact&#45;&gt;Ketrew_host -->
<g id="edge3" class="edge"><title>Ketrew_artifact&#45;&gt;Ketrew_host</title>
<path fill="none" stroke="black" d="M424.597,-316.409C476.532,-298.123 568.772,-265.644 624.171,-246.137"/>
<polygon fill="black" stroke="black" points="625.464,-249.392 633.734,-242.77 623.139,-242.79 625.464,-249.392"/>
</g>
<!-- Ketrew_path&#45;&gt;Ketrew_pervasives -->
<g id="edge39" class="edge"><title>Ketrew_path&#45;&gt;Ketrew_pervasives</title>
<path fill="none" stroke="black" d="M544.125,-109.036C550.641,-93.5208 560.384,-70.3232 567.917,-52.3876"/>
<polygon fill="black" stroke="black" points="571.195,-53.622 571.84,-43.0469 564.741,-50.9113 571.195,-53.622"/>
</g>
<!-- Ketrew_host&#45;&gt;Ketrew_pervasives -->
<g id="edge23" class="edge"><title>Ketrew_host&#45;&gt;Ketrew_pervasives</title>
<path fill="none" stroke="black" d="M662.398,-211.125C646.54,-175.924 609.833,-94.4431 590.849,-52.3017"/>
<polygon fill="black" stroke="black" points="593.943,-50.6489 586.644,-42.969 587.561,-53.5241 593.943,-50.6489"/>
</g>
<!-- Ketrew_host&#45;&gt;Ketrew_path -->
<g id="edge24" class="edge"><title>Ketrew_host&#45;&gt;Ketrew_path</title>
<path fill="none" stroke="black" d="M648.926,-212.155C626.551,-195.332 591.034,-168.627 566.021,-149.821"/>
<polygon fill="black" stroke="black" points="568.072,-146.983 557.976,-143.771 563.865,-152.578 568.072,-146.983"/>
</g>
<!-- Ketrew_unix_process -->
<g id="node15" class="node"><title>Ketrew_unix_process</title>
<ellipse fill="darkturquoise" stroke="darkturquoise" cx="736" cy="-127" rx="87.4394" ry="18"/>
<text text-anchor="middle" x="736" y="-122.8" font-family="Times,serif" font-size="14.00">Ketrew_unix_process</text>
</g>
<!-- Ketrew_host&#45;&gt;Ketrew_unix_process -->
<g id="edge22" class="edge"><title>Ketrew_host&#45;&gt;Ketrew_unix_process</title>
<path fill="none" stroke="black" d="M681.196,-211.036C691.626,-195.234 707.315,-171.461 719.238,-153.397"/>
<polygon fill="black" stroke="black" points="722.162,-155.321 724.749,-145.047 716.319,-151.465 722.162,-155.321"/>
</g>
<!-- Ketrew_command_line -->
<g id="node5" class="node"><title>Ketrew_command_line</title>
<ellipse fill="darkturquoise" stroke="darkturquoise" cx="391" cy="-738" rx="93.2188" ry="18"/>
<text text-anchor="middle" x="391" y="-733.8" font-family="Times,serif" font-size="14.00">Ketrew_command_line</text>
</g>
<!-- Ketrew_command_line&#45;&gt;Ketrew_pervasives -->
<g id="edge8" class="edge"><title>Ketrew_command_line&#45;&gt;Ketrew_pervasives</title>
<path fill="none" stroke="black" d="M329.77,-724.409C286.464,-712.698 229.636,-691.271 192,-654 81.3682,-544.441 54,-487.7 54,-332 54,-332 54,-332 54,-228 54,-160.876 89.7266,-144.006 147,-109 204.998,-73.5508 391.212,-47.2696 499.291,-34.5464"/>
<polygon fill="black" stroke="black" points="499.972,-37.9909 509.5,-33.3576 499.162,-31.0379 499.972,-37.9909"/>
</g>
<!-- Ketrew_error -->
<g id="node6" class="node"><title>Ketrew_error</title>
<ellipse fill="darkturquoise" stroke="darkturquoise" cx="1292" cy="-331" rx="57.9719" ry="18"/>
<text text-anchor="middle" x="1292" y="-326.8" font-family="Times,serif" font-size="14.00">Ketrew_error</text>
</g>
<!-- Ketrew_command_line&#45;&gt;Ketrew_error -->
<g id="edge4" class="edge"><title>Ketrew_command_line&#45;&gt;Ketrew_error</title>
<path fill="none" stroke="black" d="M456.212,-725.067C599.057,-696.586 946.115,-614.423 1188,-450 1198.05,-443.172 1244.36,-388.837 1271.68,-356.328"/>
<polygon fill="black" stroke="black" points="1274.44,-358.487 1278.18,-348.576 1269.08,-353.988 1274.44,-358.487"/>
</g>
<!-- Ketrew_target -->
<g id="node7" class="node"><title>Ketrew_target</title>
<ellipse fill="darkturquoise" stroke="darkturquoise" cx="257" cy="-432" rx="60.5585" ry="18"/>
<text text-anchor="middle" x="257" y="-427.8" font-family="Times,serif" font-size="14.00">Ketrew_target</text>
</g>
<!-- Ketrew_command_line&#45;&gt;Ketrew_target -->
<g id="edge5" class="edge"><title>Ketrew_command_line&#45;&gt;Ketrew_target</title>
<path fill="none" stroke="black" d="M324.452,-725.33C283.583,-714.359 234.357,-693.433 209,-654 169.052,-591.875 213.734,-501.716 240.239,-458.271"/>
<polygon fill="black" stroke="black" points="243.242,-460.07 245.582,-449.736 237.309,-456.355 243.242,-460.07"/>
</g>
<!-- Ketrew_user_command -->
<g id="node8" class="node"><title>Ketrew_user_command</title>
<ellipse fill="darkturquoise" stroke="darkturquoise" cx="313" cy="-636" rx="94.6636" ry="18"/>
<text text-anchor="middle" x="313" y="-631.8" font-family="Times,serif" font-size="14.00">Ketrew_user_command</text>
</g>
<!-- Ketrew_command_line&#45;&gt;Ketrew_user_command -->
<g id="edge6" class="edge"><title>Ketrew_command_line&#45;&gt;Ketrew_user_command</title>
<path fill="none" stroke="black" d="M377.768,-720.036C365.442,-704.234 346.9,-680.461 332.809,-662.397"/>
<polygon fill="black" stroke="black" points="335.207,-659.779 326.297,-654.047 329.687,-664.085 335.207,-659.779"/>
</g>
<!-- Ketrew_state -->
<g id="node9" class="node"><title>Ketrew_state</title>
<ellipse fill="darkturquoise" stroke="darkturquoise" cx="471" cy="-534" rx="56.5201" ry="18"/>
<text text-anchor="middle" x="471" y="-529.8" font-family="Times,serif" font-size="14.00">Ketrew_state</text>
</g>
<!-- Ketrew_command_line&#45;&gt;Ketrew_state -->
<g id="edge7" class="edge"><title>Ketrew_command_line&#45;&gt;Ketrew_state</title>
<path fill="none" stroke="black" d="M397.821,-719.778C411.819,-684.433 443.871,-603.501 460.523,-561.454"/>
<polygon fill="black" stroke="black" points="463.881,-562.48 464.309,-551.894 457.373,-559.903 463.881,-562.48"/>
</g>
<!-- Ketrew_long_running -->
<g id="node10" class="node"><title>Ketrew_long_running</title>
<ellipse fill="darkturquoise" stroke="darkturquoise" cx="976" cy="-331" rx="88.417" ry="18"/>
<text text-anchor="middle" x="976" y="-326.8" font-family="Times,serif" font-size="14.00">Ketrew_long_running</text>
</g>
<!-- Ketrew_command_line&#45;&gt;Ketrew_long_running -->
<g id="edge9" class="edge"><title>Ketrew_command_line&#45;&gt;Ketrew_long_running</title>
<path fill="none" stroke="black" d="M426.283,-721.303C510.172,-682.943 725.816,-578.139 877,-450 909.664,-422.315 940.198,-383.099 958.487,-357.607"/>
<polygon fill="black" stroke="black" points="961.513,-359.39 964.429,-349.204 955.798,-355.348 961.513,-359.39"/>
</g>
<!-- Ketrew_error&#45;&gt;Ketrew_pervasives -->
<g id="edge67" class="edge"><title>Ketrew_error&#45;&gt;Ketrew_pervasives</title>
<path fill="none" stroke="black" d="M1292.14,-312.853C1291.46,-270.684 1283.37,-161.546 1220,-109 1137.64,-40.7071 822.325,-28.1019 666.795,-26.1152"/>
<polygon fill="black" stroke="black" points="666.826,-22.6155 656.786,-25.9993 666.744,-29.615 666.826,-22.6155"/>
</g>
<!-- Ketrew_error&#45;&gt;Ketrew_host -->
<g id="edge68" class="edge"><title>Ketrew_error&#45;&gt;Ketrew_host</title>
<path fill="none" stroke="black" d="M1241.89,-321.944C1127.98,-303.63 850.083,-258.952 728.534,-239.411"/>
<polygon fill="black" stroke="black" points="728.742,-235.899 718.313,-237.767 727.631,-242.81 728.742,-235.899"/>
</g>
<!-- Ketrew_target&#45;&gt;Ketrew_artifact -->
<g id="edge52" class="edge"><title>Ketrew_target&#45;&gt;Ketrew_artifact</title>
<path fill="none" stroke="black" d="M278.013,-414.874C299.472,-398.406 332.95,-372.713 356.941,-354.301"/>
<polygon fill="black" stroke="black" points="359.194,-356.984 364.996,-348.119 354.932,-351.431 359.194,-356.984"/>
</g>
<!-- Ketrew_target&#45;&gt;Ketrew_pervasives -->
<g id="edge50" class="edge"><title>Ketrew_target&#45;&gt;Ketrew_pervasives</title>
<path fill="none" stroke="black" d="M243.422,-414.391C214.502,-376.873 152.206,-283.218 187,-211 243.391,-93.9579 402,-50.6417 499.314,-34.8422"/>
<polygon fill="black" stroke="black" points="500.068,-38.267 509.408,-33.2662 498.988,-31.3508 500.068,-38.267"/>
</g>
<!-- Ketrew_target&#45;&gt;Ketrew_path -->
<g id="edge49" class="edge"><title>Ketrew_target&#45;&gt;Ketrew_path</title>
<path fill="none" stroke="black" d="M262.163,-413.656C269.968,-389.398 286.508,-344.754 311,-313 366.538,-240.996 455.173,-179.086 503.279,-148.463"/>
<polygon fill="black" stroke="black" points="505.176,-151.405 511.772,-143.114 501.445,-145.482 505.176,-151.405"/>
</g>
<!-- Ketrew_target&#45;&gt;Ketrew_host -->
<g id="edge51" class="edge"><title>Ketrew_target&#45;&gt;Ketrew_host</title>
<path fill="none" stroke="black" d="M294.506,-417.665C335.934,-402.536 404.285,-376.389 461,-349 525.143,-318.023 596.611,-275.486 637.155,-250.552"/>
<polygon fill="black" stroke="black" points="639.138,-253.442 645.807,-245.21 635.46,-247.486 639.138,-253.442"/>
</g>
<!-- Ketrew_user_command&#45;&gt;Ketrew_pervasives -->
<g id="edge56" class="edge"><title>Ketrew_user_command&#45;&gt;Ketrew_pervasives</title>
<path fill="none" stroke="black" d="M288.505,-618.412C230.965,-577.254 92,-464.173 92,-332 92,-332 92,-332 92,-228 92,-144.631 162.396,-146.21 237,-109 321.292,-66.9584 428.091,-45.4519 499.72,-34.9943"/>
<polygon fill="black" stroke="black" points="500.618,-38.402 510.026,-33.5305 499.633,-31.4716 500.618,-38.402"/>
</g>
<!-- Ketrew_user_command&#45;&gt;Ketrew_target -->
<g id="edge54" class="edge"><title>Ketrew_user_command&#45;&gt;Ketrew_target</title>
<path fill="none" stroke="black" d="M308.225,-617.778C298.472,-582.596 276.197,-502.245 264.495,-460.037"/>
<polygon fill="black" stroke="black" points="267.807,-458.88 261.762,-450.179 261.061,-460.75 267.807,-458.88"/>
</g>
<!-- Ketrew_user_command&#45;&gt;Ketrew_state -->
<g id="edge55" class="edge"><title>Ketrew_user_command&#45;&gt;Ketrew_state</title>
<path fill="none" stroke="black" d="M339.09,-618.487C366.177,-601.344 408.621,-574.48 438.016,-555.876"/>
<polygon fill="black" stroke="black" points="440.11,-558.693 446.688,-550.387 436.367,-552.778 440.11,-558.693"/>
</g>
<!-- Ketrew_state&#45;&gt;Ketrew_artifact -->
<g id="edge40" class="edge"><title>Ketrew_state&#45;&gt;Ketrew_artifact</title>
<path fill="none" stroke="black" d="M463.753,-515.863C448.886,-480.707 414.851,-400.224 397.152,-358.371"/>
<polygon fill="black" stroke="black" points="400.347,-356.941 393.229,-349.094 393.9,-359.667 400.347,-356.941"/>
</g>
<!-- Ketrew_state&#45;&gt;Ketrew_pervasives -->
<g id="edge46" class="edge"><title>Ketrew_state&#45;&gt;Ketrew_pervasives</title>
<path fill="none" stroke="black" d="M470.155,-515.768C466.604,-440.889 453.882,-145.874 472,-109 485.56,-81.4024 513.194,-60.3394 536.981,-46.3375"/>
<polygon fill="black" stroke="black" points="538.885,-49.2821 545.872,-41.3179 535.443,-43.1864 538.885,-49.2821"/>
</g>
<!-- Ketrew_state&#45;&gt;Ketrew_path -->
<g id="edge44" class="edge"><title>Ketrew_state&#45;&gt;Ketrew_path</title>
<path fill="none" stroke="black" d="M476.452,-515.999C481.618,-499.338 489.271,-473.147 494,-450 516.068,-341.989 529.505,-211.193 534.626,-155.378"/>
<polygon fill="black" stroke="black" points="538.128,-155.518 535.539,-145.244 531.156,-154.889 538.128,-155.518"/>
</g>
<!-- Ketrew_state&#45;&gt;Ketrew_host -->
<g id="edge48" class="edge"><title>Ketrew_state&#45;&gt;Ketrew_host</title>
<path fill="none" stroke="black" d="M483.752,-516.41C496.355,-499.838 516.015,-473.515 532,-450 578.893,-381.015 630.082,-296.838 654.867,-255.457"/>
<polygon fill="black" stroke="black" points="657.899,-257.207 660.024,-246.827 651.89,-253.616 657.899,-257.207"/>
</g>
<!-- Ketrew_state&#45;&gt;Ketrew_target -->
<g id="edge45" class="edge"><title>Ketrew_state&#45;&gt;Ketrew_target</title>
<path fill="none" stroke="black" d="M440.339,-518.672C402.812,-501.136 339.145,-471.385 297.586,-451.966"/>
<polygon fill="black" stroke="black" points="298.841,-448.689 288.3,-447.626 295.878,-455.031 298.841,-448.689"/>
</g>
<!-- Ketrew_state&#45;&gt;Ketrew_long_running -->
<g id="edge47" class="edge"><title>Ketrew_state&#45;&gt;Ketrew_long_running</title>
<path fill="none" stroke="black" d="M520.575,-525.115C608.29,-510.643 786.881,-478.691 843,-450 849.222,-446.819 913.212,-389.075 950.115,-355.566"/>
<polygon fill="black" stroke="black" points="952.501,-358.127 957.548,-348.812 947.793,-352.946 952.501,-358.127"/>
</g>
<!-- Ketrew_database -->
<g id="node11" class="node"><title>Ketrew_database</title>
<ellipse fill="darkturquoise" stroke="darkturquoise" cx="267" cy="-229" rx="70.9927" ry="18"/>
<text text-anchor="middle" x="267" y="-224.8" font-family="Times,serif" font-size="14.00">Ketrew_database</text>
</g>
<!-- Ketrew_state&#45;&gt;Ketrew_database -->
<g id="edge41" class="edge"><title>Ketrew_state&#45;&gt;Ketrew_database</title>
<path fill="none" stroke="black" d="M453.265,-516.89C420.997,-486.748 352.22,-418.559 311,-349 293.511,-319.486 281.016,-281.837 273.912,-256.876"/>
<polygon fill="black" stroke="black" points="277.226,-255.729 271.198,-247.016 270.477,-257.586 277.226,-255.729"/>
</g>
<!-- Ketrew_lsf -->
<g id="node13" class="node"><title>Ketrew_lsf</title>
<ellipse fill="darkturquoise" stroke="darkturquoise" cx="785" cy="-432" rx="49.2946" ry="18"/>
<text text-anchor="middle" x="785" y="-427.8" font-family="Times,serif" font-size="14.00">Ketrew_lsf</text>
</g>
<!-- Ketrew_state&#45;&gt;Ketrew_lsf -->
<g id="edge42" class="edge"><title>Ketrew_state&#45;&gt;Ketrew_lsf</title>
<path fill="none" stroke="black" d="M509.503,-520.738C567.52,-502.261 677.154,-467.346 739.193,-447.588"/>
<polygon fill="black" stroke="black" points="740.629,-450.804 749.095,-444.435 738.504,-444.134 740.629,-450.804"/>
</g>
<!-- Ketrew_nohup_setsid -->
<g id="node14" class="node"><title>Ketrew_nohup_setsid</title>
<ellipse fill="darkturquoise" stroke="darkturquoise" cx="1092" cy="-432" rx="87.4567" ry="18"/>
<text text-anchor="middle" x="1092" y="-427.8" font-family="Times,serif" font-size="14.00">Ketrew_nohup_setsid</text>
</g>
<!-- Ketrew_state&#45;&gt;Ketrew_nohup_setsid -->
<g id="edge43" class="edge"><title>Ketrew_state&#45;&gt;Ketrew_nohup_setsid</title>
<path fill="none" stroke="black" d="M520.508,-525.028C628.499,-507.638 885.871,-466.193 1015.14,-445.377"/>
<polygon fill="black" stroke="black" points="1016.04,-448.777 1025.35,-443.732 1014.93,-441.866 1016.04,-448.777"/>
</g>
<!-- Ketrew_long_running&#45;&gt;Ketrew_pervasives -->
<g id="edge69" class="edge"><title>Ketrew_long_running&#45;&gt;Ketrew_pervasives</title>
<path fill="none" stroke="black" d="M1002.35,-313.653C1034.66,-291.422 1082.64,-249.948 1061,-211 983.901,-72.2533 782.821,-36.9369 666.183,-28.3477"/>
<polygon fill="black" stroke="black" points="666.421,-24.8559 656.204,-27.6629 665.941,-31.8395 666.421,-24.8559"/>
</g>
<!-- Ketrew_database&#45;&gt;Ketrew_pervasives -->
<g id="edge10" class="edge"><title>Ketrew_database&#45;&gt;Ketrew_pervasives</title>
<path fill="none" stroke="black" d="M274.984,-210.933C287.781,-185.325 315.23,-136.984 352,-109 399.072,-73.1751 463.138,-51.6368 511.206,-39.5142"/>
<polygon fill="black" stroke="black" points="512.326,-42.8435 521.209,-37.0685 510.664,-36.0438 512.326,-42.8435"/>
</g>
<!-- Ketrew_edsl -->
<g id="node12" class="node"><title>Ketrew_edsl</title>
<ellipse fill="darkturquoise" stroke="darkturquoise" cx="721" cy="-738" rx="54.599" ry="18"/>
<text text-anchor="middle" x="721" y="-733.8" font-family="Times,serif" font-size="14.00">Ketrew_edsl</text>
</g>
<!-- Ketrew_edsl&#45;&gt;Ketrew_artifact -->
<g id="edge21" class="edge"><title>Ketrew_edsl&#45;&gt;Ketrew_artifact</title>
<path fill="none" stroke="black" d="M707.243,-720.368C655.08,-657.306 469.28,-432.682 406.726,-357.057"/>
<polygon fill="black" stroke="black" points="409.128,-354.47 400.058,-348.995 403.734,-358.931 409.128,-354.47"/>
</g>
<!-- Ketrew_edsl&#45;&gt;Ketrew_pervasives -->
<g id="edge18" class="edge"><title>Ketrew_edsl&#45;&gt;Ketrew_pervasives</title>
<path fill="none" stroke="black" d="M773.103,-732.305C928.497,-716.88 1378,-661.343 1378,-535 1378,-535 1378,-535 1378,-228 1378,-149.998 1319.76,-141.813 1249,-109 1146.9,-61.6587 820.97,-38.6379 664.465,-30.0893"/>
<polygon fill="black" stroke="black" points="664.579,-26.5905 654.405,-29.5471 664.203,-33.5803 664.579,-26.5905"/>
</g>
<!-- Ketrew_edsl&#45;&gt;Ketrew_path -->
<g id="edge14" class="edge"><title>Ketrew_edsl&#45;&gt;Ketrew_path</title>
<path fill="none" stroke="black" d="M715.887,-720.076C690.355,-635.571 576.647,-259.224 545.126,-154.894"/>
<polygon fill="black" stroke="black" points="548.418,-153.691 542.176,-145.131 541.718,-155.716 548.418,-153.691"/>
</g>
<!-- Ketrew_edsl&#45;&gt;Ketrew_host -->
<g id="edge20" class="edge"><title>Ketrew_edsl&#45;&gt;Ketrew_host</title>
<path fill="none" stroke="black" d="M720.611,-719.638C720.013,-696.447 718.649,-654.089 716,-618 706.023,-482.066 702.455,-448.044 684,-313 681.435,-294.234 677.879,-273.195 674.993,-256.995"/>
<polygon fill="black" stroke="black" points="678.431,-256.339 673.21,-247.12 671.542,-257.583 678.431,-256.339"/>
</g>
<!-- Ketrew_edsl&#45;&gt;Ketrew_error -->
<g id="edge11" class="edge"><title>Ketrew_edsl&#45;&gt;Ketrew_error</title>
<path fill="none" stroke="black" d="M767.273,-728.322C824.448,-716.492 923.753,-692.287 1002,-654 1071.8,-619.847 1088.41,-606.29 1144,-552 1205.7,-491.751 1256.35,-401.872 1279.08,-357.99"/>
<polygon fill="black" stroke="black" points="1282.32,-359.353 1283.76,-348.856 1276.09,-356.165 1282.32,-359.353"/>
</g>
<!-- Ketrew_edsl&#45;&gt;Ketrew_target -->
<g id="edge16" class="edge"><title>Ketrew_edsl&#45;&gt;Ketrew_target</title>
<path fill="none" stroke="black" d="M695.136,-722.059C666.47,-705.483 618.882,-677.916 578,-654 500.957,-608.93 478.416,-602.765 405,-552 360.382,-521.148 311.982,-480.799 283.092,-455.904"/>
<polygon fill="black" stroke="black" points="285.331,-453.213 275.481,-449.313 280.749,-458.505 285.331,-453.213"/>
</g>
<!-- Ketrew_edsl&#45;&gt;Ketrew_user_command -->
<g id="edge15" class="edge"><title>Ketrew_edsl&#45;&gt;Ketrew_user_command</title>
<path fill="none" stroke="black" d="M678.491,-726.581C607.127,-709.09 462.777,-673.71 378.411,-653.032"/>
<polygon fill="black" stroke="black" points="379.226,-649.628 368.68,-650.647 377.559,-656.427 379.226,-649.628"/>
</g>
<!-- Ketrew_edsl&#45;&gt;Ketrew_state -->
<g id="edge17" class="edge"><title>Ketrew_edsl&#45;&gt;Ketrew_state</title>
<path fill="none" stroke="black" d="M701.383,-721.149C657.223,-685.468 549.892,-598.745 498.852,-557.504"/>
<polygon fill="black" stroke="black" points="500.85,-554.619 490.872,-551.056 496.45,-560.064 500.85,-554.619"/>
</g>
<!-- Ketrew_edsl&#45;&gt;Ketrew_long_running -->
<g id="edge19" class="edge"><title>Ketrew_edsl&#45;&gt;Ketrew_long_running</title>
<path fill="none" stroke="black" d="M733.188,-720.272C764.693,-676.745 850.782,-555.968 914,-450 932.34,-419.258 951.153,-382.584 963.172,-358.371"/>
<polygon fill="black" stroke="black" points="966.45,-359.637 967.733,-349.121 960.172,-356.541 966.45,-359.637"/>
</g>
<!-- Ketrew_edsl&#45;&gt;Ketrew_lsf -->
<g id="edge12" class="edge"><title>Ketrew_edsl&#45;&gt;Ketrew_lsf</title>
<path fill="none" stroke="black" d="M729.192,-719.921C736.768,-703.42 747.767,-677.534 754,-654 772.112,-585.61 780.158,-502.341 783.283,-460.216"/>
<polygon fill="black" stroke="black" points="786.778,-460.409 783.991,-450.188 779.795,-459.917 786.778,-460.409"/>
</g>
<!-- Ketrew_edsl&#45;&gt;Ketrew_nohup_setsid -->
<g id="edge13" class="edge"><title>Ketrew_edsl&#45;&gt;Ketrew_nohup_setsid</title>
<path fill="none" stroke="black" d="M771.842,-731.238C826.477,-722.718 913.23,-702.188 971,-654 1034.39,-601.121 1070.08,-506.098 1084.46,-459.809"/>
<polygon fill="black" stroke="black" points="1087.82,-460.766 1087.36,-450.181 1081.12,-458.747 1087.82,-460.766"/>
</g>
<!-- Ketrew_lsf&#45;&gt;Ketrew_pervasives -->
<g id="edge28" class="edge"><title>Ketrew_lsf&#45;&gt;Ketrew_pervasives</title>
<path fill="none" stroke="black" d="M790.574,-413.905C809.456,-354.583 867.876,-158.527 832,-109 794.33,-56.9966 723.049,-36.991 665.725,-29.5698"/>
<polygon fill="black" stroke="black" points="665.903,-26.0665 655.56,-28.3649 665.079,-33.0178 665.903,-26.0665"/>
</g>
<!-- Ketrew_lsf&#45;&gt;Ketrew_path -->
<g id="edge27" class="edge"><title>Ketrew_lsf&#45;&gt;Ketrew_path</title>
<path fill="none" stroke="black" d="M785.96,-413.849C787.276,-373.533 785.016,-271.579 734,-211 699.217,-169.697 640.337,-148.533 595.987,-137.957"/>
<polygon fill="black" stroke="black" points="596.717,-134.533 586.19,-135.735 595.168,-141.36 596.717,-134.533"/>
</g>
<!-- Ketrew_lsf&#45;&gt;Ketrew_host -->
<g id="edge30" class="edge"><title>Ketrew_lsf&#45;&gt;Ketrew_host</title>
<path fill="none" stroke="black" d="M776.39,-413.993C764.582,-390.878 742.487,-348.367 722,-313 710.637,-293.385 697.008,-271.691 686.553,-255.402"/>
<polygon fill="black" stroke="black" points="689.468,-253.464 681.106,-246.957 683.585,-257.258 689.468,-253.464"/>
</g>
<!-- Ketrew_lsf&#45;&gt;Ketrew_error -->
<g id="edge25" class="edge"><title>Ketrew_lsf&#45;&gt;Ketrew_error</title>
<path fill="none" stroke="black" d="M827.354,-422.73C918.102,-405.01 1131.39,-363.362 1234.37,-343.254"/>
<polygon fill="black" stroke="black" points="1235.13,-346.67 1244.28,-341.319 1233.79,-339.8 1235.13,-346.67"/>
</g>
<!-- Ketrew_lsf&#45;&gt;Ketrew_long_running -->
<g id="edge29" class="edge"><title>Ketrew_lsf&#45;&gt;Ketrew_long_running</title>
<path fill="none" stroke="black" d="M812.366,-416.816C844.792,-400.008 899.086,-371.866 936.171,-352.644"/>
<polygon fill="black" stroke="black" points="937.937,-355.671 945.205,-347.962 934.716,-349.456 937.937,-355.671"/>
</g>
<!-- Ketrew_monitored_script -->
<g id="node16" class="node"><title>Ketrew_monitored_script</title>
<ellipse fill="darkturquoise" stroke="darkturquoise" cx="951" cy="-229" rx="100.945" ry="18"/>
<text text-anchor="middle" x="951" y="-224.8" font-family="Times,serif" font-size="14.00">Ketrew_monitored_script</text>
</g>
<!-- Ketrew_lsf&#45;&gt;Ketrew_monitored_script -->
<g id="edge26" class="edge"><title>Ketrew_lsf&#45;&gt;Ketrew_monitored_script</title>
<path fill="none" stroke="black" d="M797.863,-414.408C815.772,-391.41 849.362,-348.648 879,-313 895.559,-293.083 914.808,-270.944 929.234,-254.544"/>
<polygon fill="black" stroke="black" points="931.908,-256.804 935.896,-246.988 926.657,-252.174 931.908,-256.804"/>
</g>
<!-- Ketrew_nohup_setsid&#45;&gt;Ketrew_pervasives -->
<g id="edge36" class="edge"><title>Ketrew_nohup_setsid&#45;&gt;Ketrew_pervasives</title>
<path fill="none" stroke="black" d="M1105.9,-414.045C1117.85,-398.292 1134.2,-373.619 1141,-349 1145.26,-333.577 1144.36,-328.642 1141,-313 1117.72,-204.751 1095.01,-162.379 998,-109 893.526,-51.5128 754.982,-33.4971 666.389,-28.0478"/>
<polygon fill="black" stroke="black" points="666.558,-24.5518 656.373,-27.4722 666.156,-31.5403 666.558,-24.5518"/>
</g>
<!-- Ketrew_nohup_setsid&#45;&gt;Ketrew_path -->
<g id="edge35" class="edge"><title>Ketrew_nohup_setsid&#45;&gt;Ketrew_path</title>
<path fill="none" stroke="black" d="M1102.91,-413.78C1116.09,-390.78 1135.29,-348.775 1125,-313 1110.2,-261.569 1105.68,-240.462 1061,-211 902.886,-106.736 826.991,-175.088 640,-145 625.534,-142.672 609.933,-140.119 595.356,-137.716"/>
<polygon fill="black" stroke="black" points="595.891,-134.257 585.454,-136.08 594.75,-141.163 595.891,-134.257"/>
</g>
<!-- Ketrew_nohup_setsid&#45;&gt;Ketrew_host -->
<g id="edge38" class="edge"><title>Ketrew_nohup_setsid&#45;&gt;Ketrew_host</title>
<path fill="none" stroke="black" d="M1094.7,-413.959C1097.7,-388.411 1099.12,-340.278 1073,-313 1049.37,-288.32 835.957,-254.169 729.639,-238.49"/>
<polygon fill="black" stroke="black" points="730.096,-235.019 719.694,-237.031 729.08,-241.945 730.096,-235.019"/>
</g>
<!-- Ketrew_nohup_setsid&#45;&gt;Ketrew_error -->
<g id="edge33" class="edge"><title>Ketrew_nohup_setsid&#45;&gt;Ketrew_error</title>
<path fill="none" stroke="black" d="M1124.13,-415.094C1159.35,-397.66 1215.84,-369.698 1253.43,-351.093"/>
<polygon fill="black" stroke="black" points="1255.14,-354.149 1262.55,-346.576 1252.04,-347.876 1255.14,-354.149"/>
</g>
<!-- Ketrew_nohup_setsid&#45;&gt;Ketrew_long_running -->
<g id="edge37" class="edge"><title>Ketrew_nohup_setsid&#45;&gt;Ketrew_long_running</title>
<path fill="none" stroke="black" d="M1072.58,-414.43C1053.6,-398.225 1024.51,-373.404 1003.22,-355.232"/>
<polygon fill="black" stroke="black" points="1005.36,-352.454 995.479,-348.624 1000.81,-357.778 1005.36,-352.454"/>
</g>
<!-- Ketrew_nohup_setsid&#45;&gt;Ketrew_monitored_script -->
<g id="edge34" class="edge"><title>Ketrew_nohup_setsid&#45;&gt;Ketrew_monitored_script</title>
<path fill="none" stroke="black" d="M1100.19,-413.994C1110.57,-389.749 1124.97,-344.681 1106,-313 1086.52,-280.465 1049.44,-259.961 1016.43,-247.472"/>
<polygon fill="black" stroke="black" points="1017.39,-244.098 1006.8,-244.005 1015.02,-250.685 1017.39,-244.098"/>
</g>
<!-- Ketrew_unix_process&#45;&gt;Ketrew_pervasives -->
<g id="edge53" class="edge"><title>Ketrew_unix_process&#45;&gt;Ketrew_pervasives</title>
<path fill="none" stroke="black" d="M710.426,-109.711C683.889,-92.8083 642.248,-66.2854 612.964,-47.6332"/>
<polygon fill="black" stroke="black" points="614.618,-44.5369 604.303,-42.1166 610.857,-50.4409 614.618,-44.5369"/>
</g>
<!-- Ketrew_monitored_script&#45;&gt;Ketrew_pervasives -->
<g id="edge31" class="edge"><title>Ketrew_monitored_script&#45;&gt;Ketrew_pervasives</title>
<path fill="none" stroke="black" d="M943.312,-211.043C930.695,-185.131 903.134,-135.865 865,-109 803.443,-65.6339 719.359,-44.7469 658.304,-34.7977"/>
<polygon fill="black" stroke="black" points="658.751,-31.325 648.33,-33.2358 657.668,-38.2407 658.751,-31.325"/>
</g>
<!-- Ketrew_monitored_script&#45;&gt;Ketrew_path -->
<g id="edge32" class="edge"><title>Ketrew_monitored_script&#45;&gt;Ketrew_path</title>
<path fill="none" stroke="black" d="M893.435,-214.095C813.06,-194.681 668.323,-159.721 590.3,-140.874"/>
<polygon fill="black" stroke="black" points="590.749,-137.382 580.207,-138.436 589.105,-144.187 590.749,-137.382"/>
</g>
<!-- Ketrew -->
<g id="node17" class="node"><title>Ketrew</title>
<ellipse fill="darkturquoise" stroke="darkturquoise" cx="451" cy="-839" rx="36.2645" ry="18"/>
<text text-anchor="middle" x="451" y="-834.8" font-family="Times,serif" font-size="14.00">Ketrew</text>
</g>
<!-- Ketrew&#45;&gt;Ketrew_artifact -->
<g id="edge66" class="edge"><title>Ketrew&#45;&gt;Ketrew_artifact</title>
<path fill="none" stroke="black" d="M416.512,-833.185C369.543,-824.995 285.228,-804.276 232,-756 194.603,-722.082 193.406,-703.182 182,-654 166.445,-586.93 105.89,-531.995 187,-414 216.223,-371.487 271.803,-350.98 316.812,-341.107"/>
<polygon fill="black" stroke="black" points="317.739,-344.49 326.827,-339.044 316.327,-337.634 317.739,-344.49"/>
</g>
<!-- Ketrew&#45;&gt;Ketrew_pervasives -->
<g id="edge59" class="edge"><title>Ketrew&#45;&gt;Ketrew_pervasives</title>
<path fill="none" stroke="black" d="M414.855,-838.326C307.835,-837.226 0,-818.304 0,-637 0,-637 0,-637 0,-228 0,-162.221 31.9476,-143.424 88,-109 154.997,-67.8543 374.65,-43.2775 496.216,-32.4959"/>
<polygon fill="black" stroke="black" points="496.574,-35.9781 506.231,-31.6193 495.964,-29.0048 496.574,-35.9781"/>
</g>
<!-- Ketrew&#45;&gt;Ketrew_path -->
<g id="edge60" class="edge"><title>Ketrew&#45;&gt;Ketrew_path</title>
<path fill="none" stroke="black" d="M415.009,-836.473C360.477,-832.201 257.035,-816.13 198,-756 121.264,-677.841 133.985,-625.238 142,-516 152.027,-379.344 94.3827,-311.982 187,-211 225.206,-169.344 384.387,-145.098 474.351,-134.469"/>
<polygon fill="black" stroke="black" points="474.903,-137.928 484.433,-133.3 474.097,-130.975 474.903,-137.928"/>
</g>
<!-- Ketrew&#45;&gt;Ketrew_host -->
<g id="edge62" class="edge"><title>Ketrew&#45;&gt;Ketrew_host</title>
<path fill="none" stroke="black" d="M464.916,-822.069C478.117,-806.251 497.711,-780.836 510,-756 598.947,-576.244 649.67,-337.218 664.995,-257.311"/>
<polygon fill="black" stroke="black" points="668.504,-257.59 666.923,-247.114 661.626,-256.29 668.504,-257.59"/>
</g>
<!-- Ketrew&#45;&gt;Ketrew_command_line -->
<g id="edge65" class="edge"><title>Ketrew&#45;&gt;Ketrew_command_line</title>
<path fill="none" stroke="black" d="M441.092,-821.652C431.739,-806.219 417.563,-782.828 406.676,-764.865"/>
<polygon fill="black" stroke="black" points="409.501,-762.774 401.325,-756.036 403.515,-766.402 409.501,-762.774"/>
</g>
<!-- Ketrew&#45;&gt;Ketrew_error -->
<g id="edge63" class="edge"><title>Ketrew&#45;&gt;Ketrew_error</title>
<path fill="none" stroke="black" d="M487.359,-838.332C663.087,-838.983 1416,-830.484 1416,-637 1416,-637 1416,-637 1416,-533 1416,-459.121 1354.57,-389.666 1318.19,-355.007"/>
<polygon fill="black" stroke="black" points="1320.53,-352.41 1310.83,-348.15 1315.76,-357.53 1320.53,-352.41"/>
</g>
<!-- Ketrew&#45;&gt;Ketrew_target -->
<g id="edge57" class="edge"><title>Ketrew&#45;&gt;Ketrew_target</title>
<path fill="none" stroke="black" d="M421.145,-828.805C361.959,-808.637 232.011,-754.135 192,-654 183.164,-631.886 179.384,-566.205 197,-516 204.77,-493.855 220.478,-472.481 233.873,-456.97"/>
<polygon fill="black" stroke="black" points="236.564,-459.211 240.612,-449.42 231.342,-454.55 236.564,-459.211"/>
</g>
<!-- Ketrew&#45;&gt;Ketrew_state -->
<g id="edge58" class="edge"><title>Ketrew&#45;&gt;Ketrew_state</title>
<path fill="none" stroke="black" d="M462.344,-821.648C472.649,-805.722 487.112,-780.412 493,-756 509.544,-687.409 491.195,-603.956 479.384,-561.935"/>
<polygon fill="black" stroke="black" points="482.7,-560.804 476.547,-552.179 475.978,-562.758 482.7,-560.804"/>
</g>
<!-- Ketrew&#45;&gt;Ketrew_edsl -->
<g id="edge64" class="edge"><title>Ketrew&#45;&gt;Ketrew_edsl</title>
<path fill="none" stroke="black" d="M479.131,-827.685C525.892,-810.54 620.007,-776.031 676.053,-755.481"/>
<polygon fill="black" stroke="black" points="677.534,-758.665 685.718,-751.937 675.124,-752.093 677.534,-758.665"/>
</g>
<!-- Ketrew&#45;&gt;Ketrew_nohup_setsid -->
<g id="edge61" class="edge"><title>Ketrew&#45;&gt;Ketrew_nohup_setsid</title>
<path fill="none" stroke="black" d="M486.397,-835.274C581.018,-826.258 843.371,-789.718 1002,-654 1043.59,-618.419 1050.46,-602.731 1071,-552 1083.14,-522.018 1088.27,-484.985 1090.44,-460.27"/>
<polygon fill="black" stroke="black" points="1093.94,-460.409 1091.22,-450.17 1086.96,-459.871 1093.94,-460.409"/>
</g>
</g>
</svg>
