<?xml version="1.0" encoding="UTF-8" standalone="no"?>
<!DOCTYPE svg PUBLIC "-//W3C//DTD SVG 1.1//EN"
 "http://www.w3.org/Graphics/SVG/1.1/DTD/svg11.dtd">
<!-- Generated by graphviz version 2.38.0 (20140413.2041)
 -->
<!-- Title: G Pages: 1 -->
<svg width="453pt" height="720pt"
 viewBox="0.00 0.00 720.00 453.22" xmlns="http://www.w3.org/2000/svg" xmlns:xlink="http://www.w3.org/1999/xlink">
<g id="graph0" class="graph" transform="scale(0.560748 0.560748) rotate(-90) translate(-1280 804.25)">
<title>G</title>
<polygon fill="white" stroke="none" points="-4,4 -4,-804.25 1280,-804.25 1280,4 -4,4"/>
<!-- Ketrew_artifact -->
<g id="node1" class="node"><title>Ketrew_artifact</title>
<ellipse fill="darkturquoise" stroke="darkturquoise" cx="246" cy="-306" rx="65.6803" ry="18"/>
<text text-anchor="middle" x="246" y="-301.8" font-family="Times,serif" font-size="14.00">Ketrew_artifact</text>
</g>
<!-- Ketrew_pervasives -->
<g id="node2" class="node"><title>Ketrew_pervasives</title>
<ellipse fill="darkturquoise" stroke="darkturquoise" cx="573" cy="-24" rx="77.7589" ry="18"/>
<text text-anchor="middle" x="573" y="-19.8" font-family="Times,serif" font-size="14.00">Ketrew_pervasives</text>
</g>
<!-- Ketrew_artifact&#45;&gt;Ketrew_pervasives -->
<g id="edge1" class="edge"><title>Ketrew_artifact&#45;&gt;Ketrew_pervasives</title>
<path fill="none" stroke="black" d="M250.121,-287.951C260.42,-248.943 290.946,-152.518 352,-100 392.922,-64.7992 451.104,-45.9242 497.499,-35.9159"/>
<polygon fill="black" stroke="black" points="498.422,-39.2994 507.51,-33.8532 497.009,-32.4434 498.422,-39.2994"/>
</g>
<!-- Ketrew_path -->
<g id="node3" class="node"><title>Ketrew_path</title>
<ellipse fill="darkturquoise" stroke="darkturquoise" cx="795" cy="-118" rx="55.5596" ry="18"/>
<text text-anchor="middle" x="795" y="-113.8" font-family="Times,serif" font-size="14.00">Ketrew_path</text>
</g>
<!-- Ketrew_artifact&#45;&gt;Ketrew_path -->
<g id="edge2" class="edge"><title>Ketrew_artifact&#45;&gt;Ketrew_path</title>
<path fill="none" stroke="black" d="M261.991,-288.408C286.89,-263.643 337.542,-217.42 390,-194 502.555,-143.749 647.159,-127.166 729.62,-121.694"/>
<polygon fill="black" stroke="black" points="730.091,-125.171 739.852,-121.051 729.652,-118.185 730.091,-125.171"/>
</g>
<!-- Ketrew_host -->
<g id="node4" class="node"><title>Ketrew_host</title>
<ellipse fill="darkturquoise" stroke="darkturquoise" cx="454" cy="-212" rx="55.0922" ry="18"/>
<text text-anchor="middle" x="454" y="-207.8" font-family="Times,serif" font-size="14.00">Ketrew_host</text>
</g>
<!-- Ketrew_artifact&#45;&gt;Ketrew_host -->
<g id="edge3" class="edge"><title>Ketrew_artifact&#45;&gt;Ketrew_host</title>
<path fill="none" stroke="black" d="M278.958,-290.422C315.285,-274.355 373.764,-248.489 413.017,-231.127"/>
<polygon fill="black" stroke="black" points="414.828,-234.153 422.558,-226.907 411.996,-227.751 414.828,-234.153"/>
</g>
<!-- Ketrew_path&#45;&gt;Ketrew_pervasives -->
<g id="edge35" class="edge"><title>Ketrew_path&#45;&gt;Ketrew_pervasives</title>
<path fill="none" stroke="black" d="M762.243,-103.425C724.231,-87.6722 661.31,-61.597 618.549,-43.8762"/>
<polygon fill="black" stroke="black" points="619.791,-40.6021 609.213,-40.007 617.111,-47.0688 619.791,-40.6021"/>
</g>
<!-- Ketrew_host&#45;&gt;Ketrew_pervasives -->
<g id="edge19" class="edge"><title>Ketrew_host&#45;&gt;Ketrew_pervasives</title>
<path fill="none" stroke="black" d="M426.126,-196.328C390.517,-175.623 336.38,-136.296 362,-100 390.823,-59.1647 443.914,-40.4291 489.627,-31.895"/>
<polygon fill="black" stroke="black" points="490.301,-35.3305 499.558,-30.1766 489.108,-28.433 490.301,-35.3305"/>
</g>
<!-- Ketrew_host&#45;&gt;Ketrew_path -->
<g id="edge20" class="edge"><title>Ketrew_host&#45;&gt;Ketrew_path</title>
<path fill="none" stroke="black" d="M495.133,-199.903C557.474,-183.083 675.793,-151.161 743.68,-132.846"/>
<polygon fill="black" stroke="black" points="744.978,-136.121 753.722,-130.137 743.155,-129.362 744.978,-136.121"/>
</g>
<!-- Ketrew_unix_process -->
<g id="node14" class="node"><title>Ketrew_unix_process</title>
<ellipse fill="darkturquoise" stroke="darkturquoise" cx="458" cy="-118" rx="87.4394" ry="18"/>
<text text-anchor="middle" x="458" y="-113.8" font-family="Times,serif" font-size="14.00">Ketrew_unix_process</text>
</g>
<!-- Ketrew_host&#45;&gt;Ketrew_unix_process -->
<g id="edge18" class="edge"><title>Ketrew_host&#45;&gt;Ketrew_unix_process</title>
<path fill="none" stroke="black" d="M454.752,-193.696C455.333,-180.331 456.148,-161.587 456.817,-146.219"/>
<polygon fill="black" stroke="black" points="460.313,-146.37 457.251,-136.227 453.32,-146.065 460.313,-146.37"/>
</g>
<!-- Ketrew_command_line -->
<g id="node5" class="node"><title>Ketrew_command_line</title>
<ellipse fill="darkturquoise" stroke="darkturquoise" cx="429" cy="-588" rx="93.2188" ry="18"/>
<text text-anchor="middle" x="429" y="-583.8" font-family="Times,serif" font-size="14.00">Ketrew_command_line</text>
</g>
<!-- Ketrew_command_line&#45;&gt;Ketrew_pervasives -->
<g id="edge7" class="edge"><title>Ketrew_command_line&#45;&gt;Ketrew_pervasives</title>
<path fill="none" stroke="black" d="M370.463,-573.97C261.387,-545.856 38,-468.558 38,-307 38,-307 38,-307 38,-211 38,-198.56 34.2247,-165.052 179,-100 279.297,-54.9335 405.776,-36.9278 487.973,-29.7459"/>
<polygon fill="black" stroke="black" points="488.35,-33.2267 498.022,-28.9026 487.764,-26.2512 488.35,-33.2267"/>
</g>
<!-- Ketrew_error -->
<g id="node6" class="node"><title>Ketrew_error</title>
<ellipse fill="darkturquoise" stroke="darkturquoise" cx="578" cy="-306" rx="57.9719" ry="18"/>
<text text-anchor="middle" x="578" y="-301.8" font-family="Times,serif" font-size="14.00">Ketrew_error</text>
</g>
<!-- Ketrew_command_line&#45;&gt;Ketrew_error -->
<g id="edge4" class="edge"><title>Ketrew_command_line&#45;&gt;Ketrew_error</title>
<path fill="none" stroke="black" d="M438.096,-569.906C463.302,-522.54 534.161,-389.383 564.23,-332.876"/>
<polygon fill="black" stroke="black" points="567.415,-334.342 569.023,-323.87 561.235,-331.054 567.415,-334.342"/>
</g>
<!-- Ketrew_target -->
<g id="node7" class="node"><title>Ketrew_target</title>
<ellipse fill="darkturquoise" stroke="darkturquoise" cx="289" cy="-400" rx="60.5585" ry="18"/>
<text text-anchor="middle" x="289" y="-395.8" font-family="Times,serif" font-size="14.00">Ketrew_target</text>
</g>
<!-- Ketrew_command_line&#45;&gt;Ketrew_target -->
<g id="edge5" class="edge"><title>Ketrew_command_line&#45;&gt;Ketrew_target</title>
<path fill="none" stroke="black" d="M416.329,-570.166C391.549,-537.243 336.571,-464.201 307.635,-425.759"/>
<polygon fill="black" stroke="black" points="310.352,-423.547 301.541,-417.662 304.759,-427.757 310.352,-423.547"/>
</g>
<!-- Ketrew_state -->
<g id="node8" class="node"><title>Ketrew_state</title>
<ellipse fill="darkturquoise" stroke="darkturquoise" cx="664" cy="-494" rx="56.5201" ry="18"/>
<text text-anchor="middle" x="664" y="-489.8" font-family="Times,serif" font-size="14.00">Ketrew_state</text>
</g>
<!-- Ketrew_command_line&#45;&gt;Ketrew_state -->
<g id="edge6" class="edge"><title>Ketrew_command_line&#45;&gt;Ketrew_state</title>
<path fill="none" stroke="black" d="M468.334,-571.601C510.242,-555.194 576.431,-529.282 620.032,-512.213"/>
<polygon fill="black" stroke="black" points="621.481,-515.404 629.517,-508.5 618.929,-508.886 621.481,-515.404"/>
</g>
<!-- Ketrew_long_running -->
<g id="node9" class="node"><title>Ketrew_long_running</title>
<ellipse fill="darkturquoise" stroke="darkturquoise" cx="818" cy="-306" rx="88.417" ry="18"/>
<text text-anchor="middle" x="818" y="-301.8" font-family="Times,serif" font-size="14.00">Ketrew_long_running</text>
</g>
<!-- Ketrew_command_line&#45;&gt;Ketrew_long_running -->
<g id="edge8" class="edge"><title>Ketrew_command_line&#45;&gt;Ketrew_long_running</title>
<path fill="none" stroke="black" d="M520.94,-585.039C586.112,-579.076 671.95,-561.369 730,-512 758.44,-487.813 793.952,-383.795 809.755,-333.901"/>
<polygon fill="black" stroke="black" points="813.169,-334.713 812.819,-324.124 806.489,-332.62 813.169,-334.713"/>
</g>
<!-- Ketrew_error&#45;&gt;Ketrew_pervasives -->
<g id="edge60" class="edge"><title>Ketrew_error&#45;&gt;Ketrew_pervasives</title>
<path fill="none" stroke="black" d="M577.695,-287.906C576.856,-240.946 574.512,-109.654 573.488,-52.3426"/>
<polygon fill="black" stroke="black" points="576.986,-52.1617 573.308,-42.2258 569.987,-52.2867 576.986,-52.1617"/>
</g>
<!-- Ketrew_error&#45;&gt;Ketrew_host -->
<g id="edge61" class="edge"><title>Ketrew_error&#45;&gt;Ketrew_host</title>
<path fill="none" stroke="black" d="M556.684,-289.185C536.544,-274.242 506.151,-251.693 483.652,-235"/>
<polygon fill="black" stroke="black" points="485.57,-232.065 475.453,-228.917 481.399,-237.686 485.57,-232.065"/>
</g>
<!-- Ketrew_target&#45;&gt;Ketrew_artifact -->
<g id="edge48" class="edge"><title>Ketrew_target&#45;&gt;Ketrew_artifact</title>
<path fill="none" stroke="black" d="M281.113,-382.126C274.728,-368.465 265.622,-348.982 258.283,-333.281"/>
<polygon fill="black" stroke="black" points="261.388,-331.656 253.982,-324.079 255.046,-334.62 261.388,-331.656"/>
</g>
<!-- Ketrew_target&#45;&gt;Ketrew_pervasives -->
<g id="edge46" class="edge"><title>Ketrew_target&#45;&gt;Ketrew_pervasives</title>
<path fill="none" stroke="black" d="M250.38,-385.966C222.817,-374.399 187.77,-354.53 171,-324 163.297,-309.976 165.736,-303.109 171,-288 181.825,-256.931 196.874,-256.027 217,-230 261.262,-172.762 255.441,-141.086 315,-100 368.678,-62.9715 440.669,-44.0187 494.964,-34.4421"/>
<polygon fill="black" stroke="black" points="495.613,-37.8821 504.888,-32.7609 494.444,-30.9805 495.613,-37.8821"/>
</g>
<!-- Ketrew_target&#45;&gt;Ketrew_path -->
<g id="edge45" class="edge"><title>Ketrew_target&#45;&gt;Ketrew_path</title>
<path fill="none" stroke="black" d="M316.564,-383.747C402.087,-336.422 662.93,-192.082 758.991,-138.926"/>
<polygon fill="black" stroke="black" points="760.972,-141.83 768.027,-133.926 757.582,-135.705 760.972,-141.83"/>
</g>
<!-- Ketrew_target&#45;&gt;Ketrew_host -->
<g id="edge47" class="edge"><title>Ketrew_target&#45;&gt;Ketrew_host</title>
<path fill="none" stroke="black" d="M298.352,-382.15C311.392,-359.441 336.547,-318.362 364,-288 381.981,-268.114 405.306,-248.823 423.704,-234.786"/>
<polygon fill="black" stroke="black" points="425.881,-237.528 431.774,-228.723 421.677,-231.932 425.881,-237.528"/>
</g>
<!-- Ketrew_state&#45;&gt;Ketrew_artifact -->
<g id="edge36" class="edge"><title>Ketrew_state&#45;&gt;Ketrew_artifact</title>
<path fill="none" stroke="black" d="M632.239,-478.867C557.758,-445.725 371.84,-362.996 288.08,-325.725"/>
<polygon fill="black" stroke="black" points="289.423,-322.491 278.864,-321.624 286.577,-328.887 289.423,-322.491"/>
</g>
<!-- Ketrew_state&#45;&gt;Ketrew_pervasives -->
<g id="edge42" class="edge"><title>Ketrew_state&#45;&gt;Ketrew_pervasives</title>
<path fill="none" stroke="black" d="M663.423,-475.854C662.011,-440.476 657.53,-356.926 645,-288 629.021,-200.098 597.471,-98.8648 581.993,-51.7297"/>
<polygon fill="black" stroke="black" points="585.235,-50.3866 578.77,-41.9926 578.589,-52.5859 585.235,-50.3866"/>
</g>
<!-- Ketrew_state&#45;&gt;Ketrew_path -->
<g id="edge40" class="edge"><title>Ketrew_state&#45;&gt;Ketrew_path</title>
<path fill="none" stroke="black" d="M667.861,-476.008C676.102,-440.569 696.659,-356.385 721,-288 739.397,-236.316 766.302,-178.139 782.095,-145.294"/>
<polygon fill="black" stroke="black" points="785.412,-146.475 786.618,-135.949 779.111,-143.426 785.412,-146.475"/>
</g>
<!-- Ketrew_state&#45;&gt;Ketrew_host -->
<g id="edge44" class="edge"><title>Ketrew_state&#45;&gt;Ketrew_host</title>
<path fill="none" stroke="black" d="M638.774,-477.845C597.837,-451.839 517.45,-394.629 477,-324 462.157,-298.083 456.829,-263.886 454.952,-240.334"/>
<polygon fill="black" stroke="black" points="458.443,-240.085 454.31,-230.33 451.457,-240.533 458.443,-240.085"/>
</g>
<!-- Ketrew_state&#45;&gt;Ketrew_target -->
<g id="edge41" class="edge"><title>Ketrew_state&#45;&gt;Ketrew_target</title>
<path fill="none" stroke="black" d="M620.616,-482.357C552.07,-465.54 418.816,-432.848 343.774,-414.438"/>
<polygon fill="black" stroke="black" points="344.576,-411.031 334.03,-412.047 342.908,-417.829 344.576,-411.031"/>
</g>
<!-- Ketrew_state&#45;&gt;Ketrew_long_running -->
<g id="edge43" class="edge"><title>Ketrew_state&#45;&gt;Ketrew_long_running</title>
<path fill="none" stroke="black" d="M677.666,-476.494C704.699,-443.844 765.146,-370.837 797.169,-332.16"/>
<polygon fill="black" stroke="black" points="800.238,-333.94 803.92,-324.006 794.847,-329.476 800.238,-333.94"/>
</g>
<!-- Ketrew_database -->
<g id="node10" class="node"><title>Ketrew_database</title>
<ellipse fill="darkturquoise" stroke="darkturquoise" cx="137" cy="-212" rx="70.9927" ry="18"/>
<text text-anchor="middle" x="137" y="-207.8" font-family="Times,serif" font-size="14.00">Ketrew_database</text>
</g>
<!-- Ketrew_state&#45;&gt;Ketrew_database -->
<g id="edge37" class="edge"><title>Ketrew_state&#45;&gt;Ketrew_database</title>
<path fill="none" stroke="black" d="M609.588,-488.463C506.052,-479.084 285.119,-455.267 219,-418 170.957,-390.921 157.434,-375.611 138,-324 127.799,-296.909 129.225,-263.394 132.145,-240.32"/>
<polygon fill="black" stroke="black" points="135.64,-240.608 133.605,-230.211 128.712,-239.608 135.64,-240.608"/>
</g>
<!-- Ketrew_lsf -->
<g id="node12" class="node"><title>Ketrew_lsf</title>
<ellipse fill="darkturquoise" stroke="darkturquoise" cx="855" cy="-400" rx="49.2946" ry="18"/>
<text text-anchor="middle" x="855" y="-395.8" font-family="Times,serif" font-size="14.00">Ketrew_lsf</text>
</g>
<!-- Ketrew_state&#45;&gt;Ketrew_lsf -->
<g id="edge38" class="edge"><title>Ketrew_state&#45;&gt;Ketrew_lsf</title>
<path fill="none" stroke="black" d="M693.844,-478.625C727.072,-462.62 780.853,-436.715 817.047,-419.281"/>
<polygon fill="black" stroke="black" points="818.812,-422.316 826.302,-414.823 815.774,-416.009 818.812,-422.316"/>
</g>
<!-- Ketrew_nohup_setsid -->
<g id="node13" class="node"><title>Ketrew_nohup_setsid</title>
<ellipse fill="darkturquoise" stroke="darkturquoise" cx="1010" cy="-400" rx="87.4567" ry="18"/>
<text text-anchor="middle" x="1010" y="-395.8" font-family="Times,serif" font-size="14.00">Ketrew_nohup_setsid</text>
</g>
<!-- Ketrew_state&#45;&gt;Ketrew_nohup_setsid -->
<g id="edge39" class="edge"><title>Ketrew_state&#45;&gt;Ketrew_nohup_setsid</title>
<path fill="none" stroke="black" d="M706.08,-481.811C766.675,-465.699 878.872,-435.866 948.686,-417.303"/>
<polygon fill="black" stroke="black" points="949.903,-420.601 958.668,-414.649 948.104,-413.836 949.903,-420.601"/>
</g>
<!-- Ketrew_long_running&#45;&gt;Ketrew_pervasives -->
<g id="edge62" class="edge"><title>Ketrew_long_running&#45;&gt;Ketrew_pervasives</title>
<path fill="none" stroke="black" d="M803.043,-287.906C761.255,-240.149 643.154,-105.176 594.429,-49.4908"/>
<polygon fill="black" stroke="black" points="596.98,-47.091 587.761,-41.87 591.712,-51.7006 596.98,-47.091"/>
</g>
<!-- Ketrew_database&#45;&gt;Ketrew_pervasives -->
<g id="edge9" class="edge"><title>Ketrew_database&#45;&gt;Ketrew_pervasives</title>
<path fill="none" stroke="black" d="M145.051,-194.047C157.753,-169.247 184.869,-123.481 222,-100 301.851,-49.503 410.238,-32.5128 485.35,-27.0529"/>
<polygon fill="black" stroke="black" points="485.978,-30.5187 495.721,-26.3567 485.509,-23.5344 485.978,-30.5187"/>
</g>
<!-- Ketrew_edsl -->
<g id="node11" class="node"><title>Ketrew_edsl</title>
<ellipse fill="darkturquoise" stroke="darkturquoise" cx="550" cy="-683" rx="54.599" ry="18"/>
<text text-anchor="middle" x="550" y="-678.8" font-family="Times,serif" font-size="14.00">Ketrew_edsl</text>
</g>
<!-- Ketrew_edsl&#45;&gt;Ketrew_artifact -->
<g id="edge17" class="edge"><title>Ketrew_edsl&#45;&gt;Ketrew_artifact</title>
<path fill="none" stroke="black" d="M496.815,-678.437C441.893,-672.117 356.714,-654.592 302,-606 233.708,-545.349 237.85,-507.37 219,-418 212.832,-388.756 223.282,-355.477 232.923,-333.048"/>
<polygon fill="black" stroke="black" points="236.15,-334.404 237.093,-323.851 229.775,-331.513 236.15,-334.404"/>
</g>
<!-- Ketrew_edsl&#45;&gt;Ketrew_pervasives -->
<g id="edge14" class="edge"><title>Ketrew_edsl&#45;&gt;Ketrew_pervasives</title>
<path fill="none" stroke="black" d="M603.479,-678.768C714.037,-669.668 971.567,-635.715 1141,-512 1193.91,-473.365 1238,-466.516 1238,-401 1238,-401 1238,-401 1238,-211 1238,-91.6366 835.622,-45.4265 656.861,-30.7867"/>
<polygon fill="black" stroke="black" points="656.956,-27.2832 646.707,-29.9695 656.394,-34.2606 656.956,-27.2832"/>
</g>
<!-- Ketrew_edsl&#45;&gt;Ketrew_path -->
<g id="edge12" class="edge"><title>Ketrew_edsl&#45;&gt;Ketrew_path</title>
<path fill="none" stroke="black" d="M595.191,-672.746C742.596,-641.281 1200,-533.008 1200,-401 1200,-401 1200,-401 1200,-305 1200,-249.542 1187,-227.753 1143,-194 1098.84,-160.124 944.546,-136.79 856.96,-125.933"/>
<polygon fill="black" stroke="black" points="857.231,-122.44 846.881,-124.702 856.383,-129.389 857.231,-122.44"/>
</g>
<!-- Ketrew_edsl&#45;&gt;Ketrew_host -->
<g id="edge15" class="edge"><title>Ketrew_edsl&#45;&gt;Ketrew_host</title>
<path fill="none" stroke="black" d="M547.699,-664.804C544.602,-642.717 538.596,-603.263 531,-570 505.665,-459.06 478.971,-436.204 460,-324 455.217,-295.709 453.966,-262.841 453.757,-240.254"/>
<polygon fill="black" stroke="black" points="457.257,-240.047 453.728,-230.057 450.257,-240.067 457.257,-240.047"/>
</g>
<!-- Ketrew_edsl&#45;&gt;Ketrew_command_line -->
<g id="edge16" class="edge"><title>Ketrew_edsl&#45;&gt;Ketrew_command_line</title>
<path fill="none" stroke="black" d="M529.474,-666.224C510.103,-651.335 480.835,-628.841 458.877,-611.963"/>
<polygon fill="black" stroke="black" points="460.917,-609.117 450.855,-605.798 456.651,-614.667 460.917,-609.117"/>
</g>
<!-- Ketrew_edsl&#45;&gt;Ketrew_target -->
<g id="edge13" class="edge"><title>Ketrew_edsl&#45;&gt;Ketrew_target</title>
<path fill="none" stroke="black" d="M496.532,-678.726C445.254,-672.602 369.53,-655.2 327,-606 283.356,-555.511 282.867,-471.413 286.01,-428.306"/>
<polygon fill="black" stroke="black" points="289.503,-428.536 286.863,-418.275 282.528,-427.942 289.503,-428.536"/>
</g>
<!-- Ketrew_edsl&#45;&gt;Ketrew_lsf -->
<g id="edge10" class="edge"><title>Ketrew_edsl&#45;&gt;Ketrew_lsf</title>
<path fill="none" stroke="black" d="M578.417,-667.513C627.012,-641.643 727.104,-583.457 792,-512 815.175,-486.482 833.448,-450.988 844.219,-427.066"/>
<polygon fill="black" stroke="black" points="847.431,-428.457 848.237,-417.893 841.019,-425.648 847.431,-428.457"/>
</g>
<!-- Ketrew_edsl&#45;&gt;Ketrew_nohup_setsid -->
<g id="edge11" class="edge"><title>Ketrew_edsl&#45;&gt;Ketrew_nohup_setsid</title>
<path fill="none" stroke="black" d="M584.5,-668.885C619.541,-655.038 674.916,-631.686 720,-606 821.239,-548.32 931.042,-464.086 981.595,-423.935"/>
<polygon fill="black" stroke="black" points="983.839,-426.622 989.475,-417.651 979.475,-421.149 983.839,-426.622"/>
</g>
<!-- Ketrew_lsf&#45;&gt;Ketrew_pervasives -->
<g id="edge24" class="edge"><title>Ketrew_lsf&#45;&gt;Ketrew_pervasives</title>
<path fill="none" stroke="black" d="M878.148,-384.001C896.348,-370.709 920.346,-349.483 931,-324 947.087,-285.524 899.64,-135.664 860,-100 805.601,-51.0569 723.174,-33.3393 660.59,-27.2623"/>
<polygon fill="black" stroke="black" points="660.601,-23.7496 650.331,-26.3523 659.982,-30.7223 660.601,-23.7496"/>
</g>
<!-- Ketrew_lsf&#45;&gt;Ketrew_path -->
<g id="edge23" class="edge"><title>Ketrew_lsf&#45;&gt;Ketrew_path</title>
<path fill="none" stroke="black" d="M873.844,-383.239C896.706,-362.086 930.399,-323.107 915,-288 899.713,-253.146 875.049,-260.286 852,-230 831.91,-203.604 815.461,-169.072 805.484,-145.581"/>
<polygon fill="black" stroke="black" points="808.676,-144.142 801.613,-136.245 802.21,-146.823 808.676,-144.142"/>
</g>
<!-- Ketrew_lsf&#45;&gt;Ketrew_host -->
<g id="edge26" class="edge"><title>Ketrew_lsf&#45;&gt;Ketrew_host</title>
<path fill="none" stroke="black" d="M808.355,-393.793C725.547,-383.756 557.214,-359.537 511,-324 483.832,-303.109 468.474,-265.647 460.705,-240.074"/>
<polygon fill="black" stroke="black" points="464.015,-238.918 457.915,-230.255 457.282,-240.831 464.015,-238.918"/>
</g>
<!-- Ketrew_lsf&#45;&gt;Ketrew_error -->
<g id="edge21" class="edge"><title>Ketrew_lsf&#45;&gt;Ketrew_error</title>
<path fill="none" stroke="black" d="M819.636,-387.255C770.379,-370.895 680.97,-341.199 625.809,-322.879"/>
<polygon fill="black" stroke="black" points="626.853,-319.538 616.26,-319.707 624.647,-326.181 626.853,-319.538"/>
</g>
<!-- Ketrew_lsf&#45;&gt;Ketrew_long_running -->
<g id="edge25" class="edge"><title>Ketrew_lsf&#45;&gt;Ketrew_long_running</title>
<path fill="none" stroke="black" d="M848.214,-382.126C842.771,-368.594 835.032,-349.35 828.749,-333.726"/>
<polygon fill="black" stroke="black" points="831.847,-332.051 824.869,-324.079 825.353,-334.663 831.847,-332.051"/>
</g>
<!-- Ketrew_monitored_script -->
<g id="node15" class="node"><title>Ketrew_monitored_script</title>
<ellipse fill="darkturquoise" stroke="darkturquoise" cx="1033" cy="-212" rx="100.945" ry="18"/>
<text text-anchor="middle" x="1033" y="-207.8" font-family="Times,serif" font-size="14.00">Ketrew_monitored_script</text>
</g>
<!-- Ketrew_lsf&#45;&gt;Ketrew_monitored_script -->
<g id="edge22" class="edge"><title>Ketrew_lsf&#45;&gt;Ketrew_monitored_script</title>
<path fill="none" stroke="black" d="M891.322,-387.729C935.99,-373.088 1007.89,-346.712 1024,-324 1041.25,-299.687 1040.98,-264.396 1038.05,-240.17"/>
<polygon fill="black" stroke="black" points="1041.5,-239.614 1036.61,-230.214 1034.57,-240.61 1041.5,-239.614"/>
</g>
<!-- Ketrew_nohup_setsid&#45;&gt;Ketrew_pervasives -->
<g id="edge32" class="edge"><title>Ketrew_nohup_setsid&#45;&gt;Ketrew_pervasives</title>
<path fill="none" stroke="black" d="M1043.71,-383.284C1067.53,-370.515 1098.42,-350.317 1117,-324 1150.98,-275.862 1173.87,-244.188 1143,-194 1090.69,-108.948 791.857,-55.9233 649.021,-35.0971"/>
<polygon fill="black" stroke="black" points="649.409,-31.6169 639.012,-33.6532 648.409,-38.5452 649.409,-31.6169"/>
</g>
<!-- Ketrew_nohup_setsid&#45;&gt;Ketrew_path -->
<g id="edge31" class="edge"><title>Ketrew_nohup_setsid&#45;&gt;Ketrew_path</title>
<path fill="none" stroke="black" d="M1002.65,-382.05C992.554,-359.583 973.097,-319.15 951,-288 910.791,-231.317 853.149,-173.593 820.364,-142.443"/>
<polygon fill="black" stroke="black" points="822.656,-139.793 812.98,-135.478 817.853,-144.885 822.656,-139.793"/>
</g>
<!-- Ketrew_nohup_setsid&#45;&gt;Ketrew_host -->
<g id="edge34" class="edge"><title>Ketrew_nohup_setsid&#45;&gt;Ketrew_host</title>
<path fill="none" stroke="black" d="M1000.62,-381.793C985.94,-356.67 955.021,-310.496 915,-288 847.979,-250.327 627.292,-227.313 517.372,-217.912"/>
<polygon fill="black" stroke="black" points="517.348,-214.398 507.089,-217.045 516.76,-221.373 517.348,-214.398"/>
</g>
<!-- Ketrew_nohup_setsid&#45;&gt;Ketrew_error -->
<g id="edge29" class="edge"><title>Ketrew_nohup_setsid&#45;&gt;Ketrew_error</title>
<path fill="none" stroke="black" d="M951.739,-386.592C868.389,-368.842 716.138,-336.418 634.036,-318.934"/>
<polygon fill="black" stroke="black" points="634.648,-315.486 624.139,-316.826 633.19,-322.332 634.648,-315.486"/>
</g>
<!-- Ketrew_nohup_setsid&#45;&gt;Ketrew_long_running -->
<g id="edge33" class="edge"><title>Ketrew_nohup_setsid&#45;&gt;Ketrew_long_running</title>
<path fill="none" stroke="black" d="M976.994,-383.185C944.613,-367.669 895.112,-343.95 859.955,-327.103"/>
<polygon fill="black" stroke="black" points="861.427,-323.928 850.896,-322.763 858.402,-330.24 861.427,-323.928"/>
</g>
<!-- Ketrew_nohup_setsid&#45;&gt;Ketrew_monitored_script -->
<g id="edge30" class="edge"><title>Ketrew_nohup_setsid&#45;&gt;Ketrew_monitored_script</title>
<path fill="none" stroke="black" d="M1040.8,-382.916C1061.77,-370.085 1087.84,-349.971 1100,-324 1114.82,-292.363 1087.04,-258.288 1062.87,-236.36"/>
<polygon fill="black" stroke="black" points="1065.05,-233.615 1055.21,-229.685 1060.45,-238.893 1065.05,-233.615"/>
</g>
<!-- Ketrew_unix_process&#45;&gt;Ketrew_pervasives -->
<g id="edge49" class="edge"><title>Ketrew_unix_process&#45;&gt;Ketrew_pervasives</title>
<path fill="none" stroke="black" d="M478.826,-100.339C497.144,-85.6851 523.984,-64.2125 544.329,-47.9366"/>
<polygon fill="black" stroke="black" points="546.707,-50.5166 552.329,-41.5366 542.334,-45.0505 546.707,-50.5166"/>
</g>
<!-- Ketrew_monitored_script&#45;&gt;Ketrew_pervasives -->
<g id="edge27" class="edge"><title>Ketrew_monitored_script&#45;&gt;Ketrew_pervasives</title>
<path fill="none" stroke="black" d="M1020.58,-194.097C1001.44,-169.361 962.294,-123.676 918,-100 836.04,-56.1905 730.146,-37.9663 657.419,-30.3883"/>
<polygon fill="black" stroke="black" points="657.681,-26.8971 647.383,-29.3881 656.986,-33.8626 657.681,-26.8971"/>
</g>
<!-- Ketrew_monitored_script&#45;&gt;Ketrew_path -->
<g id="edge28" class="edge"><title>Ketrew_monitored_script&#45;&gt;Ketrew_path</title>
<path fill="none" stroke="black" d="M992.627,-195.393C949.966,-178.903 882.903,-152.979 838.939,-135.985"/>
<polygon fill="black" stroke="black" points="839.97,-132.631 829.381,-132.29 837.446,-139.16 839.97,-132.631"/>
</g>
<!-- Ketrew -->
<g id="node16" class="node"><title>Ketrew</title>
<ellipse fill="darkturquoise" stroke="darkturquoise" cx="291" cy="-777" rx="36.2645" ry="18"/>
<text text-anchor="middle" x="291" y="-772.8" font-family="Times,serif" font-size="14.00">Ketrew</text>
</g>
<!-- Ketrew&#45;&gt;Ketrew_artifact -->
<g id="edge59" class="edge"><title>Ketrew&#45;&gt;Ketrew_artifact</title>
<path fill="none" stroke="black" d="M266.213,-763.898C218.377,-738.601 118,-675.244 118,-589 118,-589 118,-589 118,-493 118,-423.94 178.621,-361.843 216.426,-329.832"/>
<polygon fill="black" stroke="black" points="219.098,-332.164 224.576,-323.095 214.638,-326.768 219.098,-332.164"/>
</g>
<!-- Ketrew&#45;&gt;Ketrew_pervasives -->
<g id="edge52" class="edge"><title>Ketrew&#45;&gt;Ketrew_pervasives</title>
<path fill="none" stroke="black" d="M257.049,-770.636C180.286,-756.377 0,-710.007 0,-589 0,-589 0,-589 0,-211 0,-143.092 44.956,-131.722 105,-100 170.417,-65.4397 374.849,-42.4261 490.72,-31.7901"/>
<polygon fill="black" stroke="black" points="491.321,-35.2501 500.964,-30.8609 490.688,-28.2787 491.321,-35.2501"/>
</g>
<!-- Ketrew&#45;&gt;Ketrew_path -->
<g id="edge53" class="edge"><title>Ketrew&#45;&gt;Ketrew_path</title>
<path fill="none" stroke="black" d="M326.347,-773.123C502.377,-758.335 1276,-687.725 1276,-589 1276,-589 1276,-589 1276,-305 1276,-238.599 1233.76,-226.758 1176,-194 1076.25,-137.423 940.83,-122.92 861.195,-119.557"/>
<polygon fill="black" stroke="black" points="860.938,-116.045 850.814,-119.168 860.676,-123.04 860.938,-116.045"/>
</g>
<!-- Ketrew&#45;&gt;Ketrew_host -->
<g id="edge55" class="edge"><title>Ketrew&#45;&gt;Ketrew_host</title>
<path fill="none" stroke="black" d="M261.556,-766.144C202.673,-744.362 76,-686.208 76,-589 76,-589 76,-589 76,-399 76,-261.012 281.301,-225.389 389.301,-216.196"/>
<polygon fill="black" stroke="black" points="389.75,-219.671 399.439,-215.386 389.192,-212.693 389.75,-219.671"/>
</g>
<!-- Ketrew&#45;&gt;Ketrew_command_line -->
<g id="edge58" class="edge"><title>Ketrew&#45;&gt;Ketrew_command_line</title>
<path fill="none" stroke="black" d="M303.005,-759.732C327.147,-727.018 381.715,-653.075 410.47,-614.109"/>
<polygon fill="black" stroke="black" points="413.405,-616.026 416.527,-605.902 407.773,-611.87 413.405,-616.026"/>
</g>
<!-- Ketrew&#45;&gt;Ketrew_error -->
<g id="edge56" class="edge"><title>Ketrew&#45;&gt;Ketrew_error</title>
<path fill="none" stroke="black" d="M290.717,-758.951C290.784,-722.308 294.602,-634.171 327,-570 381.138,-462.769 493.505,-369.618 547.601,-328.878"/>
<polygon fill="black" stroke="black" points="549.838,-331.576 555.765,-322.795 545.655,-325.963 549.838,-331.576"/>
</g>
<!-- Ketrew&#45;&gt;Ketrew_target -->
<g id="edge50" class="edge"><title>Ketrew&#45;&gt;Ketrew_target</title>
<path fill="none" stroke="black" d="M270.485,-762.115C252.811,-748.799 228.533,-726.924 218,-701 180.357,-608.356 181,-568.903 218,-476 226.304,-455.148 243.464,-436.756 258.833,-423.404"/>
<polygon fill="black" stroke="black" points="261.205,-425.983 266.65,-416.894 256.726,-420.604 261.205,-425.983"/>
</g>
<!-- Ketrew&#45;&gt;Ketrew_state -->
<g id="edge51" class="edge"><title>Ketrew&#45;&gt;Ketrew_state</title>
<path fill="none" stroke="black" d="M326.137,-772.464C401.13,-764.209 573.347,-741.251 614,-701 662.46,-653.021 666.963,-566.572 665.754,-522.481"/>
<polygon fill="black" stroke="black" points="669.241,-522.086 665.347,-512.233 662.247,-522.364 669.241,-522.086"/>
</g>
<!-- Ketrew&#45;&gt;Ketrew_edsl -->
<g id="edge57" class="edge"><title>Ketrew&#45;&gt;Ketrew_edsl</title>
<path fill="none" stroke="black" d="M319.707,-765.803C364.467,-749.903 451.27,-719.07 504.582,-700.133"/>
<polygon fill="black" stroke="black" points="505.878,-703.387 514.13,-696.742 503.535,-696.791 505.878,-703.387"/>
</g>
<!-- Ketrew&#45;&gt;Ketrew_nohup_setsid -->
<g id="edge54" class="edge"><title>Ketrew&#45;&gt;Ketrew_nohup_setsid</title>
<path fill="none" stroke="black" d="M326.509,-773.245C391.456,-767.17 532.668,-749.12 641,-701 794.138,-632.978 936.386,-484.256 988.761,-425.543"/>
<polygon fill="black" stroke="black" points="991.542,-427.682 995.547,-417.873 986.299,-423.043 991.542,-427.682"/>
</g>
</g>
</svg>
