<?xml version="1.0" encoding="UTF-8" standalone="no"?>
<!DOCTYPE svg PUBLIC "-//W3C//DTD SVG 1.1//EN"
 "http://www.w3.org/Graphics/SVG/1.1/DTD/svg11.dtd">
<!-- Generated by graphviz version 2.38.0 (20140413.2041)
 -->
<!-- Title: G Pages: 1 -->
<svg width="453pt" height="720pt"
 viewBox="0.00 0.00 720.00 452.85" xmlns="http://www.w3.org/2000/svg" xmlns:xlink="http://www.w3.org/1999/xlink">
<g id="graph0" class="graph" transform="scale(0.734842 0.734842) rotate(-90) translate(-975.803 612.25)">
<title>G</title>
<polygon fill="white" stroke="none" points="-4,4 -4,-612.25 975.803,-612.25 975.803,4 -4,4"/>
<!-- Ketrew_artifact -->
<g id="node1" class="node"><title>Ketrew_artifact</title>
<ellipse fill="darkturquoise" stroke="darkturquoise" cx="850" cy="-304" rx="65.6803" ry="18"/>
<text text-anchor="middle" x="850" y="-299.8" font-family="Times,serif" font-size="14.00">Ketrew_artifact</text>
</g>
<!-- Ketrew_pervasives -->
<g id="node2" class="node"><title>Ketrew_pervasives</title>
<ellipse fill="darkturquoise" stroke="darkturquoise" cx="519" cy="-23" rx="77.7589" ry="18"/>
<text text-anchor="middle" x="519" y="-18.8" font-family="Times,serif" font-size="14.00">Ketrew_pervasives</text>
</g>
<!-- Ketrew_artifact&#45;&gt;Ketrew_pervasives -->
<g id="edge1" class="edge"><title>Ketrew_artifact&#45;&gt;Ketrew_pervasives</title>
<path fill="none" stroke="black" d="M859.777,-285.947C880.229,-247.776 922.047,-154.462 877,-99 843.152,-57.3265 697.835,-37.9842 603.067,-29.654"/>
<polygon fill="black" stroke="black" points="603.178,-26.1509 592.916,-28.7867 602.582,-33.1254 603.178,-26.1509"/>
</g>
<!-- Ketrew_path -->
<g id="node3" class="node"><title>Ketrew_path</title>
<ellipse fill="darkturquoise" stroke="darkturquoise" cx="603" cy="-117" rx="55.5596" ry="18"/>
<text text-anchor="middle" x="603" y="-112.8" font-family="Times,serif" font-size="14.00">Ketrew_path</text>
</g>
<!-- Ketrew_artifact&#45;&gt;Ketrew_path -->
<g id="edge2" class="edge"><title>Ketrew_artifact&#45;&gt;Ketrew_path</title>
<path fill="none" stroke="black" d="M851.507,-285.825C852.617,-262.017 850.942,-218.989 828,-193 816.15,-179.577 716.526,-149.769 653.878,-132.039"/>
<polygon fill="black" stroke="black" points="654.734,-128.644 644.16,-129.302 652.836,-135.382 654.734,-128.644"/>
</g>
<!-- Ketrew_host -->
<g id="node4" class="node"><title>Ketrew_host</title>
<ellipse fill="darkturquoise" stroke="darkturquoise" cx="764" cy="-211" rx="55.0922" ry="18"/>
<text text-anchor="middle" x="764" y="-206.8" font-family="Times,serif" font-size="14.00">Ketrew_host</text>
</g>
<!-- Ketrew_artifact&#45;&gt;Ketrew_host -->
<g id="edge3" class="edge"><title>Ketrew_artifact&#45;&gt;Ketrew_host</title>
<path fill="none" stroke="black" d="M834.226,-286.309C820.891,-272.199 801.622,-251.809 786.639,-235.956"/>
<polygon fill="black" stroke="black" points="789.086,-233.449 779.674,-228.585 783.999,-238.257 789.086,-233.449"/>
</g>
<!-- Ketrew_path&#45;&gt;Ketrew_pervasives -->
<g id="edge15" class="edge"><title>Ketrew_path&#45;&gt;Ketrew_pervasives</title>
<path fill="none" stroke="black" d="M587.982,-99.5522C575.005,-85.339 556.068,-64.5981 541.317,-48.442"/>
<polygon fill="black" stroke="black" points="543.783,-45.9527 534.456,-40.9278 538.614,-50.6726 543.783,-45.9527"/>
</g>
<!-- Ketrew_host&#45;&gt;Ketrew_pervasives -->
<g id="edge6" class="edge"><title>Ketrew_host&#45;&gt;Ketrew_pervasives</title>
<path fill="none" stroke="black" d="M792.586,-195.561C830.255,-174.65 888.576,-134.544 860,-99 828.196,-59.4414 692.069,-39.5432 601.723,-30.5118"/>
<polygon fill="black" stroke="black" points="602.056,-27.0277 591.764,-29.5414 601.377,-33.9947 602.056,-27.0277"/>
</g>
<!-- Ketrew_host&#45;&gt;Ketrew_path -->
<g id="edge7" class="edge"><title>Ketrew_host&#45;&gt;Ketrew_path</title>
<path fill="none" stroke="black" d="M737.774,-195.014C710.642,-179.51 668.113,-155.207 638.097,-138.055"/>
<polygon fill="black" stroke="black" points="639.633,-134.902 629.215,-132.98 636.16,-140.98 639.633,-134.902"/>
</g>
<!-- Ketrew_unix_process -->
<g id="node6" class="node"><title>Ketrew_unix_process</title>
<ellipse fill="darkturquoise" stroke="darkturquoise" cx="764" cy="-117" rx="87.4394" ry="18"/>
<text text-anchor="middle" x="764" y="-112.8" font-family="Times,serif" font-size="14.00">Ketrew_unix_process</text>
</g>
<!-- Ketrew_host&#45;&gt;Ketrew_unix_process -->
<g id="edge5" class="edge"><title>Ketrew_host&#45;&gt;Ketrew_unix_process</title>
<path fill="none" stroke="black" d="M764,-192.696C764,-179.46 764,-160.947 764,-145.663"/>
<polygon fill="black" stroke="black" points="767.5,-145.227 764,-135.227 760.5,-145.227 767.5,-145.227"/>
</g>
<!-- Ketrew_database -->
<g id="node5" class="node"><title>Ketrew_database</title>
<ellipse fill="darkturquoise" stroke="darkturquoise" cx="505" cy="-398" rx="70.9927" ry="18"/>
<text text-anchor="middle" x="505" y="-393.8" font-family="Times,serif" font-size="14.00">Ketrew_database</text>
</g>
<!-- Ketrew_database&#45;&gt;Ketrew_pervasives -->
<g id="edge4" class="edge"><title>Ketrew_database&#45;&gt;Ketrew_pervasives</title>
<path fill="none" stroke="black" d="M505.656,-379.51C507.898,-319.779 515.263,-123.57 517.981,-51.1606"/>
<polygon fill="black" stroke="black" points="521.483,-51.1474 518.361,-41.0231 514.488,-50.8848 521.483,-51.1474"/>
</g>
<!-- Ketrew_unix_process&#45;&gt;Ketrew_pervasives -->
<g id="edge28" class="edge"><title>Ketrew_unix_process&#45;&gt;Ketrew_pervasives</title>
<path fill="none" stroke="black" d="M723.818,-100.911C680.98,-84.8251 613.146,-59.3528 567.399,-42.1743"/>
<polygon fill="black" stroke="black" points="568.581,-38.8797 557.989,-38.6408 566.12,-45.4329 568.581,-38.8797"/>
</g>
<!-- Ketrew_monitored_script -->
<g id="node7" class="node"><title>Ketrew_monitored_script</title>
<ellipse fill="darkturquoise" stroke="darkturquoise" cx="399" cy="-211" rx="100.945" ry="18"/>
<text text-anchor="middle" x="399" y="-206.8" font-family="Times,serif" font-size="14.00">Ketrew_monitored_script</text>
</g>
<!-- Ketrew_monitored_script&#45;&gt;Ketrew_pervasives -->
<g id="edge8" class="edge"><title>Ketrew_monitored_script&#45;&gt;Ketrew_pervasives</title>
<path fill="none" stroke="black" d="M410.074,-192.835C431.292,-159.948 477.766,-87.9125 502.596,-49.4267"/>
<polygon fill="black" stroke="black" points="505.646,-51.1553 508.126,-40.8549 499.764,-47.3604 505.646,-51.1553"/>
</g>
<!-- Ketrew_monitored_script&#45;&gt;Ketrew_path -->
<g id="edge9" class="edge"><title>Ketrew_monitored_script&#45;&gt;Ketrew_path</title>
<path fill="none" stroke="black" d="M434.534,-193.975C470.163,-177.907 524.956,-153.197 562.308,-136.351"/>
<polygon fill="black" stroke="black" points="564.201,-139.337 571.878,-132.035 561.323,-132.956 564.201,-139.337"/>
</g>
<!-- Ketrew_nohup_setsid -->
<g id="node8" class="node"><title>Ketrew_nohup_setsid</title>
<ellipse fill="darkturquoise" stroke="darkturquoise" cx="399" cy="-304" rx="87.4567" ry="18"/>
<text text-anchor="middle" x="399" y="-299.8" font-family="Times,serif" font-size="14.00">Ketrew_nohup_setsid</text>
</g>
<!-- Ketrew_nohup_setsid&#45;&gt;Ketrew_pervasives -->
<g id="edge12" class="edge"><title>Ketrew_nohup_setsid&#45;&gt;Ketrew_pervasives</title>
<path fill="none" stroke="black" d="M312.394,-301.537C204.345,-296.298 40.0514,-275.09 95,-193 170.537,-80.1533 334.935,-42.6575 435.381,-30.199"/>
<polygon fill="black" stroke="black" points="435.978,-33.6528 445.498,-29.0019 435.156,-26.7013 435.978,-33.6528"/>
</g>
<!-- Ketrew_nohup_setsid&#45;&gt;Ketrew_path -->
<g id="edge11" class="edge"><title>Ketrew_nohup_setsid&#45;&gt;Ketrew_path</title>
<path fill="none" stroke="black" d="M427.663,-286.733C450.82,-272.903 483.62,-251.721 509,-229 538.66,-202.448 567.435,-166.507 585.169,-142.808"/>
<polygon fill="black" stroke="black" points="588.054,-144.793 591.184,-134.671 582.425,-140.632 588.054,-144.793"/>
</g>
<!-- Ketrew_nohup_setsid&#45;&gt;Ketrew_host -->
<g id="edge14" class="edge"><title>Ketrew_nohup_setsid&#45;&gt;Ketrew_host</title>
<path fill="none" stroke="black" d="M452.465,-289.67C522.012,-272.331 642.745,-242.231 711.71,-225.037"/>
<polygon fill="black" stroke="black" points="712.641,-228.412 721.497,-222.597 710.947,-221.62 712.641,-228.412"/>
</g>
<!-- Ketrew_nohup_setsid&#45;&gt;Ketrew_monitored_script -->
<g id="edge10" class="edge"><title>Ketrew_nohup_setsid&#45;&gt;Ketrew_monitored_script</title>
<path fill="none" stroke="black" d="M399,-285.884C399,-272.792 399,-254.48 399,-239.363"/>
<polygon fill="black" stroke="black" points="402.5,-239.04 399,-229.04 395.5,-239.04 402.5,-239.04"/>
</g>
<!-- Ketrew_long_running -->
<g id="node9" class="node"><title>Ketrew_long_running</title>
<ellipse fill="darkturquoise" stroke="darkturquoise" cx="192" cy="-211" rx="88.417" ry="18"/>
<text text-anchor="middle" x="192" y="-206.8" font-family="Times,serif" font-size="14.00">Ketrew_long_running</text>
</g>
<!-- Ketrew_nohup_setsid&#45;&gt;Ketrew_long_running -->
<g id="edge13" class="edge"><title>Ketrew_nohup_setsid&#45;&gt;Ketrew_long_running</title>
<path fill="none" stroke="black" d="M363.415,-287.357C328.356,-271.944 274.682,-248.348 236.75,-231.673"/>
<polygon fill="black" stroke="black" points="238.029,-228.412 227.466,-227.591 235.212,-234.82 238.029,-228.412"/>
</g>
<!-- Ketrew_long_running&#45;&gt;Ketrew_pervasives -->
<g id="edge36" class="edge"><title>Ketrew_long_running&#45;&gt;Ketrew_pervasives</title>
<path fill="none" stroke="black" d="M220.447,-193.819C279.661,-160.138 416.118,-82.5198 482.034,-45.0265"/>
<polygon fill="black" stroke="black" points="483.89,-47.9976 490.852,-40.011 480.429,-41.913 483.89,-47.9976"/>
</g>
<!-- Ketrew_state -->
<g id="node10" class="node"><title>Ketrew_state</title>
<ellipse fill="darkturquoise" stroke="darkturquoise" cx="557" cy="-491" rx="56.5201" ry="18"/>
<text text-anchor="middle" x="557" y="-486.8" font-family="Times,serif" font-size="14.00">Ketrew_state</text>
</g>
<!-- Ketrew_state&#45;&gt;Ketrew_artifact -->
<g id="edge16" class="edge"><title>Ketrew_state&#45;&gt;Ketrew_artifact</title>
<path fill="none" stroke="black" d="M587.407,-475.785C615.863,-461.976 659.103,-439.677 694,-416 714.625,-402.006 717.03,-394.915 737,-380 762.648,-360.845 792.924,-340.882 815.679,-326.373"/>
<polygon fill="black" stroke="black" points="817.743,-329.208 824.314,-320.898 813.995,-323.296 817.743,-329.208"/>
</g>
<!-- Ketrew_state&#45;&gt;Ketrew_pervasives -->
<g id="edge22" class="edge"><title>Ketrew_state&#45;&gt;Ketrew_pervasives</title>
<path fill="none" stroke="black" d="M508.582,-481.369C405.838,-460.065 168.267,-394.212 81,-229 6.03858,-87.0848 287.258,-42.8052 434.517,-29.479"/>
<polygon fill="black" stroke="black" points="435.225,-32.9305 444.881,-28.5721 434.614,-25.9572 435.225,-32.9305"/>
</g>
<!-- Ketrew_state&#45;&gt;Ketrew_path -->
<g id="edge20" class="edge"><title>Ketrew_state&#45;&gt;Ketrew_path</title>
<path fill="none" stroke="black" d="M565.074,-473.101C571.694,-458.383 580.655,-436.281 585,-416 605.981,-318.058 605.543,-198.167 604.067,-145.28"/>
<polygon fill="black" stroke="black" points="607.558,-144.928 603.744,-135.043 600.562,-145.149 607.558,-144.928"/>
</g>
<!-- Ketrew_state&#45;&gt;Ketrew_host -->
<g id="edge18" class="edge"><title>Ketrew_state&#45;&gt;Ketrew_host</title>
<path fill="none" stroke="black" d="M571.139,-473.511C583.72,-458.685 602.477,-436.197 618,-416 666.404,-353.022 719.941,-276.239 746.73,-237.285"/>
<polygon fill="black" stroke="black" points="749.868,-238.898 752.641,-228.672 744.097,-234.937 749.868,-238.898"/>
</g>
<!-- Ketrew_state&#45;&gt;Ketrew_database -->
<g id="edge17" class="edge"><title>Ketrew_state&#45;&gt;Ketrew_database</title>
<path fill="none" stroke="black" d="M547.219,-472.884C539.52,-459.411 528.662,-440.409 519.886,-425.05"/>
<polygon fill="black" stroke="black" points="522.737,-422.986 514.737,-416.04 516.66,-426.459 522.737,-422.986"/>
</g>
<!-- Ketrew_state&#45;&gt;Ketrew_nohup_setsid -->
<g id="edge19" class="edge"><title>Ketrew_state&#45;&gt;Ketrew_nohup_setsid</title>
<path fill="none" stroke="black" d="M517.909,-477.847C488.022,-466.546 448.138,-446.757 425,-416 406.737,-391.723 401.027,-356.654 399.383,-332.462"/>
<polygon fill="black" stroke="black" points="402.865,-332.008 398.883,-322.19 395.873,-332.348 402.865,-332.008"/>
</g>
<!-- Ketrew_state&#45;&gt;Ketrew_long_running -->
<g id="edge23" class="edge"><title>Ketrew_state&#45;&gt;Ketrew_long_running</title>
<path fill="none" stroke="black" d="M522.282,-476.719C490.183,-463.644 441.868,-441.907 404,-416 325.154,-362.058 248.359,-278.047 212.703,-236.696"/>
<polygon fill="black" stroke="black" points="215.292,-234.339 206.131,-229.016 209.973,-238.89 215.292,-234.339"/>
</g>
<!-- Ketrew_target -->
<g id="node11" class="node"><title>Ketrew_target</title>
<ellipse fill="darkturquoise" stroke="darkturquoise" cx="807" cy="-398" rx="60.5585" ry="18"/>
<text text-anchor="middle" x="807" y="-393.8" font-family="Times,serif" font-size="14.00">Ketrew_target</text>
</g>
<!-- Ketrew_state&#45;&gt;Ketrew_target -->
<g id="edge21" class="edge"><title>Ketrew_state&#45;&gt;Ketrew_target</title>
<path fill="none" stroke="black" d="M592.819,-476.962C636.902,-460.916 711.862,-433.63 760.391,-415.966"/>
<polygon fill="black" stroke="black" points="761.826,-419.168 770.025,-412.459 759.431,-412.59 761.826,-419.168"/>
</g>
<!-- Ketrew_target&#45;&gt;Ketrew_artifact -->
<g id="edge27" class="edge"><title>Ketrew_target&#45;&gt;Ketrew_artifact</title>
<path fill="none" stroke="black" d="M814.887,-380.126C821.272,-366.465 830.378,-346.982 837.717,-331.281"/>
<polygon fill="black" stroke="black" points="840.954,-332.62 842.018,-322.079 834.612,-329.656 840.954,-332.62"/>
</g>
<!-- Ketrew_target&#45;&gt;Ketrew_pervasives -->
<g id="edge25" class="edge"><title>Ketrew_target&#45;&gt;Ketrew_pervasives</title>
<path fill="none" stroke="black" d="M845.62,-383.966C873.183,-372.399 908.23,-352.53 925,-322 955.841,-265.855 1023.87,-231.163 899,-99 859.43,-57.1199 702.563,-37.7017 603.165,-29.4397"/>
<polygon fill="black" stroke="black" points="603.384,-25.9461 593.134,-28.6275 602.819,-32.9233 603.384,-25.9461"/>
</g>
<!-- Ketrew_target&#45;&gt;Ketrew_path -->
<g id="edge24" class="edge"><title>Ketrew_target&#45;&gt;Ketrew_path</title>
<path fill="none" stroke="black" d="M794.546,-379.967C759.894,-332.576 662.219,-198.991 621.345,-143.089"/>
<polygon fill="black" stroke="black" points="624.019,-140.816 615.291,-134.81 618.368,-144.948 624.019,-140.816"/>
</g>
<!-- Ketrew_target&#45;&gt;Ketrew_host -->
<g id="edge26" class="edge"><title>Ketrew_target&#45;&gt;Ketrew_host</title>
<path fill="none" stroke="black" d="M797.951,-379.948C790.497,-365.077 780.319,-342.704 775,-322 767.9,-294.364 765.337,-261.727 764.435,-239.219"/>
<polygon fill="black" stroke="black" points="767.928,-238.934 764.114,-229.05 760.932,-239.155 767.928,-238.934"/>
</g>
<!-- Ketrew -->
<g id="node12" class="node"><title>Ketrew</title>
<ellipse fill="darkturquoise" stroke="darkturquoise" cx="642" cy="-585" rx="36.2645" ry="18"/>
<text text-anchor="middle" x="642" y="-580.8" font-family="Times,serif" font-size="14.00">Ketrew</text>
</g>
<!-- Ketrew&#45;&gt;Ketrew_artifact -->
<g id="edge35" class="edge"><title>Ketrew&#45;&gt;Ketrew_artifact</title>
<path fill="none" stroke="black" d="M670.46,-573.805C722.79,-553.314 832.956,-501.628 877,-416 890.953,-388.874 878.393,-354.274 866.142,-330.974"/>
<polygon fill="black" stroke="black" points="869.089,-329.071 861.167,-322.036 862.973,-332.476 869.089,-329.071"/>
</g>
<!-- Ketrew&#45;&gt;Ketrew_pervasives -->
<g id="edge31" class="edge"><title>Ketrew&#45;&gt;Ketrew_pervasives</title>
<path fill="none" stroke="black" d="M606.108,-581.519C470.906,-571.206 0,-526.158 0,-399 0,-399 0,-399 0,-210 0,-147.864 31.8397,-131.17 85,-99 142.887,-63.9695 328.15,-41.5297 437.013,-31.0138"/>
<polygon fill="black" stroke="black" points="437.356,-34.497 446.979,-30.0638 436.692,-27.5286 437.356,-34.497"/>
</g>
<!-- Ketrew&#45;&gt;Ketrew_path -->
<g id="edge32" class="edge"><title>Ketrew&#45;&gt;Ketrew_path</title>
<path fill="none" stroke="black" d="M642,-566.911C642,-534.277 642,-460.827 642,-399 642,-399 642,-399 642,-303 642,-245.64 623.827,-180.386 612.292,-144.743"/>
<polygon fill="black" stroke="black" points="615.561,-143.482 609.094,-135.09 608.916,-145.683 615.561,-143.482"/>
</g>
<!-- Ketrew&#45;&gt;Ketrew_host -->
<g id="edge34" class="edge"><title>Ketrew&#45;&gt;Ketrew_host</title>
<path fill="none" stroke="black" d="M674.446,-576.89C713.982,-566.968 781.275,-545.9 828,-509 901.477,-450.973 910.15,-414.442 925,-322 927.538,-306.203 933.634,-299.471 925,-286 902.467,-250.845 858.566,-232.166 822.291,-222.374"/>
<polygon fill="black" stroke="black" points="822.839,-218.902 812.286,-219.842 821.122,-225.688 822.839,-218.902"/>
</g>
<!-- Ketrew&#45;&gt;Ketrew_nohup_setsid -->
<g id="edge33" class="edge"><title>Ketrew&#45;&gt;Ketrew_nohup_setsid</title>
<path fill="none" stroke="black" d="M612.308,-574.681C557.317,-555.507 441.783,-505.729 404,-416 392.755,-389.295 392.985,-355.713 395.095,-332.518"/>
<polygon fill="black" stroke="black" points="398.599,-332.668 396.201,-322.348 391.64,-331.911 398.599,-332.668"/>
</g>
<!-- Ketrew&#45;&gt;Ketrew_state -->
<g id="edge30" class="edge"><title>Ketrew&#45;&gt;Ketrew_state</title>
<path fill="none" stroke="black" d="M627.581,-568.393C614.393,-554.119 594.675,-532.777 579.429,-516.277"/>
<polygon fill="black" stroke="black" points="581.71,-513.587 572.353,-508.617 576.568,-518.337 581.71,-513.587"/>
</g>
<!-- Ketrew&#45;&gt;Ketrew_target -->
<g id="edge29" class="edge"><title>Ketrew&#45;&gt;Ketrew_target</title>
<path fill="none" stroke="black" d="M656.068,-568.227C684.953,-535.841 751.111,-461.663 785.442,-423.171"/>
<polygon fill="black" stroke="black" points="788.216,-425.319 792.26,-415.527 782.992,-420.66 788.216,-425.319"/>
</g>
</g>
</svg>
