<?xml version="1.0" encoding="UTF-8" standalone="no"?>
<!DOCTYPE svg PUBLIC "-//W3C//DTD SVG 1.1//EN"
 "http://www.w3.org/Graphics/SVG/1.1/DTD/svg11.dtd">
<!-- Generated by graphviz version 2.38.0 (20140413.2041)
 -->
<!-- Title: G Pages: 1 -->
<svg width="411pt" height="720pt"
 viewBox="0.00 0.00 720.00 411.47" xmlns="http://www.w3.org/2000/svg" xmlns:xlink="http://www.w3.org/1999/xlink">
<g id="graph0" class="graph" transform="scale(0.372285 0.372285) rotate(-90) translate(-1930 1101.25)">
<title>G</title>
<polygon fill="white" stroke="none" points="-4,4 -4,-1101.25 1930,-1101.25 1930,4 -4,4"/>
<!-- Ketrew_artifact -->
<g id="node1" class="node"><title>Ketrew_artifact</title>
<ellipse fill="darkturquoise" stroke="darkturquoise" cx="372" cy="-420" rx="65.6803" ry="18"/>
<text text-anchor="middle" x="372" y="-415.8" font-family="Times,serif" font-size="14.00">Ketrew_artifact</text>
</g>
<!-- Ketrew_pervasives -->
<g id="node2" class="node"><title>Ketrew_pervasives</title>
<ellipse fill="darkturquoise" stroke="darkturquoise" cx="860" cy="-32" rx="77.7589" ry="18"/>
<text text-anchor="middle" x="860" y="-27.8" font-family="Times,serif" font-size="14.00">Ketrew_pervasives</text>
</g>
<!-- Ketrew_artifact&#45;&gt;Ketrew_pervasives -->
<g id="edge1" class="edge"><title>Ketrew_artifact&#45;&gt;Ketrew_pervasives</title>
<path fill="none" stroke="black" d="M369.553,-402.012C363.7,-354.212 354.168,-217.221 424,-143 472.438,-91.5173 670.531,-57.8263 782.305,-42.5183"/>
<polygon fill="black" stroke="black" points="783.073,-45.9464 792.514,-41.1384 782.135,-39.0095 783.073,-45.9464"/>
</g>
<!-- Ketrew_path -->
<g id="node3" class="node"><title>Ketrew_path</title>
<ellipse fill="darkturquoise" stroke="darkturquoise" cx="1010" cy="-161" rx="55.5596" ry="18"/>
<text text-anchor="middle" x="1010" y="-156.8" font-family="Times,serif" font-size="14.00">Ketrew_path</text>
</g>
<!-- Ketrew_artifact&#45;&gt;Ketrew_path -->
<g id="edge2" class="edge"><title>Ketrew_artifact&#45;&gt;Ketrew_path</title>
<path fill="none" stroke="black" d="M381.801,-401.738C400.486,-370.517 444.345,-304.865 500,-272 575.975,-227.136 831.682,-186.85 949.559,-170.157"/>
<polygon fill="black" stroke="black" points="950.092,-173.617 959.507,-168.758 949.117,-166.685 950.092,-173.617"/>
</g>
<!-- Ketrew_host -->
<g id="node4" class="node"><title>Ketrew_host</title>
<ellipse fill="darkturquoise" stroke="darkturquoise" cx="833" cy="-290" rx="55.0922" ry="18"/>
<text text-anchor="middle" x="833" y="-285.8" font-family="Times,serif" font-size="14.00">Ketrew_host</text>
</g>
<!-- Ketrew_artifact&#45;&gt;Ketrew_host -->
<g id="edge3" class="edge"><title>Ketrew_artifact&#45;&gt;Ketrew_host</title>
<path fill="none" stroke="black" d="M416.621,-406.611C502.87,-382.663 691.929,-330.169 782.576,-305.001"/>
<polygon fill="black" stroke="black" points="783.646,-308.336 792.345,-302.288 781.773,-301.591 783.646,-308.336"/>
</g>
<!-- Ketrew_path&#45;&gt;Ketrew_pervasives -->
<g id="edge49" class="edge"><title>Ketrew_path&#45;&gt;Ketrew_pervasives</title>
<path fill="none" stroke="black" d="M991.002,-143.915C964.917,-121.83 917.833,-81.9651 887.787,-56.526"/>
<polygon fill="black" stroke="black" points="889.689,-53.5508 879.796,-49.7602 885.166,-58.8931 889.689,-53.5508"/>
</g>
<!-- Ketrew_host&#45;&gt;Ketrew_pervasives -->
<g id="edge37" class="edge"><title>Ketrew_host&#45;&gt;Ketrew_pervasives</title>
<path fill="none" stroke="black" d="M834.813,-271.806C839.415,-228.175 851.574,-112.893 857.142,-60.0976"/>
<polygon fill="black" stroke="black" points="860.626,-60.4315 858.194,-50.1196 853.665,-59.6973 860.626,-60.4315"/>
</g>
<!-- Ketrew_host&#45;&gt;Ketrew_path -->
<g id="edge38" class="edge"><title>Ketrew_host&#45;&gt;Ketrew_path</title>
<path fill="none" stroke="black" d="M854.704,-273.427C886.021,-250.957 944.017,-209.344 979.588,-183.821"/>
<polygon fill="black" stroke="black" points="982.034,-186.374 988.119,-177.7 977.953,-180.686 982.034,-186.374"/>
</g>
<!-- Ketrew_unix_process -->
<g id="node19" class="node"><title>Ketrew_unix_process</title>
<ellipse fill="darkturquoise" stroke="darkturquoise" cx="707" cy="-161" rx="87.4394" ry="18"/>
<text text-anchor="middle" x="707" y="-156.8" font-family="Times,serif" font-size="14.00">Ketrew_unix_process</text>
</g>
<!-- Ketrew_host&#45;&gt;Ketrew_unix_process -->
<g id="edge36" class="edge"><title>Ketrew_host&#45;&gt;Ketrew_unix_process</title>
<path fill="none" stroke="black" d="M816.786,-272.657C794.981,-250.679 756.045,-211.435 730.884,-186.074"/>
<polygon fill="black" stroke="black" points="733.08,-183.317 723.552,-178.684 728.111,-188.248 733.08,-183.317"/>
</g>
<!-- Ketrew_command_line -->
<g id="node5" class="node"><title>Ketrew_command_line</title>
<ellipse fill="darkturquoise" stroke="darkturquoise" cx="412" cy="-936" rx="93.2188" ry="18"/>
<text text-anchor="middle" x="412" y="-931.8" font-family="Times,serif" font-size="14.00">Ketrew_command_line</text>
</g>
<!-- Ketrew_command_line&#45;&gt;Ketrew_artifact -->
<g id="edge4" class="edge"><title>Ketrew_command_line&#45;&gt;Ketrew_artifact</title>
<path fill="none" stroke="black" d="M395.563,-918.096C377.169,-897.883 348.446,-862.106 337,-825 332.284,-809.711 335.997,-804.969 337,-789 343.234,-689.747 356.39,-666.075 365,-567 368.585,-525.752 370.443,-477.778 371.32,-448.405"/>
<polygon fill="black" stroke="black" points="374.827,-448.206 371.61,-438.112 367.83,-448.009 374.827,-448.206"/>
</g>
<!-- Ketrew_command_line&#45;&gt;Ketrew_pervasives -->
<g id="edge10" class="edge"><title>Ketrew_command_line&#45;&gt;Ketrew_pervasives</title>
<path fill="none" stroke="black" d="M370.99,-919.756C266.779,-878.073 0,-751.668 0,-550 0,-550 0,-550 0,-289 0,-183.908 89.7708,-185.241 186,-143 383.065,-56.4961 639.536,-37.361 772.088,-33.5487"/>
<polygon fill="black" stroke="black" points="772.289,-37.0448 782.192,-33.2811 772.103,-30.0472 772.289,-37.0448"/>
</g>
<!-- Ketrew_error -->
<g id="node6" class="node"><title>Ketrew_error</title>
<ellipse fill="darkturquoise" stroke="darkturquoise" cx="590" cy="-420" rx="57.9719" ry="18"/>
<text text-anchor="middle" x="590" y="-415.8" font-family="Times,serif" font-size="14.00">Ketrew_error</text>
</g>
<!-- Ketrew_command_line&#45;&gt;Ketrew_error -->
<g id="edge5" class="edge"><title>Ketrew_command_line&#45;&gt;Ketrew_error</title>
<path fill="none" stroke="black" d="M388.02,-918.526C308.333,-861.82 63.3802,-670.52 171,-531 214.22,-474.969 420.302,-441.875 526.46,-428.273"/>
<polygon fill="black" stroke="black" points="526.929,-431.741 536.412,-427.017 526.053,-424.796 526.929,-431.741"/>
</g>
<!-- Ketrew_server -->
<g id="node7" class="node"><title>Ketrew_server</title>
<ellipse fill="darkturquoise" stroke="darkturquoise" cx="408" cy="-807" rx="62.3148" ry="18"/>
<text text-anchor="middle" x="408" y="-802.8" font-family="Times,serif" font-size="14.00">Ketrew_server</text>
</g>
<!-- Ketrew_command_line&#45;&gt;Ketrew_server -->
<g id="edge6" class="edge"><title>Ketrew_command_line&#45;&gt;Ketrew_server</title>
<path fill="none" stroke="black" d="M411.461,-917.872C410.796,-896.758 409.657,-860.604 408.868,-835.564"/>
<polygon fill="black" stroke="black" points="412.357,-835.147 408.544,-825.262 405.36,-835.367 412.357,-835.147"/>
</g>
<!-- Ketrew_state -->
<g id="node8" class="node"><title>Ketrew_state</title>
<ellipse fill="darkturquoise" stroke="darkturquoise" cx="773" cy="-678" rx="56.5201" ry="18"/>
<text text-anchor="middle" x="773" y="-673.8" font-family="Times,serif" font-size="14.00">Ketrew_state</text>
</g>
<!-- Ketrew_command_line&#45;&gt;Ketrew_state -->
<g id="edge7" class="edge"><title>Ketrew_command_line&#45;&gt;Ketrew_state</title>
<path fill="none" stroke="black" d="M435.408,-918.4C498.338,-873.774 671.175,-751.208 742.055,-700.944"/>
<polygon fill="black" stroke="black" points="744.441,-703.543 750.573,-694.904 740.392,-697.833 744.441,-703.543"/>
</g>
<!-- Ketrew_target -->
<g id="node9" class="node"><title>Ketrew_target</title>
<ellipse fill="darkturquoise" stroke="darkturquoise" cx="511" cy="-549" rx="60.5585" ry="18"/>
<text text-anchor="middle" x="511" y="-544.8" font-family="Times,serif" font-size="14.00">Ketrew_target</text>
</g>
<!-- Ketrew_command_line&#45;&gt;Ketrew_target -->
<g id="edge8" class="edge"><title>Ketrew_command_line&#45;&gt;Ketrew_target</title>
<path fill="none" stroke="black" d="M425.694,-917.903C441.442,-897.226 466.702,-860.733 479,-825 508.873,-738.199 511.984,-627.854 511.637,-577.405"/>
<polygon fill="black" stroke="black" points="515.135,-577.257 511.514,-567.301 508.136,-577.343 515.135,-577.257"/>
</g>
<!-- Ketrew_user_command -->
<g id="node10" class="node"><title>Ketrew_user_command</title>
<ellipse fill="darkturquoise" stroke="darkturquoise" cx="811" cy="-807" rx="94.6636" ry="18"/>
<text text-anchor="middle" x="811" y="-802.8" font-family="Times,serif" font-size="14.00">Ketrew_user_command</text>
</g>
<!-- Ketrew_command_line&#45;&gt;Ketrew_user_command -->
<g id="edge9" class="edge"><title>Ketrew_command_line&#45;&gt;Ketrew_user_command</title>
<path fill="none" stroke="black" d="M458.16,-920.307C531.734,-896.889 675.372,-851.17 754.81,-825.885"/>
<polygon fill="black" stroke="black" points="756.173,-829.124 764.64,-822.756 754.049,-822.454 756.173,-829.124"/>
</g>
<!-- Ketrew_long_running -->
<g id="node11" class="node"><title>Ketrew_long_running</title>
<ellipse fill="darkturquoise" stroke="darkturquoise" cx="1248" cy="-420" rx="88.417" ry="18"/>
<text text-anchor="middle" x="1248" y="-415.8" font-family="Times,serif" font-size="14.00">Ketrew_long_running</text>
</g>
<!-- Ketrew_command_line&#45;&gt;Ketrew_long_running -->
<g id="edge11" class="edge"><title>Ketrew_command_line&#45;&gt;Ketrew_long_running</title>
<path fill="none" stroke="black" d="M500.145,-930.191C604.665,-921.329 781.503,-896.191 915,-825 1061.17,-747.051 1089.14,-702.808 1184,-567 1210.48,-529.085 1229.66,-478.457 1239.79,-447.87"/>
<polygon fill="black" stroke="black" points="1243.13,-448.904 1242.87,-438.313 1236.47,-446.754 1243.13,-448.904"/>
</g>
<!-- Ketrew_configuration -->
<g id="node12" class="node"><title>Ketrew_configuration</title>
<ellipse fill="darkturquoise" stroke="darkturquoise" cx="268" cy="-549" rx="87.9239" ry="18"/>
<text text-anchor="middle" x="268" y="-544.8" font-family="Times,serif" font-size="14.00">Ketrew_configuration</text>
</g>
<!-- Ketrew_command_line&#45;&gt;Ketrew_configuration -->
<g id="edge12" class="edge"><title>Ketrew_command_line&#45;&gt;Ketrew_configuration</title>
<path fill="none" stroke="black" d="M388.091,-918.233C362.611,-898.921 323.335,-864.701 304,-825 263.539,-741.919 263.511,-628.851 266.032,-577.45"/>
<polygon fill="black" stroke="black" points="269.543,-577.35 266.613,-567.168 262.555,-576.954 269.543,-577.35"/>
</g>
<!-- Ketrew_error&#45;&gt;Ketrew_pervasives -->
<g id="edge85" class="edge"><title>Ketrew_error&#45;&gt;Ketrew_pervasives</title>
<path fill="none" stroke="black" d="M585.618,-401.967C574.664,-355.203 551.074,-222.999 611,-143 653.098,-86.8012 730.205,-58.7831 787.503,-45.1648"/>
<polygon fill="black" stroke="black" points="788.625,-48.4989 797.598,-42.8646 787.07,-41.6739 788.625,-48.4989"/>
</g>
<!-- Ketrew_error&#45;&gt;Ketrew_host -->
<g id="edge86" class="edge"><title>Ketrew_error&#45;&gt;Ketrew_host</title>
<path fill="none" stroke="black" d="M618.351,-404.066C662.457,-380.833 747.492,-336.041 796.249,-310.359"/>
<polygon fill="black" stroke="black" points="797.987,-313.399 805.203,-305.642 794.725,-307.206 797.987,-313.399"/>
</g>
<!-- Ketrew_database -->
<g id="node16" class="node"><title>Ketrew_database</title>
<ellipse fill="darkturquoise" stroke="darkturquoise" cx="689" cy="-290" rx="70.9927" ry="18"/>
<text text-anchor="middle" x="689" y="-285.8" font-family="Times,serif" font-size="14.00">Ketrew_database</text>
</g>
<!-- Ketrew_error&#45;&gt;Ketrew_database -->
<g id="edge87" class="edge"><title>Ketrew_error&#45;&gt;Ketrew_database</title>
<path fill="none" stroke="black" d="M602.943,-402.266C619.989,-380.227 650.104,-341.29 669.806,-315.817"/>
<polygon fill="black" stroke="black" points="672.705,-317.789 676.054,-307.738 667.168,-313.507 672.705,-317.789"/>
</g>
<!-- Ketrew_error&#45;&gt;Ketrew_unix_process -->
<g id="edge84" class="edge"><title>Ketrew_error&#45;&gt;Ketrew_unix_process</title>
<path fill="none" stroke="black" d="M589.027,-401.805C588.102,-373.413 589.127,-315.543 609,-272 624.864,-237.24 655.584,-205.591 678.421,-185.258"/>
<polygon fill="black" stroke="black" points="680.883,-187.755 686.132,-178.552 676.289,-182.473 680.883,-187.755"/>
</g>
<!-- Ketrew_server&#45;&gt;Ketrew_pervasives -->
<g id="edge91" class="edge"><title>Ketrew_server&#45;&gt;Ketrew_pervasives</title>
<path fill="none" stroke="black" d="M379.407,-790.969C298.875,-746.346 76,-606.126 76,-421 76,-421 76,-421 76,-289 76,-141.754 582.051,-65.8658 781.017,-41.719"/>
<polygon fill="black" stroke="black" points="781.601,-45.174 791.112,-40.5063 780.766,-38.224 781.601,-45.174"/>
</g>
<!-- Ketrew_server&#45;&gt;Ketrew_error -->
<g id="edge92" class="edge"><title>Ketrew_server&#45;&gt;Ketrew_error</title>
<path fill="none" stroke="black" d="M405.621,-788.757C400.21,-743.121 391.047,-616.817 441,-531 465.649,-488.655 513.746,-457.746 548.644,-439.663"/>
<polygon fill="black" stroke="black" points="550.301,-442.747 557.657,-435.123 547.152,-436.496 550.301,-442.747"/>
</g>
<!-- Ketrew_server&#45;&gt;Ketrew_state -->
<g id="edge90" class="edge"><title>Ketrew_server&#45;&gt;Ketrew_state</title>
<path fill="none" stroke="black" d="M446.372,-792.649C513.848,-769.171 653.496,-720.581 726.399,-695.215"/>
<polygon fill="black" stroke="black" points="727.934,-698.386 736.228,-691.795 725.634,-691.775 727.934,-698.386"/>
</g>
<!-- Ketrew_server&#45;&gt;Ketrew_target -->
<g id="edge89" class="edge"><title>Ketrew_server&#45;&gt;Ketrew_target</title>
<path fill="none" stroke="black" d="M414.918,-788.806C432.546,-744.993 479.244,-628.929 500.362,-576.44"/>
<polygon fill="black" stroke="black" points="503.626,-577.703 504.112,-567.12 497.132,-575.09 503.626,-577.703"/>
</g>
<!-- Ketrew_server&#45;&gt;Ketrew_configuration -->
<g id="edge93" class="edge"><title>Ketrew_server&#45;&gt;Ketrew_configuration</title>
<path fill="none" stroke="black" d="M398.597,-788.806C374.587,-744.902 310.9,-628.446 282.281,-576.113"/>
<polygon fill="black" stroke="black" points="285.231,-574.214 277.362,-567.12 279.09,-577.573 285.231,-574.214"/>
</g>
<!-- Ketrew_state&#45;&gt;Ketrew_artifact -->
<g id="edge51" class="edge"><title>Ketrew_state&#45;&gt;Ketrew_artifact</title>
<path fill="none" stroke="black" d="M750.972,-661.379C721.615,-640.417 668.228,-601.787 624,-567 604.409,-551.591 601.7,-544.883 581,-531 526.113,-494.191 457.495,-460.129 414.192,-439.946"/>
<polygon fill="black" stroke="black" points="415.63,-436.754 405.084,-435.731 412.69,-443.107 415.63,-436.754"/>
</g>
<!-- Ketrew_state&#45;&gt;Ketrew_pervasives -->
<g id="edge57" class="edge"><title>Ketrew_state&#45;&gt;Ketrew_pervasives</title>
<path fill="none" stroke="black" d="M755.67,-660.778C699.541,-608.192 526.164,-445.402 523,-438 516.711,-423.288 521.009,-417.876 523,-402 537.782,-284.133 510.908,-232.513 589,-143 639.276,-85.371 724.199,-57.4771 785.597,-44.2775"/>
<polygon fill="black" stroke="black" points="786.537,-47.6573 795.622,-42.207 785.121,-40.8019 786.537,-47.6573"/>
</g>
<!-- Ketrew_state&#45;&gt;Ketrew_path -->
<g id="edge55" class="edge"><title>Ketrew_state&#45;&gt;Ketrew_path</title>
<path fill="none" stroke="black" d="M780.751,-660.158C815.349,-584.975 955.824,-279.724 997.982,-188.115"/>
<polygon fill="black" stroke="black" points="1001.19,-189.521 1002.19,-178.974 994.829,-186.595 1001.19,-189.521"/>
</g>
<!-- Ketrew_state&#45;&gt;Ketrew_host -->
<g id="edge59" class="edge"><title>Ketrew_state&#45;&gt;Ketrew_host</title>
<path fill="none" stroke="black" d="M775.415,-659.924C781.558,-616.702 798.394,-499.472 814,-402 818.569,-373.464 824.196,-340.876 828.136,-318.428"/>
<polygon fill="black" stroke="black" points="831.635,-318.74 829.923,-308.285 824.741,-317.526 831.635,-318.74"/>
</g>
<!-- Ketrew_state&#45;&gt;Ketrew_error -->
<g id="edge53" class="edge"><title>Ketrew_state&#45;&gt;Ketrew_error</title>
<path fill="none" stroke="black" d="M764.917,-660.069C751.225,-632.083 721.835,-574.905 690,-531 666.825,-499.039 635.642,-465.999 614.295,-444.581"/>
<polygon fill="black" stroke="black" points="616.743,-442.08 607.184,-437.511 611.808,-447.044 616.743,-442.08"/>
</g>
<!-- Ketrew_state&#45;&gt;Ketrew_target -->
<g id="edge56" class="edge"><title>Ketrew_state&#45;&gt;Ketrew_target</title>
<path fill="none" stroke="black" d="M743.2,-662.555C695.754,-639.556 603.021,-594.606 550.233,-569.018"/>
<polygon fill="black" stroke="black" points="551.7,-565.839 541.175,-564.627 548.647,-572.138 551.7,-565.839"/>
</g>
<!-- Ketrew_state&#45;&gt;Ketrew_long_running -->
<g id="edge58" class="edge"><title>Ketrew_state&#45;&gt;Ketrew_long_running</title>
<path fill="none" stroke="black" d="M827.657,-673.103C906.574,-665.024 1053.82,-640.513 1153,-567 1194.83,-535.993 1223.37,-480.647 1237.57,-447.73"/>
<polygon fill="black" stroke="black" points="1240.89,-448.863 1241.52,-438.287 1234.43,-446.164 1240.89,-448.863"/>
</g>
<!-- Ketrew_state&#45;&gt;Ketrew_configuration -->
<g id="edge61" class="edge"><title>Ketrew_state&#45;&gt;Ketrew_configuration</title>
<path fill="none" stroke="black" d="M729.944,-666.172C640.636,-643.712 434.906,-591.974 330.792,-565.791"/>
<polygon fill="black" stroke="black" points="331.593,-562.384 321.041,-563.339 329.885,-569.172 331.593,-562.384"/>
</g>
<!-- Ketrew_daemonize -->
<g id="node13" class="node"><title>Ketrew_daemonize</title>
<ellipse fill="darkturquoise" stroke="darkturquoise" cx="1383" cy="-549" rx="78.7108" ry="18"/>
<text text-anchor="middle" x="1383" y="-544.8" font-family="Times,serif" font-size="14.00">Ketrew_daemonize</text>
</g>
<!-- Ketrew_state&#45;&gt;Ketrew_daemonize -->
<g id="edge52" class="edge"><title>Ketrew_state&#45;&gt;Ketrew_daemonize</title>
<path fill="none" stroke="black" d="M819.099,-667.402C926.248,-645.094 1192.4,-589.682 1316.86,-563.769"/>
<polygon fill="black" stroke="black" points="1317.58,-567.195 1326.66,-561.73 1316.16,-560.342 1317.58,-567.195"/>
</g>
<!-- Ketrew_state&#45;&gt;Ketrew_database -->
<g id="edge60" class="edge"><title>Ketrew_state&#45;&gt;Ketrew_database</title>
<path fill="none" stroke="black" d="M766.347,-659.936C751.56,-621.185 716.009,-523.281 700,-438 692.262,-396.781 689.923,-348.097 689.242,-318.395"/>
<polygon fill="black" stroke="black" points="692.741,-318.295 689.059,-308.36 685.742,-318.422 692.741,-318.295"/>
</g>
<!-- Ketrew_lsf -->
<g id="node18" class="node"><title>Ketrew_lsf</title>
<ellipse fill="darkturquoise" stroke="darkturquoise" cx="1095" cy="-549" rx="49.2946" ry="18"/>
<text text-anchor="middle" x="1095" y="-544.8" font-family="Times,serif" font-size="14.00">Ketrew_lsf</text>
</g>
<!-- Ketrew_state&#45;&gt;Ketrew_lsf -->
<g id="edge54" class="edge"><title>Ketrew_state&#45;&gt;Ketrew_lsf</title>
<path fill="none" stroke="black" d="M807.155,-663.529C866.581,-640.091 988.796,-591.888 1053.19,-566.49"/>
<polygon fill="black" stroke="black" points="1054.62,-569.691 1062.63,-562.766 1052.05,-563.179 1054.62,-569.691"/>
</g>
<!-- Ketrew_target&#45;&gt;Ketrew_artifact -->
<g id="edge66" class="edge"><title>Ketrew_target&#45;&gt;Ketrew_artifact</title>
<path fill="none" stroke="black" d="M493.113,-531.657C468.954,-509.584 425.735,-470.096 397.991,-444.747"/>
<polygon fill="black" stroke="black" points="400.003,-441.845 390.26,-437.684 395.282,-447.013 400.003,-441.845"/>
</g>
<!-- Ketrew_target&#45;&gt;Ketrew_pervasives -->
<g id="edge64" class="edge"><title>Ketrew_target&#45;&gt;Ketrew_pervasives</title>
<path fill="none" stroke="black" d="M461.779,-538.248C410.479,-525.174 332.692,-496.477 297,-438 241.268,-346.69 104.462,-398.303 396,-143 453.039,-93.0504 665.982,-58.2667 782.539,-42.5167"/>
<polygon fill="black" stroke="black" points="783.031,-45.9822 792.479,-41.1881 782.103,-39.0439 783.031,-45.9822"/>
</g>
<!-- Ketrew_target&#45;&gt;Ketrew_path -->
<g id="edge62" class="edge"><title>Ketrew_target&#45;&gt;Ketrew_path</title>
<path fill="none" stroke="black" d="M509.706,-530.799C508.197,-502.909 507.61,-446.462 523,-402 545.66,-336.534 552.902,-312.648 609,-272 711.236,-197.921 860.937,-173.72 945.535,-165.82"/>
<polygon fill="black" stroke="black" points="945.869,-169.305 955.521,-164.936 945.251,-162.332 945.869,-169.305"/>
</g>
<!-- Ketrew_target&#45;&gt;Ketrew_host -->
<g id="edge65" class="edge"><title>Ketrew_target&#45;&gt;Ketrew_host</title>
<path fill="none" stroke="black" d="M533.028,-531.937C561.84,-510.807 613.743,-472.325 657,-438 711.134,-395.044 772.775,-342.756 806.853,-313.541"/>
<polygon fill="black" stroke="black" points="809.192,-316.146 814.5,-306.976 804.632,-310.834 809.192,-316.146"/>
</g>
<!-- Ketrew_program -->
<g id="node15" class="node"><title>Ketrew_program</title>
<ellipse fill="darkturquoise" stroke="darkturquoise" cx="1573" cy="-290" rx="70.5254" ry="18"/>
<text text-anchor="middle" x="1573" y="-285.8" font-family="Times,serif" font-size="14.00">Ketrew_program</text>
</g>
<!-- Ketrew_target&#45;&gt;Ketrew_program -->
<g id="edge63" class="edge"><title>Ketrew_target&#45;&gt;Ketrew_program</title>
<path fill="none" stroke="black" d="M556.293,-537.039C725.778,-496.025 1322.61,-351.593 1513.68,-305.354"/>
<polygon fill="black" stroke="black" points="1514.65,-308.721 1523.55,-302.967 1513,-301.918 1514.65,-308.721"/>
</g>
<!-- Ketrew_user_command&#45;&gt;Ketrew_pervasives -->
<g id="edge70" class="edge"><title>Ketrew_user_command&#45;&gt;Ketrew_pervasives</title>
<path fill="none" stroke="black" d="M819.519,-788.96C829.722,-767.744 846.497,-730.129 855,-696 900.779,-512.25 911.528,-460.809 897,-272 891.033,-194.457 874.331,-104.005 865.552,-59.9197"/>
<polygon fill="black" stroke="black" points="868.958,-59.1056 863.552,-49.9937 862.096,-60.488 868.958,-59.1056"/>
</g>
<!-- Ketrew_user_command&#45;&gt;Ketrew_state -->
<g id="edge69" class="edge"><title>Ketrew_user_command&#45;&gt;Ketrew_state</title>
<path fill="none" stroke="black" d="M805.875,-788.872C799.501,-767.569 788.545,-730.954 781.047,-705.892"/>
<polygon fill="black" stroke="black" points="784.385,-704.839 778.165,-696.262 777.679,-706.846 784.385,-704.839"/>
</g>
<!-- Ketrew_user_command&#45;&gt;Ketrew_target -->
<g id="edge68" class="edge"><title>Ketrew_user_command&#45;&gt;Ketrew_target</title>
<path fill="none" stroke="black" d="M795.49,-788.919C769.521,-760.717 715.055,-703.236 664,-660 624.521,-626.567 575.436,-592.466 543.676,-571.279"/>
<polygon fill="black" stroke="black" points="545.468,-568.268 535.2,-565.657 541.599,-574.101 545.468,-568.268"/>
</g>
<!-- Ketrew_user_command&#45;&gt;Ketrew_database -->
<g id="edge71" class="edge"><title>Ketrew_user_command&#45;&gt;Ketrew_database</title>
<path fill="none" stroke="black" d="M818.561,-788.91C829.66,-761.64 848.111,-706.607 839,-660 812.482,-524.349 735.936,-375.584 703.645,-316.873"/>
<polygon fill="black" stroke="black" points="706.592,-314.969 698.68,-307.922 700.471,-318.365 706.592,-314.969"/>
</g>
<!-- Ketrew_long_running&#45;&gt;Ketrew_pervasives -->
<g id="edge88" class="edge"><title>Ketrew_long_running&#45;&gt;Ketrew_pervasives</title>
<path fill="none" stroke="black" d="M1243.72,-401.986C1231.02,-354.702 1189.24,-220.129 1108,-143 1055.82,-93.4669 977.623,-63.8825 923.028,-48.0755"/>
<polygon fill="black" stroke="black" points="923.694,-44.627 913.12,-45.2826 921.795,-51.3645 923.694,-44.627"/>
</g>
<!-- Ketrew_configuration&#45;&gt;Ketrew_pervasives -->
<g id="edge14" class="edge"><title>Ketrew_configuration&#45;&gt;Ketrew_pervasives</title>
<path fill="none" stroke="black" d="M259.645,-530.76C239.258,-486.156 191.302,-364.025 229,-272 259.498,-197.549 285.55,-181.858 356,-143 489.764,-69.2199 669.023,-44.924 773.769,-36.9248"/>
<polygon fill="black" stroke="black" points="774.262,-40.3982 783.98,-36.1787 773.752,-33.4168 774.262,-40.3982"/>
</g>
<!-- Ketrew_configuration&#45;&gt;Ketrew_host -->
<g id="edge13" class="edge"><title>Ketrew_configuration&#45;&gt;Ketrew_host</title>
<path fill="none" stroke="black" d="M265.867,-530.816C263.128,-500.33 262.289,-436.728 297,-402 448.21,-250.714 560.643,-356.369 769,-308 773.338,-306.993 777.828,-305.902 782.325,-304.774"/>
<polygon fill="black" stroke="black" points="783.305,-308.137 792.126,-302.268 781.57,-301.355 783.305,-308.137"/>
</g>
<!-- Ketrew_daemonize&#45;&gt;Ketrew_pervasives -->
<g id="edge18" class="edge"><title>Ketrew_daemonize&#45;&gt;Ketrew_pervasives</title>
<path fill="none" stroke="black" d="M1454.77,-541.527C1520.53,-531.358 1614.37,-505.213 1660,-438 1676.27,-414.033 1701.64,-378.848 1653,-272 1618.88,-197.053 1593.51,-180.121 1520,-143 1419.78,-92.3875 1094.59,-55.49 941.325,-40.4536"/>
<polygon fill="black" stroke="black" points="941.33,-36.9376 931.038,-39.4518 940.651,-43.9046 941.33,-36.9376"/>
</g>
<!-- Ketrew_daemonize&#45;&gt;Ketrew_path -->
<g id="edge17" class="edge"><title>Ketrew_daemonize&#45;&gt;Ketrew_path</title>
<path fill="none" stroke="black" d="M1386.12,-530.825C1390.43,-501.984 1395.17,-442.961 1371,-402 1299.02,-280.01 1137.77,-207.674 1057.41,-177.915"/>
<polygon fill="black" stroke="black" points="1058.14,-174.46 1047.55,-174.33 1055.75,-181.038 1058.14,-174.46"/>
</g>
<!-- Ketrew_daemonize&#45;&gt;Ketrew_host -->
<g id="edge21" class="edge"><title>Ketrew_daemonize&#45;&gt;Ketrew_host</title>
<path fill="none" stroke="black" d="M1383.88,-530.762C1384.45,-500.19 1380.9,-436.458 1345,-402 1281.09,-340.668 1018.05,-308.408 895.883,-296.486"/>
<polygon fill="black" stroke="black" points="896.21,-293.001 885.921,-295.528 895.54,-299.969 896.21,-293.001"/>
</g>
<!-- Ketrew_daemonize&#45;&gt;Ketrew_error -->
<g id="edge15" class="edge"><title>Ketrew_daemonize&#45;&gt;Ketrew_error</title>
<path fill="none" stroke="black" d="M1320.44,-537.982C1171.51,-514.13 797.407,-454.217 650.535,-430.695"/>
<polygon fill="black" stroke="black" points="650.786,-427.191 640.359,-429.065 649.679,-434.102 650.786,-427.191"/>
</g>
<!-- Ketrew_daemonize&#45;&gt;Ketrew_long_running -->
<g id="edge20" class="edge"><title>Ketrew_daemonize&#45;&gt;Ketrew_long_running</title>
<path fill="none" stroke="black" d="M1365.35,-531.397C1341.93,-509.367 1300.43,-470.321 1273.58,-445.06"/>
<polygon fill="black" stroke="black" points="1275.77,-442.315 1266.08,-438.012 1270.97,-447.414 1275.77,-442.315"/>
</g>
<!-- Ketrew_monitored_script -->
<g id="node14" class="node"><title>Ketrew_monitored_script</title>
<ellipse fill="darkturquoise" stroke="darkturquoise" cx="1531" cy="-420" rx="100.945" ry="18"/>
<text text-anchor="middle" x="1531" y="-415.8" font-family="Times,serif" font-size="14.00">Ketrew_monitored_script</text>
</g>
<!-- Ketrew_daemonize&#45;&gt;Ketrew_monitored_script -->
<g id="edge16" class="edge"><title>Ketrew_daemonize&#45;&gt;Ketrew_monitored_script</title>
<path fill="none" stroke="black" d="M1402.35,-531.397C1428.13,-509.272 1473.91,-469.986 1503.34,-444.736"/>
<polygon fill="black" stroke="black" points="1505.86,-447.181 1511.17,-438.012 1501.31,-441.868 1505.86,-447.181"/>
</g>
<!-- Ketrew_daemonize&#45;&gt;Ketrew_program -->
<g id="edge19" class="edge"><title>Ketrew_daemonize&#45;&gt;Ketrew_program</title>
<path fill="none" stroke="black" d="M1450.88,-539.825C1512.2,-528.446 1599.06,-501.478 1641,-438 1667.72,-397.556 1627.62,-344.922 1598.57,-314.856"/>
<polygon fill="black" stroke="black" points="1601.01,-312.341 1591.47,-307.719 1596.05,-317.277 1601.01,-312.341"/>
</g>
<!-- Ketrew_monitored_script&#45;&gt;Ketrew_pervasives -->
<g id="edge47" class="edge"><title>Ketrew_monitored_script&#45;&gt;Ketrew_pervasives</title>
<path fill="none" stroke="black" d="M1510.83,-402.21C1454.68,-356.068 1290.64,-225.306 1138,-143 1063.5,-102.829 971.114,-69.2029 913.856,-50.0824"/>
<polygon fill="black" stroke="black" points="914.874,-46.7329 904.281,-46.9112 912.673,-53.3779 914.874,-46.7329"/>
</g>
<!-- Ketrew_monitored_script&#45;&gt;Ketrew_path -->
<g id="edge48" class="edge"><title>Ketrew_monitored_script&#45;&gt;Ketrew_path</title>
<path fill="none" stroke="black" d="M1517.33,-401.792C1492.17,-371.245 1435.46,-307.436 1374,-272 1275.41,-215.156 1144.53,-184.988 1069.57,-171.346"/>
<polygon fill="black" stroke="black" points="1069.83,-167.837 1059.37,-169.529 1068.6,-174.729 1069.83,-167.837"/>
</g>
<!-- Ketrew_monitored_script&#45;&gt;Ketrew_program -->
<g id="edge46" class="edge"><title>Ketrew_monitored_script&#45;&gt;Ketrew_program</title>
<path fill="none" stroke="black" d="M1536.58,-402.003C1543.64,-380.485 1555.88,-343.171 1564.21,-317.801"/>
<polygon fill="black" stroke="black" points="1567.61,-318.661 1567.4,-308.068 1560.96,-316.478 1567.61,-318.661"/>
</g>
<!-- Ketrew_program&#45;&gt;Ketrew_pervasives -->
<g id="edge50" class="edge"><title>Ketrew_program&#45;&gt;Ketrew_pervasives</title>
<path fill="none" stroke="black" d="M1568.23,-271.736C1558.66,-240.533 1533.97,-175.023 1488,-143 1401.16,-82.5021 1093.63,-51.0072 943.58,-38.9431"/>
<polygon fill="black" stroke="black" points="943.736,-35.4446 933.49,-38.1422 943.182,-42.4227 943.736,-35.4446"/>
</g>
<!-- Ketrew_database&#45;&gt;Ketrew_pervasives -->
<g id="edge22" class="edge"><title>Ketrew_database&#45;&gt;Ketrew_pervasives</title>
<path fill="none" stroke="black" d="M711.069,-272.573C736.291,-252.809 777.38,-217.452 803,-179 828.103,-141.323 844.653,-90.949 853.164,-60.2974"/>
<polygon fill="black" stroke="black" points="856.627,-60.8968 855.84,-50.3312 849.866,-59.0815 856.627,-60.8968"/>
</g>
<!-- Ketrew_edsl -->
<g id="node17" class="node"><title>Ketrew_edsl</title>
<ellipse fill="darkturquoise" stroke="darkturquoise" cx="1109" cy="-936" rx="54.599" ry="18"/>
<text text-anchor="middle" x="1109" y="-931.8" font-family="Times,serif" font-size="14.00">Ketrew_edsl</text>
</g>
<!-- Ketrew_edsl&#45;&gt;Ketrew_artifact -->
<g id="edge35" class="edge"><title>Ketrew_edsl&#45;&gt;Ketrew_artifact</title>
<path fill="none" stroke="black" d="M1095.4,-918.3C1057.93,-872.944 948.637,-745.174 839,-660 748.884,-589.991 718.523,-583.108 617,-531 548.363,-495.771 466.097,-460.127 416.497,-439.323"/>
<polygon fill="black" stroke="black" points="417.602,-435.992 407.026,-435.364 414.903,-442.45 417.602,-435.992"/>
</g>
<!-- Ketrew_edsl&#45;&gt;Ketrew_pervasives -->
<g id="edge31" class="edge"><title>Ketrew_edsl&#45;&gt;Ketrew_pervasives</title>
<path fill="none" stroke="black" d="M1161.31,-930.186C1283.22,-918.099 1581.93,-883.203 1662,-825 1828.42,-704.029 1888,-626.741 1888,-421 1888,-421 1888,-421 1888,-289 1888,-95.5733 1194.04,-47.1779 946.462,-36.0671"/>
<polygon fill="black" stroke="black" points="946.571,-32.5686 936.427,-35.6262 946.264,-39.5618 946.571,-32.5686"/>
</g>
<!-- Ketrew_edsl&#45;&gt;Ketrew_path -->
<g id="edge26" class="edge"><title>Ketrew_edsl&#45;&gt;Ketrew_path</title>
<path fill="none" stroke="black" d="M1137.94,-920.65C1278.84,-849.046 1877.29,-523.846 1653,-272 1577.33,-187.031 1224.34,-167.679 1075.96,-163.285"/>
<polygon fill="black" stroke="black" points="1075.74,-159.777 1065.64,-162.994 1075.54,-166.774 1075.74,-159.777"/>
</g>
<!-- Ketrew_edsl&#45;&gt;Ketrew_host -->
<g id="edge33" class="edge"><title>Ketrew_edsl&#45;&gt;Ketrew_host</title>
<path fill="none" stroke="black" d="M1107.16,-917.714C1104,-890.177 1096.74,-834.784 1085,-789 1054.8,-671.22 1048.52,-639.681 994,-531 951.903,-447.088 885.336,-357.628 852.557,-315.556"/>
<polygon fill="black" stroke="black" points="855.207,-313.263 846.282,-307.553 849.698,-317.582 855.207,-313.263"/>
</g>
<!-- Ketrew_edsl&#45;&gt;Ketrew_error -->
<g id="edge24" class="edge"><title>Ketrew_edsl&#45;&gt;Ketrew_error</title>
<path fill="none" stroke="black" d="M1105.88,-917.876C1100.21,-889.61 1086.51,-832.041 1062,-789 958.489,-607.201 725.848,-483.741 631.214,-439.304"/>
<polygon fill="black" stroke="black" points="632.507,-436.046 621.963,-435.007 629.558,-442.394 632.507,-436.046"/>
</g>
<!-- Ketrew_edsl&#45;&gt;Ketrew_state -->
<g id="edge27" class="edge"><title>Ketrew_edsl&#45;&gt;Ketrew_state</title>
<path fill="none" stroke="black" d="M1088.24,-919.179C1030.61,-875.272 868.566,-751.812 802.051,-701.134"/>
<polygon fill="black" stroke="black" points="804.132,-698.319 794.056,-695.043 799.889,-703.887 804.132,-698.319"/>
</g>
<!-- Ketrew_edsl&#45;&gt;Ketrew_target -->
<g id="edge29" class="edge"><title>Ketrew_edsl&#45;&gt;Ketrew_target</title>
<path fill="none" stroke="black" d="M1055.73,-931.724C973.915,-924.366 815.435,-900.68 707,-825 700.76,-820.645 575.657,-642.378 528.648,-575.232"/>
<polygon fill="black" stroke="black" points="531.408,-573.071 522.807,-566.886 525.673,-577.085 531.408,-573.071"/>
</g>
<!-- Ketrew_edsl&#45;&gt;Ketrew_user_command -->
<g id="edge28" class="edge"><title>Ketrew_edsl&#45;&gt;Ketrew_user_command</title>
<path fill="none" stroke="black" d="M1076.83,-921.288C1023.83,-898.701 917.975,-853.59 857.05,-827.625"/>
<polygon fill="black" stroke="black" points="858.245,-824.33 847.673,-823.629 855.5,-830.77 858.245,-824.33"/>
</g>
<!-- Ketrew_edsl&#45;&gt;Ketrew_long_running -->
<g id="edge32" class="edge"><title>Ketrew_edsl&#45;&gt;Ketrew_long_running</title>
<path fill="none" stroke="black" d="M1116.68,-918.099C1126.21,-896.714 1142.61,-858.613 1154,-825 1192.12,-712.469 1198.78,-683.104 1224,-567 1232.94,-525.864 1240.27,-477.566 1244.38,-448.132"/>
<polygon fill="black" stroke="black" points="1247.86,-448.574 1245.75,-438.19 1240.92,-447.619 1247.86,-448.574"/>
</g>
<!-- Ketrew_edsl&#45;&gt;Ketrew_configuration -->
<g id="edge34" class="edge"><title>Ketrew_edsl&#45;&gt;Ketrew_configuration</title>
<path fill="none" stroke="black" d="M1059.57,-928.061C977.364,-915.299 808.58,-883.86 677,-825 520.398,-754.946 358.217,-625.94 295.255,-573.295"/>
<polygon fill="black" stroke="black" points="297.291,-570.434 287.384,-566.678 292.787,-575.792 297.291,-570.434"/>
</g>
<!-- Ketrew_edsl&#45;&gt;Ketrew_daemonize -->
<g id="edge23" class="edge"><title>Ketrew_edsl&#45;&gt;Ketrew_daemonize</title>
<path fill="none" stroke="black" d="M1137.64,-920.567C1171.33,-902.338 1227.09,-868.084 1262,-825 1325.59,-746.518 1362.22,-629.405 1376.28,-577.02"/>
<polygon fill="black" stroke="black" points="1379.72,-577.709 1378.87,-567.148 1372.95,-575.934 1379.72,-577.709"/>
</g>
<!-- Ketrew_edsl&#45;&gt;Ketrew_program -->
<g id="edge30" class="edge"><title>Ketrew_edsl&#45;&gt;Ketrew_program</title>
<path fill="none" stroke="black" d="M1163.88,-935.832C1310.1,-934.91 1698,-910.637 1698,-679 1698,-679 1698,-679 1698,-548 1698,-480.949 1689.75,-462.09 1660,-402 1643.62,-368.923 1616.37,-336.313 1596.72,-315.089"/>
<polygon fill="black" stroke="black" points="1599.01,-312.413 1589.61,-307.535 1593.92,-317.213 1599.01,-312.413"/>
</g>
<!-- Ketrew_edsl&#45;&gt;Ketrew_lsf -->
<g id="edge25" class="edge"><title>Ketrew_edsl&#45;&gt;Ketrew_lsf</title>
<path fill="none" stroke="black" d="M1115.03,-917.749C1122.18,-896.321 1133.66,-858.492 1138,-825 1149.86,-733.507 1120.11,-625.529 1104.22,-576.542"/>
<polygon fill="black" stroke="black" points="1107.53,-575.402 1101.06,-567.012 1100.89,-577.605 1107.53,-575.402"/>
</g>
<!-- Ketrew_lsf&#45;&gt;Ketrew_pervasives -->
<g id="edge42" class="edge"><title>Ketrew_lsf&#45;&gt;Ketrew_pervasives</title>
<path fill="none" stroke="black" d="M1099.73,-530.781C1115.03,-471.238 1157.52,-270.722 1075,-143 1041.51,-91.1646 975.458,-62.5723 925.358,-47.6309"/>
<polygon fill="black" stroke="black" points="926.142,-44.2149 915.565,-44.8218 924.212,-50.9435 926.142,-44.2149"/>
</g>
<!-- Ketrew_lsf&#45;&gt;Ketrew_path -->
<g id="edge41" class="edge"><title>Ketrew_lsf&#45;&gt;Ketrew_path</title>
<path fill="none" stroke="black" d="M1091.24,-530.916C1077.86,-470.145 1032.48,-264.103 1016.03,-189.366"/>
<polygon fill="black" stroke="black" points="1019.38,-188.338 1013.82,-179.325 1012.55,-189.843 1019.38,-188.338"/>
</g>
<!-- Ketrew_lsf&#45;&gt;Ketrew_host -->
<g id="edge45" class="edge"><title>Ketrew_lsf&#45;&gt;Ketrew_host</title>
<path fill="none" stroke="black" d="M1078.61,-531.923C1033.87,-488.038 909.496,-366.036 856.936,-314.479"/>
<polygon fill="black" stroke="black" points="859.31,-311.906 849.721,-307.402 854.409,-316.903 859.31,-311.906"/>
</g>
<!-- Ketrew_lsf&#45;&gt;Ketrew_error -->
<g id="edge39" class="edge"><title>Ketrew_lsf&#45;&gt;Ketrew_error</title>
<path fill="none" stroke="black" d="M1055.37,-538.035C965.251,-515.37 744.883,-459.951 643.113,-434.357"/>
<polygon fill="black" stroke="black" points="643.901,-430.946 633.349,-431.902 642.194,-437.735 643.901,-430.946"/>
</g>
<!-- Ketrew_lsf&#45;&gt;Ketrew_long_running -->
<g id="edge44" class="edge"><title>Ketrew_lsf&#45;&gt;Ketrew_long_running</title>
<path fill="none" stroke="black" d="M1114.07,-532.172C1140.69,-510.076 1189.17,-469.832 1219.92,-444.304"/>
<polygon fill="black" stroke="black" points="1222.26,-446.917 1227.72,-437.837 1217.79,-441.531 1222.26,-446.917"/>
</g>
<!-- Ketrew_lsf&#45;&gt;Ketrew_monitored_script -->
<g id="edge40" class="edge"><title>Ketrew_lsf&#45;&gt;Ketrew_monitored_script</title>
<path fill="none" stroke="black" d="M1132.55,-537.062C1208.18,-515.031 1379.42,-465.152 1470.84,-438.524"/>
<polygon fill="black" stroke="black" points="1471.88,-441.865 1480.51,-435.708 1469.93,-435.144 1471.88,-441.865"/>
</g>
<!-- Ketrew_lsf&#45;&gt;Ketrew_program -->
<g id="edge43" class="edge"><title>Ketrew_lsf&#45;&gt;Ketrew_program</title>
<path fill="none" stroke="black" d="M1096.59,-530.757C1100.35,-500.177 1112.59,-436.431 1151,-402 1246.01,-316.824 1398.68,-295.68 1492.01,-291.18"/>
<polygon fill="black" stroke="black" points="1492.4,-294.666 1502.24,-290.742 1492.1,-287.673 1492.4,-294.666"/>
</g>
<!-- Ketrew_unix_process&#45;&gt;Ketrew_pervasives -->
<g id="edge67" class="edge"><title>Ketrew_unix_process&#45;&gt;Ketrew_pervasives</title>
<path fill="none" stroke="black" d="M727.002,-143.397C753.805,-121.149 801.512,-81.5485 831.91,-56.3165"/>
<polygon fill="black" stroke="black" points="834.534,-58.6872 839.993,-49.6071 830.063,-53.301 834.534,-58.6872"/>
</g>
<!-- Ketrew -->
<g id="node20" class="node"><title>Ketrew</title>
<ellipse fill="darkturquoise" stroke="darkturquoise" cx="830" cy="-1065" rx="36.2645" ry="18"/>
<text text-anchor="middle" x="830" y="-1060.8" font-family="Times,serif" font-size="14.00">Ketrew</text>
</g>
<!-- Ketrew&#45;&gt;Ketrew_artifact -->
<g id="edge83" class="edge"><title>Ketrew&#45;&gt;Ketrew_artifact</title>
<path fill="none" stroke="black" d="M793.604,-1064.85C692.528,-1065.75 402.08,-1058.44 193,-954 108.337,-911.71 38,-902.637 38,-808 38,-808 38,-808 38,-677 38,-602.794 64.0613,-580.883 119,-531 174.863,-480.277 257.784,-450.326 313.305,-434.789"/>
<polygon fill="black" stroke="black" points="314.271,-438.154 322.997,-432.145 312.429,-431.4 314.271,-438.154"/>
</g>
<!-- Ketrew&#45;&gt;Ketrew_pervasives -->
<g id="edge75" class="edge"><title>Ketrew&#45;&gt;Ketrew_pervasives</title>
<path fill="none" stroke="black" d="M866.154,-1063.48C1055.69,-1059.82 1926,-1030.88 1926,-808 1926,-808 1926,-808 1926,-289 1926,-191.412 1850.93,-183.182 1762,-143 1617.23,-77.5896 1141.99,-47.017 945.845,-36.9509"/>
<polygon fill="black" stroke="black" points="945.752,-33.4418 935.587,-36.4302 945.397,-40.4328 945.752,-33.4418"/>
</g>
<!-- Ketrew&#45;&gt;Ketrew_path -->
<g id="edge76" class="edge"><title>Ketrew&#45;&gt;Ketrew_path</title>
<path fill="none" stroke="black" d="M866.003,-1062.88C1047.12,-1056.28 1850,-1015.34 1850,-808 1850,-808 1850,-808 1850,-419 1850,-319.115 1770.46,-314.351 1680,-272 1474.92,-175.991 1200.35,-162.131 1076.06,-161.194"/>
<polygon fill="black" stroke="black" points="1075.96,-157.693 1065.94,-161.144 1075.92,-164.693 1075.96,-157.693"/>
</g>
<!-- Ketrew&#45;&gt;Ketrew_host -->
<g id="edge77" class="edge"><title>Ketrew&#45;&gt;Ketrew_host</title>
<path fill="none" stroke="black" d="M838.136,-1047.44C856.351,-1009.33 899.988,-912.013 915,-825 948.499,-630.835 871.806,-395.756 843.207,-317.651"/>
<polygon fill="black" stroke="black" points="846.422,-316.254 839.66,-308.098 839.86,-318.691 846.422,-316.254"/>
</g>
<!-- Ketrew&#45;&gt;Ketrew_command_line -->
<g id="edge82" class="edge"><title>Ketrew&#45;&gt;Ketrew_command_line</title>
<path fill="none" stroke="black" d="M799.938,-1054.87C730.834,-1033.87 559.704,-981.877 469.598,-954.5"/>
<polygon fill="black" stroke="black" points="470.402,-951.086 459.816,-951.528 468.367,-957.784 470.402,-951.086"/>
</g>
<!-- Ketrew&#45;&gt;Ketrew_error -->
<g id="edge78" class="edge"><title>Ketrew&#45;&gt;Ketrew_error</title>
<path fill="none" stroke="black" d="M793.932,-1063.11C703.067,-1059.56 459.294,-1041.91 281,-954 192.576,-910.402 114,-906.588 114,-808 114,-808 114,-808 114,-677 114,-610.375 101.246,-578.466 148,-531 200.615,-477.584 417.813,-442.945 526.892,-428.576"/>
<polygon fill="black" stroke="black" points="527.636,-432.008 537.102,-427.248 526.734,-425.067 527.636,-432.008"/>
</g>
<!-- Ketrew&#45;&gt;Ketrew_state -->
<g id="edge73" class="edge"><title>Ketrew&#45;&gt;Ketrew_state</title>
<path fill="none" stroke="black" d="M818.072,-1047.72C791.686,-1010.56 728.972,-915.708 707,-825 696.033,-779.725 727.659,-731.205 750.845,-703.062"/>
<polygon fill="black" stroke="black" points="753.597,-705.229 757.415,-695.346 748.267,-700.69 753.597,-705.229"/>
</g>
<!-- Ketrew&#45;&gt;Ketrew_target -->
<g id="edge72" class="edge"><title>Ketrew&#45;&gt;Ketrew_target</title>
<path fill="none" stroke="black" d="M815.385,-1048.29C796.435,-1027.54 762.872,-989.467 738,-954 643.536,-819.295 555.137,-641.996 523.394,-576.115"/>
<polygon fill="black" stroke="black" points="526.441,-574.374 518.96,-566.871 520.129,-577.401 526.441,-574.374"/>
</g>
<!-- Ketrew&#45;&gt;Ketrew_configuration -->
<g id="edge81" class="edge"><title>Ketrew&#45;&gt;Ketrew_configuration</title>
<path fill="none" stroke="black" d="M794.503,-1061.52C688.624,-1053.36 378.149,-1023.84 310,-954 207.907,-849.372 243.619,-649.273 260.899,-576.935"/>
<polygon fill="black" stroke="black" points="264.3,-577.763 263.296,-567.216 257.503,-576.086 264.3,-577.763"/>
</g>
<!-- Ketrew&#45;&gt;Ketrew_daemonize -->
<g id="edge80" class="edge"><title>Ketrew&#45;&gt;Ketrew_daemonize</title>
<path fill="none" stroke="black" d="M864.213,-1059.17C928.989,-1048.75 1072.08,-1019.62 1173,-954 1291.08,-877.226 1310.87,-829.071 1357,-696 1370.89,-655.919 1377.67,-606.953 1380.74,-577.141"/>
<polygon fill="black" stroke="black" points="1384.24,-577.366 1381.71,-567.077 1377.27,-576.695 1384.24,-577.366"/>
</g>
<!-- Ketrew&#45;&gt;Ketrew_program -->
<g id="edge74" class="edge"><title>Ketrew&#45;&gt;Ketrew_program</title>
<path fill="none" stroke="black" d="M865.795,-1061.79C1033.8,-1050.48 1736,-992.188 1736,-808 1736,-808 1736,-808 1736,-548 1736,-478.968 1719.93,-460.32 1683,-402 1660.96,-367.198 1626.37,-334.631 1601.87,-313.891"/>
<polygon fill="black" stroke="black" points="1603.9,-311.032 1593.98,-307.325 1599.43,-316.412 1603.9,-311.032"/>
</g>
<!-- Ketrew&#45;&gt;Ketrew_edsl -->
<g id="edge79" class="edge"><title>Ketrew&#45;&gt;Ketrew_edsl</title>
<path fill="none" stroke="black" d="M855.748,-1052.28C904.562,-1030.06 1010.88,-981.666 1069.03,-955.194"/>
<polygon fill="black" stroke="black" points="1070.63,-958.313 1078.28,-950.985 1067.73,-951.942 1070.63,-958.313"/>
</g>
</g>
</svg>
