<?xml version="1.0" encoding="UTF-8" standalone="no"?>
<!DOCTYPE svg PUBLIC "-//W3C//DTD SVG 1.1//EN"
 "http://www.w3.org/Graphics/SVG/1.1/DTD/svg11.dtd">
<!-- Generated by graphviz version 2.38.0 (20140413.2041)
 -->
<!-- Title: G Pages: 1 -->
<svg width="720pt" height="392pt"
 viewBox="0.00 0.00 720.00 391.78" xmlns="http://www.w3.org/2000/svg" xmlns:xlink="http://www.w3.org/1999/xlink">
<g id="graph0" class="graph" transform="scale(0.37835 0.37835) rotate(0) translate(4 1031.5)">
<title>G</title>
<polygon fill="white" stroke="none" points="-4,4 -4,-1031.5 1899,-1031.5 1899,4 -4,4"/>
<!-- Ketrew_artifact -->
<g id="node1" class="node"><title>Ketrew_artifact</title>
<ellipse fill="darkturquoise" stroke="darkturquoise" cx="1087" cy="-352" rx="65.6803" ry="18"/>
<text text-anchor="middle" x="1087" y="-347.8" font-family="Times,serif" font-size="14.00">Ketrew_artifact</text>
</g>
<!-- Ketrew_pervasives -->
<g id="node2" class="node"><title>Ketrew_pervasives</title>
<ellipse fill="darkturquoise" stroke="darkturquoise" cx="784" cy="-27" rx="77.7589" ry="18"/>
<text text-anchor="middle" x="784" y="-22.8" font-family="Times,serif" font-size="14.00">Ketrew_pervasives</text>
</g>
<!-- Ketrew_artifact&#45;&gt;Ketrew_pervasives -->
<g id="edge1" class="edge"><title>Ketrew_artifact&#45;&gt;Ketrew_pervasives</title>
<path fill="none" stroke="black" d="M1081.32,-333.825C1066.71,-291.888 1024.09,-182.886 956,-117 921.954,-84.0549 873.278,-60.4134 836.391,-45.8148"/>
<polygon fill="black" stroke="black" points="837.393,-42.4501 826.804,-42.1176 834.875,-48.9813 837.393,-42.4501"/>
</g>
<!-- Ketrew_path -->
<g id="node3" class="node"><title>Ketrew_path</title>
<ellipse fill="darkturquoise" stroke="darkturquoise" cx="1157" cy="-135" rx="55.5596" ry="18"/>
<text text-anchor="middle" x="1157" y="-130.8" font-family="Times,serif" font-size="14.00">Ketrew_path</text>
</g>
<!-- Ketrew_artifact&#45;&gt;Ketrew_path -->
<g id="edge2" class="edge"><title>Ketrew_artifact&#45;&gt;Ketrew_path</title>
<path fill="none" stroke="black" d="M1092.61,-333.769C1104.8,-296.329 1133.78,-207.333 1148.34,-162.614"/>
<polygon fill="black" stroke="black" points="1151.69,-163.607 1151.46,-153.015 1145.04,-161.44 1151.69,-163.607"/>
</g>
<!-- Ketrew_host -->
<g id="node4" class="node"><title>Ketrew_host</title>
<ellipse fill="darkturquoise" stroke="darkturquoise" cx="905" cy="-243" rx="55.0922" ry="18"/>
<text text-anchor="middle" x="905" y="-238.8" font-family="Times,serif" font-size="14.00">Ketrew_host</text>
</g>
<!-- Ketrew_artifact&#45;&gt;Ketrew_host -->
<g id="edge3" class="edge"><title>Ketrew_artifact&#45;&gt;Ketrew_host</title>
<path fill="none" stroke="black" d="M1060.54,-335.441C1028.59,-316.659 974.779,-285.024 939.577,-264.328"/>
<polygon fill="black" stroke="black" points="941.009,-261.11 930.614,-259.059 937.461,-267.144 941.009,-261.11"/>
</g>
<!-- Ketrew_path&#45;&gt;Ketrew_pervasives -->
<g id="edge57" class="edge"><title>Ketrew_path&#45;&gt;Ketrew_pervasives</title>
<path fill="none" stroke="black" d="M1116.37,-122.454C1049.69,-103.505 916.875,-65.7607 840.876,-44.1632"/>
<polygon fill="black" stroke="black" points="841.57,-40.7219 830.994,-41.3549 839.657,-47.4553 841.57,-40.7219"/>
</g>
<!-- Ketrew_host&#45;&gt;Ketrew_pervasives -->
<g id="edge45" class="edge"><title>Ketrew_host&#45;&gt;Ketrew_pervasives</title>
<path fill="none" stroke="black" d="M917.066,-225.16C933.401,-200.104 958.305,-152.187 938,-117 917.262,-81.0621 875.868,-58.3311 841.214,-44.8438"/>
<polygon fill="black" stroke="black" points="842.235,-41.489 831.642,-41.2814 839.793,-48.0495 842.235,-41.489"/>
</g>
<!-- Ketrew_host&#45;&gt;Ketrew_path -->
<g id="edge46" class="edge"><title>Ketrew_host&#45;&gt;Ketrew_path</title>
<path fill="none" stroke="black" d="M937.429,-228.359C982.761,-209.291 1065.11,-174.65 1115.06,-153.641"/>
<polygon fill="black" stroke="black" points="1116.44,-156.86 1124.3,-149.756 1113.72,-150.407 1116.44,-156.86"/>
</g>
<!-- Ketrew_unix_process -->
<g id="node20" class="node"><title>Ketrew_unix_process</title>
<ellipse fill="darkturquoise" stroke="darkturquoise" cx="842" cy="-135" rx="87.4394" ry="18"/>
<text text-anchor="middle" x="842" y="-130.8" font-family="Times,serif" font-size="14.00">Ketrew_unix_process</text>
</g>
<!-- Ketrew_host&#45;&gt;Ketrew_unix_process -->
<g id="edge44" class="edge"><title>Ketrew_host&#45;&gt;Ketrew_unix_process</title>
<path fill="none" stroke="black" d="M894.878,-224.969C884.729,-207.893 868.974,-181.384 857.298,-161.74"/>
<polygon fill="black" stroke="black" points="860.215,-159.797 852.097,-152.988 854.197,-163.373 860.215,-159.797"/>
</g>
<!-- Ketrew_command_line -->
<g id="node5" class="node"><title>Ketrew_command_line</title>
<ellipse fill="darkturquoise" stroke="darkturquoise" cx="476" cy="-892" rx="93.2188" ry="18"/>
<text text-anchor="middle" x="476" y="-887.8" font-family="Times,serif" font-size="14.00">Ketrew_command_line</text>
</g>
<!-- Ketrew_command_line&#45;&gt;Ketrew_artifact -->
<g id="edge4" class="edge"><title>Ketrew_command_line&#45;&gt;Ketrew_artifact</title>
<path fill="none" stroke="black" d="M555.849,-882.652C617.568,-872.565 701.985,-850.422 760,-802 898.735,-686.204 827.053,-575.361 949,-442 976.254,-412.195 1015.61,-388.122 1045.32,-372.564"/>
<polygon fill="black" stroke="black" points="1047.29,-375.487 1054.6,-367.816 1044.1,-369.255 1047.29,-375.487"/>
</g>
<!-- Ketrew_command_line&#45;&gt;Ketrew_pervasives -->
<g id="edge11" class="edge"><title>Ketrew_command_line&#45;&gt;Ketrew_pervasives</title>
<path fill="none" stroke="black" d="M391.512,-884.298C327.586,-875.12 241.308,-853.395 184,-802 61.2646,-691.929 38,-625.863 38,-461 38,-461 38,-461 38,-242 38,-179.586 50.9744,-152.943 102,-117 195.91,-50.8489 533.889,-33.8598 696.024,-29.5014"/>
<polygon fill="black" stroke="black" points="696.539,-32.9893 706.445,-29.2321 696.358,-25.9917 696.539,-32.9893"/>
</g>
<!-- Ketrew_client -->
<g id="node6" class="node"><title>Ketrew_client</title>
<ellipse fill="darkturquoise" stroke="darkturquoise" cx="691" cy="-784" rx="60.3942" ry="18"/>
<text text-anchor="middle" x="691" y="-779.8" font-family="Times,serif" font-size="14.00">Ketrew_client</text>
</g>
<!-- Ketrew_command_line&#45;&gt;Ketrew_client -->
<g id="edge5" class="edge"><title>Ketrew_command_line&#45;&gt;Ketrew_client</title>
<path fill="none" stroke="black" d="M508.654,-874.901C547.125,-855.934 610.984,-824.45 652.014,-804.221"/>
<polygon fill="black" stroke="black" points="653.742,-807.271 661.163,-799.71 650.647,-800.993 653.742,-807.271"/>
</g>
<!-- Ketrew_engine -->
<g id="node7" class="node"><title>Ketrew_engine</title>
<ellipse fill="darkturquoise" stroke="darkturquoise" cx="601" cy="-676" rx="64.2527" ry="18"/>
<text text-anchor="middle" x="601" y="-671.8" font-family="Times,serif" font-size="14.00">Ketrew_engine</text>
</g>
<!-- Ketrew_command_line&#45;&gt;Ketrew_engine -->
<g id="edge6" class="edge"><title>Ketrew_command_line&#45;&gt;Ketrew_engine</title>
<path fill="none" stroke="black" d="M486.018,-873.849C507.923,-836.348 560.182,-746.881 586.017,-702.652"/>
<polygon fill="black" stroke="black" points="589.086,-704.336 591.108,-693.935 583.042,-700.805 589.086,-704.336"/>
</g>
<!-- Ketrew_error -->
<g id="node8" class="node"><title>Ketrew_error</title>
<ellipse fill="darkturquoise" stroke="darkturquoise" cx="371" cy="-352" rx="57.9719" ry="18"/>
<text text-anchor="middle" x="371" y="-347.8" font-family="Times,serif" font-size="14.00">Ketrew_error</text>
</g>
<!-- Ketrew_command_line&#45;&gt;Ketrew_error -->
<g id="edge7" class="edge"><title>Ketrew_command_line&#45;&gt;Ketrew_error</title>
<path fill="none" stroke="black" d="M385.384,-887.583C322.81,-879.957 243.488,-858.735 201,-802 152.617,-737.393 223.44,-459.626 235,-442 256.808,-408.749 295.818,-385.137 326.483,-370.627"/>
<polygon fill="black" stroke="black" points="328.061,-373.754 335.703,-366.416 325.153,-367.387 328.061,-373.754"/>
</g>
<!-- Ketrew_plugin -->
<g id="node9" class="node"><title>Ketrew_plugin</title>
<ellipse fill="darkturquoise" stroke="darkturquoise" cx="509" cy="-568" rx="63.3097" ry="18"/>
<text text-anchor="middle" x="509" y="-563.8" font-family="Times,serif" font-size="14.00">Ketrew_plugin</text>
</g>
<!-- Ketrew_command_line&#45;&gt;Ketrew_plugin -->
<g id="edge8" class="edge"><title>Ketrew_command_line&#45;&gt;Ketrew_plugin</title>
<path fill="none" stroke="black" d="M477.774,-873.688C483.203,-820.712 499.622,-660.504 506.215,-596.17"/>
<polygon fill="black" stroke="black" points="509.719,-596.312 507.257,-586.007 502.756,-595.598 509.719,-596.312"/>
</g>
<!-- Ketrew_server -->
<g id="node10" class="node"><title>Ketrew_server</title>
<ellipse fill="darkturquoise" stroke="darkturquoise" cx="292" cy="-784" rx="62.3148" ry="18"/>
<text text-anchor="middle" x="292" y="-779.8" font-family="Times,serif" font-size="14.00">Ketrew_server</text>
</g>
<!-- Ketrew_command_line&#45;&gt;Ketrew_server -->
<g id="edge9" class="edge"><title>Ketrew_command_line&#45;&gt;Ketrew_server</title>
<path fill="none" stroke="black" d="M447.653,-874.67C415.357,-856.065 362.535,-825.634 327.519,-805.462"/>
<polygon fill="black" stroke="black" points="328.998,-802.275 318.586,-800.316 325.503,-808.34 328.998,-802.275"/>
</g>
<!-- Ketrew_target -->
<g id="node11" class="node"><title>Ketrew_target</title>
<ellipse fill="darkturquoise" stroke="darkturquoise" cx="1019" cy="-460" rx="60.5585" ry="18"/>
<text text-anchor="middle" x="1019" y="-455.8" font-family="Times,serif" font-size="14.00">Ketrew_target</text>
</g>
<!-- Ketrew_command_line&#45;&gt;Ketrew_target -->
<g id="edge10" class="edge"><title>Ketrew_command_line&#45;&gt;Ketrew_target</title>
<path fill="none" stroke="black" d="M557.987,-883.452C670.051,-871.66 863.402,-845.586 918,-802 1016.27,-723.547 1022.11,-554.1 1020.38,-488.094"/>
<polygon fill="black" stroke="black" points="1023.88,-487.94 1020.04,-478.065 1016.89,-488.179 1023.88,-487.94"/>
</g>
<!-- Ketrew_configuration -->
<g id="node12" class="node"><title>Ketrew_configuration</title>
<ellipse fill="darkturquoise" stroke="darkturquoise" cx="344" cy="-460" rx="87.9239" ry="18"/>
<text text-anchor="middle" x="344" y="-455.8" font-family="Times,serif" font-size="14.00">Ketrew_configuration</text>
</g>
<!-- Ketrew_command_line&#45;&gt;Ketrew_configuration -->
<g id="edge12" class="edge"><title>Ketrew_command_line&#45;&gt;Ketrew_configuration</title>
<path fill="none" stroke="black" d="M388.855,-885.569C330.931,-876.89 258.805,-855.236 221,-802 147.045,-697.859 267.659,-544.518 320.819,-485.442"/>
<polygon fill="black" stroke="black" points="323.687,-487.491 327.845,-477.746 318.518,-482.771 323.687,-487.491"/>
</g>
<!-- Ketrew_client&#45;&gt;Ketrew_pervasives -->
<g id="edge85" class="edge"><title>Ketrew_client&#45;&gt;Ketrew_pervasives</title>
<path fill="none" stroke="black" d="M728.671,-769.774C775.692,-753.054 858.405,-722.95 928,-694 1239.32,-564.496 1415.6,-642.639 1614,-370 1642.85,-330.355 1627.21,-309.883 1631,-261 1632.24,-245.048 1637.51,-239.616 1631,-225 1601.81,-159.454 1576.3,-146.736 1511,-117 1398.36,-65.7056 1036.62,-40.9577 869.779,-32.0444"/>
<polygon fill="black" stroke="black" points="869.73,-28.537 859.559,-31.5052 869.361,-35.5273 869.73,-28.537"/>
</g>
<!-- Ketrew_client&#45;&gt;Ketrew_engine -->
<g id="edge87" class="edge"><title>Ketrew_client&#45;&gt;Ketrew_engine</title>
<path fill="none" stroke="black" d="M676.938,-766.438C662.164,-749.037 638.768,-721.482 621.847,-701.553"/>
<polygon fill="black" stroke="black" points="624.401,-699.154 615.261,-693.796 619.065,-703.684 624.401,-699.154"/>
</g>
<!-- Ketrew_client&#45;&gt;Ketrew_error -->
<g id="edge86" class="edge"><title>Ketrew_client&#45;&gt;Ketrew_error</title>
<path fill="none" stroke="black" d="M691.075,-765.829C690.654,-741.172 687.868,-694.668 674,-658 631.737,-546.256 603.668,-520.946 514,-442 481.778,-413.631 439.483,-388.529 409.266,-372.278"/>
<polygon fill="black" stroke="black" points="410.775,-369.117 400.3,-367.525 407.496,-375.301 410.775,-369.117"/>
</g>
<!-- Ketrew_client&#45;&gt;Ketrew_plugin -->
<g id="edge84" class="edge"><title>Ketrew_client&#45;&gt;Ketrew_plugin</title>
<path fill="none" stroke="black" d="M647.924,-771.365C610.029,-758.772 556.575,-734.803 528,-694 507.858,-665.239 505.469,-623.616 506.512,-596.434"/>
<polygon fill="black" stroke="black" points="510.026,-596.276 507.1,-586.093 503.038,-595.878 510.026,-596.276"/>
</g>
<!-- Ketrew_client&#45;&gt;Ketrew_target -->
<g id="edge83" class="edge"><title>Ketrew_client&#45;&gt;Ketrew_target</title>
<path fill="none" stroke="black" d="M731.427,-770.632C799.913,-747.244 936.864,-689.379 994,-586 1010.94,-555.357 1016.49,-514.85 1018.26,-488.373"/>
<polygon fill="black" stroke="black" points="1021.76,-488.462 1018.79,-478.291 1014.77,-488.091 1021.76,-488.462"/>
</g>
<!-- Ketrew_client&#45;&gt;Ketrew_configuration -->
<g id="edge88" class="edge"><title>Ketrew_client&#45;&gt;Ketrew_configuration</title>
<path fill="none" stroke="black" d="M654.867,-769.488C616.684,-754.288 555.657,-727.317 509,-694 453.756,-654.552 439.699,-641.771 401,-586 379.393,-554.861 362.648,-514.217 353.054,-487.866"/>
<polygon fill="black" stroke="black" points="356.261,-486.436 349.617,-478.183 349.664,-488.778 356.261,-486.436"/>
</g>
<!-- Ketrew_engine&#45;&gt;Ketrew_artifact -->
<g id="edge34" class="edge"><title>Ketrew_engine&#45;&gt;Ketrew_artifact</title>
<path fill="none" stroke="black" d="M634.754,-660.586C669.455,-644.927 724.176,-617.839 766,-586 801.266,-559.153 868.178,-468.1 904,-442 946.38,-411.122 1001.13,-386.132 1039.66,-370.582"/>
<polygon fill="black" stroke="black" points="1041.09,-373.781 1049.09,-366.834 1038.51,-367.276 1041.09,-373.781"/>
</g>
<!-- Ketrew_engine&#45;&gt;Ketrew_pervasives -->
<g id="edge40" class="edge"><title>Ketrew_engine&#45;&gt;Ketrew_pervasives</title>
<path fill="none" stroke="black" d="M536.832,-675.169C404.591,-671.802 114,-643.625 114,-461 114,-461 114,-461 114,-242 114,-173.282 146.309,-152.743 205,-117 286.404,-67.424 558.988,-42.7337 699.163,-33.0643"/>
<polygon fill="black" stroke="black" points="699.694,-36.5365 709.433,-32.3664 699.219,-29.5526 699.694,-36.5365"/>
</g>
<!-- Ketrew_engine&#45;&gt;Ketrew_path -->
<g id="edge37" class="edge"><title>Ketrew_engine&#45;&gt;Ketrew_path</title>
<path fill="none" stroke="black" d="M625.757,-659.186C651.522,-642.289 692.562,-614.118 725,-586 730.628,-581.121 1045.87,-252.037 1134.21,-159.797"/>
<polygon fill="black" stroke="black" points="1136.95,-161.992 1141.34,-152.349 1131.9,-157.151 1136.95,-161.992"/>
</g>
<!-- Ketrew_engine&#45;&gt;Ketrew_host -->
<g id="edge41" class="edge"><title>Ketrew_engine&#45;&gt;Ketrew_host</title>
<path fill="none" stroke="black" d="M619.51,-658.506C654.858,-626.342 733.067,-551.9 785,-478 834.176,-408.024 875.639,-315.157 894.345,-270.372"/>
<polygon fill="black" stroke="black" points="897.605,-271.645 898.192,-261.067 891.137,-268.971 897.605,-271.645"/>
</g>
<!-- Ketrew_engine&#45;&gt;Ketrew_plugin -->
<g id="edge38" class="edge"><title>Ketrew_engine&#45;&gt;Ketrew_plugin</title>
<path fill="none" stroke="black" d="M586.625,-658.438C571.523,-641.037 547.607,-613.482 530.31,-593.553"/>
<polygon fill="black" stroke="black" points="532.776,-591.054 523.578,-585.796 527.489,-595.642 532.776,-591.054"/>
</g>
<!-- Ketrew_engine&#45;&gt;Ketrew_target -->
<g id="edge39" class="edge"><title>Ketrew_engine&#45;&gt;Ketrew_target</title>
<path fill="none" stroke="black" d="M636.403,-660.909C677.36,-644.281 746.53,-615.186 804,-586 869.992,-552.486 944.008,-507.807 985.713,-481.942"/>
<polygon fill="black" stroke="black" points="987.714,-484.82 994.355,-476.565 984.015,-478.876 987.714,-484.82"/>
</g>
<!-- Ketrew_engine&#45;&gt;Ketrew_configuration -->
<g id="edge43" class="edge"><title>Ketrew_engine&#45;&gt;Ketrew_configuration</title>
<path fill="none" stroke="black" d="M565.302,-661.022C530.098,-646.063 476.043,-619.843 437,-586 403.724,-557.156 375.16,-514.444 358.772,-487.169"/>
<polygon fill="black" stroke="black" points="361.587,-485.052 353.495,-478.213 355.556,-488.605 361.587,-485.052"/>
</g>
<!-- Ketrew_daemonize -->
<g id="node13" class="node"><title>Ketrew_daemonize</title>
<ellipse fill="darkturquoise" stroke="darkturquoise" cx="1312" cy="-460" rx="78.7108" ry="18"/>
<text text-anchor="middle" x="1312" y="-455.8" font-family="Times,serif" font-size="14.00">Ketrew_daemonize</text>
</g>
<!-- Ketrew_engine&#45;&gt;Ketrew_daemonize -->
<g id="edge35" class="edge"><title>Ketrew_engine&#45;&gt;Ketrew_daemonize</title>
<path fill="none" stroke="black" d="M643.084,-662.333C765.026,-625.631 1118.63,-519.201 1256.26,-477.777"/>
<polygon fill="black" stroke="black" points="1257.61,-481.025 1266.18,-474.791 1255.6,-474.322 1257.61,-481.025"/>
</g>
<!-- Ketrew_long_running -->
<g id="node16" class="node"><title>Ketrew_long_running</title>
<ellipse fill="darkturquoise" stroke="darkturquoise" cx="573" cy="-352" rx="88.417" ry="18"/>
<text text-anchor="middle" x="573" y="-347.8" font-family="Times,serif" font-size="14.00">Ketrew_long_running</text>
</g>
<!-- Ketrew_engine&#45;&gt;Ketrew_long_running -->
<g id="edge36" class="edge"><title>Ketrew_engine&#45;&gt;Ketrew_long_running</title>
<path fill="none" stroke="black" d="M604.23,-658.019C607.448,-640.169 612.167,-611.23 614,-586 619.485,-510.5 595.822,-422.945 582.137,-379.824"/>
<polygon fill="black" stroke="black" points="585.395,-378.526 578.977,-370.096 578.738,-380.688 585.395,-378.526"/>
</g>
<!-- Ketrew_database -->
<g id="node17" class="node"><title>Ketrew_database</title>
<ellipse fill="darkturquoise" stroke="darkturquoise" cx="371" cy="-243" rx="70.9927" ry="18"/>
<text text-anchor="middle" x="371" y="-238.8" font-family="Times,serif" font-size="14.00">Ketrew_database</text>
</g>
<!-- Ketrew_engine&#45;&gt;Ketrew_database -->
<g id="edge42" class="edge"><title>Ketrew_engine&#45;&gt;Ketrew_database</title>
<path fill="none" stroke="black" d="M601.493,-657.818C601.519,-632.743 598.905,-585.275 581,-550 550.417,-489.749 529.944,-479.892 474,-442 406.064,-395.986 349.315,-438.404 304,-370 281.363,-335.828 315.969,-293.199 343.283,-267.316"/>
<polygon fill="black" stroke="black" points="345.734,-269.818 350.741,-260.481 341.004,-264.658 345.734,-269.818"/>
</g>
<!-- Ketrew_error&#45;&gt;Ketrew_pervasives -->
<g id="edge90" class="edge"><title>Ketrew_error&#45;&gt;Ketrew_pervasives</title>
<path fill="none" stroke="black" d="M388.937,-334.625C432.266,-295.356 546.63,-193.42 649,-117 681.985,-92.376 721.474,-66.7616 749.195,-49.3698"/>
<polygon fill="black" stroke="black" points="751.129,-52.2884 757.758,-44.0237 747.422,-46.3505 751.129,-52.2884"/>
</g>
<!-- Ketrew_error&#45;&gt;Ketrew_host -->
<g id="edge91" class="edge"><title>Ketrew_error&#45;&gt;Ketrew_host</title>
<path fill="none" stroke="black" d="M415.107,-340.295C424.309,-338.144 433.96,-335.947 443,-334 588.423,-302.68 760.643,-270.394 848.013,-254.353"/>
<polygon fill="black" stroke="black" points="848.78,-257.77 857.985,-252.525 847.518,-250.885 848.78,-257.77"/>
</g>
<!-- Ketrew_error&#45;&gt;Ketrew_database -->
<g id="edge92" class="edge"><title>Ketrew_error&#45;&gt;Ketrew_database</title>
<path fill="none" stroke="black" d="M371,-333.809C371,-316.961 371,-291.018 371,-271.339"/>
<polygon fill="black" stroke="black" points="374.5,-271.149 371,-261.149 367.5,-271.149 374.5,-271.149"/>
</g>
<!-- Ketrew_error&#45;&gt;Ketrew_unix_process -->
<g id="edge89" class="edge"><title>Ketrew_error&#45;&gt;Ketrew_unix_process</title>
<path fill="none" stroke="black" d="M402.268,-336.727C484.008,-299.415 704.216,-198.895 798.354,-155.923"/>
<polygon fill="black" stroke="black" points="799.953,-159.041 807.596,-151.705 797.046,-152.673 799.953,-159.041"/>
</g>
<!-- Ketrew_plugin&#45;&gt;Ketrew_pervasives -->
<g id="edge62" class="edge"><title>Ketrew_plugin&#45;&gt;Ketrew_pervasives</title>
<path fill="none" stroke="black" d="M503.539,-549.923C494.389,-523.688 473.686,-473.233 441,-442 388.114,-391.465 332.361,-431.656 293,-370 258.319,-315.676 261.349,-282.225 291,-225 366.711,-78.8831 576.624,-40.7566 696.713,-31.0613"/>
<polygon fill="black" stroke="black" points="697.272,-34.5292 706.979,-30.2841 696.743,-27.5491 697.272,-34.5292"/>
</g>
<!-- Ketrew_plugin&#45;&gt;Ketrew_target -->
<g id="edge61" class="edge"><title>Ketrew_plugin&#45;&gt;Ketrew_target</title>
<path fill="none" stroke="black" d="M558.364,-556.74C652.983,-537.074 859.446,-494.162 960.679,-473.122"/>
<polygon fill="black" stroke="black" points="961.65,-476.495 970.728,-471.033 960.225,-469.641 961.65,-476.495"/>
</g>
<!-- Ketrew_plugin&#45;&gt;Ketrew_configuration -->
<g id="edge58" class="edge"><title>Ketrew_plugin&#45;&gt;Ketrew_configuration</title>
<path fill="none" stroke="black" d="M484.654,-551.359C456.466,-533.251 409.851,-503.305 378.074,-482.89"/>
<polygon fill="black" stroke="black" points="379.838,-479.863 369.532,-477.403 376.054,-485.752 379.838,-479.863"/>
</g>
<!-- Ketrew_plugin&#45;&gt;Ketrew_daemonize -->
<g id="edge59" class="edge"><title>Ketrew_plugin&#45;&gt;Ketrew_daemonize</title>
<path fill="none" stroke="black" d="M565.146,-559.588C706.011,-540.994 1074.59,-492.339 1235.26,-471.129"/>
<polygon fill="black" stroke="black" points="1236.09,-474.551 1245.54,-469.773 1235.17,-467.612 1236.09,-474.551"/>
</g>
<!-- Ketrew_plugin&#45;&gt;Ketrew_long_running -->
<g id="edge63" class="edge"><title>Ketrew_plugin&#45;&gt;Ketrew_long_running</title>
<path fill="none" stroke="black" d="M514.129,-549.849C525.247,-512.675 551.635,-424.439 564.979,-379.82"/>
<polygon fill="black" stroke="black" points="568.334,-380.816 567.846,-370.232 561.628,-378.81 568.334,-380.816"/>
</g>
<!-- Ketrew_lsf -->
<g id="node19" class="node"><title>Ketrew_lsf</title>
<ellipse fill="darkturquoise" stroke="darkturquoise" cx="727" cy="-460" rx="49.2946" ry="18"/>
<text text-anchor="middle" x="727" y="-455.8" font-family="Times,serif" font-size="14.00">Ketrew_lsf</text>
</g>
<!-- Ketrew_plugin&#45;&gt;Ketrew_lsf -->
<g id="edge60" class="edge"><title>Ketrew_plugin&#45;&gt;Ketrew_lsf</title>
<path fill="none" stroke="black" d="M539.772,-552.038C579.053,-532.938 646.983,-499.907 689.322,-479.321"/>
<polygon fill="black" stroke="black" points="691.003,-482.395 698.465,-474.875 687.942,-476.1 691.003,-482.395"/>
</g>
<!-- Ketrew_server&#45;&gt;Ketrew_pervasives -->
<g id="edge96" class="edge"><title>Ketrew_server&#45;&gt;Ketrew_pervasives</title>
<path fill="none" stroke="black" d="M270.499,-766.818C215.865,-723.67 76,-599.67 76,-461 76,-461 76,-461 76,-242 76,-177.664 95.5674,-152.833 149,-117 236.95,-58.0189 544.894,-37.5488 697.267,-30.9247"/>
<polygon fill="black" stroke="black" points="697.676,-34.4106 707.519,-30.4897 697.379,-27.4169 697.676,-34.4106"/>
</g>
<!-- Ketrew_server&#45;&gt;Ketrew_engine -->
<g id="edge98" class="edge"><title>Ketrew_server&#45;&gt;Ketrew_engine</title>
<path fill="none" stroke="black" d="M330.51,-769.789C386.716,-750.508 491.185,-714.671 552.541,-693.623"/>
<polygon fill="black" stroke="black" points="553.681,-696.933 562.004,-690.377 551.41,-690.311 553.681,-696.933"/>
</g>
<!-- Ketrew_server&#45;&gt;Ketrew_error -->
<g id="edge97" class="edge"><title>Ketrew_server&#45;&gt;Ketrew_error</title>
<path fill="none" stroke="black" d="M287.125,-765.682C270.32,-704.579 217.419,-499.643 247,-442 263.867,-409.133 299.137,-385.669 327.765,-371.114"/>
<polygon fill="black" stroke="black" points="329.347,-374.236 336.794,-366.7 326.273,-367.947 329.347,-374.236"/>
</g>
<!-- Ketrew_server&#45;&gt;Ketrew_plugin -->
<g id="edge95" class="edge"><title>Ketrew_server&#45;&gt;Ketrew_plugin</title>
<path fill="none" stroke="black" d="M308.667,-766.563C346.851,-728.907 440.772,-636.285 485.101,-592.569"/>
<polygon fill="black" stroke="black" points="487.613,-595.007 492.276,-585.493 482.698,-590.023 487.613,-595.007"/>
</g>
<!-- Ketrew_server&#45;&gt;Ketrew_target -->
<g id="edge94" class="edge"><title>Ketrew_server&#45;&gt;Ketrew_target</title>
<path fill="none" stroke="black" d="M347.439,-775.709C423.294,-764.488 562.706,-739.375 674,-694 759.686,-659.065 775.314,-637.786 852,-586 902.143,-552.139 957.964,-509.236 990.696,-483.514"/>
<polygon fill="black" stroke="black" points="993.211,-485.989 998.898,-477.049 988.878,-480.491 993.211,-485.989"/>
</g>
<!-- Ketrew_server&#45;&gt;Ketrew_configuration -->
<g id="edge99" class="edge"><title>Ketrew_server&#45;&gt;Ketrew_configuration</title>
<path fill="none" stroke="black" d="M294.52,-765.731C300.196,-727.053 314.54,-630.541 328,-550 331.472,-529.227 335.699,-505.784 338.936,-488.175"/>
<polygon fill="black" stroke="black" points="342.433,-488.51 340.808,-478.04 335.55,-487.238 342.433,-488.51"/>
</g>
<!-- Ketrew_target&#45;&gt;Ketrew_artifact -->
<g id="edge69" class="edge"><title>Ketrew_target&#45;&gt;Ketrew_artifact</title>
<path fill="none" stroke="black" d="M1029.93,-441.969C1040.93,-424.816 1058.04,-398.144 1070.66,-378.474"/>
<polygon fill="black" stroke="black" points="1073.65,-380.295 1076.1,-369.988 1067.76,-376.516 1073.65,-380.295"/>
</g>
<!-- Ketrew_target&#45;&gt;Ketrew_pervasives -->
<g id="edge67" class="edge"><title>Ketrew_target&#45;&gt;Ketrew_pervasives</title>
<path fill="none" stroke="black" d="M995.815,-443.188C939.152,-402.896 794.723,-289.82 746,-153 733.937,-119.126 751.387,-79.2698 766.423,-53.831"/>
<polygon fill="black" stroke="black" points="769.51,-55.4944 771.794,-45.1489 763.557,-51.8116 769.51,-55.4944"/>
</g>
<!-- Ketrew_target&#45;&gt;Ketrew_path -->
<g id="edge65" class="edge"><title>Ketrew_target&#45;&gt;Ketrew_path</title>
<path fill="none" stroke="black" d="M1059.27,-446.365C1093.44,-433.263 1140.27,-409.111 1162,-370 1199.07,-303.266 1179.04,-208.46 1165.75,-162.722"/>
<polygon fill="black" stroke="black" points="1169.04,-161.521 1162.8,-152.963 1162.34,-163.548 1169.04,-161.521"/>
</g>
<!-- Ketrew_target&#45;&gt;Ketrew_host -->
<g id="edge68" class="edge"><title>Ketrew_target&#45;&gt;Ketrew_host</title>
<path fill="none" stroke="black" d="M1000.62,-442.705C982.935,-426.07 956.632,-398.685 941,-370 923.777,-338.396 914.093,-297.734 909.207,-271.279"/>
<polygon fill="black" stroke="black" points="912.618,-270.465 907.454,-261.214 905.722,-271.666 912.618,-270.465"/>
</g>
<!-- Ketrew_program -->
<g id="node15" class="node"><title>Ketrew_program</title>
<ellipse fill="darkturquoise" stroke="darkturquoise" cx="1530" cy="-243" rx="70.5254" ry="18"/>
<text text-anchor="middle" x="1530" y="-238.8" font-family="Times,serif" font-size="14.00">Ketrew_program</text>
</g>
<!-- Ketrew_target&#45;&gt;Ketrew_program -->
<g id="edge66" class="edge"><title>Ketrew_target&#45;&gt;Ketrew_program</title>
<path fill="none" stroke="black" d="M1075.56,-453.321C1203.15,-439.939 1504.6,-404.921 1534,-370 1557.1,-342.565 1548.99,-298.622 1540.16,-270.549"/>
<polygon fill="black" stroke="black" points="1543.44,-269.339 1536.93,-260.984 1536.81,-271.578 1543.44,-269.339"/>
</g>
<!-- Ketrew_configuration&#45;&gt;Ketrew_pervasives -->
<g id="edge14" class="edge"><title>Ketrew_configuration&#45;&gt;Ketrew_pervasives</title>
<path fill="none" stroke="black" d="M311.178,-443.188C284.621,-428.383 249.085,-403.514 233,-370 184.346,-268.627 160.104,-202.615 233,-117 291.412,-48.396 555.736,-32.4988 695.977,-28.9351"/>
<polygon fill="black" stroke="black" points="696.353,-32.4272 706.267,-28.6901 696.187,-25.4292 696.353,-32.4272"/>
</g>
<!-- Ketrew_configuration&#45;&gt;Ketrew_host -->
<g id="edge13" class="edge"><title>Ketrew_configuration&#45;&gt;Ketrew_host</title>
<path fill="none" stroke="black" d="M361.802,-442.142C397.832,-408.022 476,-334 476,-334 594.662,-271.833 752.975,-252.607 840.304,-246.661"/>
<polygon fill="black" stroke="black" points="840.582,-250.151 850.336,-246.016 840.132,-243.165 840.582,-250.151"/>
</g>
<!-- Ketrew_daemonize&#45;&gt;Ketrew_pervasives -->
<g id="edge18" class="edge"><title>Ketrew_daemonize&#45;&gt;Ketrew_pervasives</title>
<path fill="none" stroke="black" d="M1387.17,-454.558C1449.33,-446.782 1535.34,-425.846 1586,-370 1629.89,-321.618 1640.57,-282.725 1610,-225 1570.02,-149.507 1530.81,-147.466 1451,-117 1345.91,-76.8838 1021.49,-46.7592 867.186,-34.2948"/>
<polygon fill="black" stroke="black" points="867.072,-30.7744 856.824,-33.4636 866.512,-37.752 867.072,-30.7744"/>
</g>
<!-- Ketrew_daemonize&#45;&gt;Ketrew_path -->
<g id="edge17" class="edge"><title>Ketrew_daemonize&#45;&gt;Ketrew_path</title>
<path fill="none" stroke="black" d="M1303.88,-442.089C1278.47,-389.122 1200.27,-226.162 1169.56,-162.177"/>
<polygon fill="black" stroke="black" points="1172.7,-160.635 1165.22,-153.133 1166.39,-163.663 1172.7,-160.635"/>
</g>
<!-- Ketrew_daemonize&#45;&gt;Ketrew_host -->
<g id="edge21" class="edge"><title>Ketrew_daemonize&#45;&gt;Ketrew_host</title>
<path fill="none" stroke="black" d="M1295.95,-442.199C1270.01,-415.88 1216.26,-364.764 1162,-334 1096.32,-296.761 1012.57,-270.958 958.853,-256.815"/>
<polygon fill="black" stroke="black" points="959.412,-253.345 948.854,-254.226 957.658,-260.121 959.412,-253.345"/>
</g>
<!-- Ketrew_daemonize&#45;&gt;Ketrew_error -->
<g id="edge15" class="edge"><title>Ketrew_daemonize&#45;&gt;Ketrew_error</title>
<path fill="none" stroke="black" d="M1239.71,-452.641C1094.63,-439.583 757.734,-407.775 476,-370 461.129,-368.006 445.121,-365.565 430.195,-363.162"/>
<polygon fill="black" stroke="black" points="430.495,-359.665 420.062,-361.511 429.369,-366.574 430.495,-359.665"/>
</g>
<!-- Ketrew_monitored_script -->
<g id="node14" class="node"><title>Ketrew_monitored_script</title>
<ellipse fill="darkturquoise" stroke="darkturquoise" cx="1424" cy="-352" rx="100.945" ry="18"/>
<text text-anchor="middle" x="1424" y="-347.8" font-family="Times,serif" font-size="14.00">Ketrew_monitored_script</text>
</g>
<!-- Ketrew_daemonize&#45;&gt;Ketrew_monitored_script -->
<g id="edge16" class="edge"><title>Ketrew_daemonize&#45;&gt;Ketrew_monitored_script</title>
<path fill="none" stroke="black" d="M1329.5,-442.438C1348.13,-424.805 1377.78,-396.745 1398.9,-376.76"/>
<polygon fill="black" stroke="black" points="1401.4,-379.212 1406.25,-369.796 1396.58,-374.128 1401.4,-379.212"/>
</g>
<!-- Ketrew_daemonize&#45;&gt;Ketrew_program -->
<g id="edge19" class="edge"><title>Ketrew_daemonize&#45;&gt;Ketrew_program</title>
<path fill="none" stroke="black" d="M1388.11,-455.094C1447.6,-447.557 1526.75,-426.677 1567,-370 1588.58,-339.605 1567.5,-296.633 1549.45,-269.551"/>
<polygon fill="black" stroke="black" points="1552.1,-267.226 1543.51,-261.018 1546.35,-271.225 1552.1,-267.226"/>
</g>
<!-- Ketrew_daemonize&#45;&gt;Ketrew_long_running -->
<g id="edge20" class="edge"><title>Ketrew_daemonize&#45;&gt;Ketrew_long_running</title>
<path fill="none" stroke="black" d="M1247.07,-449.686C1111.89,-430.297 800.623,-385.65 653.207,-364.505"/>
<polygon fill="black" stroke="black" points="653.277,-360.979 642.881,-363.024 652.283,-367.908 653.277,-360.979"/>
</g>
<!-- Ketrew_monitored_script&#45;&gt;Ketrew_pervasives -->
<g id="edge55" class="edge"><title>Ketrew_monitored_script&#45;&gt;Ketrew_pervasives</title>
<path fill="none" stroke="black" d="M1415.54,-334.056C1392.05,-289.128 1321.22,-166.979 1222,-117 1108.78,-59.9666 961.683,-39.481 870.059,-32.1232"/>
<polygon fill="black" stroke="black" points="870.233,-28.6263 859.994,-31.3499 869.696,-35.6057 870.233,-28.6263"/>
</g>
<!-- Ketrew_monitored_script&#45;&gt;Ketrew_path -->
<g id="edge56" class="edge"><title>Ketrew_monitored_script&#45;&gt;Ketrew_path</title>
<path fill="none" stroke="black" d="M1411.23,-334.002C1391.35,-308.288 1350.9,-258.908 1309,-225 1273.73,-196.461 1228.3,-171.11 1196.32,-154.837"/>
<polygon fill="black" stroke="black" points="1197.77,-151.65 1187.26,-150.288 1194.63,-157.905 1197.77,-151.65"/>
</g>
<!-- Ketrew_monitored_script&#45;&gt;Ketrew_program -->
<g id="edge54" class="edge"><title>Ketrew_monitored_script&#45;&gt;Ketrew_program</title>
<path fill="none" stroke="black" d="M1441.03,-333.809C1458.67,-315.998 1486.39,-288.024 1506.19,-268.03"/>
<polygon fill="black" stroke="black" points="1508.81,-270.363 1513.36,-260.796 1503.84,-265.437 1508.81,-270.363"/>
</g>
<!-- Ketrew_program&#45;&gt;Ketrew_pervasives -->
<g id="edge64" class="edge"><title>Ketrew_program&#45;&gt;Ketrew_pervasives</title>
<path fill="none" stroke="black" d="M1519.42,-224.795C1501.25,-196.937 1461.3,-142.509 1412,-117 1318.97,-68.8616 1017.36,-43.1181 868.579,-33.0702"/>
<polygon fill="black" stroke="black" points="868.781,-29.576 858.57,-32.4024 868.315,-36.5604 868.781,-29.576"/>
</g>
<!-- Ketrew_long_running&#45;&gt;Ketrew_pervasives -->
<g id="edge93" class="edge"><title>Ketrew_long_running&#45;&gt;Ketrew_pervasives</title>
<path fill="none" stroke="black" d="M577.4,-333.983C588.521,-293.308 620.792,-188.52 675,-117 695.503,-89.949 725.857,-66.0455 749.33,-49.841"/>
<polygon fill="black" stroke="black" points="751.31,-52.7271 757.636,-44.2277 747.391,-46.9274 751.31,-52.7271"/>
</g>
<!-- Ketrew_database&#45;&gt;Ketrew_pervasives -->
<g id="edge22" class="edge"><title>Ketrew_database&#45;&gt;Ketrew_pervasives</title>
<path fill="none" stroke="black" d="M382.758,-225.214C402.367,-198.446 444.328,-146.146 492,-117 560.102,-75.3632 649.144,-51.9128 710.913,-39.6615"/>
<polygon fill="black" stroke="black" points="711.813,-43.0524 720.967,-37.7183 710.485,-36.1796 711.813,-43.0524"/>
</g>
<!-- Ketrew_edsl -->
<g id="node18" class="node"><title>Ketrew_edsl</title>
<ellipse fill="darkturquoise" stroke="darkturquoise" cx="1253" cy="-892" rx="54.599" ry="18"/>
<text text-anchor="middle" x="1253" y="-887.8" font-family="Times,serif" font-size="14.00">Ketrew_edsl</text>
</g>
<!-- Ketrew_edsl&#45;&gt;Ketrew_artifact -->
<g id="edge33" class="edge"><title>Ketrew_edsl&#45;&gt;Ketrew_artifact</title>
<path fill="none" stroke="black" d="M1251.41,-873.778C1245.16,-812.162 1218.73,-598.05 1141,-442 1129.95,-419.821 1115.25,-395.871 1103.98,-378.409"/>
<polygon fill="black" stroke="black" points="1106.83,-376.373 1098.43,-369.912 1100.96,-380.199 1106.83,-376.373"/>
</g>
<!-- Ketrew_edsl&#45;&gt;Ketrew_pervasives -->
<g id="edge30" class="edge"><title>Ketrew_edsl&#45;&gt;Ketrew_pervasives</title>
<path fill="none" stroke="black" d="M1301.26,-883.439C1438.13,-860.644 1819,-787.306 1819,-677 1819,-677 1819,-677 1819,-459 1819,-268.063 1732.64,-196.407 1559,-117 1438.01,-61.6728 1046.29,-38.8487 870.628,-31.2249"/>
<polygon fill="black" stroke="black" points="870.532,-27.7177 860.391,-30.7872 870.233,-34.7113 870.532,-27.7177"/>
</g>
<!-- Ketrew_edsl&#45;&gt;Ketrew_path -->
<g id="edge27" class="edge"><title>Ketrew_edsl&#45;&gt;Ketrew_path</title>
<path fill="none" stroke="black" d="M1293.55,-879.733C1417.19,-842.657 1781,-712.216 1781,-461 1781,-461 1781,-461 1781,-351 1781,-256.597 1696.41,-263.02 1610,-225 1479.67,-167.654 1312.07,-147.039 1221.7,-139.792"/>
<polygon fill="black" stroke="black" points="1221.84,-136.293 1211.6,-139.012 1221.3,-143.272 1221.84,-136.293"/>
</g>
<!-- Ketrew_edsl&#45;&gt;Ketrew_host -->
<g id="edge31" class="edge"><title>Ketrew_edsl&#45;&gt;Ketrew_host</title>
<path fill="none" stroke="black" d="M1267.78,-874.428C1320.45,-813.272 1491.11,-595.855 1400,-442 1352.74,-362.197 1076.11,-285.997 958.203,-256.666"/>
<polygon fill="black" stroke="black" points="958.854,-253.222 948.307,-254.222 957.176,-260.017 958.854,-253.222"/>
</g>
<!-- Ketrew_edsl&#45;&gt;Ketrew_client -->
<g id="edge23" class="edge"><title>Ketrew_edsl&#45;&gt;Ketrew_client</title>
<path fill="none" stroke="black" d="M1206.53,-882.235C1104.93,-863.072 863.128,-817.465 750.557,-796.233"/>
<polygon fill="black" stroke="black" points="751.201,-792.793 740.725,-794.379 749.903,-799.672 751.201,-792.793"/>
</g>
<!-- Ketrew_edsl&#45;&gt;Ketrew_error -->
<g id="edge25" class="edge"><title>Ketrew_edsl&#45;&gt;Ketrew_error</title>
<path fill="none" stroke="black" d="M1227.06,-876.041C1197,-858.606 1146.08,-828.764 1103,-802 853.569,-647.049 803.835,-587.891 549,-442 502.896,-415.606 447.961,-388.811 411.435,-371.618"/>
<polygon fill="black" stroke="black" points="412.644,-368.32 402.104,-367.246 409.674,-374.658 412.644,-368.32"/>
</g>
<!-- Ketrew_edsl&#45;&gt;Ketrew_target -->
<g id="edge28" class="edge"><title>Ketrew_edsl&#45;&gt;Ketrew_target</title>
<path fill="none" stroke="black" d="M1248.28,-873.894C1233.43,-821.96 1184.12,-662.775 1108,-550 1090.99,-524.802 1066.18,-500.706 1047.08,-483.957"/>
<polygon fill="black" stroke="black" points="1049.14,-481.115 1039.28,-477.247 1044.58,-486.421 1049.14,-481.115"/>
</g>
<!-- Ketrew_edsl&#45;&gt;Ketrew_configuration -->
<g id="edge32" class="edge"><title>Ketrew_edsl&#45;&gt;Ketrew_configuration</title>
<path fill="none" stroke="black" d="M1197.81,-891.293C1085.58,-890.17 824.221,-878.727 622,-802 486.276,-750.503 440.632,-716.475 377,-586 361.522,-554.262 352.604,-514.324 348.03,-488.252"/>
<polygon fill="black" stroke="black" points="351.472,-487.614 346.381,-478.322 344.567,-488.761 351.472,-487.614"/>
</g>
<!-- Ketrew_edsl&#45;&gt;Ketrew_daemonize -->
<g id="edge24" class="edge"><title>Ketrew_edsl&#45;&gt;Ketrew_daemonize</title>
<path fill="none" stroke="black" d="M1255.35,-873.878C1264.42,-807.804 1297.17,-569.085 1308.28,-488.096"/>
<polygon fill="black" stroke="black" points="1311.75,-488.554 1309.64,-478.171 1304.82,-487.602 1311.75,-488.554"/>
</g>
<!-- Ketrew_edsl&#45;&gt;Ketrew_program -->
<g id="edge29" class="edge"><title>Ketrew_edsl&#45;&gt;Ketrew_program</title>
<path fill="none" stroke="black" d="M1279.7,-876.093C1306.14,-860.327 1346.54,-833.415 1374,-802 1441.76,-724.476 1559.32,-488.987 1586,-370 1589.5,-354.388 1590.4,-349.384 1586,-334 1579.15,-310.042 1563.89,-286.25 1551.02,-269.151"/>
<polygon fill="black" stroke="black" points="1553.47,-266.599 1544.56,-260.854 1547.94,-270.897 1553.47,-266.599"/>
</g>
<!-- Ketrew_edsl&#45;&gt;Ketrew_lsf -->
<g id="edge26" class="edge"><title>Ketrew_edsl&#45;&gt;Ketrew_lsf</title>
<path fill="none" stroke="black" d="M1233.93,-874.787C1175.73,-825.386 995.018,-672.631 842,-550 812.875,-526.658 779.035,-500.593 755.64,-482.736"/>
<polygon fill="black" stroke="black" points="757.596,-479.826 747.521,-476.548 753.353,-485.393 757.596,-479.826"/>
</g>
<!-- Ketrew_lsf&#45;&gt;Ketrew_pervasives -->
<g id="edge50" class="edge"><title>Ketrew_lsf&#45;&gt;Ketrew_pervasives</title>
<path fill="none" stroke="black" d="M722.015,-441.983C707.948,-390.939 671.577,-235.346 713,-117 721.89,-91.6001 741.406,-68.0441 757.731,-51.5548"/>
<polygon fill="black" stroke="black" points="760.25,-53.9865 764.958,-44.4947 755.359,-48.9794 760.25,-53.9865"/>
</g>
<!-- Ketrew_lsf&#45;&gt;Ketrew_path -->
<g id="edge49" class="edge"><title>Ketrew_lsf&#45;&gt;Ketrew_path</title>
<path fill="none" stroke="black" d="M729.61,-441.803C737.358,-397.324 764.65,-278.259 841,-225 917.588,-171.575 1025.58,-150.08 1093.4,-141.527"/>
<polygon fill="black" stroke="black" points="1094.01,-144.979 1103.52,-140.309 1093.17,-138.029 1094.01,-144.979"/>
</g>
<!-- Ketrew_lsf&#45;&gt;Ketrew_host -->
<g id="edge53" class="edge"><title>Ketrew_lsf&#45;&gt;Ketrew_host</title>
<path fill="none" stroke="black" d="M732.698,-441.838C741.739,-416.371 761.236,-367.936 789,-334 812.101,-305.764 845.629,-280.969 870.705,-264.593"/>
<polygon fill="black" stroke="black" points="872.657,-267.499 879.192,-259.16 868.882,-261.604 872.657,-267.499"/>
</g>
<!-- Ketrew_lsf&#45;&gt;Ketrew_error -->
<g id="edge47" class="edge"><title>Ketrew_lsf&#45;&gt;Ketrew_error</title>
<path fill="none" stroke="black" d="M689.909,-447.956C625.616,-428.813 493.433,-389.455 421.067,-367.907"/>
<polygon fill="black" stroke="black" points="421.849,-364.489 411.266,-364.989 419.851,-371.197 421.849,-364.489"/>
</g>
<!-- Ketrew_lsf&#45;&gt;Ketrew_monitored_script -->
<g id="edge48" class="edge"><title>Ketrew_lsf&#45;&gt;Ketrew_monitored_script</title>
<path fill="none" stroke="black" d="M771.661,-452.208C886.061,-434.81 1191.07,-388.424 1339.93,-365.786"/>
<polygon fill="black" stroke="black" points="1340.58,-369.227 1349.94,-364.263 1339.53,-362.307 1340.58,-369.227"/>
</g>
<!-- Ketrew_lsf&#45;&gt;Ketrew_program -->
<g id="edge51" class="edge"><title>Ketrew_lsf&#45;&gt;Ketrew_program</title>
<path fill="none" stroke="black" d="M753.68,-444.675C803.178,-418.701 913.193,-363.774 1012,-334 1165.78,-287.661 1352.88,-262.504 1454.85,-251.303"/>
<polygon fill="black" stroke="black" points="1455.48,-254.755 1465.05,-250.198 1454.73,-247.796 1455.48,-254.755"/>
</g>
<!-- Ketrew_lsf&#45;&gt;Ketrew_long_running -->
<g id="edge52" class="edge"><title>Ketrew_lsf&#45;&gt;Ketrew_long_running</title>
<path fill="none" stroke="black" d="M704.936,-443.813C678.82,-425.837 635.113,-395.753 605.215,-375.174"/>
<polygon fill="black" stroke="black" points="607.016,-372.165 596.795,-369.378 603.048,-377.931 607.016,-372.165"/>
</g>
<!-- Ketrew_unix_process&#45;&gt;Ketrew_pervasives -->
<g id="edge70" class="edge"><title>Ketrew_unix_process&#45;&gt;Ketrew_pervasives</title>
<path fill="none" stroke="black" d="M832.681,-116.969C823.38,-99.9702 808.964,-73.6239 798.23,-54.0074"/>
<polygon fill="black" stroke="black" points="801.166,-52.081 793.296,-44.9885 795.025,-55.4412 801.166,-52.081"/>
</g>
<!-- Ketrew -->
<g id="node21" class="node"><title>Ketrew</title>
<ellipse fill="darkturquoise" stroke="darkturquoise" cx="1211" cy="-1000" rx="36.2645" ry="18"/>
<text text-anchor="middle" x="1211" y="-995.8" font-family="Times,serif" font-size="14.00">Ketrew</text>
</g>
<!-- Ketrew&#45;&gt;Ketrew_artifact -->
<g id="edge82" class="edge"><title>Ketrew&#45;&gt;Ketrew_artifact</title>
<path fill="none" stroke="black" d="M1235.78,-986.618C1261.53,-972.198 1300.35,-945.718 1317,-910 1323.76,-895.498 1319.5,-889.804 1317,-874 1285.19,-672.663 1267.59,-616.953 1163,-442 1148.53,-417.803 1127.42,-393.691 1111.12,-376.68"/>
<polygon fill="black" stroke="black" points="1113.5,-374.104 1104.01,-369.389 1108.49,-378.991 1113.5,-374.104"/>
</g>
<!-- Ketrew&#45;&gt;Ketrew_pervasives -->
<g id="edge73" class="edge"><title>Ketrew&#45;&gt;Ketrew_pervasives</title>
<path fill="none" stroke="black" d="M1247.21,-998.959C1335.12,-997.598 1565.21,-986.401 1737,-910 1818.81,-873.614 1895,-874.541 1895,-785 1895,-785 1895,-785 1895,-242 1895,-102.871 1742.48,-152.657 1608,-117 1346.45,-47.6523 1024.52,-32.1624 872.052,-28.8251"/>
<polygon fill="black" stroke="black" points="871.884,-25.321 861.814,-28.6138 871.739,-32.3195 871.884,-25.321"/>
</g>
<!-- Ketrew&#45;&gt;Ketrew_path -->
<g id="edge74" class="edge"><title>Ketrew&#45;&gt;Ketrew_path</title>
<path fill="none" stroke="black" d="M1246.19,-995.151C1381,-979.449 1857,-914.813 1857,-785 1857,-785 1857,-785 1857,-459 1857,-181.29 1397.15,-141.566 1222.88,-136.483"/>
<polygon fill="black" stroke="black" points="1222.89,-132.983 1212.81,-136.219 1222.71,-139.98 1222.89,-132.983"/>
</g>
<!-- Ketrew&#45;&gt;Ketrew_host -->
<g id="edge75" class="edge"><title>Ketrew&#45;&gt;Ketrew_host</title>
<path fill="none" stroke="black" d="M1205.47,-982.014C1194.28,-946.076 1170,-859.522 1170,-785 1170,-785 1170,-785 1170,-675 1170,-565.365 1151.17,-532.305 1089,-442 1062.43,-403.408 1044.33,-403.912 1012,-370 979.837,-336.261 945.415,-294.614 924.547,-268.675"/>
<polygon fill="black" stroke="black" points="927.251,-266.453 918.268,-260.835 921.787,-270.829 927.251,-266.453"/>
</g>
<!-- Ketrew&#45;&gt;Ketrew_command_line -->
<g id="edge81" class="edge"><title>Ketrew&#45;&gt;Ketrew_command_line</title>
<path fill="none" stroke="black" d="M1176.54,-994.185C1082.29,-980.992 812.289,-943.042 588,-910 577.826,-908.501 567.136,-906.905 556.564,-905.315"/>
<polygon fill="black" stroke="black" points="556.896,-901.825 546.486,-903.795 555.852,-908.747 556.896,-901.825"/>
</g>
<!-- Ketrew&#45;&gt;Ketrew_engine -->
<g id="edge77" class="edge"><title>Ketrew&#45;&gt;Ketrew_engine</title>
<path fill="none" stroke="black" d="M1174.66,-998.868C1070.5,-996.368 768.946,-973.92 622,-802 598.901,-774.976 596.593,-732.278 598.034,-704.452"/>
<polygon fill="black" stroke="black" points="601.543,-704.453 598.766,-694.228 594.561,-703.953 601.543,-704.453"/>
</g>
<!-- Ketrew&#45;&gt;Ketrew_error -->
<g id="edge76" class="edge"><title>Ketrew&#45;&gt;Ketrew_error</title>
<path fill="none" stroke="black" d="M1175.13,-997.244C1024.8,-989.632 445.093,-957.713 269,-910 141.755,-875.523 0,-916.833 0,-785 0,-785 0,-785 0,-675 0,-506.004 222.274,-405.707 322.729,-369.007"/>
<polygon fill="black" stroke="black" points="324.119,-372.227 332.346,-365.553 321.752,-365.64 324.119,-372.227"/>
</g>
<!-- Ketrew&#45;&gt;Ketrew_target -->
<g id="edge71" class="edge"><title>Ketrew&#45;&gt;Ketrew_target</title>
<path fill="none" stroke="black" d="M1199.11,-982.657C1186.93,-965.328 1168.13,-936.809 1156,-910 1086.82,-757.089 1040.29,-559.648 1024.73,-488.262"/>
<polygon fill="black" stroke="black" points="1028.11,-487.326 1022.58,-478.288 1021.27,-488.801 1028.11,-487.326"/>
</g>
<!-- Ketrew&#45;&gt;Ketrew_configuration -->
<g id="edge80" class="edge"><title>Ketrew&#45;&gt;Ketrew_configuration</title>
<path fill="none" stroke="black" d="M1175.01,-997.323C1034.89,-990.464 525.967,-962.393 374,-910 288.308,-880.456 246.057,-880.65 201,-802 144.521,-703.413 177.698,-642.267 244,-550 262.798,-523.841 290.554,-499.919 312.057,-483.48"/>
<polygon fill="black" stroke="black" points="314.348,-486.137 320.255,-477.341 310.152,-480.534 314.348,-486.137"/>
</g>
<!-- Ketrew&#45;&gt;Ketrew_daemonize -->
<g id="edge79" class="edge"><title>Ketrew&#45;&gt;Ketrew_daemonize</title>
<path fill="none" stroke="black" d="M1246.06,-995.478C1332,-984.731 1552.72,-943.868 1643,-802 1733.38,-659.967 1469.38,-527.707 1358.52,-479.88"/>
<polygon fill="black" stroke="black" points="1359.8,-476.621 1349.23,-475.915 1357.05,-483.059 1359.8,-476.621"/>
</g>
<!-- Ketrew&#45;&gt;Ketrew_program -->
<g id="edge72" class="edge"><title>Ketrew&#45;&gt;Ketrew_program</title>
<path fill="none" stroke="black" d="M1244.68,-993.06C1361.63,-971.493 1743,-892.891 1743,-785 1743,-785 1743,-785 1743,-459 1743,-363.294 1635.17,-294.935 1572.95,-263.46"/>
<polygon fill="black" stroke="black" points="1574.27,-260.205 1563.75,-258.905 1571.16,-266.479 1574.27,-260.205"/>
</g>
<!-- Ketrew&#45;&gt;Ketrew_edsl -->
<g id="edge78" class="edge"><title>Ketrew&#45;&gt;Ketrew_edsl</title>
<path fill="none" stroke="black" d="M1217.75,-981.969C1224.42,-965.125 1234.73,-939.102 1242.48,-919.544"/>
<polygon fill="black" stroke="black" points="1245.84,-920.575 1246.27,-909.988 1239.33,-917.996 1245.84,-920.575"/>
</g>
</g>
</svg>
